  0
SECTION
  2
HEADER
  9
$ANGBASE
  50
0.0
  9
$ANGDIR
  70
1
  9
$MEASUREMENT
  70
1
  0
ENDSEC
  0
SECTION
  2
TABLES
  0
TABLE
  2
LTYPE
  70
4
  0
LTYPE
  5
40F
  2
CONTINUOUS
  70
0
  3
Solid line
  72
65
  73
0
  40
0.0
  0
LTYPE
  5
410
  2
DASHDOT
 70
0
  3
Dash Dot ____ _ ____ _
 72
65
 73
4
 40
2.0
 49
1.25
 49
-0.25
 49
0.25
 49
-0.25
  0
LTYPE
  5
411
  2
DASHED
 70
0
  3
Dashed __ __ __ __ __
 72
65
 73
2
 40
0.75
 49
0.5
 49
-0.25
  0
LTYPE
  5
43B
  2
DOTTED
 70
0
  3
Dotted .  .  .  .
 72
65
 73
2
 40
0.2
 49
0.0
 49
-0.2
  0
ENDTAB
  0
TABLE
  2
STYLE
  70
4
  0
STYLE
  2
KICAD
  70
0
  40
0
  41
1
  42
1
  50
0
  71
0
  3
isocp.shx
  0
STYLE
  2
KICADB
  70
0
  40
0
  41
1
  42
1
  50
0
  71
0
  3
isocp.shx
  0
STYLE
  2
KICADI
  70
0
  40
0
  41
1
  42
1
  50
15
  71
0
  3
isocp.shx
  0
STYLE
  2
KICADBI
  70
0
  40
0
  41
1
  42
1
  50
15
  71
0
  3
isocp.shx
  0
ENDTAB
  0
TABLE
  2
LAYER
  70
1
  0
LAYER
  2
BLACK
  70
0
  62
7
  6
CONTINUOUS
  0
ENDTAB
  0
ENDSEC
  0
SECTION
  2
ENTITIES
0
LINE
8
BLACK
6
CONTINUOUS
10
174.0118439999999964
20
-96.7382690000000025
11
174.0897059999999783
21
-96.7902939999999887
0
LINE
8
BLACK
6
CONTINUOUS
10
174.0897059999999783
20
-96.7902939999999887
11
174.1417309999999929
21
-96.868155999999999
0
LINE
8
BLACK
6
CONTINUOUS
10
174.1417309999999929
20
-96.868155999999999
11
174.1599999999999966
21
-96.9599999999999937
0
LINE
8
BLACK
6
CONTINUOUS
10
174.1599999999999966
20
-96.9599999999999937
11
174.1599999999999966
21
-97.6799999999999926
0
LINE
8
BLACK
6
CONTINUOUS
10
174.1599999999999966
20
-97.6799999999999926
11
174.1417309999999929
21
-97.7718440000000015
0
LINE
8
BLACK
6
CONTINUOUS
10
174.1417309999999929
20
-97.7718440000000015
11
174.0897059999999783
21
-97.8497059999999976
0
LINE
8
BLACK
6
CONTINUOUS
10
174.0897059999999783
20
-97.8497059999999976
11
174.0118439999999964
21
-97.9017309999999981
0
LINE
8
BLACK
6
CONTINUOUS
10
174.0118439999999964
20
-97.9017309999999981
11
173.9199999999999875
21
-97.9200000000000017
0
LINE
8
BLACK
6
CONTINUOUS
10
173.9199999999999875
20
-97.9200000000000017
11
171.9000000000000057
21
-97.9200000000000017
0
LINE
8
BLACK
6
CONTINUOUS
10
171.9000000000000057
20
-97.9200000000000017
11
171.8081559999999968
21
-97.9017309999999981
0
LINE
8
BLACK
6
CONTINUOUS
10
171.8081559999999968
20
-97.9017309999999981
11
171.7302939999999865
21
-97.8497059999999976
0
LINE
8
BLACK
6
CONTINUOUS
10
171.7302939999999865
20
-97.8497059999999976
11
171.6782690000000002
21
-97.7718440000000015
0
LINE
8
BLACK
6
CONTINUOUS
10
171.6782690000000002
20
-97.7718440000000015
11
171.6599999999999966
21
-97.6799999999999926
0
LINE
8
BLACK
6
CONTINUOUS
10
171.6599999999999966
20
-97.6799999999999926
11
171.6599999999999966
21
-96.9599999999999937
0
LINE
8
BLACK
6
CONTINUOUS
10
171.6599999999999966
20
-96.9599999999999937
11
171.6782690000000002
21
-96.868155999999999
0
LINE
8
BLACK
6
CONTINUOUS
10
171.6782690000000002
20
-96.868155999999999
11
171.7302939999999865
21
-96.7902939999999887
0
LINE
8
BLACK
6
CONTINUOUS
10
171.7302939999999865
20
-96.7902939999999887
11
171.8081559999999968
21
-96.7382690000000025
0
LINE
8
BLACK
6
CONTINUOUS
10
171.8081559999999968
20
-96.7382690000000025
11
171.9000000000000057
21
-96.7199999999999989
0
LINE
8
BLACK
6
CONTINUOUS
10
171.9000000000000057
20
-96.7199999999999989
11
173.9199999999999875
21
-96.7199999999999989
0
LINE
8
BLACK
6
CONTINUOUS
10
173.9199999999999875
20
-96.7199999999999989
11
174.0118439999999964
21
-96.7382690000000025
0
LINE
8
BLACK
6
CONTINUOUS
10
204.6599999999999966
20
-97.4649999999999892
11
203.6599999999999966
21
-97.4649999999999892
0
LINE
8
BLACK
6
CONTINUOUS
10
203.6599999999999966
20
-97.4649999999999892
11
203.6599999999999966
21
-89.164999999999992
0
LINE
8
BLACK
6
CONTINUOUS
10
203.6599999999999966
20
-89.164999999999992
11
204.6599999999999966
21
-89.164999999999992
0
LINE
8
BLACK
6
CONTINUOUS
10
204.6599999999999966
20
-89.164999999999992
11
204.6599999999999966
21
-97.4649999999999892
0
LINE
8
BLACK
6
CONTINUOUS
10
207.1999999999999886
20
-97.4649999999999892
11
206.1999999999999886
21
-97.4649999999999892
0
LINE
8
BLACK
6
CONTINUOUS
10
206.1999999999999886
20
-97.4649999999999892
11
206.1999999999999886
21
-89.164999999999992
0
LINE
8
BLACK
6
CONTINUOUS
10
206.1999999999999886
20
-89.164999999999992
11
207.1999999999999886
21
-89.164999999999992
0
LINE
8
BLACK
6
CONTINUOUS
10
207.1999999999999886
20
-89.164999999999992
11
207.1999999999999886
21
-97.4649999999999892
0
LINE
8
BLACK
6
CONTINUOUS
10
209.7599999999999909
20
-97.4649999999999892
11
208.7599999999999909
21
-97.4649999999999892
0
LINE
8
BLACK
6
CONTINUOUS
10
208.7599999999999909
20
-97.4649999999999892
11
208.7599999999999909
21
-89.164999999999992
0
LINE
8
BLACK
6
CONTINUOUS
10
208.7599999999999909
20
-89.164999999999992
11
209.7599999999999909
21
-89.164999999999992
0
LINE
8
BLACK
6
CONTINUOUS
10
209.7599999999999909
20
-89.164999999999992
11
209.7599999999999909
21
-97.4649999999999892
0
LINE
8
BLACK
6
CONTINUOUS
10
212.2800000000000011
20
-97.4649999999999892
11
211.2800000000000011
21
-97.4649999999999892
0
LINE
8
BLACK
6
CONTINUOUS
10
211.2800000000000011
20
-97.4649999999999892
11
211.2800000000000011
21
-89.164999999999992
0
LINE
8
BLACK
6
CONTINUOUS
10
211.2800000000000011
20
-89.164999999999992
11
212.2800000000000011
21
-89.164999999999992
0
LINE
8
BLACK
6
CONTINUOUS
10
212.2800000000000011
20
-89.164999999999992
11
212.2800000000000011
21
-97.4649999999999892
0
LINE
8
BLACK
6
CONTINUOUS
10
214.7999999999999829
20
-97.4649999999999892
11
213.7999999999999829
21
-97.4649999999999892
0
LINE
8
BLACK
6
CONTINUOUS
10
213.7999999999999829
20
-97.4649999999999892
11
213.7999999999999829
21
-89.164999999999992
0
LINE
8
BLACK
6
CONTINUOUS
10
213.7999999999999829
20
-89.164999999999992
11
214.7999999999999829
21
-89.164999999999992
0
LINE
8
BLACK
6
CONTINUOUS
10
214.7999999999999829
20
-89.164999999999992
11
214.7999999999999829
21
-97.4649999999999892
0
LINE
8
BLACK
6
CONTINUOUS
10
217.3599999999999852
20
-97.4649999999999892
11
216.3599999999999852
21
-97.4649999999999892
0
LINE
8
BLACK
6
CONTINUOUS
10
216.3599999999999852
20
-97.4649999999999892
11
216.3599999999999852
21
-89.164999999999992
0
LINE
8
BLACK
6
CONTINUOUS
10
216.3599999999999852
20
-89.164999999999992
11
217.3599999999999852
21
-89.164999999999992
0
LINE
8
BLACK
6
CONTINUOUS
10
217.3599999999999852
20
-89.164999999999992
11
217.3599999999999852
21
-97.4649999999999892
0
LINE
8
BLACK
6
CONTINUOUS
10
219.8899999999999864
20
-97.4649999999999892
11
218.8899999999999864
21
-97.4649999999999892
0
LINE
8
BLACK
6
CONTINUOUS
10
218.8899999999999864
20
-97.4649999999999892
11
218.8899999999999864
21
-89.164999999999992
0
LINE
8
BLACK
6
CONTINUOUS
10
218.8899999999999864
20
-89.164999999999992
11
219.8899999999999864
21
-89.164999999999992
0
LINE
8
BLACK
6
CONTINUOUS
10
219.8899999999999864
20
-89.164999999999992
11
219.8899999999999864
21
-97.4649999999999892
0
LINE
8
BLACK
6
CONTINUOUS
10
222.4299999999999784
20
-97.4649999999999892
11
221.4299999999999784
21
-97.4649999999999892
0
LINE
8
BLACK
6
CONTINUOUS
10
221.4299999999999784
20
-97.4649999999999892
11
221.4299999999999784
21
-89.164999999999992
0
LINE
8
BLACK
6
CONTINUOUS
10
221.4299999999999784
20
-89.164999999999992
11
222.4299999999999784
21
-89.164999999999992
0
LINE
8
BLACK
6
CONTINUOUS
10
222.4299999999999784
20
-89.164999999999992
11
222.4299999999999784
21
-97.4649999999999892
0
LINE
8
BLACK
6
CONTINUOUS
10
224.9899999999999807
20
-97.4649999999999892
11
223.9899999999999807
21
-97.4649999999999892
0
LINE
8
BLACK
6
CONTINUOUS
10
223.9899999999999807
20
-97.4649999999999892
11
223.9899999999999807
21
-89.164999999999992
0
LINE
8
BLACK
6
CONTINUOUS
10
223.9899999999999807
20
-89.164999999999992
11
224.9899999999999807
21
-89.164999999999992
0
LINE
8
BLACK
6
CONTINUOUS
10
224.9899999999999807
20
-89.164999999999992
11
224.9899999999999807
21
-97.4649999999999892
0
LINE
8
BLACK
6
CONTINUOUS
10
227.5099999999999909
20
-97.4649999999999892
11
226.5099999999999909
21
-97.4649999999999892
0
LINE
8
BLACK
6
CONTINUOUS
10
226.5099999999999909
20
-97.4649999999999892
11
226.5099999999999909
21
-89.164999999999992
0
LINE
8
BLACK
6
CONTINUOUS
10
226.5099999999999909
20
-89.164999999999992
11
227.5099999999999909
21
-89.164999999999992
0
LINE
8
BLACK
6
CONTINUOUS
10
227.5099999999999909
20
-89.164999999999992
11
227.5099999999999909
21
-97.4649999999999892
0
LINE
8
BLACK
6
CONTINUOUS
10
230.0300000000000011
20
-97.4649999999999892
11
229.0300000000000011
21
-97.4649999999999892
0
LINE
8
BLACK
6
CONTINUOUS
10
229.0300000000000011
20
-97.4649999999999892
11
229.0300000000000011
21
-89.164999999999992
0
LINE
8
BLACK
6
CONTINUOUS
10
229.0300000000000011
20
-89.164999999999992
11
230.0300000000000011
21
-89.164999999999992
0
LINE
8
BLACK
6
CONTINUOUS
10
230.0300000000000011
20
-89.164999999999992
11
230.0300000000000011
21
-97.4649999999999892
0
LINE
8
BLACK
6
CONTINUOUS
10
232.5900000000000034
20
-97.4649999999999892
11
231.5900000000000034
21
-97.4649999999999892
0
LINE
8
BLACK
6
CONTINUOUS
10
231.5900000000000034
20
-97.4649999999999892
11
231.5900000000000034
21
-89.164999999999992
0
LINE
8
BLACK
6
CONTINUOUS
10
231.5900000000000034
20
-89.164999999999992
11
232.5900000000000034
21
-89.164999999999992
0
LINE
8
BLACK
6
CONTINUOUS
10
232.5900000000000034
20
-89.164999999999992
11
232.5900000000000034
21
-97.4649999999999892
0
LINE
8
BLACK
6
CONTINUOUS
10
170.3322079999999801
20
-95.9042539999999946
11
170.4339429999999993
21
-95.9629910000000024
0
LINE
8
BLACK
6
CONTINUOUS
10
170.4339429999999993
20
-95.9629910000000024
11
170.5170090000000016
21
-96.0460569999999905
0
LINE
8
BLACK
6
CONTINUOUS
10
170.5170090000000016
20
-96.0460569999999905
11
170.575745999999981
21
-96.1477919999999955
0
LINE
8
BLACK
6
CONTINUOUS
10
170.575745999999981
20
-96.1477919999999955
11
170.6061499999999853
21
-96.2612629999999996
0
LINE
8
BLACK
6
CONTINUOUS
10
170.6061499999999853
20
-96.2612629999999996
11
170.6061499999999853
21
-96.378737000000001
0
LINE
8
BLACK
6
CONTINUOUS
10
170.6061499999999853
20
-96.378737000000001
11
170.575745999999981
21
-96.4922079999999909
0
LINE
8
BLACK
6
CONTINUOUS
10
170.575745999999981
20
-96.4922079999999909
11
170.5170090000000016
21
-96.5939429999999959
0
LINE
8
BLACK
6
CONTINUOUS
10
170.5170090000000016
20
-96.5939429999999959
11
170.4339429999999993
21
-96.6770089999999982
0
LINE
8
BLACK
6
CONTINUOUS
10
170.4339429999999993
20
-96.6770089999999982
11
170.3322079999999801
21
-96.7357459999999918
0
LINE
8
BLACK
6
CONTINUOUS
10
170.3322079999999801
20
-96.7357459999999918
11
170.2187370000000044
21
-96.7661499999999961
0
LINE
8
BLACK
6
CONTINUOUS
10
170.2187370000000044
20
-96.7661499999999961
11
170.1012629999999888
21
-96.7661499999999961
0
LINE
8
BLACK
6
CONTINUOUS
10
170.1012629999999888
20
-96.7661499999999961
11
169.9877919999999847
21
-96.7357459999999918
0
LINE
8
BLACK
6
CONTINUOUS
10
169.9877919999999847
20
-96.7357459999999918
11
169.8860569999999939
21
-96.6770089999999982
0
LINE
8
BLACK
6
CONTINUOUS
10
169.8860569999999939
20
-96.6770089999999982
11
169.8029909999999916
21
-96.5939429999999959
0
LINE
8
BLACK
6
CONTINUOUS
10
169.8029909999999916
20
-96.5939429999999959
11
169.7442539999999838
21
-96.4922079999999909
0
LINE
8
BLACK
6
CONTINUOUS
10
169.7442539999999838
20
-96.4922079999999909
11
169.7138499999999794
21
-96.378737000000001
0
LINE
8
BLACK
6
CONTINUOUS
10
169.7138499999999794
20
-96.378737000000001
11
169.7138499999999794
21
-96.2612629999999996
0
LINE
8
BLACK
6
CONTINUOUS
10
169.7138499999999794
20
-96.2612629999999996
11
169.7442539999999838
21
-96.1477919999999955
0
LINE
8
BLACK
6
CONTINUOUS
10
169.7442539999999838
20
-96.1477919999999955
11
169.8029909999999916
21
-96.0460569999999905
0
LINE
8
BLACK
6
CONTINUOUS
10
169.8029909999999916
20
-96.0460569999999905
11
169.8860569999999939
21
-95.9629910000000024
0
LINE
8
BLACK
6
CONTINUOUS
10
169.8860569999999939
20
-95.9629910000000024
11
169.9877919999999847
21
-95.9042539999999946
0
LINE
8
BLACK
6
CONTINUOUS
10
169.9877919999999847
20
-95.9042539999999946
11
170.1012629999999888
21
-95.8738499999999902
0
LINE
8
BLACK
6
CONTINUOUS
10
170.1012629999999888
20
-95.8738499999999902
11
170.2187370000000044
21
-95.8738499999999902
0
LINE
8
BLACK
6
CONTINUOUS
10
170.2187370000000044
20
-95.8738499999999902
11
170.3322079999999801
21
-95.9042539999999946
0
LINE
8
BLACK
6
CONTINUOUS
10
174.0118439999999964
20
-94.2382690000000025
11
174.0897059999999783
21
-94.2902939999999887
0
LINE
8
BLACK
6
CONTINUOUS
10
174.0897059999999783
20
-94.2902939999999887
11
174.1417309999999929
21
-94.368155999999999
0
LINE
8
BLACK
6
CONTINUOUS
10
174.1417309999999929
20
-94.368155999999999
11
174.1599999999999966
21
-94.4599999999999937
0
LINE
8
BLACK
6
CONTINUOUS
10
174.1599999999999966
20
-94.4599999999999937
11
174.1599999999999966
21
-95.1799999999999926
0
LINE
8
BLACK
6
CONTINUOUS
10
174.1599999999999966
20
-95.1799999999999926
11
174.1417309999999929
21
-95.2718440000000015
0
LINE
8
BLACK
6
CONTINUOUS
10
174.1417309999999929
20
-95.2718440000000015
11
174.0897059999999783
21
-95.3497059999999976
0
LINE
8
BLACK
6
CONTINUOUS
10
174.0897059999999783
20
-95.3497059999999976
11
174.0118439999999964
21
-95.4017309999999981
0
LINE
8
BLACK
6
CONTINUOUS
10
174.0118439999999964
20
-95.4017309999999981
11
173.9199999999999875
21
-95.4200000000000017
0
LINE
8
BLACK
6
CONTINUOUS
10
173.9199999999999875
20
-95.4200000000000017
11
171.9000000000000057
21
-95.4200000000000017
0
LINE
8
BLACK
6
CONTINUOUS
10
171.9000000000000057
20
-95.4200000000000017
11
171.8081559999999968
21
-95.4017309999999981
0
LINE
8
BLACK
6
CONTINUOUS
10
171.8081559999999968
20
-95.4017309999999981
11
171.7302939999999865
21
-95.3497059999999976
0
LINE
8
BLACK
6
CONTINUOUS
10
171.7302939999999865
20
-95.3497059999999976
11
171.6782690000000002
21
-95.2718440000000015
0
LINE
8
BLACK
6
CONTINUOUS
10
171.6782690000000002
20
-95.2718440000000015
11
171.6599999999999966
21
-95.1799999999999926
0
LINE
8
BLACK
6
CONTINUOUS
10
171.6599999999999966
20
-95.1799999999999926
11
171.6599999999999966
21
-94.4599999999999937
0
LINE
8
BLACK
6
CONTINUOUS
10
171.6599999999999966
20
-94.4599999999999937
11
171.6782690000000002
21
-94.368155999999999
0
LINE
8
BLACK
6
CONTINUOUS
10
171.6782690000000002
20
-94.368155999999999
11
171.7302939999999865
21
-94.2902939999999887
0
LINE
8
BLACK
6
CONTINUOUS
10
171.7302939999999865
20
-94.2902939999999887
11
171.8081559999999968
21
-94.2382690000000025
0
LINE
8
BLACK
6
CONTINUOUS
10
171.8081559999999968
20
-94.2382690000000025
11
171.9000000000000057
21
-94.2199999999999989
0
LINE
8
BLACK
6
CONTINUOUS
10
171.9000000000000057
20
-94.2199999999999989
11
173.9199999999999875
21
-94.2199999999999989
0
LINE
8
BLACK
6
CONTINUOUS
10
173.9199999999999875
20
-94.2199999999999989
11
174.0118439999999964
21
-94.2382690000000025
0
LINE
8
BLACK
6
CONTINUOUS
10
170.3322079999999801
20
-92.9042539999999946
11
170.4339429999999993
21
-92.9629910000000024
0
LINE
8
BLACK
6
CONTINUOUS
10
170.4339429999999993
20
-92.9629910000000024
11
170.5170090000000016
21
-93.0460569999999905
0
LINE
8
BLACK
6
CONTINUOUS
10
170.5170090000000016
20
-93.0460569999999905
11
170.575745999999981
21
-93.1477919999999955
0
LINE
8
BLACK
6
CONTINUOUS
10
170.575745999999981
20
-93.1477919999999955
11
170.6061499999999853
21
-93.2612629999999996
0
LINE
8
BLACK
6
CONTINUOUS
10
170.6061499999999853
20
-93.2612629999999996
11
170.6061499999999853
21
-93.378737000000001
0
LINE
8
BLACK
6
CONTINUOUS
10
170.6061499999999853
20
-93.378737000000001
11
170.575745999999981
21
-93.4922079999999909
0
LINE
8
BLACK
6
CONTINUOUS
10
170.575745999999981
20
-93.4922079999999909
11
170.5170090000000016
21
-93.5939429999999959
0
LINE
8
BLACK
6
CONTINUOUS
10
170.5170090000000016
20
-93.5939429999999959
11
170.4339429999999993
21
-93.6770089999999982
0
LINE
8
BLACK
6
CONTINUOUS
10
170.4339429999999993
20
-93.6770089999999982
11
170.3322079999999801
21
-93.7357459999999918
0
LINE
8
BLACK
6
CONTINUOUS
10
170.3322079999999801
20
-93.7357459999999918
11
170.2187370000000044
21
-93.7661499999999961
0
LINE
8
BLACK
6
CONTINUOUS
10
170.2187370000000044
20
-93.7661499999999961
11
170.1012629999999888
21
-93.7661499999999961
0
LINE
8
BLACK
6
CONTINUOUS
10
170.1012629999999888
20
-93.7661499999999961
11
169.9877919999999847
21
-93.7357459999999918
0
LINE
8
BLACK
6
CONTINUOUS
10
169.9877919999999847
20
-93.7357459999999918
11
169.8860569999999939
21
-93.6770089999999982
0
LINE
8
BLACK
6
CONTINUOUS
10
169.8860569999999939
20
-93.6770089999999982
11
169.8029909999999916
21
-93.5939429999999959
0
LINE
8
BLACK
6
CONTINUOUS
10
169.8029909999999916
20
-93.5939429999999959
11
169.7442539999999838
21
-93.4922079999999909
0
LINE
8
BLACK
6
CONTINUOUS
10
169.7442539999999838
20
-93.4922079999999909
11
169.7138499999999794
21
-93.378737000000001
0
LINE
8
BLACK
6
CONTINUOUS
10
169.7138499999999794
20
-93.378737000000001
11
169.7138499999999794
21
-93.2612629999999996
0
LINE
8
BLACK
6
CONTINUOUS
10
169.7138499999999794
20
-93.2612629999999996
11
169.7442539999999838
21
-93.1477919999999955
0
LINE
8
BLACK
6
CONTINUOUS
10
169.7442539999999838
20
-93.1477919999999955
11
169.8029909999999916
21
-93.0460569999999905
0
LINE
8
BLACK
6
CONTINUOUS
10
169.8029909999999916
20
-93.0460569999999905
11
169.8860569999999939
21
-92.9629910000000024
0
LINE
8
BLACK
6
CONTINUOUS
10
169.8860569999999939
20
-92.9629910000000024
11
169.9877919999999847
21
-92.9042539999999946
0
LINE
8
BLACK
6
CONTINUOUS
10
169.9877919999999847
20
-92.9042539999999946
11
170.1012629999999888
21
-92.8738499999999902
0
LINE
8
BLACK
6
CONTINUOUS
10
170.1012629999999888
20
-92.8738499999999902
11
170.2187370000000044
21
-92.8738499999999902
0
LINE
8
BLACK
6
CONTINUOUS
10
170.2187370000000044
20
-92.8738499999999902
11
170.3322079999999801
21
-92.9042539999999946
0
LINE
8
BLACK
6
CONTINUOUS
10
174.0118439999999964
20
-91.7382690000000025
11
174.0897059999999783
21
-91.7902940000000029
0
LINE
8
BLACK
6
CONTINUOUS
10
174.0897059999999783
20
-91.7902940000000029
11
174.1417309999999929
21
-91.868155999999999
0
LINE
8
BLACK
6
CONTINUOUS
10
174.1417309999999929
20
-91.868155999999999
11
174.1599999999999966
21
-91.9599999999999937
0
LINE
8
BLACK
6
CONTINUOUS
10
174.1599999999999966
20
-91.9599999999999937
11
174.1599999999999966
21
-92.6799999999999926
0
LINE
8
BLACK
6
CONTINUOUS
10
174.1599999999999966
20
-92.6799999999999926
11
174.1417309999999929
21
-92.7718440000000015
0
LINE
8
BLACK
6
CONTINUOUS
10
174.1417309999999929
20
-92.7718440000000015
11
174.0897059999999783
21
-92.8497059999999976
0
LINE
8
BLACK
6
CONTINUOUS
10
174.0897059999999783
20
-92.8497059999999976
11
174.0118439999999964
21
-92.9017309999999981
0
LINE
8
BLACK
6
CONTINUOUS
10
174.0118439999999964
20
-92.9017309999999981
11
173.9199999999999875
21
-92.9200000000000017
0
LINE
8
BLACK
6
CONTINUOUS
10
173.9199999999999875
20
-92.9200000000000017
11
171.9000000000000057
21
-92.9200000000000017
0
LINE
8
BLACK
6
CONTINUOUS
10
171.9000000000000057
20
-92.9200000000000017
11
171.8081559999999968
21
-92.9017309999999981
0
LINE
8
BLACK
6
CONTINUOUS
10
171.8081559999999968
20
-92.9017309999999981
11
171.7302939999999865
21
-92.8497059999999976
0
LINE
8
BLACK
6
CONTINUOUS
10
171.7302939999999865
20
-92.8497059999999976
11
171.6782690000000002
21
-92.7718440000000015
0
LINE
8
BLACK
6
CONTINUOUS
10
171.6782690000000002
20
-92.7718440000000015
11
171.6599999999999966
21
-92.6799999999999926
0
LINE
8
BLACK
6
CONTINUOUS
10
171.6599999999999966
20
-92.6799999999999926
11
171.6599999999999966
21
-91.9599999999999937
0
LINE
8
BLACK
6
CONTINUOUS
10
171.6599999999999966
20
-91.9599999999999937
11
171.6782690000000002
21
-91.868155999999999
0
LINE
8
BLACK
6
CONTINUOUS
10
171.6782690000000002
20
-91.868155999999999
11
171.7302939999999865
21
-91.7902940000000029
0
LINE
8
BLACK
6
CONTINUOUS
10
171.7302939999999865
20
-91.7902940000000029
11
171.8081559999999968
21
-91.7382690000000025
0
LINE
8
BLACK
6
CONTINUOUS
10
171.8081559999999968
20
-91.7382690000000025
11
171.9000000000000057
21
-91.7199999999999989
0
LINE
8
BLACK
6
CONTINUOUS
10
171.9000000000000057
20
-91.7199999999999989
11
173.9199999999999875
21
-91.7199999999999989
0
LINE
8
BLACK
6
CONTINUOUS
10
173.9199999999999875
20
-91.7199999999999989
11
174.0118439999999964
21
-91.7382690000000025
0
LINE
8
BLACK
6
CONTINUOUS
10
175.7024999999999864
20
-88.5649999999999977
11
173.1924999999999955
21
-88.5649999999999977
0
LINE
8
BLACK
6
CONTINUOUS
10
173.1924999999999955
20
-88.5649999999999977
11
173.1924999999999955
21
-87.5649999999999977
0
LINE
8
BLACK
6
CONTINUOUS
10
173.1924999999999955
20
-87.5649999999999977
11
175.7024999999999864
21
-87.5649999999999977
0
LINE
8
BLACK
6
CONTINUOUS
10
175.7024999999999864
20
-87.5649999999999977
11
175.7024999999999864
21
-88.5649999999999977
0
LINE
8
BLACK
6
CONTINUOUS
10
226.9556709999999953
20
-86.0990299999999991
11
227.0367770000000007
21
-86.153222999999997
0
LINE
8
BLACK
6
CONTINUOUS
10
227.0367770000000007
20
-86.153222999999997
11
227.0909699999999987
21
-86.2343290000000025
0
LINE
8
BLACK
6
CONTINUOUS
10
227.0909699999999987
20
-86.2343290000000025
11
227.1099999999999852
21
-86.3299999999999983
0
LINE
8
BLACK
6
CONTINUOUS
10
227.1099999999999852
20
-86.3299999999999983
11
227.1099999999999852
21
-86.8299999999999983
0
LINE
8
BLACK
6
CONTINUOUS
10
227.1099999999999852
20
-86.8299999999999983
11
227.0909699999999987
21
-86.9256709999999941
0
LINE
8
BLACK
6
CONTINUOUS
10
227.0909699999999987
20
-86.9256709999999941
11
227.0367770000000007
21
-87.0067769999999996
0
LINE
8
BLACK
6
CONTINUOUS
10
227.0367770000000007
20
-87.0067769999999996
11
226.9556709999999953
21
-87.0609699999999975
0
LINE
8
BLACK
6
CONTINUOUS
10
226.9556709999999953
20
-87.0609699999999975
11
226.8599999999999852
21
-87.0799999999999983
0
LINE
8
BLACK
6
CONTINUOUS
10
226.8599999999999852
20
-87.0799999999999983
11
224.6599999999999966
21
-87.0799999999999983
0
LINE
8
BLACK
6
CONTINUOUS
10
224.6599999999999966
20
-87.0799999999999983
11
224.5643289999999865
21
-87.0609699999999975
0
LINE
8
BLACK
6
CONTINUOUS
10
224.5643289999999865
20
-87.0609699999999975
11
224.4832229999999811
21
-87.0067769999999996
0
LINE
8
BLACK
6
CONTINUOUS
10
224.4832229999999811
20
-87.0067769999999996
11
224.4290299999999831
21
-86.9256709999999941
0
LINE
8
BLACK
6
CONTINUOUS
10
224.4290299999999831
20
-86.9256709999999941
11
224.4099999999999966
21
-86.8299999999999983
0
LINE
8
BLACK
6
CONTINUOUS
10
224.4099999999999966
20
-86.8299999999999983
11
224.4099999999999966
21
-86.3299999999999983
0
LINE
8
BLACK
6
CONTINUOUS
10
224.4099999999999966
20
-86.3299999999999983
11
224.4290299999999831
21
-86.2343290000000025
0
LINE
8
BLACK
6
CONTINUOUS
10
224.4290299999999831
20
-86.2343290000000025
11
224.4832229999999811
21
-86.153222999999997
0
LINE
8
BLACK
6
CONTINUOUS
10
224.4832229999999811
20
-86.153222999999997
11
224.5643289999999865
21
-86.0990299999999991
0
LINE
8
BLACK
6
CONTINUOUS
10
224.5643289999999865
20
-86.0990299999999991
11
224.6599999999999966
21
-86.0799999999999983
0
LINE
8
BLACK
6
CONTINUOUS
10
224.6599999999999966
20
-86.0799999999999983
11
226.8599999999999852
21
-86.0799999999999983
0
LINE
8
BLACK
6
CONTINUOUS
10
226.8599999999999852
20
-86.0799999999999983
11
226.9556709999999953
21
-86.0990299999999991
0
LINE
8
BLACK
6
CONTINUOUS
10
179.0124999999999886
20
-86.0249999999999915
11
176.5024999999999977
21
-86.0249999999999915
0
LINE
8
BLACK
6
CONTINUOUS
10
176.5024999999999977
20
-86.0249999999999915
11
176.5024999999999977
21
-85.0249999999999915
0
LINE
8
BLACK
6
CONTINUOUS
10
176.5024999999999977
20
-85.0249999999999915
11
179.0124999999999886
21
-85.0249999999999915
0
LINE
8
BLACK
6
CONTINUOUS
10
179.0124999999999886
20
-85.0249999999999915
11
179.0124999999999886
21
-86.0249999999999915
0
LINE
8
BLACK
6
CONTINUOUS
10
229.7174029999999902
20
-84.4414179999999988
11
229.766065999999995
21
-84.4739339999999999
0
LINE
8
BLACK
6
CONTINUOUS
10
229.766065999999995
20
-84.4739339999999999
11
229.7985819999999819
21
-84.5225969999999904
0
LINE
8
BLACK
6
CONTINUOUS
10
229.7985819999999819
20
-84.5225969999999904
11
229.8100000000000023
21
-84.5799999999999983
0
LINE
8
BLACK
6
CONTINUOUS
10
229.8100000000000023
20
-84.5799999999999983
11
229.8100000000000023
21
-84.8799999999999955
0
LINE
8
BLACK
6
CONTINUOUS
10
229.8100000000000023
20
-84.8799999999999955
11
229.7985819999999819
21
-84.9374029999999891
0
LINE
8
BLACK
6
CONTINUOUS
10
229.7985819999999819
20
-84.9374029999999891
11
229.766065999999995
21
-84.9860659999999939
0
LINE
8
BLACK
6
CONTINUOUS
10
229.766065999999995
20
-84.9860659999999939
11
229.7174029999999902
21
-85.018581999999995
0
LINE
8
BLACK
6
CONTINUOUS
10
229.7174029999999902
20
-85.018581999999995
11
229.6599999999999966
21
-85.0300000000000011
0
LINE
8
BLACK
6
CONTINUOUS
10
229.6599999999999966
20
-85.0300000000000011
11
228.2599999999999909
21
-85.0300000000000011
0
LINE
8
BLACK
6
CONTINUOUS
10
228.2599999999999909
20
-85.0300000000000011
11
228.2025969999999973
21
-85.018581999999995
0
LINE
8
BLACK
6
CONTINUOUS
10
228.2025969999999973
20
-85.018581999999995
11
228.1539339999999925
21
-84.9860659999999939
0
LINE
8
BLACK
6
CONTINUOUS
10
228.1539339999999925
20
-84.9860659999999939
11
228.1214179999999772
21
-84.9374029999999891
0
LINE
8
BLACK
6
CONTINUOUS
10
228.1214179999999772
20
-84.9374029999999891
11
228.1099999999999852
21
-84.8799999999999955
0
LINE
8
BLACK
6
CONTINUOUS
10
228.1099999999999852
20
-84.8799999999999955
11
228.1099999999999852
21
-84.5799999999999983
0
LINE
8
BLACK
6
CONTINUOUS
10
228.1099999999999852
20
-84.5799999999999983
11
228.1214179999999772
21
-84.5225969999999904
0
LINE
8
BLACK
6
CONTINUOUS
10
228.1214179999999772
20
-84.5225969999999904
11
228.1539339999999925
21
-84.4739339999999999
0
LINE
8
BLACK
6
CONTINUOUS
10
228.1539339999999925
20
-84.4739339999999999
11
228.2025969999999973
21
-84.4414179999999988
0
LINE
8
BLACK
6
CONTINUOUS
10
228.2025969999999973
20
-84.4414179999999988
11
228.2599999999999909
21
-84.4299999999999926
0
LINE
8
BLACK
6
CONTINUOUS
10
228.2599999999999909
20
-84.4299999999999926
11
229.6599999999999966
21
-84.4299999999999926
0
LINE
8
BLACK
6
CONTINUOUS
10
229.6599999999999966
20
-84.4299999999999926
11
229.7174029999999902
21
-84.4414179999999988
0
LINE
8
BLACK
6
CONTINUOUS
10
229.7174029999999902
20
-83.1914179999999988
11
229.766065999999995
21
-83.2239339999999999
0
LINE
8
BLACK
6
CONTINUOUS
10
229.766065999999995
20
-83.2239339999999999
11
229.7985819999999819
21
-83.2725969999999904
0
LINE
8
BLACK
6
CONTINUOUS
10
229.7985819999999819
20
-83.2725969999999904
11
229.8100000000000023
21
-83.3299999999999983
0
LINE
8
BLACK
6
CONTINUOUS
10
229.8100000000000023
20
-83.3299999999999983
11
229.8100000000000023
21
-83.6299999999999955
0
LINE
8
BLACK
6
CONTINUOUS
10
229.8100000000000023
20
-83.6299999999999955
11
229.7985819999999819
21
-83.6874030000000033
0
LINE
8
BLACK
6
CONTINUOUS
10
229.7985819999999819
20
-83.6874030000000033
11
229.766065999999995
21
-83.7360659999999939
0
LINE
8
BLACK
6
CONTINUOUS
10
229.766065999999995
20
-83.7360659999999939
11
229.7174029999999902
21
-83.768581999999995
0
LINE
8
BLACK
6
CONTINUOUS
10
229.7174029999999902
20
-83.768581999999995
11
229.6599999999999966
21
-83.7800000000000011
0
LINE
8
BLACK
6
CONTINUOUS
10
229.6599999999999966
20
-83.7800000000000011
11
228.2599999999999909
21
-83.7800000000000011
0
LINE
8
BLACK
6
CONTINUOUS
10
228.2599999999999909
20
-83.7800000000000011
11
228.2025969999999973
21
-83.768581999999995
0
LINE
8
BLACK
6
CONTINUOUS
10
228.2025969999999973
20
-83.768581999999995
11
228.1539339999999925
21
-83.7360659999999939
0
LINE
8
BLACK
6
CONTINUOUS
10
228.1539339999999925
20
-83.7360659999999939
11
228.1214179999999772
21
-83.6874030000000033
0
LINE
8
BLACK
6
CONTINUOUS
10
228.1214179999999772
20
-83.6874030000000033
11
228.1099999999999852
21
-83.6299999999999955
0
LINE
8
BLACK
6
CONTINUOUS
10
228.1099999999999852
20
-83.6299999999999955
11
228.1099999999999852
21
-83.3299999999999983
0
LINE
8
BLACK
6
CONTINUOUS
10
228.1099999999999852
20
-83.3299999999999983
11
228.1214179999999772
21
-83.2725969999999904
0
LINE
8
BLACK
6
CONTINUOUS
10
228.1214179999999772
20
-83.2725969999999904
11
228.1539339999999925
21
-83.2239339999999999
0
LINE
8
BLACK
6
CONTINUOUS
10
228.1539339999999925
20
-83.2239339999999999
11
228.2025969999999973
21
-83.1914179999999988
0
LINE
8
BLACK
6
CONTINUOUS
10
228.2025969999999973
20
-83.1914179999999988
11
228.2599999999999909
21
-83.1799999999999926
0
LINE
8
BLACK
6
CONTINUOUS
10
228.2599999999999909
20
-83.1799999999999926
11
229.6599999999999966
21
-83.1799999999999926
0
LINE
8
BLACK
6
CONTINUOUS
10
229.6599999999999966
20
-83.1799999999999926
11
229.7174029999999902
21
-83.1914179999999988
0
LINE
8
BLACK
6
CONTINUOUS
10
175.7024999999999864
20
-83.4849999999999994
11
173.1924999999999955
21
-83.4849999999999994
0
LINE
8
BLACK
6
CONTINUOUS
10
173.1924999999999955
20
-83.4849999999999994
11
173.1924999999999955
21
-82.4849999999999994
0
LINE
8
BLACK
6
CONTINUOUS
10
173.1924999999999955
20
-82.4849999999999994
11
175.7024999999999864
21
-82.4849999999999994
0
LINE
8
BLACK
6
CONTINUOUS
10
175.7024999999999864
20
-82.4849999999999994
11
175.7024999999999864
21
-83.4849999999999994
0
LINE
8
BLACK
6
CONTINUOUS
10
226.9556709999999953
20
-81.1490299999999962
11
227.0367770000000007
21
-81.2032229999999942
0
LINE
8
BLACK
6
CONTINUOUS
10
227.0367770000000007
20
-81.2032229999999942
11
227.0909699999999987
21
-81.2843289999999996
0
LINE
8
BLACK
6
CONTINUOUS
10
227.0909699999999987
20
-81.2843289999999996
11
227.1099999999999852
21
-81.3799999999999955
0
LINE
8
BLACK
6
CONTINUOUS
10
227.1099999999999852
20
-81.3799999999999955
11
227.1099999999999852
21
-81.8799999999999955
0
LINE
8
BLACK
6
CONTINUOUS
10
227.1099999999999852
20
-81.8799999999999955
11
227.0909699999999987
21
-81.9756709999999913
0
LINE
8
BLACK
6
CONTINUOUS
10
227.0909699999999987
20
-81.9756709999999913
11
227.0367770000000007
21
-82.0567769999999967
0
LINE
8
BLACK
6
CONTINUOUS
10
227.0367770000000007
20
-82.0567769999999967
11
226.9556709999999953
21
-82.1109699999999947
0
LINE
8
BLACK
6
CONTINUOUS
10
226.9556709999999953
20
-82.1109699999999947
11
226.8599999999999852
21
-82.1299999999999955
0
LINE
8
BLACK
6
CONTINUOUS
10
226.8599999999999852
20
-82.1299999999999955
11
224.6599999999999966
21
-82.1299999999999955
0
LINE
8
BLACK
6
CONTINUOUS
10
224.6599999999999966
20
-82.1299999999999955
11
224.5643289999999865
21
-82.1109699999999947
0
LINE
8
BLACK
6
CONTINUOUS
10
224.5643289999999865
20
-82.1109699999999947
11
224.4832229999999811
21
-82.0567769999999967
0
LINE
8
BLACK
6
CONTINUOUS
10
224.4832229999999811
20
-82.0567769999999967
11
224.4290299999999831
21
-81.9756709999999913
0
LINE
8
BLACK
6
CONTINUOUS
10
224.4290299999999831
20
-81.9756709999999913
11
224.4099999999999966
21
-81.8799999999999955
0
LINE
8
BLACK
6
CONTINUOUS
10
224.4099999999999966
20
-81.8799999999999955
11
224.4099999999999966
21
-81.3799999999999955
0
LINE
8
BLACK
6
CONTINUOUS
10
224.4099999999999966
20
-81.3799999999999955
11
224.4290299999999831
21
-81.2843289999999996
0
LINE
8
BLACK
6
CONTINUOUS
10
224.4290299999999831
20
-81.2843289999999996
11
224.4832229999999811
21
-81.2032229999999942
0
LINE
8
BLACK
6
CONTINUOUS
10
224.4832229999999811
20
-81.2032229999999942
11
224.5643289999999865
21
-81.1490299999999962
0
LINE
8
BLACK
6
CONTINUOUS
10
224.5643289999999865
20
-81.1490299999999962
11
224.6599999999999966
21
-81.1299999999999955
0
LINE
8
BLACK
6
CONTINUOUS
10
224.6599999999999966
20
-81.1299999999999955
11
226.8599999999999852
21
-81.1299999999999955
0
LINE
8
BLACK
6
CONTINUOUS
10
226.8599999999999852
20
-81.1299999999999955
11
226.9556709999999953
21
-81.1490299999999962
0
LINE
8
BLACK
6
CONTINUOUS
10
179.0124999999999886
20
-80.9449999999999932
11
176.5024999999999977
21
-80.9449999999999932
0
LINE
8
BLACK
6
CONTINUOUS
10
176.5024999999999977
20
-80.9449999999999932
11
176.5024999999999977
21
-79.9449999999999932
0
LINE
8
BLACK
6
CONTINUOUS
10
176.5024999999999977
20
-79.9449999999999932
11
179.0124999999999886
21
-79.9449999999999932
0
LINE
8
BLACK
6
CONTINUOUS
10
179.0124999999999886
20
-79.9449999999999932
11
179.0124999999999886
21
-80.9449999999999932
0
LINE
8
BLACK
6
CONTINUOUS
10
204.6599999999999966
20
-79.6349999999999909
11
203.6599999999999966
21
-79.6349999999999909
0
LINE
8
BLACK
6
CONTINUOUS
10
203.6599999999999966
20
-79.6349999999999909
11
203.6599999999999966
21
-71.3349999999999937
0
LINE
8
BLACK
6
CONTINUOUS
10
203.6599999999999966
20
-71.3349999999999937
11
204.6599999999999966
21
-71.3349999999999937
0
LINE
8
BLACK
6
CONTINUOUS
10
204.6599999999999966
20
-71.3349999999999937
11
204.6599999999999966
21
-79.6349999999999909
0
LINE
8
BLACK
6
CONTINUOUS
10
207.1999999999999886
20
-79.6349999999999909
11
206.1999999999999886
21
-79.6349999999999909
0
LINE
8
BLACK
6
CONTINUOUS
10
206.1999999999999886
20
-79.6349999999999909
11
206.1999999999999886
21
-71.3349999999999937
0
LINE
8
BLACK
6
CONTINUOUS
10
206.1999999999999886
20
-71.3349999999999937
11
207.1999999999999886
21
-71.3349999999999937
0
LINE
8
BLACK
6
CONTINUOUS
10
207.1999999999999886
20
-71.3349999999999937
11
207.1999999999999886
21
-79.6349999999999909
0
LINE
8
BLACK
6
CONTINUOUS
10
209.7599999999999909
20
-79.6349999999999909
11
208.7599999999999909
21
-79.6349999999999909
0
LINE
8
BLACK
6
CONTINUOUS
10
208.7599999999999909
20
-79.6349999999999909
11
208.7599999999999909
21
-71.3349999999999937
0
LINE
8
BLACK
6
CONTINUOUS
10
208.7599999999999909
20
-71.3349999999999937
11
209.7599999999999909
21
-71.3349999999999937
0
LINE
8
BLACK
6
CONTINUOUS
10
209.7599999999999909
20
-71.3349999999999937
11
209.7599999999999909
21
-79.6349999999999909
0
LINE
8
BLACK
6
CONTINUOUS
10
212.2800000000000011
20
-79.6349999999999909
11
211.2800000000000011
21
-79.6349999999999909
0
LINE
8
BLACK
6
CONTINUOUS
10
211.2800000000000011
20
-79.6349999999999909
11
211.2800000000000011
21
-71.3349999999999937
0
LINE
8
BLACK
6
CONTINUOUS
10
211.2800000000000011
20
-71.3349999999999937
11
212.2800000000000011
21
-71.3349999999999937
0
LINE
8
BLACK
6
CONTINUOUS
10
212.2800000000000011
20
-71.3349999999999937
11
212.2800000000000011
21
-79.6349999999999909
0
LINE
8
BLACK
6
CONTINUOUS
10
214.7999999999999829
20
-79.6349999999999909
11
213.7999999999999829
21
-79.6349999999999909
0
LINE
8
BLACK
6
CONTINUOUS
10
213.7999999999999829
20
-79.6349999999999909
11
213.7999999999999829
21
-71.3349999999999937
0
LINE
8
BLACK
6
CONTINUOUS
10
213.7999999999999829
20
-71.3349999999999937
11
214.7999999999999829
21
-71.3349999999999937
0
LINE
8
BLACK
6
CONTINUOUS
10
214.7999999999999829
20
-71.3349999999999937
11
214.7999999999999829
21
-79.6349999999999909
0
LINE
8
BLACK
6
CONTINUOUS
10
217.3599999999999852
20
-79.6349999999999909
11
216.3599999999999852
21
-79.6349999999999909
0
LINE
8
BLACK
6
CONTINUOUS
10
216.3599999999999852
20
-79.6349999999999909
11
216.3599999999999852
21
-71.3349999999999937
0
LINE
8
BLACK
6
CONTINUOUS
10
216.3599999999999852
20
-71.3349999999999937
11
217.3599999999999852
21
-71.3349999999999937
0
LINE
8
BLACK
6
CONTINUOUS
10
217.3599999999999852
20
-71.3349999999999937
11
217.3599999999999852
21
-79.6349999999999909
0
LINE
8
BLACK
6
CONTINUOUS
10
219.8899999999999864
20
-79.6349999999999909
11
218.8899999999999864
21
-79.6349999999999909
0
LINE
8
BLACK
6
CONTINUOUS
10
218.8899999999999864
20
-79.6349999999999909
11
218.8899999999999864
21
-71.3349999999999937
0
LINE
8
BLACK
6
CONTINUOUS
10
218.8899999999999864
20
-71.3349999999999937
11
219.8899999999999864
21
-71.3349999999999937
0
LINE
8
BLACK
6
CONTINUOUS
10
219.8899999999999864
20
-71.3349999999999937
11
219.8899999999999864
21
-79.6349999999999909
0
LINE
8
BLACK
6
CONTINUOUS
10
222.4299999999999784
20
-79.6349999999999909
11
221.4299999999999784
21
-79.6349999999999909
0
LINE
8
BLACK
6
CONTINUOUS
10
221.4299999999999784
20
-79.6349999999999909
11
221.4299999999999784
21
-71.3349999999999937
0
LINE
8
BLACK
6
CONTINUOUS
10
221.4299999999999784
20
-71.3349999999999937
11
222.4299999999999784
21
-71.3349999999999937
0
LINE
8
BLACK
6
CONTINUOUS
10
222.4299999999999784
20
-71.3349999999999937
11
222.4299999999999784
21
-79.6349999999999909
0
LINE
8
BLACK
6
CONTINUOUS
10
224.9899999999999807
20
-79.6349999999999909
11
223.9899999999999807
21
-79.6349999999999909
0
LINE
8
BLACK
6
CONTINUOUS
10
223.9899999999999807
20
-79.6349999999999909
11
223.9899999999999807
21
-71.3349999999999937
0
LINE
8
BLACK
6
CONTINUOUS
10
223.9899999999999807
20
-71.3349999999999937
11
224.9899999999999807
21
-71.3349999999999937
0
LINE
8
BLACK
6
CONTINUOUS
10
224.9899999999999807
20
-71.3349999999999937
11
224.9899999999999807
21
-79.6349999999999909
0
LINE
8
BLACK
6
CONTINUOUS
10
227.5099999999999909
20
-79.6349999999999909
11
226.5099999999999909
21
-79.6349999999999909
0
LINE
8
BLACK
6
CONTINUOUS
10
226.5099999999999909
20
-79.6349999999999909
11
226.5099999999999909
21
-71.3349999999999937
0
LINE
8
BLACK
6
CONTINUOUS
10
226.5099999999999909
20
-71.3349999999999937
11
227.5099999999999909
21
-71.3349999999999937
0
LINE
8
BLACK
6
CONTINUOUS
10
227.5099999999999909
20
-71.3349999999999937
11
227.5099999999999909
21
-79.6349999999999909
0
LINE
8
BLACK
6
CONTINUOUS
10
230.0300000000000011
20
-79.6349999999999909
11
229.0300000000000011
21
-79.6349999999999909
0
LINE
8
BLACK
6
CONTINUOUS
10
229.0300000000000011
20
-79.6349999999999909
11
229.0300000000000011
21
-71.3349999999999937
0
LINE
8
BLACK
6
CONTINUOUS
10
229.0300000000000011
20
-71.3349999999999937
11
230.0300000000000011
21
-71.3349999999999937
0
LINE
8
BLACK
6
CONTINUOUS
10
230.0300000000000011
20
-71.3349999999999937
11
230.0300000000000011
21
-79.6349999999999909
0
LINE
8
BLACK
6
CONTINUOUS
10
232.5900000000000034
20
-79.6349999999999909
11
231.5900000000000034
21
-79.6349999999999909
0
LINE
8
BLACK
6
CONTINUOUS
10
231.5900000000000034
20
-79.6349999999999909
11
231.5900000000000034
21
-71.3349999999999937
0
LINE
8
BLACK
6
CONTINUOUS
10
231.5900000000000034
20
-71.3349999999999937
11
232.5900000000000034
21
-71.3349999999999937
0
LINE
8
BLACK
6
CONTINUOUS
10
232.5900000000000034
20
-71.3349999999999937
11
232.5900000000000034
21
-79.6349999999999909
0
LINE
8
BLACK
6
CONTINUOUS
10
169.7549999999999955
20
-77.6850000000000023
11
168.7549999999999955
21
-77.6850000000000023
0
LINE
8
BLACK
6
CONTINUOUS
10
168.7549999999999955
20
-77.6850000000000023
11
168.7549999999999955
21
-76.1349999999999909
0
LINE
8
BLACK
6
CONTINUOUS
10
168.7549999999999955
20
-76.1349999999999909
11
169.7549999999999955
21
-76.1349999999999909
0
LINE
8
BLACK
6
CONTINUOUS
10
169.7549999999999955
20
-76.1349999999999909
11
169.7549999999999955
21
-77.6850000000000023
0
LINE
8
BLACK
6
CONTINUOUS
10
171.4549999999999841
20
-77.6850000000000023
11
170.4549999999999841
21
-77.6850000000000023
0
LINE
8
BLACK
6
CONTINUOUS
10
170.4549999999999841
20
-77.6850000000000023
11
170.4549999999999841
21
-76.1349999999999909
0
LINE
8
BLACK
6
CONTINUOUS
10
170.4549999999999841
20
-76.1349999999999909
11
171.4549999999999841
21
-76.1349999999999909
0
LINE
8
BLACK
6
CONTINUOUS
10
171.4549999999999841
20
-76.1349999999999909
11
171.4549999999999841
21
-77.6850000000000023
0
LINE
8
BLACK
6
CONTINUOUS
10
168.9022080000000017
20
-73.869253999999998
11
169.0039429999999925
21
-73.9279909999999916
0
LINE
8
BLACK
6
CONTINUOUS
10
169.0039429999999925
20
-73.9279909999999916
11
169.0870089999999948
21
-74.0110569999999939
0
LINE
8
BLACK
6
CONTINUOUS
10
169.0870089999999948
20
-74.0110569999999939
11
169.1457460000000026
21
-74.1127919999999989
0
LINE
8
BLACK
6
CONTINUOUS
10
169.1457460000000026
20
-74.1127919999999989
11
169.1761499999999785
21
-74.226263000000003
0
LINE
8
BLACK
6
CONTINUOUS
10
169.1761499999999785
20
-74.226263000000003
11
169.1761499999999785
21
-74.3437369999999902
0
LINE
8
BLACK
6
CONTINUOUS
10
169.1761499999999785
20
-74.3437369999999902
11
169.1457460000000026
21
-74.4572079999999943
0
LINE
8
BLACK
6
CONTINUOUS
10
169.1457460000000026
20
-74.4572079999999943
11
169.0870089999999948
21
-74.5589429999999993
0
LINE
8
BLACK
6
CONTINUOUS
10
169.0870089999999948
20
-74.5589429999999993
11
169.0039429999999925
21
-74.6420090000000016
0
LINE
8
BLACK
6
CONTINUOUS
10
169.0039429999999925
20
-74.6420090000000016
11
168.9022080000000017
21
-74.7007459999999952
0
LINE
8
BLACK
6
CONTINUOUS
10
168.9022080000000017
20
-74.7007459999999952
11
168.7887369999999976
21
-74.7311499999999995
0
LINE
8
BLACK
6
CONTINUOUS
10
168.7887369999999976
20
-74.7311499999999995
11
168.671262999999982
21
-74.7311499999999995
0
LINE
8
BLACK
6
CONTINUOUS
10
168.671262999999982
20
-74.7311499999999995
11
168.5577920000000063
21
-74.7007459999999952
0
LINE
8
BLACK
6
CONTINUOUS
10
168.5577920000000063
20
-74.7007459999999952
11
168.4560569999999871
21
-74.6420090000000016
0
LINE
8
BLACK
6
CONTINUOUS
10
168.4560569999999871
20
-74.6420090000000016
11
168.3729909999999848
21
-74.5589429999999993
0
LINE
8
BLACK
6
CONTINUOUS
10
168.3729909999999848
20
-74.5589429999999993
11
168.3142540000000054
21
-74.4572079999999943
0
LINE
8
BLACK
6
CONTINUOUS
10
168.3142540000000054
20
-74.4572079999999943
11
168.283850000000001
21
-74.3437369999999902
0
LINE
8
BLACK
6
CONTINUOUS
10
168.283850000000001
20
-74.3437369999999902
11
168.283850000000001
21
-74.226263000000003
0
LINE
8
BLACK
6
CONTINUOUS
10
168.283850000000001
20
-74.226263000000003
11
168.3142540000000054
21
-74.1127919999999989
0
LINE
8
BLACK
6
CONTINUOUS
10
168.3142540000000054
20
-74.1127919999999989
11
168.3729909999999848
21
-74.0110569999999939
0
LINE
8
BLACK
6
CONTINUOUS
10
168.3729909999999848
20
-74.0110569999999939
11
168.4560569999999871
21
-73.9279909999999916
0
LINE
8
BLACK
6
CONTINUOUS
10
168.4560569999999871
20
-73.9279909999999916
11
168.5577920000000063
21
-73.869253999999998
0
LINE
8
BLACK
6
CONTINUOUS
10
168.5577920000000063
20
-73.869253999999998
11
168.671262999999982
21
-73.8388499999999937
0
LINE
8
BLACK
6
CONTINUOUS
10
168.671262999999982
20
-73.8388499999999937
11
168.7887369999999976
21
-73.8388499999999937
0
LINE
8
BLACK
6
CONTINUOUS
10
168.7887369999999976
20
-73.8388499999999937
11
168.9022080000000017
21
-73.869253999999998
0
LINE
8
BLACK
6
CONTINUOUS
10
171.6522080000000017
20
-73.869253999999998
11
171.7539429999999925
21
-73.9279909999999916
0
LINE
8
BLACK
6
CONTINUOUS
10
171.7539429999999925
20
-73.9279909999999916
11
171.8370089999999948
21
-74.0110569999999939
0
LINE
8
BLACK
6
CONTINUOUS
10
171.8370089999999948
20
-74.0110569999999939
11
171.8957460000000026
21
-74.1127919999999989
0
LINE
8
BLACK
6
CONTINUOUS
10
171.8957460000000026
20
-74.1127919999999989
11
171.9261499999999785
21
-74.226263000000003
0
LINE
8
BLACK
6
CONTINUOUS
10
171.9261499999999785
20
-74.226263000000003
11
171.9261499999999785
21
-74.3437369999999902
0
LINE
8
BLACK
6
CONTINUOUS
10
171.9261499999999785
20
-74.3437369999999902
11
171.8957460000000026
21
-74.4572079999999943
0
LINE
8
BLACK
6
CONTINUOUS
10
171.8957460000000026
20
-74.4572079999999943
11
171.8370089999999948
21
-74.5589429999999993
0
LINE
8
BLACK
6
CONTINUOUS
10
171.8370089999999948
20
-74.5589429999999993
11
171.7539429999999925
21
-74.6420090000000016
0
LINE
8
BLACK
6
CONTINUOUS
10
171.7539429999999925
20
-74.6420090000000016
11
171.6522080000000017
21
-74.7007459999999952
0
LINE
8
BLACK
6
CONTINUOUS
10
171.6522080000000017
20
-74.7007459999999952
11
171.5387369999999976
21
-74.7311499999999995
0
LINE
8
BLACK
6
CONTINUOUS
10
171.5387369999999976
20
-74.7311499999999995
11
171.421262999999982
21
-74.7311499999999995
0
LINE
8
BLACK
6
CONTINUOUS
10
171.421262999999982
20
-74.7311499999999995
11
171.3077920000000063
21
-74.7007459999999952
0
LINE
8
BLACK
6
CONTINUOUS
10
171.3077920000000063
20
-74.7007459999999952
11
171.2060569999999871
21
-74.6420090000000016
0
LINE
8
BLACK
6
CONTINUOUS
10
171.2060569999999871
20
-74.6420090000000016
11
171.1229909999999848
21
-74.5589429999999993
0
LINE
8
BLACK
6
CONTINUOUS
10
171.1229909999999848
20
-74.5589429999999993
11
171.0642540000000054
21
-74.4572079999999943
0
LINE
8
BLACK
6
CONTINUOUS
10
171.0642540000000054
20
-74.4572079999999943
11
171.033850000000001
21
-74.3437369999999902
0
LINE
8
BLACK
6
CONTINUOUS
10
171.033850000000001
20
-74.3437369999999902
11
171.033850000000001
21
-74.226263000000003
0
LINE
8
BLACK
6
CONTINUOUS
10
171.033850000000001
20
-74.226263000000003
11
171.0642540000000054
21
-74.1127919999999989
0
LINE
8
BLACK
6
CONTINUOUS
10
171.0642540000000054
20
-74.1127919999999989
11
171.1229909999999848
21
-74.0110569999999939
0
LINE
8
BLACK
6
CONTINUOUS
10
171.1229909999999848
20
-74.0110569999999939
11
171.2060569999999871
21
-73.9279909999999916
0
LINE
8
BLACK
6
CONTINUOUS
10
171.2060569999999871
20
-73.9279909999999916
11
171.3077920000000063
21
-73.869253999999998
0
LINE
8
BLACK
6
CONTINUOUS
10
171.3077920000000063
20
-73.869253999999998
11
171.421262999999982
21
-73.8388499999999937
0
LINE
8
BLACK
6
CONTINUOUS
10
171.421262999999982
20
-73.8388499999999937
11
171.5387369999999976
21
-73.8388499999999937
0
LINE
8
BLACK
6
CONTINUOUS
10
171.5387369999999976
20
-73.8388499999999937
11
171.6522080000000017
21
-73.869253999999998
0
LINE
8
BLACK
6
CONTINUOUS
10
169.7549999999999955
20
-72.4350000000000023
11
168.7549999999999955
21
-72.4350000000000023
0
LINE
8
BLACK
6
CONTINUOUS
10
168.7549999999999955
20
-72.4350000000000023
11
168.7549999999999955
21
-70.8849999999999909
0
LINE
8
BLACK
6
CONTINUOUS
10
168.7549999999999955
20
-70.8849999999999909
11
169.7549999999999955
21
-70.8849999999999909
0
LINE
8
BLACK
6
CONTINUOUS
10
169.7549999999999955
20
-70.8849999999999909
11
169.7549999999999955
21
-72.4350000000000023
0
LINE
8
BLACK
6
CONTINUOUS
10
171.4549999999999841
20
-72.4350000000000023
11
170.4549999999999841
21
-72.4350000000000023
0
LINE
8
BLACK
6
CONTINUOUS
10
170.4549999999999841
20
-72.4350000000000023
11
170.4549999999999841
21
-70.8849999999999909
0
LINE
8
BLACK
6
CONTINUOUS
10
170.4549999999999841
20
-70.8849999999999909
11
171.4549999999999841
21
-70.8849999999999909
0
LINE
8
BLACK
6
CONTINUOUS
10
171.4549999999999841
20
-70.8849999999999909
11
171.4549999999999841
21
-72.4350000000000023
0
LINE
8
BLACK
6
CONTINUOUS
10
178.4472079999999892
20
-69.0592539999999957
11
178.54894299999998
21
-69.1179910000000035
0
LINE
8
BLACK
6
CONTINUOUS
10
178.54894299999998
20
-69.1179910000000035
11
178.6320089999999823
21
-69.2010569999999916
0
LINE
8
BLACK
6
CONTINUOUS
10
178.6320089999999823
20
-69.2010569999999916
11
178.6907459999999901
21
-69.3027919999999966
0
LINE
8
BLACK
6
CONTINUOUS
10
178.6907459999999901
20
-69.3027919999999966
11
178.7211499999999944
21
-69.4162630000000007
0
LINE
8
BLACK
6
CONTINUOUS
10
178.7211499999999944
20
-69.4162630000000007
11
178.7211499999999944
21
-69.5337370000000021
0
LINE
8
BLACK
6
CONTINUOUS
10
178.7211499999999944
20
-69.5337370000000021
11
178.6907459999999901
21
-69.647207999999992
0
LINE
8
BLACK
6
CONTINUOUS
10
178.6907459999999901
20
-69.647207999999992
11
178.6320089999999823
21
-69.748942999999997
0
LINE
8
BLACK
6
CONTINUOUS
10
178.6320089999999823
20
-69.748942999999997
11
178.54894299999998
21
-69.8320089999999993
0
LINE
8
BLACK
6
CONTINUOUS
10
178.54894299999998
20
-69.8320089999999993
11
178.4472079999999892
21
-69.8907459999999929
0
LINE
8
BLACK
6
CONTINUOUS
10
178.4472079999999892
20
-69.8907459999999929
11
178.3337369999999851
21
-69.9211499999999972
0
LINE
8
BLACK
6
CONTINUOUS
10
178.3337369999999851
20
-69.9211499999999972
11
178.2162629999999979
21
-69.9211499999999972
0
LINE
8
BLACK
6
CONTINUOUS
10
178.2162629999999979
20
-69.9211499999999972
11
178.1027919999999938
21
-69.8907459999999929
0
LINE
8
BLACK
6
CONTINUOUS
10
178.1027919999999938
20
-69.8907459999999929
11
178.001057000000003
21
-69.8320089999999993
0
LINE
8
BLACK
6
CONTINUOUS
10
178.001057000000003
20
-69.8320089999999993
11
177.9179910000000007
21
-69.748942999999997
0
LINE
8
BLACK
6
CONTINUOUS
10
177.9179910000000007
20
-69.748942999999997
11
177.8592539999999929
21
-69.647207999999992
0
LINE
8
BLACK
6
CONTINUOUS
10
177.8592539999999929
20
-69.647207999999992
11
177.8288499999999885
21
-69.5337370000000021
0
LINE
8
BLACK
6
CONTINUOUS
10
177.8288499999999885
20
-69.5337370000000021
11
177.8288499999999885
21
-69.4162630000000007
0
LINE
8
BLACK
6
CONTINUOUS
10
177.8288499999999885
20
-69.4162630000000007
11
177.8592539999999929
21
-69.3027919999999966
0
LINE
8
BLACK
6
CONTINUOUS
10
177.8592539999999929
20
-69.3027919999999966
11
177.9179910000000007
21
-69.2010569999999916
0
LINE
8
BLACK
6
CONTINUOUS
10
177.9179910000000007
20
-69.2010569999999916
11
178.001057000000003
21
-69.1179910000000035
0
LINE
8
BLACK
6
CONTINUOUS
10
178.001057000000003
20
-69.1179910000000035
11
178.1027919999999938
21
-69.0592539999999957
0
LINE
8
BLACK
6
CONTINUOUS
10
178.1027919999999938
20
-69.0592539999999957
11
178.2162629999999979
21
-69.0288499999999914
0
LINE
8
BLACK
6
CONTINUOUS
10
178.2162629999999979
20
-69.0288499999999914
11
178.3337369999999851
21
-69.0288499999999914
0
LINE
8
BLACK
6
CONTINUOUS
10
178.3337369999999851
20
-69.0288499999999914
11
178.4472079999999892
21
-69.0592539999999957
0
LINE
8
BLACK
6
CONTINUOUS
10
208.4972080000000005
20
-69.0092539999999985
11
208.5989429999999913
21
-69.0679909999999921
0
LINE
8
BLACK
6
CONTINUOUS
10
208.5989429999999913
20
-69.0679909999999921
11
208.6820089999999936
21
-69.1510569999999944
0
LINE
8
BLACK
6
CONTINUOUS
10
208.6820089999999936
20
-69.1510569999999944
11
208.7407460000000015
21
-69.2527919999999995
0
LINE
8
BLACK
6
CONTINUOUS
10
208.7407460000000015
20
-69.2527919999999995
11
208.7711499999999774
21
-69.3662630000000036
0
LINE
8
BLACK
6
CONTINUOUS
10
208.7711499999999774
20
-69.3662630000000036
11
208.7711499999999774
21
-69.4837369999999908
0
LINE
8
BLACK
6
CONTINUOUS
10
208.7711499999999774
20
-69.4837369999999908
11
208.7407460000000015
21
-69.5972079999999949
0
LINE
8
BLACK
6
CONTINUOUS
10
208.7407460000000015
20
-69.5972079999999949
11
208.6820089999999936
21
-69.6989429999999999
0
LINE
8
BLACK
6
CONTINUOUS
10
208.6820089999999936
20
-69.6989429999999999
11
208.5989429999999913
21
-69.7820090000000022
0
LINE
8
BLACK
6
CONTINUOUS
10
208.5989429999999913
20
-69.7820090000000022
11
208.4972080000000005
21
-69.8407459999999958
0
LINE
8
BLACK
6
CONTINUOUS
10
208.4972080000000005
20
-69.8407459999999958
11
208.3837369999999964
21
-69.8711500000000001
0
LINE
8
BLACK
6
CONTINUOUS
10
208.3837369999999964
20
-69.8711500000000001
11
208.2662629999999808
21
-69.8711500000000001
0
LINE
8
BLACK
6
CONTINUOUS
10
208.2662629999999808
20
-69.8711500000000001
11
208.1527919999999767
21
-69.8407459999999958
0
LINE
8
BLACK
6
CONTINUOUS
10
208.1527919999999767
20
-69.8407459999999958
11
208.0510569999999859
21
-69.7820090000000022
0
LINE
8
BLACK
6
CONTINUOUS
10
208.0510569999999859
20
-69.7820090000000022
11
207.9679909999999836
21
-69.6989429999999999
0
LINE
8
BLACK
6
CONTINUOUS
10
207.9679909999999836
20
-69.6989429999999999
11
207.9092540000000042
21
-69.5972079999999949
0
LINE
8
BLACK
6
CONTINUOUS
10
207.9092540000000042
20
-69.5972079999999949
11
207.8788499999999999
21
-69.4837369999999908
0
LINE
8
BLACK
6
CONTINUOUS
10
207.8788499999999999
20
-69.4837369999999908
11
207.8788499999999999
21
-69.3662630000000036
0
LINE
8
BLACK
6
CONTINUOUS
10
207.8788499999999999
20
-69.3662630000000036
11
207.9092540000000042
21
-69.2527919999999995
0
LINE
8
BLACK
6
CONTINUOUS
10
207.9092540000000042
20
-69.2527919999999995
11
207.9679909999999836
21
-69.1510569999999944
0
LINE
8
BLACK
6
CONTINUOUS
10
207.9679909999999836
20
-69.1510569999999944
11
208.0510569999999859
21
-69.0679909999999921
0
LINE
8
BLACK
6
CONTINUOUS
10
208.0510569999999859
20
-69.0679909999999921
11
208.1527919999999767
21
-69.0092539999999985
0
LINE
8
BLACK
6
CONTINUOUS
10
208.1527919999999767
20
-69.0092539999999985
11
208.2662629999999808
21
-68.9788499999999942
0
LINE
8
BLACK
6
CONTINUOUS
10
208.2662629999999808
20
-68.9788499999999942
11
208.3837369999999964
21
-68.9788499999999942
0
LINE
8
BLACK
6
CONTINUOUS
10
208.3837369999999964
20
-68.9788499999999942
11
208.4972080000000005
21
-69.0092539999999985
0
LINE
8
BLACK
6
CONTINUOUS
10
223.5472079999999835
20
-69.0092539999999985
11
223.6489430000000027
21
-69.0679909999999921
0
LINE
8
BLACK
6
CONTINUOUS
10
223.6489430000000027
20
-69.0679909999999921
11
223.7320089999999766
21
-69.1510569999999944
0
LINE
8
BLACK
6
CONTINUOUS
10
223.7320089999999766
20
-69.1510569999999944
11
223.7907459999999844
21
-69.2527919999999995
0
LINE
8
BLACK
6
CONTINUOUS
10
223.7907459999999844
20
-69.2527919999999995
11
223.8211499999999887
21
-69.3662630000000036
0
LINE
8
BLACK
6
CONTINUOUS
10
223.8211499999999887
20
-69.3662630000000036
11
223.8211499999999887
21
-69.4837369999999908
0
LINE
8
BLACK
6
CONTINUOUS
10
223.8211499999999887
20
-69.4837369999999908
11
223.7907459999999844
21
-69.5972079999999949
0
LINE
8
BLACK
6
CONTINUOUS
10
223.7907459999999844
20
-69.5972079999999949
11
223.7320089999999766
21
-69.6989429999999999
0
LINE
8
BLACK
6
CONTINUOUS
10
223.7320089999999766
20
-69.6989429999999999
11
223.6489430000000027
21
-69.7820090000000022
0
LINE
8
BLACK
6
CONTINUOUS
10
223.6489430000000027
20
-69.7820090000000022
11
223.5472079999999835
21
-69.8407459999999958
0
LINE
8
BLACK
6
CONTINUOUS
10
223.5472079999999835
20
-69.8407459999999958
11
223.4337369999999794
21
-69.8711500000000001
0
LINE
8
BLACK
6
CONTINUOUS
10
223.4337369999999794
20
-69.8711500000000001
11
223.3162629999999922
21
-69.8711500000000001
0
LINE
8
BLACK
6
CONTINUOUS
10
223.3162629999999922
20
-69.8711500000000001
11
223.2027919999999881
21
-69.8407459999999958
0
LINE
8
BLACK
6
CONTINUOUS
10
223.2027919999999881
20
-69.8407459999999958
11
223.1010569999999973
21
-69.7820090000000022
0
LINE
8
BLACK
6
CONTINUOUS
10
223.1010569999999973
20
-69.7820090000000022
11
223.017990999999995
21
-69.6989429999999999
0
LINE
8
BLACK
6
CONTINUOUS
10
223.017990999999995
20
-69.6989429999999999
11
222.9592539999999872
21
-69.5972079999999949
0
LINE
8
BLACK
6
CONTINUOUS
10
222.9592539999999872
20
-69.5972079999999949
11
222.9288499999999829
21
-69.4837369999999908
0
LINE
8
BLACK
6
CONTINUOUS
10
222.9288499999999829
20
-69.4837369999999908
11
222.9288499999999829
21
-69.3662630000000036
0
LINE
8
BLACK
6
CONTINUOUS
10
222.9288499999999829
20
-69.3662630000000036
11
222.9592539999999872
21
-69.2527919999999995
0
LINE
8
BLACK
6
CONTINUOUS
10
222.9592539999999872
20
-69.2527919999999995
11
223.017990999999995
21
-69.1510569999999944
0
LINE
8
BLACK
6
CONTINUOUS
10
223.017990999999995
20
-69.1510569999999944
11
223.1010569999999973
21
-69.0679909999999921
0
LINE
8
BLACK
6
CONTINUOUS
10
223.1010569999999973
20
-69.0679909999999921
11
223.2027919999999881
21
-69.0092539999999985
0
LINE
8
BLACK
6
CONTINUOUS
10
223.2027919999999881
20
-69.0092539999999985
11
223.3162629999999922
21
-68.9788499999999942
0
LINE
8
BLACK
6
CONTINUOUS
10
223.3162629999999922
20
-68.9788499999999942
11
223.4337369999999794
21
-68.9788499999999942
0
LINE
8
BLACK
6
CONTINUOUS
10
223.4337369999999794
20
-68.9788499999999942
11
223.5472079999999835
21
-69.0092539999999985
0
LINE
8
BLACK
6
CONTINUOUS
10
193.5222079999999778
20
-68.9842539999999929
11
193.623942999999997
21
-69.0429910000000007
0
LINE
8
BLACK
6
CONTINUOUS
10
193.623942999999997
20
-69.0429910000000007
11
193.7070089999999993
21
-69.126057000000003
0
LINE
8
BLACK
6
CONTINUOUS
10
193.7070089999999993
20
-69.126057000000003
11
193.7657459999999787
21
-69.2277919999999938
0
LINE
8
BLACK
6
CONTINUOUS
10
193.7657459999999787
20
-69.2277919999999938
11
193.796149999999983
21
-69.3412629999999979
0
LINE
8
BLACK
6
CONTINUOUS
10
193.796149999999983
20
-69.3412629999999979
11
193.796149999999983
21
-69.4587369999999993
0
LINE
8
BLACK
6
CONTINUOUS
10
193.796149999999983
20
-69.4587369999999993
11
193.7657459999999787
21
-69.5722080000000034
0
LINE
8
BLACK
6
CONTINUOUS
10
193.7657459999999787
20
-69.5722080000000034
11
193.7070089999999993
21
-69.6739429999999942
0
LINE
8
BLACK
6
CONTINUOUS
10
193.7070089999999993
20
-69.6739429999999942
11
193.623942999999997
21
-69.7570089999999965
0
LINE
8
BLACK
6
CONTINUOUS
10
193.623942999999997
20
-69.7570089999999965
11
193.5222079999999778
21
-69.8157459999999901
0
LINE
8
BLACK
6
CONTINUOUS
10
193.5222079999999778
20
-69.8157459999999901
11
193.4087370000000021
21
-69.8461499999999944
0
LINE
8
BLACK
6
CONTINUOUS
10
193.4087370000000021
20
-69.8461499999999944
11
193.2912629999999865
21
-69.8461499999999944
0
LINE
8
BLACK
6
CONTINUOUS
10
193.2912629999999865
20
-69.8461499999999944
11
193.1777919999999824
21
-69.8157459999999901
0
LINE
8
BLACK
6
CONTINUOUS
10
193.1777919999999824
20
-69.8157459999999901
11
193.0760569999999916
21
-69.7570089999999965
0
LINE
8
BLACK
6
CONTINUOUS
10
193.0760569999999916
20
-69.7570089999999965
11
192.9929909999999893
21
-69.6739429999999942
0
LINE
8
BLACK
6
CONTINUOUS
10
192.9929909999999893
20
-69.6739429999999942
11
192.9342539999999815
21
-69.5722080000000034
0
LINE
8
BLACK
6
CONTINUOUS
10
192.9342539999999815
20
-69.5722080000000034
11
192.9038499999999772
21
-69.4587369999999993
0
LINE
8
BLACK
6
CONTINUOUS
10
192.9038499999999772
20
-69.4587369999999993
11
192.9038499999999772
21
-69.3412629999999979
0
LINE
8
BLACK
6
CONTINUOUS
10
192.9038499999999772
20
-69.3412629999999979
11
192.9342539999999815
21
-69.2277919999999938
0
LINE
8
BLACK
6
CONTINUOUS
10
192.9342539999999815
20
-69.2277919999999938
11
192.9929909999999893
21
-69.126057000000003
0
LINE
8
BLACK
6
CONTINUOUS
10
192.9929909999999893
20
-69.126057000000003
11
193.0760569999999916
21
-69.0429910000000007
0
LINE
8
BLACK
6
CONTINUOUS
10
193.0760569999999916
20
-69.0429910000000007
11
193.1777919999999824
21
-68.9842539999999929
0
LINE
8
BLACK
6
CONTINUOUS
10
193.1777919999999824
20
-68.9842539999999929
11
193.2912629999999865
21
-68.9538500000000028
0
LINE
8
BLACK
6
CONTINUOUS
10
193.2912629999999865
20
-68.9538500000000028
11
193.4087370000000021
21
-68.9538500000000028
0
LINE
8
BLACK
6
CONTINUOUS
10
193.4087370000000021
20
-68.9538500000000028
11
193.5222079999999778
21
-68.9842539999999929
0
LINE
8
BLACK
6
CONTINUOUS
10
176.4249999999999829
20
-69.4500000000000028
11
174.875
21
-69.4500000000000028
0
LINE
8
BLACK
6
CONTINUOUS
10
174.875
20
-69.4500000000000028
11
174.875
21
-68.4500000000000028
0
LINE
8
BLACK
6
CONTINUOUS
10
174.875
20
-68.4500000000000028
11
176.4249999999999829
21
-68.4500000000000028
0
LINE
8
BLACK
6
CONTINUOUS
10
176.4249999999999829
20
-68.4500000000000028
11
176.4249999999999829
21
-69.4500000000000028
0
LINE
8
BLACK
6
CONTINUOUS
10
181.6749999999999829
20
-69.4500000000000028
11
180.125
21
-69.4500000000000028
0
LINE
8
BLACK
6
CONTINUOUS
10
180.125
20
-69.4500000000000028
11
180.125
21
-68.4500000000000028
0
LINE
8
BLACK
6
CONTINUOUS
10
180.125
20
-68.4500000000000028
11
181.6749999999999829
21
-68.4500000000000028
0
LINE
8
BLACK
6
CONTINUOUS
10
181.6749999999999829
20
-68.4500000000000028
11
181.6749999999999829
21
-69.4500000000000028
0
LINE
8
BLACK
6
CONTINUOUS
10
206.4749999999999943
20
-69.3999999999999915
11
204.9249999999999829
21
-69.3999999999999915
0
LINE
8
BLACK
6
CONTINUOUS
10
204.9249999999999829
20
-69.3999999999999915
11
204.9249999999999829
21
-68.3999999999999915
0
LINE
8
BLACK
6
CONTINUOUS
10
204.9249999999999829
20
-68.3999999999999915
11
206.4749999999999943
21
-68.3999999999999915
0
LINE
8
BLACK
6
CONTINUOUS
10
206.4749999999999943
20
-68.3999999999999915
11
206.4749999999999943
21
-69.3999999999999915
0
LINE
8
BLACK
6
CONTINUOUS
10
211.7249999999999943
20
-69.3999999999999915
11
210.1749999999999829
21
-69.3999999999999915
0
LINE
8
BLACK
6
CONTINUOUS
10
210.1749999999999829
20
-69.3999999999999915
11
210.1749999999999829
21
-68.3999999999999915
0
LINE
8
BLACK
6
CONTINUOUS
10
210.1749999999999829
20
-68.3999999999999915
11
211.7249999999999943
21
-68.3999999999999915
0
LINE
8
BLACK
6
CONTINUOUS
10
211.7249999999999943
20
-68.3999999999999915
11
211.7249999999999943
21
-69.3999999999999915
0
LINE
8
BLACK
6
CONTINUOUS
10
221.5249999999999773
20
-69.3999999999999915
11
219.9749999999999943
21
-69.3999999999999915
0
LINE
8
BLACK
6
CONTINUOUS
10
219.9749999999999943
20
-69.3999999999999915
11
219.9749999999999943
21
-68.3999999999999915
0
LINE
8
BLACK
6
CONTINUOUS
10
219.9749999999999943
20
-68.3999999999999915
11
221.5249999999999773
21
-68.3999999999999915
0
LINE
8
BLACK
6
CONTINUOUS
10
221.5249999999999773
20
-68.3999999999999915
11
221.5249999999999773
21
-69.3999999999999915
0
LINE
8
BLACK
6
CONTINUOUS
10
226.7749999999999773
20
-69.3999999999999915
11
225.2249999999999943
21
-69.3999999999999915
0
LINE
8
BLACK
6
CONTINUOUS
10
225.2249999999999943
20
-69.3999999999999915
11
225.2249999999999943
21
-68.3999999999999915
0
LINE
8
BLACK
6
CONTINUOUS
10
225.2249999999999943
20
-68.3999999999999915
11
226.7749999999999773
21
-68.3999999999999915
0
LINE
8
BLACK
6
CONTINUOUS
10
226.7749999999999773
20
-68.3999999999999915
11
226.7749999999999773
21
-69.3999999999999915
0
LINE
8
BLACK
6
CONTINUOUS
10
191.5
20
-69.375
11
189.9499999999999886
21
-69.375
0
LINE
8
BLACK
6
CONTINUOUS
10
189.9499999999999886
20
-69.375
11
189.9499999999999886
21
-68.375
0
LINE
8
BLACK
6
CONTINUOUS
10
189.9499999999999886
20
-68.375
11
191.5
21
-68.375
0
LINE
8
BLACK
6
CONTINUOUS
10
191.5
20
-68.375
11
191.5
21
-69.375
0
LINE
8
BLACK
6
CONTINUOUS
10
196.75
20
-69.375
11
195.1999999999999886
21
-69.375
0
LINE
8
BLACK
6
CONTINUOUS
10
195.1999999999999886
20
-69.375
11
195.1999999999999886
21
-68.375
0
LINE
8
BLACK
6
CONTINUOUS
10
195.1999999999999886
20
-68.375
11
196.75
21
-68.375
0
LINE
8
BLACK
6
CONTINUOUS
10
196.75
20
-68.375
11
196.75
21
-69.375
0
LINE
8
BLACK
6
CONTINUOUS
10
176.4249999999999829
20
-67.75
11
174.875
21
-67.75
0
LINE
8
BLACK
6
CONTINUOUS
10
174.875
20
-67.75
11
174.875
21
-66.75
0
LINE
8
BLACK
6
CONTINUOUS
10
174.875
20
-66.75
11
176.4249999999999829
21
-66.75
0
LINE
8
BLACK
6
CONTINUOUS
10
176.4249999999999829
20
-66.75
11
176.4249999999999829
21
-67.75
0
LINE
8
BLACK
6
CONTINUOUS
10
181.6749999999999829
20
-67.75
11
180.125
21
-67.75
0
LINE
8
BLACK
6
CONTINUOUS
10
180.125
20
-67.75
11
180.125
21
-66.75
0
LINE
8
BLACK
6
CONTINUOUS
10
180.125
20
-66.75
11
181.6749999999999829
21
-66.75
0
LINE
8
BLACK
6
CONTINUOUS
10
181.6749999999999829
20
-66.75
11
181.6749999999999829
21
-67.75
0
LINE
8
BLACK
6
CONTINUOUS
10
206.4749999999999943
20
-67.7000000000000028
11
204.9249999999999829
21
-67.7000000000000028
0
LINE
8
BLACK
6
CONTINUOUS
10
204.9249999999999829
20
-67.7000000000000028
11
204.9249999999999829
21
-66.7000000000000028
0
LINE
8
BLACK
6
CONTINUOUS
10
204.9249999999999829
20
-66.7000000000000028
11
206.4749999999999943
21
-66.7000000000000028
0
LINE
8
BLACK
6
CONTINUOUS
10
206.4749999999999943
20
-66.7000000000000028
11
206.4749999999999943
21
-67.7000000000000028
0
LINE
8
BLACK
6
CONTINUOUS
10
211.7249999999999943
20
-67.7000000000000028
11
210.1749999999999829
21
-67.7000000000000028
0
LINE
8
BLACK
6
CONTINUOUS
10
210.1749999999999829
20
-67.7000000000000028
11
210.1749999999999829
21
-66.7000000000000028
0
LINE
8
BLACK
6
CONTINUOUS
10
210.1749999999999829
20
-66.7000000000000028
11
211.7249999999999943
21
-66.7000000000000028
0
LINE
8
BLACK
6
CONTINUOUS
10
211.7249999999999943
20
-66.7000000000000028
11
211.7249999999999943
21
-67.7000000000000028
0
LINE
8
BLACK
6
CONTINUOUS
10
221.5249999999999773
20
-67.7000000000000028
11
219.9749999999999943
21
-67.7000000000000028
0
LINE
8
BLACK
6
CONTINUOUS
10
219.9749999999999943
20
-67.7000000000000028
11
219.9749999999999943
21
-66.7000000000000028
0
LINE
8
BLACK
6
CONTINUOUS
10
219.9749999999999943
20
-66.7000000000000028
11
221.5249999999999773
21
-66.7000000000000028
0
LINE
8
BLACK
6
CONTINUOUS
10
221.5249999999999773
20
-66.7000000000000028
11
221.5249999999999773
21
-67.7000000000000028
0
LINE
8
BLACK
6
CONTINUOUS
10
226.7749999999999773
20
-67.7000000000000028
11
225.2249999999999943
21
-67.7000000000000028
0
LINE
8
BLACK
6
CONTINUOUS
10
225.2249999999999943
20
-67.7000000000000028
11
225.2249999999999943
21
-66.7000000000000028
0
LINE
8
BLACK
6
CONTINUOUS
10
225.2249999999999943
20
-66.7000000000000028
11
226.7749999999999773
21
-66.7000000000000028
0
LINE
8
BLACK
6
CONTINUOUS
10
226.7749999999999773
20
-66.7000000000000028
11
226.7749999999999773
21
-67.7000000000000028
0
LINE
8
BLACK
6
CONTINUOUS
10
191.5
20
-67.6749999999999972
11
189.9499999999999886
21
-67.6749999999999972
0
LINE
8
BLACK
6
CONTINUOUS
10
189.9499999999999886
20
-67.6749999999999972
11
189.9499999999999886
21
-66.6749999999999972
0
LINE
8
BLACK
6
CONTINUOUS
10
189.9499999999999886
20
-66.6749999999999972
11
191.5
21
-66.6749999999999972
0
LINE
8
BLACK
6
CONTINUOUS
10
191.5
20
-66.6749999999999972
11
191.5
21
-67.6749999999999972
0
LINE
8
BLACK
6
CONTINUOUS
10
196.75
20
-67.6749999999999972
11
195.1999999999999886
21
-67.6749999999999972
0
LINE
8
BLACK
6
CONTINUOUS
10
195.1999999999999886
20
-67.6749999999999972
11
195.1999999999999886
21
-66.6749999999999972
0
LINE
8
BLACK
6
CONTINUOUS
10
195.1999999999999886
20
-66.6749999999999972
11
196.75
21
-66.6749999999999972
0
LINE
8
BLACK
6
CONTINUOUS
10
196.75
20
-66.6749999999999972
11
196.75
21
-67.6749999999999972
0
LINE
8
BLACK
6
CONTINUOUS
10
178.4472079999999892
20
-66.3092539999999957
11
178.54894299999998
21
-66.3679910000000035
0
LINE
8
BLACK
6
CONTINUOUS
10
178.54894299999998
20
-66.3679910000000035
11
178.6320089999999823
21
-66.4510569999999916
0
LINE
8
BLACK
6
CONTINUOUS
10
178.6320089999999823
20
-66.4510569999999916
11
178.6907459999999901
21
-66.5527919999999966
0
LINE
8
BLACK
6
CONTINUOUS
10
178.6907459999999901
20
-66.5527919999999966
11
178.7211499999999944
21
-66.6662630000000007
0
LINE
8
BLACK
6
CONTINUOUS
10
178.7211499999999944
20
-66.6662630000000007
11
178.7211499999999944
21
-66.7837370000000021
0
LINE
8
BLACK
6
CONTINUOUS
10
178.7211499999999944
20
-66.7837370000000021
11
178.6907459999999901
21
-66.897207999999992
0
LINE
8
BLACK
6
CONTINUOUS
10
178.6907459999999901
20
-66.897207999999992
11
178.6320089999999823
21
-66.998942999999997
0
LINE
8
BLACK
6
CONTINUOUS
10
178.6320089999999823
20
-66.998942999999997
11
178.54894299999998
21
-67.0820089999999993
0
LINE
8
BLACK
6
CONTINUOUS
10
178.54894299999998
20
-67.0820089999999993
11
178.4472079999999892
21
-67.1407459999999929
0
LINE
8
BLACK
6
CONTINUOUS
10
178.4472079999999892
20
-67.1407459999999929
11
178.3337369999999851
21
-67.1711499999999972
0
LINE
8
BLACK
6
CONTINUOUS
10
178.3337369999999851
20
-67.1711499999999972
11
178.2162629999999979
21
-67.1711499999999972
0
LINE
8
BLACK
6
CONTINUOUS
10
178.2162629999999979
20
-67.1711499999999972
11
178.1027919999999938
21
-67.1407459999999929
0
LINE
8
BLACK
6
CONTINUOUS
10
178.1027919999999938
20
-67.1407459999999929
11
178.001057000000003
21
-67.0820089999999993
0
LINE
8
BLACK
6
CONTINUOUS
10
178.001057000000003
20
-67.0820089999999993
11
177.9179910000000007
21
-66.998942999999997
0
LINE
8
BLACK
6
CONTINUOUS
10
177.9179910000000007
20
-66.998942999999997
11
177.8592539999999929
21
-66.897207999999992
0
LINE
8
BLACK
6
CONTINUOUS
10
177.8592539999999929
20
-66.897207999999992
11
177.8288499999999885
21
-66.7837370000000021
0
LINE
8
BLACK
6
CONTINUOUS
10
177.8288499999999885
20
-66.7837370000000021
11
177.8288499999999885
21
-66.6662630000000007
0
LINE
8
BLACK
6
CONTINUOUS
10
177.8288499999999885
20
-66.6662630000000007
11
177.8592539999999929
21
-66.5527919999999966
0
LINE
8
BLACK
6
CONTINUOUS
10
177.8592539999999929
20
-66.5527919999999966
11
177.9179910000000007
21
-66.4510569999999916
0
LINE
8
BLACK
6
CONTINUOUS
10
177.9179910000000007
20
-66.4510569999999916
11
178.001057000000003
21
-66.3679910000000035
0
LINE
8
BLACK
6
CONTINUOUS
10
178.001057000000003
20
-66.3679910000000035
11
178.1027919999999938
21
-66.3092539999999957
0
LINE
8
BLACK
6
CONTINUOUS
10
178.1027919999999938
20
-66.3092539999999957
11
178.2162629999999979
21
-66.2788499999999914
0
LINE
8
BLACK
6
CONTINUOUS
10
178.2162629999999979
20
-66.2788499999999914
11
178.3337369999999851
21
-66.2788499999999914
0
LINE
8
BLACK
6
CONTINUOUS
10
178.3337369999999851
20
-66.2788499999999914
11
178.4472079999999892
21
-66.3092539999999957
0
LINE
8
BLACK
6
CONTINUOUS
10
208.4972080000000005
20
-66.2592539999999985
11
208.5989429999999913
21
-66.3179909999999921
0
LINE
8
BLACK
6
CONTINUOUS
10
208.5989429999999913
20
-66.3179909999999921
11
208.6820089999999936
21
-66.4010569999999944
0
LINE
8
BLACK
6
CONTINUOUS
10
208.6820089999999936
20
-66.4010569999999944
11
208.7407460000000015
21
-66.5027919999999995
0
LINE
8
BLACK
6
CONTINUOUS
10
208.7407460000000015
20
-66.5027919999999995
11
208.7711499999999774
21
-66.6162630000000036
0
LINE
8
BLACK
6
CONTINUOUS
10
208.7711499999999774
20
-66.6162630000000036
11
208.7711499999999774
21
-66.7337369999999908
0
LINE
8
BLACK
6
CONTINUOUS
10
208.7711499999999774
20
-66.7337369999999908
11
208.7407460000000015
21
-66.8472079999999949
0
LINE
8
BLACK
6
CONTINUOUS
10
208.7407460000000015
20
-66.8472079999999949
11
208.6820089999999936
21
-66.9489429999999999
0
LINE
8
BLACK
6
CONTINUOUS
10
208.6820089999999936
20
-66.9489429999999999
11
208.5989429999999913
21
-67.0320090000000022
0
LINE
8
BLACK
6
CONTINUOUS
10
208.5989429999999913
20
-67.0320090000000022
11
208.4972080000000005
21
-67.0907459999999958
0
LINE
8
BLACK
6
CONTINUOUS
10
208.4972080000000005
20
-67.0907459999999958
11
208.3837369999999964
21
-67.1211500000000001
0
LINE
8
BLACK
6
CONTINUOUS
10
208.3837369999999964
20
-67.1211500000000001
11
208.2662629999999808
21
-67.1211500000000001
0
LINE
8
BLACK
6
CONTINUOUS
10
208.2662629999999808
20
-67.1211500000000001
11
208.1527919999999767
21
-67.0907459999999958
0
LINE
8
BLACK
6
CONTINUOUS
10
208.1527919999999767
20
-67.0907459999999958
11
208.0510569999999859
21
-67.0320090000000022
0
LINE
8
BLACK
6
CONTINUOUS
10
208.0510569999999859
20
-67.0320090000000022
11
207.9679909999999836
21
-66.9489429999999999
0
LINE
8
BLACK
6
CONTINUOUS
10
207.9679909999999836
20
-66.9489429999999999
11
207.9092540000000042
21
-66.8472079999999949
0
LINE
8
BLACK
6
CONTINUOUS
10
207.9092540000000042
20
-66.8472079999999949
11
207.8788499999999999
21
-66.7337369999999908
0
LINE
8
BLACK
6
CONTINUOUS
10
207.8788499999999999
20
-66.7337369999999908
11
207.8788499999999999
21
-66.6162630000000036
0
LINE
8
BLACK
6
CONTINUOUS
10
207.8788499999999999
20
-66.6162630000000036
11
207.9092540000000042
21
-66.5027919999999995
0
LINE
8
BLACK
6
CONTINUOUS
10
207.9092540000000042
20
-66.5027919999999995
11
207.9679909999999836
21
-66.4010569999999944
0
LINE
8
BLACK
6
CONTINUOUS
10
207.9679909999999836
20
-66.4010569999999944
11
208.0510569999999859
21
-66.3179909999999921
0
LINE
8
BLACK
6
CONTINUOUS
10
208.0510569999999859
20
-66.3179909999999921
11
208.1527919999999767
21
-66.2592539999999985
0
LINE
8
BLACK
6
CONTINUOUS
10
208.1527919999999767
20
-66.2592539999999985
11
208.2662629999999808
21
-66.2288499999999942
0
LINE
8
BLACK
6
CONTINUOUS
10
208.2662629999999808
20
-66.2288499999999942
11
208.3837369999999964
21
-66.2288499999999942
0
LINE
8
BLACK
6
CONTINUOUS
10
208.3837369999999964
20
-66.2288499999999942
11
208.4972080000000005
21
-66.2592539999999985
0
LINE
8
BLACK
6
CONTINUOUS
10
223.5472079999999835
20
-66.2592539999999985
11
223.6489430000000027
21
-66.3179909999999921
0
LINE
8
BLACK
6
CONTINUOUS
10
223.6489430000000027
20
-66.3179909999999921
11
223.7320089999999766
21
-66.4010569999999944
0
LINE
8
BLACK
6
CONTINUOUS
10
223.7320089999999766
20
-66.4010569999999944
11
223.7907459999999844
21
-66.5027919999999995
0
LINE
8
BLACK
6
CONTINUOUS
10
223.7907459999999844
20
-66.5027919999999995
11
223.8211499999999887
21
-66.6162630000000036
0
LINE
8
BLACK
6
CONTINUOUS
10
223.8211499999999887
20
-66.6162630000000036
11
223.8211499999999887
21
-66.7337369999999908
0
LINE
8
BLACK
6
CONTINUOUS
10
223.8211499999999887
20
-66.7337369999999908
11
223.7907459999999844
21
-66.8472079999999949
0
LINE
8
BLACK
6
CONTINUOUS
10
223.7907459999999844
20
-66.8472079999999949
11
223.7320089999999766
21
-66.9489429999999999
0
LINE
8
BLACK
6
CONTINUOUS
10
223.7320089999999766
20
-66.9489429999999999
11
223.6489430000000027
21
-67.0320090000000022
0
LINE
8
BLACK
6
CONTINUOUS
10
223.6489430000000027
20
-67.0320090000000022
11
223.5472079999999835
21
-67.0907459999999958
0
LINE
8
BLACK
6
CONTINUOUS
10
223.5472079999999835
20
-67.0907459999999958
11
223.4337369999999794
21
-67.1211500000000001
0
LINE
8
BLACK
6
CONTINUOUS
10
223.4337369999999794
20
-67.1211500000000001
11
223.3162629999999922
21
-67.1211500000000001
0
LINE
8
BLACK
6
CONTINUOUS
10
223.3162629999999922
20
-67.1211500000000001
11
223.2027919999999881
21
-67.0907459999999958
0
LINE
8
BLACK
6
CONTINUOUS
10
223.2027919999999881
20
-67.0907459999999958
11
223.1010569999999973
21
-67.0320090000000022
0
LINE
8
BLACK
6
CONTINUOUS
10
223.1010569999999973
20
-67.0320090000000022
11
223.017990999999995
21
-66.9489429999999999
0
LINE
8
BLACK
6
CONTINUOUS
10
223.017990999999995
20
-66.9489429999999999
11
222.9592539999999872
21
-66.8472079999999949
0
LINE
8
BLACK
6
CONTINUOUS
10
222.9592539999999872
20
-66.8472079999999949
11
222.9288499999999829
21
-66.7337369999999908
0
LINE
8
BLACK
6
CONTINUOUS
10
222.9288499999999829
20
-66.7337369999999908
11
222.9288499999999829
21
-66.6162630000000036
0
LINE
8
BLACK
6
CONTINUOUS
10
222.9288499999999829
20
-66.6162630000000036
11
222.9592539999999872
21
-66.5027919999999995
0
LINE
8
BLACK
6
CONTINUOUS
10
222.9592539999999872
20
-66.5027919999999995
11
223.017990999999995
21
-66.4010569999999944
0
LINE
8
BLACK
6
CONTINUOUS
10
223.017990999999995
20
-66.4010569999999944
11
223.1010569999999973
21
-66.3179909999999921
0
LINE
8
BLACK
6
CONTINUOUS
10
223.1010569999999973
20
-66.3179909999999921
11
223.2027919999999881
21
-66.2592539999999985
0
LINE
8
BLACK
6
CONTINUOUS
10
223.2027919999999881
20
-66.2592539999999985
11
223.3162629999999922
21
-66.2288499999999942
0
LINE
8
BLACK
6
CONTINUOUS
10
223.3162629999999922
20
-66.2288499999999942
11
223.4337369999999794
21
-66.2288499999999942
0
LINE
8
BLACK
6
CONTINUOUS
10
223.4337369999999794
20
-66.2288499999999942
11
223.5472079999999835
21
-66.2592539999999985
0
LINE
8
BLACK
6
CONTINUOUS
10
193.5222079999999778
20
-66.2342539999999929
11
193.623942999999997
21
-66.2929910000000007
0
LINE
8
BLACK
6
CONTINUOUS
10
193.623942999999997
20
-66.2929910000000007
11
193.7070089999999993
21
-66.376057000000003
0
LINE
8
BLACK
6
CONTINUOUS
10
193.7070089999999993
20
-66.376057000000003
11
193.7657459999999787
21
-66.4777919999999938
0
LINE
8
BLACK
6
CONTINUOUS
10
193.7657459999999787
20
-66.4777919999999938
11
193.796149999999983
21
-66.5912629999999979
0
LINE
8
BLACK
6
CONTINUOUS
10
193.796149999999983
20
-66.5912629999999979
11
193.796149999999983
21
-66.7087369999999993
0
LINE
8
BLACK
6
CONTINUOUS
10
193.796149999999983
20
-66.7087369999999993
11
193.7657459999999787
21
-66.8222080000000034
0
LINE
8
BLACK
6
CONTINUOUS
10
193.7657459999999787
20
-66.8222080000000034
11
193.7070089999999993
21
-66.9239429999999942
0
LINE
8
BLACK
6
CONTINUOUS
10
193.7070089999999993
20
-66.9239429999999942
11
193.623942999999997
21
-67.0070089999999965
0
LINE
8
BLACK
6
CONTINUOUS
10
193.623942999999997
20
-67.0070089999999965
11
193.5222079999999778
21
-67.0657459999999901
0
LINE
8
BLACK
6
CONTINUOUS
10
193.5222079999999778
20
-67.0657459999999901
11
193.4087370000000021
21
-67.0961499999999944
0
LINE
8
BLACK
6
CONTINUOUS
10
193.4087370000000021
20
-67.0961499999999944
11
193.2912629999999865
21
-67.0961499999999944
0
LINE
8
BLACK
6
CONTINUOUS
10
193.2912629999999865
20
-67.0961499999999944
11
193.1777919999999824
21
-67.0657459999999901
0
LINE
8
BLACK
6
CONTINUOUS
10
193.1777919999999824
20
-67.0657459999999901
11
193.0760569999999916
21
-67.0070089999999965
0
LINE
8
BLACK
6
CONTINUOUS
10
193.0760569999999916
20
-67.0070089999999965
11
192.9929909999999893
21
-66.9239429999999942
0
LINE
8
BLACK
6
CONTINUOUS
10
192.9929909999999893
20
-66.9239429999999942
11
192.9342539999999815
21
-66.8222080000000034
0
LINE
8
BLACK
6
CONTINUOUS
10
192.9342539999999815
20
-66.8222080000000034
11
192.9038499999999772
21
-66.7087369999999993
0
LINE
8
BLACK
6
CONTINUOUS
10
192.9038499999999772
20
-66.7087369999999993
11
192.9038499999999772
21
-66.5912629999999979
0
LINE
8
BLACK
6
CONTINUOUS
10
192.9038499999999772
20
-66.5912629999999979
11
192.9342539999999815
21
-66.4777919999999938
0
LINE
8
BLACK
6
CONTINUOUS
10
192.9342539999999815
20
-66.4777919999999938
11
192.9929909999999893
21
-66.376057000000003
0
LINE
8
BLACK
6
CONTINUOUS
10
192.9929909999999893
20
-66.376057000000003
11
193.0760569999999916
21
-66.2929910000000007
0
LINE
8
BLACK
6
CONTINUOUS
10
193.0760569999999916
20
-66.2929910000000007
11
193.1777919999999824
21
-66.2342539999999929
0
LINE
8
BLACK
6
CONTINUOUS
10
193.1777919999999824
20
-66.2342539999999929
11
193.2912629999999865
21
-66.2038500000000028
0
LINE
8
BLACK
6
CONTINUOUS
10
193.2912629999999865
20
-66.2038500000000028
11
193.4087370000000021
21
-66.2038500000000028
0
LINE
8
BLACK
6
CONTINUOUS
10
193.4087370000000021
20
-66.2038500000000028
11
193.5222079999999778
21
-66.2342539999999929
  0
ENDSEC
  0
EOF
