%TF.GenerationSoftware,KiCad,Pcbnew,9.0.0*%
%TF.CreationDate,2025-08-04T08:15:32-07:00*%
%TF.ProjectId,flatchord,666c6174-6368-46f7-9264-2e6b69636164,rev?*%
%TF.SameCoordinates,Original*%
%TF.FileFunction,Legend,Top*%
%TF.FilePolarity,Positive*%
%FSLAX46Y46*%
G04 Gerber Fmt 4.6, Leading zero omitted, Abs format (unit mm)*
G04 Created by KiCad (PCBNEW 9.0.0) date 2025-08-04 08:15:32*
%MOMM*%
%LPD*%
G01*
G04 APERTURE LIST*
%ADD10C,0.300000*%
%ADD11C,0.150000*%
%ADD12C,0.100000*%
%ADD13C,0.120000*%
%ADD14C,0.381000*%
%ADD15C,0.050000*%
G04 APERTURE END LIST*
D10*
G36*
X180561383Y-91614651D02*
G01*
X180555150Y-91737065D01*
X180539951Y-91813037D01*
X180510784Y-91875270D01*
X180466861Y-91924045D01*
X180415584Y-91955784D01*
X180353471Y-91975336D01*
X180140064Y-91987976D01*
X179489401Y-91987976D01*
X179293946Y-91998417D01*
X179231185Y-92017927D01*
X179189532Y-92052090D01*
X179162942Y-92102291D01*
X179146851Y-92181782D01*
X179138607Y-92421202D01*
X179152896Y-92591744D01*
X179174978Y-92642432D01*
X179212063Y-92681137D01*
X179248333Y-92705867D01*
X179303654Y-92718140D01*
X179395245Y-92724551D01*
X179539776Y-92726566D01*
X180219748Y-92726566D01*
X180386078Y-92728764D01*
X180465029Y-92743602D01*
X180508406Y-92764301D01*
X180545446Y-92802220D01*
X180569605Y-92851605D01*
X180578053Y-92912496D01*
X180561483Y-92999864D01*
X180517236Y-93050982D01*
X180443882Y-93078196D01*
X180303646Y-93090000D01*
X178859804Y-93090000D01*
X178660868Y-93074979D01*
X178590811Y-93051498D01*
X178540884Y-93014528D01*
X178505734Y-92962239D01*
X178482632Y-92887766D01*
X178467794Y-92675458D01*
X178467794Y-92034870D01*
X178478419Y-91837583D01*
X178495294Y-91778649D01*
X178523482Y-91728040D01*
X178576700Y-91676849D01*
X178639436Y-91645975D01*
X178717365Y-91630904D01*
X178851561Y-91624542D01*
X179816748Y-91624542D01*
X179938564Y-91624542D01*
X180077049Y-91610437D01*
X180122998Y-91589821D01*
X180156367Y-91558047D01*
X180178412Y-91513868D01*
X180192821Y-91443558D01*
X180201247Y-91242608D01*
X180201247Y-91013264D01*
X180190989Y-90810664D01*
X180173064Y-90743122D01*
X180144094Y-90698557D01*
X180101233Y-90668213D01*
X180037482Y-90650013D01*
X179846240Y-90639755D01*
X179170481Y-90639755D01*
X179001953Y-90650013D01*
X178942529Y-90665484D01*
X178901386Y-90688299D01*
X178870655Y-90720686D01*
X178850645Y-90762854D01*
X178836357Y-90887418D01*
X178832144Y-90978642D01*
X178817491Y-91113340D01*
X178790928Y-91181791D01*
X178741949Y-91222126D01*
X178654274Y-91237662D01*
X178555962Y-91220501D01*
X178504797Y-91177028D01*
X178479415Y-91101133D01*
X178467794Y-90938892D01*
X178467794Y-90683719D01*
X178482815Y-90472876D01*
X178506941Y-90399712D01*
X178545280Y-90349228D01*
X178599859Y-90314306D01*
X178679736Y-90291160D01*
X178910179Y-90276322D01*
X180106359Y-90276322D01*
X180332405Y-90289145D01*
X180405689Y-90308095D01*
X180458251Y-90335856D01*
X180509542Y-90380919D01*
X180542149Y-90443018D01*
X180557170Y-90538456D01*
X180561383Y-90683169D01*
X180561383Y-91614651D01*
G37*
G36*
X182879553Y-90291343D02*
G01*
X182953601Y-90314801D01*
X183005765Y-90351610D01*
X183042467Y-90404067D01*
X183066032Y-90480020D01*
X183080870Y-90693794D01*
X183080870Y-92706050D01*
X183065849Y-92898941D01*
X183042613Y-92967257D01*
X183005582Y-93016910D01*
X182953913Y-93052158D01*
X182881568Y-93075162D01*
X182676404Y-93090000D01*
X181329099Y-93090000D01*
X181109098Y-93075162D01*
X181031755Y-93050431D01*
X180978489Y-93010498D01*
X180941814Y-92954164D01*
X180918405Y-92875860D01*
X180903567Y-92651461D01*
X180903567Y-91029200D01*
X181267733Y-91029200D01*
X181267733Y-92316055D01*
X181275976Y-92542102D01*
X181290137Y-92619068D01*
X181310598Y-92665750D01*
X181343532Y-92697898D01*
X181394129Y-92716308D01*
X181551482Y-92726566D01*
X181992219Y-92726566D01*
X182227974Y-92718323D01*
X182305627Y-92702464D01*
X182351256Y-92677657D01*
X182381665Y-92638383D01*
X182399982Y-92577273D01*
X182410240Y-92387496D01*
X182410240Y-91815601D01*
X182414453Y-91672719D01*
X182418667Y-91543393D01*
X182440465Y-91461693D01*
X182490108Y-91407288D01*
X182577669Y-91364424D01*
X182656786Y-91322328D01*
X182692341Y-91284923D01*
X182709149Y-91232632D01*
X182716704Y-91125921D01*
X182720917Y-90953546D01*
X182708461Y-90795460D01*
X182689864Y-90738820D01*
X182661749Y-90699106D01*
X182621772Y-90671050D01*
X182563381Y-90652212D01*
X182399433Y-90639755D01*
X181627137Y-90639755D01*
X181425270Y-90650197D01*
X181360138Y-90668624D01*
X181318658Y-90698923D01*
X181292015Y-90743922D01*
X181275976Y-90814145D01*
X181267733Y-91029200D01*
X180903567Y-91029200D01*
X180903567Y-90693794D01*
X180918405Y-90471594D01*
X180941047Y-90406698D01*
X180976474Y-90357838D01*
X181029383Y-90318408D01*
X181096275Y-90293358D01*
X181179247Y-90281410D01*
X181324886Y-90276322D01*
X182667978Y-90276322D01*
X182879553Y-90291343D01*
G37*
G36*
X185529282Y-91614651D02*
G01*
X185523049Y-91737065D01*
X185507850Y-91813037D01*
X185478683Y-91875270D01*
X185434760Y-91924045D01*
X185383484Y-91955784D01*
X185321371Y-91975336D01*
X185107964Y-91987976D01*
X184457301Y-91987976D01*
X184261845Y-91998417D01*
X184199084Y-92017927D01*
X184157431Y-92052090D01*
X184130841Y-92102291D01*
X184114750Y-92181782D01*
X184106507Y-92421202D01*
X184120795Y-92591744D01*
X184142878Y-92642432D01*
X184179963Y-92681137D01*
X184216233Y-92705867D01*
X184271554Y-92718140D01*
X184363145Y-92724551D01*
X184507676Y-92726566D01*
X185187648Y-92726566D01*
X185353977Y-92728764D01*
X185432929Y-92743602D01*
X185476305Y-92764301D01*
X185513346Y-92802220D01*
X185537504Y-92851605D01*
X185545952Y-92912496D01*
X185529383Y-92999864D01*
X185485136Y-93050982D01*
X185411782Y-93078196D01*
X185271545Y-93090000D01*
X183827704Y-93090000D01*
X183628768Y-93074979D01*
X183558711Y-93051498D01*
X183508784Y-93014528D01*
X183473633Y-92962239D01*
X183450532Y-92887766D01*
X183435694Y-92675458D01*
X183435694Y-92034870D01*
X183446318Y-91837583D01*
X183463194Y-91778649D01*
X183491381Y-91728040D01*
X183544599Y-91676849D01*
X183607336Y-91645975D01*
X183685264Y-91630904D01*
X183819460Y-91624542D01*
X184784647Y-91624542D01*
X184906463Y-91624542D01*
X185044949Y-91610437D01*
X185090897Y-91589821D01*
X185124267Y-91558047D01*
X185146311Y-91513868D01*
X185160720Y-91443558D01*
X185169146Y-91242608D01*
X185169146Y-91013264D01*
X185158888Y-90810664D01*
X185140964Y-90743122D01*
X185111994Y-90698557D01*
X185069132Y-90668213D01*
X185005382Y-90650013D01*
X184814139Y-90639755D01*
X184138381Y-90639755D01*
X183969853Y-90650013D01*
X183910429Y-90665484D01*
X183869286Y-90688299D01*
X183838555Y-90720686D01*
X183818545Y-90762854D01*
X183804256Y-90887418D01*
X183800043Y-90978642D01*
X183785390Y-91113340D01*
X183758827Y-91181791D01*
X183709849Y-91222126D01*
X183622173Y-91237662D01*
X183523861Y-91220501D01*
X183472697Y-91177028D01*
X183447314Y-91101133D01*
X183435694Y-90938892D01*
X183435694Y-90683719D01*
X183450715Y-90472876D01*
X183474840Y-90399712D01*
X183513180Y-90349228D01*
X183567758Y-90314306D01*
X183647636Y-90291160D01*
X183878079Y-90276322D01*
X185074258Y-90276322D01*
X185300305Y-90289145D01*
X185373589Y-90308095D01*
X185426151Y-90335856D01*
X185477442Y-90380919D01*
X185510048Y-90443018D01*
X185525069Y-90538456D01*
X185529282Y-90683169D01*
X185529282Y-91614651D01*
G37*
G36*
X187935563Y-92636074D02*
G01*
X187920542Y-92872196D01*
X187896905Y-92953988D01*
X187860275Y-93010865D01*
X187807749Y-93050819D01*
X187734063Y-93075162D01*
X187518274Y-93090000D01*
X186280146Y-93090000D01*
X186053916Y-93075162D01*
X185974181Y-93051607D01*
X185919277Y-93015261D01*
X185880838Y-92962967D01*
X185856812Y-92889415D01*
X185841974Y-92674176D01*
X185841974Y-92435673D01*
X185848386Y-92271175D01*
X185881175Y-92193689D01*
X185942234Y-92145288D01*
X186024241Y-92128660D01*
X186112491Y-92144152D01*
X186164924Y-92185080D01*
X186194044Y-92252782D01*
X186206324Y-92377055D01*
X186216582Y-92561702D01*
X186232974Y-92624124D01*
X186257248Y-92665750D01*
X186293066Y-92695332D01*
X186344993Y-92714293D01*
X186498499Y-92726566D01*
X186913956Y-92726566D01*
X187101352Y-92716308D01*
X187165461Y-92699017D01*
X187207780Y-92671795D01*
X187236820Y-92631351D01*
X187254492Y-92571594D01*
X187264933Y-92397388D01*
X187264933Y-92096053D01*
X187254492Y-91900964D01*
X187235803Y-91837613D01*
X187203750Y-91794719D01*
X187156079Y-91766596D01*
X187080286Y-91750022D01*
X186855155Y-91741779D01*
X186263476Y-91741779D01*
X186047688Y-91726941D01*
X185973242Y-91703901D01*
X185919460Y-91668506D01*
X185881029Y-91617921D01*
X185856995Y-91545957D01*
X185841974Y-91339877D01*
X185841974Y-90623452D01*
X185859010Y-90455108D01*
X185883688Y-90394157D01*
X185921475Y-90347397D01*
X185972830Y-90313639D01*
X186043475Y-90291343D01*
X186233984Y-90276322D01*
X187501605Y-90276322D01*
X187660755Y-90288819D01*
X187740291Y-90316988D01*
X187787873Y-90370165D01*
X187805504Y-90460054D01*
X187790009Y-90547101D01*
X187748900Y-90599089D01*
X187680432Y-90627589D01*
X187551980Y-90639755D01*
X186540448Y-90639755D01*
X186353236Y-90652395D01*
X186293588Y-90670424D01*
X186259446Y-90693428D01*
X186236539Y-90733446D01*
X186216582Y-90808100D01*
X186202110Y-91034696D01*
X186214384Y-91216229D01*
X186234242Y-91277035D01*
X186265308Y-91318262D01*
X186309630Y-91346548D01*
X186374118Y-91365706D01*
X186565544Y-91378346D01*
X187497391Y-91378346D01*
X187721423Y-91393183D01*
X187799697Y-91416601D01*
X187855879Y-91453267D01*
X187896133Y-91505501D01*
X187920542Y-91577281D01*
X187935563Y-91786109D01*
X187935563Y-92636074D01*
G37*
G36*
X190239078Y-90291343D02*
G01*
X190313126Y-90314801D01*
X190365291Y-90351610D01*
X190401992Y-90404067D01*
X190425558Y-90480020D01*
X190440396Y-90693794D01*
X190440396Y-92706050D01*
X190425375Y-92898941D01*
X190402139Y-92967257D01*
X190365108Y-93016910D01*
X190313438Y-93052158D01*
X190241093Y-93075162D01*
X190035929Y-93090000D01*
X188688625Y-93090000D01*
X188468623Y-93075162D01*
X188391281Y-93050431D01*
X188338014Y-93010498D01*
X188301340Y-92954164D01*
X188277930Y-92875860D01*
X188263093Y-92651461D01*
X188263093Y-91029200D01*
X188627259Y-91029200D01*
X188627259Y-92316055D01*
X188635502Y-92542102D01*
X188649663Y-92619068D01*
X188670123Y-92665750D01*
X188703057Y-92697898D01*
X188753654Y-92716308D01*
X188911008Y-92726566D01*
X189351744Y-92726566D01*
X189587500Y-92718323D01*
X189665152Y-92702464D01*
X189710781Y-92677657D01*
X189741191Y-92638383D01*
X189759508Y-92577273D01*
X189769766Y-92387496D01*
X189769766Y-91815601D01*
X189773979Y-91672719D01*
X189778192Y-91543393D01*
X189799991Y-91461693D01*
X189849633Y-91407288D01*
X189937194Y-91364424D01*
X190016312Y-91322328D01*
X190051866Y-91284923D01*
X190068675Y-91232632D01*
X190076229Y-91125921D01*
X190080443Y-90953546D01*
X190067986Y-90795460D01*
X190049389Y-90738820D01*
X190021275Y-90699106D01*
X189981297Y-90671050D01*
X189922906Y-90652212D01*
X189758958Y-90639755D01*
X188986662Y-90639755D01*
X188784795Y-90650197D01*
X188719664Y-90668624D01*
X188678183Y-90698923D01*
X188651540Y-90743922D01*
X188635502Y-90814145D01*
X188627259Y-91029200D01*
X188263093Y-91029200D01*
X188263093Y-90693794D01*
X188277930Y-90471594D01*
X188300572Y-90406698D01*
X188335999Y-90357838D01*
X188388909Y-90318408D01*
X188455800Y-90293358D01*
X188538772Y-90281410D01*
X188684412Y-90276322D01*
X190027503Y-90276322D01*
X190239078Y-90291343D01*
G37*
G36*
X192446240Y-90293358D02*
G01*
X192514408Y-90318291D01*
X192563843Y-90355823D01*
X192599444Y-90407898D01*
X192624110Y-90482219D01*
X192641146Y-90685551D01*
X192641146Y-91025720D01*
X192645359Y-91161641D01*
X192661662Y-91246271D01*
X192694269Y-91301226D01*
X192747391Y-91344091D01*
X192801796Y-91373400D01*
X192876535Y-91427072D01*
X192921781Y-91500345D01*
X192943396Y-91617398D01*
X192947609Y-91802962D01*
X192947609Y-92747998D01*
X192936747Y-92879712D01*
X192909289Y-92965566D01*
X192870123Y-93019108D01*
X192813199Y-93054432D01*
X192720358Y-93079839D01*
X192576482Y-93090000D01*
X191174773Y-93090000D01*
X190971624Y-93072964D01*
X190897445Y-93048348D01*
X190845411Y-93012880D01*
X190807880Y-92963269D01*
X190782946Y-92894911D01*
X190765910Y-92701837D01*
X190765910Y-92043480D01*
X191134473Y-92043480D01*
X191134473Y-92434207D01*
X191150968Y-92598382D01*
X191187229Y-92671612D01*
X191257571Y-92709673D01*
X191409795Y-92726566D01*
X191879841Y-92726566D01*
X192094530Y-92718323D01*
X192165030Y-92702323D01*
X192211584Y-92675458D01*
X192243767Y-92634638D01*
X192262325Y-92575258D01*
X192272766Y-92387862D01*
X192272766Y-92043480D01*
X192262325Y-91877334D01*
X192245188Y-91821108D01*
X192217629Y-91783178D01*
X192177958Y-91757182D01*
X192119443Y-91740497D01*
X191951099Y-91730055D01*
X191422252Y-91730055D01*
X191275157Y-91742512D01*
X191224921Y-91760955D01*
X191189427Y-91789223D01*
X191164548Y-91828387D01*
X191146746Y-91885394D01*
X191134473Y-92043480D01*
X190765910Y-92043480D01*
X190765910Y-91689389D01*
X190776028Y-91559614D01*
X190800165Y-91485141D01*
X190846609Y-91425593D01*
X190932606Y-91361127D01*
X191011191Y-91311301D01*
X191051674Y-91258545D01*
X191068161Y-91172083D01*
X191072374Y-91029933D01*
X191072374Y-91003189D01*
X191436540Y-91003189D01*
X191444783Y-91196995D01*
X191459775Y-91263438D01*
X191483435Y-91305806D01*
X191518775Y-91335640D01*
X191566966Y-91354349D01*
X191716076Y-91366622D01*
X191997260Y-91366622D01*
X192144356Y-91354349D01*
X192194020Y-91335418D01*
X192227887Y-91305806D01*
X192249984Y-91263636D01*
X192264340Y-91196995D01*
X192272766Y-91003189D01*
X192264340Y-90809565D01*
X192249969Y-90742791D01*
X192227887Y-90700755D01*
X192194003Y-90670998D01*
X192144356Y-90652028D01*
X191997260Y-90639755D01*
X191716076Y-90639755D01*
X191566966Y-90652028D01*
X191518791Y-90670776D01*
X191483435Y-90700755D01*
X191459790Y-90742990D01*
X191444783Y-90809565D01*
X191436540Y-91003189D01*
X191072374Y-91003189D01*
X191072374Y-90689581D01*
X191087212Y-90482219D01*
X191109163Y-90407691D01*
X191140884Y-90356006D01*
X191186314Y-90318305D01*
X191250244Y-90293358D01*
X191430678Y-90276322D01*
X192257562Y-90276322D01*
X192446240Y-90293358D01*
G37*
G36*
X195248011Y-90291343D02*
G01*
X195322058Y-90314801D01*
X195374223Y-90351610D01*
X195410925Y-90404067D01*
X195434490Y-90480020D01*
X195449328Y-90693794D01*
X195449328Y-92706050D01*
X195434307Y-92898941D01*
X195411071Y-92967257D01*
X195374040Y-93016910D01*
X195322370Y-93052158D01*
X195250026Y-93075162D01*
X195044862Y-93090000D01*
X193697557Y-93090000D01*
X193477555Y-93075162D01*
X193400213Y-93050431D01*
X193346946Y-93010498D01*
X193310272Y-92954164D01*
X193286863Y-92875860D01*
X193272025Y-92651461D01*
X193272025Y-91029200D01*
X193636191Y-91029200D01*
X193636191Y-92316055D01*
X193644434Y-92542102D01*
X193658595Y-92619068D01*
X193679056Y-92665750D01*
X193711990Y-92697898D01*
X193762587Y-92716308D01*
X193919940Y-92726566D01*
X194360676Y-92726566D01*
X194596432Y-92718323D01*
X194674085Y-92702464D01*
X194719713Y-92677657D01*
X194750123Y-92638383D01*
X194768440Y-92577273D01*
X194778698Y-92387496D01*
X194778698Y-91815601D01*
X194782911Y-91672719D01*
X194787124Y-91543393D01*
X194808923Y-91461693D01*
X194858565Y-91407288D01*
X194946127Y-91364424D01*
X195025244Y-91322328D01*
X195060799Y-91284923D01*
X195077607Y-91232632D01*
X195085162Y-91125921D01*
X195089375Y-90953546D01*
X195076919Y-90795460D01*
X195058321Y-90738820D01*
X195030207Y-90699106D01*
X194990230Y-90671050D01*
X194931838Y-90652212D01*
X194767890Y-90639755D01*
X193995594Y-90639755D01*
X193793728Y-90650197D01*
X193728596Y-90668624D01*
X193687116Y-90698923D01*
X193660473Y-90743922D01*
X193644434Y-90814145D01*
X193636191Y-91029200D01*
X193272025Y-91029200D01*
X193272025Y-90693794D01*
X193286863Y-90471594D01*
X193309505Y-90406698D01*
X193344931Y-90357838D01*
X193397841Y-90318408D01*
X193464733Y-90293358D01*
X193547704Y-90281410D01*
X193693344Y-90276322D01*
X195036435Y-90276322D01*
X195248011Y-90291343D01*
G37*
G36*
X197599520Y-90289145D02*
G01*
X197670234Y-90308310D01*
X197719321Y-90336406D01*
X197766045Y-90389640D01*
X197794426Y-90454375D01*
X197808011Y-90535557D01*
X197813843Y-90680788D01*
X197813843Y-91595783D01*
X197817873Y-91771454D01*
X197838206Y-91876418D01*
X197880704Y-91931006D01*
X197956359Y-91959399D01*
X198056195Y-91994853D01*
X198106202Y-92028459D01*
X198134408Y-92075757D01*
X198145403Y-92153939D01*
X198134899Y-92232492D01*
X198108217Y-92279602D01*
X198062229Y-92311325D01*
X197980905Y-92336205D01*
X197894809Y-92360751D01*
X197844251Y-92407280D01*
X197819888Y-92485315D01*
X197813843Y-92608230D01*
X197813843Y-92713560D01*
X197803878Y-92861004D01*
X197779095Y-92955285D01*
X197744966Y-93012330D01*
X197692880Y-93051803D01*
X197610314Y-93079214D01*
X197484665Y-93090000D01*
X197358982Y-93079401D01*
X197273899Y-93052146D01*
X197218135Y-93012513D01*
X197179886Y-92955457D01*
X197153373Y-92868105D01*
X197143030Y-92738839D01*
X197143030Y-92608414D01*
X197130757Y-92467363D01*
X197111989Y-92418875D01*
X197082030Y-92383466D01*
X197040865Y-92358307D01*
X196981646Y-92340418D01*
X196813119Y-92327962D01*
X196187918Y-92327962D01*
X195995027Y-92313124D01*
X195936923Y-92291126D01*
X195885851Y-92255055D01*
X195846576Y-92205587D01*
X195821188Y-92139284D01*
X195809348Y-92054243D01*
X195804152Y-91894003D01*
X195804152Y-91057044D01*
X196168501Y-91057044D01*
X196168501Y-91563909D01*
X196176744Y-91785010D01*
X196205504Y-91883745D01*
X196240288Y-91923832D01*
X196288852Y-91948225D01*
X196356818Y-91959362D01*
X196502625Y-91964528D01*
X197081847Y-91964528D01*
X197285912Y-91956285D01*
X197353481Y-91939913D01*
X197396554Y-91911772D01*
X197424789Y-91868977D01*
X197441067Y-91803328D01*
X197449494Y-91597431D01*
X197449494Y-91023522D01*
X197439052Y-90813595D01*
X197420618Y-90744093D01*
X197390326Y-90698740D01*
X197344949Y-90668456D01*
X197275287Y-90650013D01*
X197069207Y-90639755D01*
X196489986Y-90639755D01*
X196313581Y-90652028D01*
X196256279Y-90672124D01*
X196217411Y-90704785D01*
X196192498Y-90752246D01*
X196176744Y-90830081D01*
X196168501Y-91057044D01*
X195804152Y-91057044D01*
X195804152Y-90743803D01*
X195809381Y-90564510D01*
X195821188Y-90471411D01*
X195846961Y-90399615D01*
X195886034Y-90349228D01*
X195941848Y-90313319D01*
X196007850Y-90291160D01*
X196238293Y-90276322D01*
X197350392Y-90276322D01*
X197599520Y-90289145D01*
G37*
G36*
X180457654Y-75566471D02*
G01*
X180446479Y-75715352D01*
X180417978Y-75815407D01*
X180377298Y-75880201D01*
X180317163Y-75925580D01*
X180225081Y-75956618D01*
X180088572Y-75968678D01*
X179934701Y-75956704D01*
X179832716Y-75926303D01*
X179767790Y-75882979D01*
X179723534Y-75819123D01*
X179692447Y-75717687D01*
X179680168Y-75563266D01*
X179680168Y-73097451D01*
X179700043Y-72893569D01*
X179728707Y-72819851D01*
X179772705Y-72762991D01*
X179832293Y-72720924D01*
X179912473Y-72692466D01*
X180132597Y-72672377D01*
X181400767Y-72672377D01*
X181540087Y-72689345D01*
X181625492Y-72732388D01*
X181674228Y-72797499D01*
X181691630Y-72891646D01*
X181673763Y-72988932D01*
X181625593Y-73048938D01*
X181547409Y-73082519D01*
X181410598Y-73096382D01*
X180445900Y-73096382D01*
X180267236Y-73113266D01*
X180207244Y-73138504D01*
X180164868Y-73178020D01*
X180136582Y-73232494D01*
X180117210Y-73316079D01*
X180105028Y-73554368D01*
X180116996Y-73772782D01*
X180137349Y-73845763D01*
X180169142Y-73893316D01*
X180216148Y-73925577D01*
X180286256Y-73945889D01*
X180499755Y-73958071D01*
X181386021Y-73958071D01*
X181540884Y-73972371D01*
X181625593Y-74006156D01*
X181677301Y-74067693D01*
X181696545Y-74170074D01*
X181677838Y-74272740D01*
X181627943Y-74334205D01*
X181546580Y-74367956D01*
X181400767Y-74382077D01*
X180822889Y-74382077D01*
X180624350Y-74394258D01*
X180559628Y-74416028D01*
X180514715Y-74454098D01*
X180485336Y-74508627D01*
X180467271Y-74591942D01*
X180457654Y-74834933D01*
X180457654Y-75566471D01*
G37*
G36*
X182706337Y-75530995D02*
G01*
X182693941Y-75741288D01*
X182674149Y-75817423D01*
X182643505Y-75871653D01*
X182599449Y-75911726D01*
X182540282Y-75937476D01*
X182371449Y-75955001D01*
X182229266Y-75946655D01*
X182150471Y-75927218D01*
X182090855Y-75887626D01*
X182042118Y-75818652D01*
X182016900Y-75720985D01*
X182011985Y-75530995D01*
X182011985Y-72964949D01*
X182024425Y-72805543D01*
X182052590Y-72724950D01*
X182106690Y-72676734D01*
X182200052Y-72658699D01*
X182289118Y-72676513D01*
X182342384Y-72724950D01*
X182370705Y-72805536D01*
X182383203Y-72964735D01*
X182383203Y-73396648D01*
X182391913Y-73502022D01*
X182411200Y-73552017D01*
X182450954Y-73584529D01*
X182539641Y-73615704D01*
X182631970Y-73654641D01*
X182675776Y-73697128D01*
X182696729Y-73760789D01*
X182706337Y-73897163D01*
X182706337Y-75530995D01*
G37*
G36*
X184712028Y-73642418D02*
G01*
X184780079Y-73663442D01*
X184827433Y-73698197D01*
X184860190Y-73747780D01*
X184880648Y-73818730D01*
X184893043Y-74024322D01*
X184893043Y-75570318D01*
X184878083Y-75768643D01*
X184855937Y-75837443D01*
X184822518Y-75886826D01*
X184775186Y-75921463D01*
X184707113Y-75942605D01*
X184509215Y-75955001D01*
X183466298Y-75955001D01*
X183270751Y-75940041D01*
X183200344Y-75917492D01*
X183152782Y-75884262D01*
X183119728Y-75836693D01*
X183097217Y-75766079D01*
X183082257Y-75569891D01*
X183082257Y-75171317D01*
X183771693Y-75171317D01*
X183771693Y-75329891D01*
X183778746Y-75469232D01*
X183791772Y-75514995D01*
X183813581Y-75545527D01*
X183891372Y-75578439D01*
X184029431Y-75585705D01*
X184269216Y-75585705D01*
X184401932Y-75576088D01*
X184477372Y-75540612D01*
X184512421Y-75466667D01*
X184522038Y-75334807D01*
X184522038Y-75186277D01*
X184514772Y-75039242D01*
X184502373Y-74990492D01*
X184482288Y-74958032D01*
X184452123Y-74935889D01*
X184406847Y-74922769D01*
X184269216Y-74915503D01*
X184024515Y-74915503D01*
X183877690Y-74929856D01*
X183816146Y-74960596D01*
X183785883Y-75022639D01*
X183771693Y-75171317D01*
X183082257Y-75171317D01*
X183082257Y-74941148D01*
X183094652Y-74735343D01*
X183115794Y-74664567D01*
X183150431Y-74614596D01*
X183200051Y-74579707D01*
X183268401Y-74558817D01*
X183466298Y-74546208D01*
X184269216Y-74546208D01*
X184401932Y-74536591D01*
X184477372Y-74501542D01*
X184512421Y-74425674D01*
X184522038Y-74292317D01*
X184522038Y-74248079D01*
X184514772Y-74114722D01*
X184502377Y-74068827D01*
X184482288Y-74038854D01*
X184452547Y-74018755D01*
X184407061Y-74006370D01*
X184269216Y-73999104D01*
X183681721Y-73999104D01*
X183570847Y-74006480D01*
X183516734Y-74022826D01*
X183483215Y-74057431D01*
X183463306Y-74127759D01*
X183453476Y-74197856D01*
X183419953Y-74295591D01*
X183361026Y-74349323D01*
X183270324Y-74368399D01*
X183176643Y-74351428D01*
X183123076Y-74306850D01*
X183094677Y-74231886D01*
X183082257Y-74085444D01*
X183082257Y-74026245D01*
X183094652Y-73819799D01*
X183115805Y-73748616D01*
X183150431Y-73698410D01*
X183200069Y-73663355D01*
X183268401Y-73642418D01*
X183466298Y-73629809D01*
X184514131Y-73629809D01*
X184712028Y-73642418D01*
G37*
G36*
X185437155Y-73106640D02*
G01*
X185449518Y-72946908D01*
X185477760Y-72864290D01*
X185532131Y-72814074D01*
X185625222Y-72795475D01*
X185718496Y-72813612D01*
X185772470Y-72862153D01*
X185800787Y-72943231D01*
X185813289Y-73103435D01*
X185813289Y-73453923D01*
X185820104Y-73558865D01*
X185833592Y-73597752D01*
X185864432Y-73617226D01*
X185943867Y-73629809D01*
X186054112Y-73645843D01*
X186122302Y-73682317D01*
X186161508Y-73736597D01*
X186175532Y-73814456D01*
X186162139Y-73893726D01*
X186125310Y-73947954D01*
X186062709Y-73983615D01*
X185963315Y-73999104D01*
X185869826Y-74011875D01*
X185833378Y-74031374D01*
X185816654Y-74070470D01*
X185808374Y-74174134D01*
X185808374Y-74277357D01*
X185817080Y-74382952D01*
X185836370Y-74433154D01*
X185876127Y-74465624D01*
X185964811Y-74496626D01*
X186057140Y-74535563D01*
X186100946Y-74578051D01*
X186121903Y-74641921D01*
X186131507Y-74778513D01*
X186131507Y-75530354D01*
X186119112Y-75740861D01*
X186099310Y-75817182D01*
X186068675Y-75871439D01*
X186024601Y-75911683D01*
X185965452Y-75937476D01*
X185796619Y-75955001D01*
X185654107Y-75946717D01*
X185573076Y-75927218D01*
X185512421Y-75887207D01*
X185467288Y-75818438D01*
X185442070Y-75720772D01*
X185437155Y-75530354D01*
X185437155Y-74203840D01*
X185432453Y-74120279D01*
X185426158Y-74060745D01*
X185412151Y-74033725D01*
X185330726Y-74004019D01*
X185267467Y-73999104D01*
X185155909Y-73969770D01*
X185096059Y-73910982D01*
X185074912Y-73816807D01*
X185088603Y-73733912D01*
X185125821Y-73678535D01*
X185188412Y-73643345D01*
X185287342Y-73629809D01*
X185370263Y-73622970D01*
X185414074Y-73590913D01*
X185432453Y-73515259D01*
X185437155Y-73376559D01*
X185437155Y-73106640D01*
G37*
G36*
X188985637Y-75572241D02*
G01*
X188969814Y-75723920D01*
X188928335Y-75828275D01*
X188865531Y-75898367D01*
X188806205Y-75932043D01*
X188735594Y-75953718D01*
X188484268Y-75968678D01*
X187049616Y-75968678D01*
X186795512Y-75951367D01*
X186706626Y-75923799D01*
X186643135Y-75880629D01*
X186598232Y-75819498D01*
X186570472Y-75735090D01*
X186553162Y-75489321D01*
X186553162Y-73122241D01*
X186573037Y-72901049D01*
X186601524Y-72820831D01*
X186643135Y-72762991D01*
X186701098Y-72721156D01*
X186782903Y-72692466D01*
X187005591Y-72672377D01*
X188518675Y-72672377D01*
X188760598Y-72692466D01*
X188846800Y-72722382D01*
X188907846Y-72767906D01*
X188950090Y-72831787D01*
X188975593Y-72923061D01*
X188990553Y-73185287D01*
X188985637Y-73411394D01*
X188970999Y-73548834D01*
X188934987Y-73629595D01*
X188872752Y-73680018D01*
X188778122Y-73698197D01*
X188675395Y-73680474D01*
X188616342Y-73634297D01*
X188583207Y-73557382D01*
X188565692Y-73415241D01*
X188546244Y-73244912D01*
X188523792Y-73188787D01*
X188487260Y-73149169D01*
X188435879Y-73123070D01*
X188355399Y-73106213D01*
X188122025Y-73096382D01*
X187367834Y-73096382D01*
X187157113Y-73110915D01*
X187085592Y-73134597D01*
X187037434Y-73172891D01*
X187005608Y-73227770D01*
X186985288Y-73310522D01*
X186973320Y-73552445D01*
X186978022Y-73719140D01*
X186997042Y-73820654D01*
X187039571Y-73884981D01*
X187116080Y-73930288D01*
X187240034Y-73995043D01*
X187279239Y-74025129D01*
X187305430Y-74063645D01*
X187328083Y-74179263D01*
X187330648Y-74384641D01*
X187330648Y-75000133D01*
X187332998Y-75159990D01*
X187340478Y-75299972D01*
X187354782Y-75390878D01*
X187387019Y-75453119D01*
X187435794Y-75494450D01*
X187547965Y-75528936D01*
X187784146Y-75544673D01*
X188122025Y-75544673D01*
X188367367Y-75532705D01*
X188447516Y-75509805D01*
X188498800Y-75470728D01*
X188531619Y-75412415D01*
X188550946Y-75320916D01*
X188560777Y-75043944D01*
X188574848Y-74901684D01*
X188608862Y-74820401D01*
X188670400Y-74770185D01*
X188773207Y-74751372D01*
X188876014Y-74770185D01*
X188937552Y-74820401D01*
X188971445Y-74902298D01*
X188985637Y-75049287D01*
X188985637Y-75572241D01*
G37*
G36*
X191147125Y-75643835D02*
G01*
X191134769Y-75803597D01*
X191106520Y-75886399D01*
X191052314Y-75936431D01*
X190959058Y-75955001D01*
X190866037Y-75936902D01*
X190814161Y-75888963D01*
X190787809Y-75808600D01*
X190776120Y-75649178D01*
X190776120Y-74252139D01*
X190761877Y-74105107D01*
X190731454Y-74043770D01*
X190670141Y-74013343D01*
X190523299Y-73999104D01*
X189965081Y-73999104D01*
X189818239Y-74013343D01*
X189756926Y-74043770D01*
X189726655Y-74105081D01*
X189712473Y-74252139D01*
X189712473Y-74389343D01*
X189721180Y-74494528D01*
X189740470Y-74544498D01*
X189780224Y-74577010D01*
X189868911Y-74608184D01*
X189961267Y-74647076D01*
X190005046Y-74689395D01*
X190025999Y-74753056D01*
X190035607Y-74889430D01*
X190035607Y-75531422D01*
X190023211Y-75741502D01*
X190003409Y-75817603D01*
X189972775Y-75871653D01*
X189928719Y-75911726D01*
X189869552Y-75937476D01*
X189700719Y-75955001D01*
X189554211Y-75946596D01*
X189474825Y-75927218D01*
X189415210Y-75887626D01*
X189366473Y-75818652D01*
X189341255Y-75720985D01*
X189336339Y-75530995D01*
X189336339Y-72964949D01*
X189348779Y-72805543D01*
X189376945Y-72724950D01*
X189431045Y-72676734D01*
X189524406Y-72658699D01*
X189617262Y-72676827D01*
X189669303Y-72724950D01*
X189695806Y-72805329D01*
X189707558Y-72964735D01*
X189707558Y-73410967D01*
X189720960Y-73527782D01*
X189752010Y-73585356D01*
X189809948Y-73616279D01*
X189930887Y-73629809D01*
X190763298Y-73629809D01*
X190960982Y-73642418D01*
X191029479Y-73663328D01*
X191078951Y-73698197D01*
X191113696Y-73748013D01*
X191134730Y-73818730D01*
X191147125Y-74024322D01*
X191147125Y-75643835D01*
G37*
G36*
X193151962Y-73642418D02*
G01*
X193222234Y-73663567D01*
X193269931Y-73698197D01*
X193302688Y-73747780D01*
X193323146Y-73818730D01*
X193335541Y-74024322D01*
X193335541Y-75570318D01*
X193320581Y-75768643D01*
X193298435Y-75837443D01*
X193265016Y-75886826D01*
X193217685Y-75921463D01*
X193149611Y-75942605D01*
X192951714Y-75955001D01*
X191908797Y-75955001D01*
X191713250Y-75942605D01*
X191643103Y-75921358D01*
X191595280Y-75886826D01*
X191561979Y-75837466D01*
X191539715Y-75768643D01*
X191524755Y-75570318D01*
X191524755Y-74252353D01*
X191895974Y-74252353D01*
X191895974Y-74389984D01*
X191904684Y-74495358D01*
X191923970Y-74545353D01*
X191963725Y-74577865D01*
X192052411Y-74609039D01*
X192144741Y-74647976D01*
X192188546Y-74690464D01*
X192209499Y-74754125D01*
X192219107Y-74890499D01*
X192219107Y-75332456D01*
X192226160Y-75470301D01*
X192239175Y-75515655D01*
X192260995Y-75545955D01*
X192338786Y-75578653D01*
X192476631Y-75585705D01*
X192711714Y-75585705D01*
X192844430Y-75576088D01*
X192919870Y-75541039D01*
X192954919Y-75465385D01*
X192964536Y-75332456D01*
X192964536Y-74252353D01*
X192950968Y-74104847D01*
X192922221Y-74043770D01*
X192862897Y-74013435D01*
X192716630Y-73999104D01*
X192148582Y-73999104D01*
X192001739Y-74013343D01*
X191940426Y-74043770D01*
X191910160Y-74105105D01*
X191895974Y-74252353D01*
X191524755Y-74252353D01*
X191524755Y-74024322D01*
X191537151Y-73818730D01*
X191558302Y-73747991D01*
X191592930Y-73698197D01*
X191642549Y-73663308D01*
X191710899Y-73642418D01*
X191908797Y-73629809D01*
X192951714Y-73629809D01*
X193151962Y-73642418D01*
G37*
G36*
X194407523Y-75530354D02*
G01*
X194395128Y-75740861D01*
X194375326Y-75817182D01*
X194344692Y-75871439D01*
X194300617Y-75911683D01*
X194241468Y-75937476D01*
X194072636Y-75955001D01*
X193930453Y-75946655D01*
X193851657Y-75927218D01*
X193792041Y-75887626D01*
X193743305Y-75818652D01*
X193718087Y-75720985D01*
X193713171Y-75530995D01*
X193713171Y-74024322D01*
X193725566Y-73818730D01*
X193746718Y-73747991D01*
X193781345Y-73698197D01*
X193830965Y-73663308D01*
X193899315Y-73642418D01*
X194097213Y-73629809D01*
X194719116Y-73629809D01*
X194878282Y-73642162D01*
X194960825Y-73670414D01*
X195011115Y-73723692D01*
X195029426Y-73812105D01*
X195010518Y-73908527D01*
X194960611Y-73961277D01*
X194878308Y-73987560D01*
X194719116Y-73999104D01*
X194336998Y-73999104D01*
X194190155Y-74013343D01*
X194128842Y-74043770D01*
X194098571Y-74105309D01*
X194084390Y-74252781D01*
X194084390Y-74277357D01*
X194093096Y-74382952D01*
X194112386Y-74433154D01*
X194152143Y-74465624D01*
X194240827Y-74496626D01*
X194333157Y-74535563D01*
X194376962Y-74578051D01*
X194397919Y-74641921D01*
X194407523Y-74778513D01*
X194407523Y-75530354D01*
G37*
G36*
X196996005Y-72677076D02*
G01*
X197048582Y-72724950D01*
X197074931Y-72805338D01*
X197086623Y-72964949D01*
X197086623Y-75570318D01*
X197071663Y-75758812D01*
X197048810Y-75827556D01*
X197013533Y-75876995D01*
X196964722Y-75912818D01*
X196898342Y-75937476D01*
X196712626Y-75955001D01*
X195659878Y-75955001D01*
X195464331Y-75942605D01*
X195394184Y-75921358D01*
X195346362Y-75886826D01*
X195313061Y-75837466D01*
X195290797Y-75768643D01*
X195275837Y-75570318D01*
X195275837Y-74252353D01*
X195647056Y-74252353D01*
X195647056Y-74389984D01*
X195655765Y-74495358D01*
X195675052Y-74545353D01*
X195714806Y-74577865D01*
X195803493Y-74609039D01*
X195895822Y-74647976D01*
X195939628Y-74690464D01*
X195960581Y-74754125D01*
X195970189Y-74890499D01*
X195970189Y-75332456D01*
X195977241Y-75470301D01*
X195990256Y-75515655D01*
X196012076Y-75545955D01*
X196089868Y-75578653D01*
X196227712Y-75585705D01*
X196462796Y-75585705D01*
X196595512Y-75576088D01*
X196673517Y-75541039D01*
X196696149Y-75510729D01*
X196710916Y-75465385D01*
X196720533Y-75332456D01*
X196720533Y-74252353D01*
X196706286Y-74105132D01*
X196675867Y-74043770D01*
X196614554Y-74013343D01*
X196467711Y-73999104D01*
X195899664Y-73999104D01*
X195752821Y-74013343D01*
X195691508Y-74043770D01*
X195661242Y-74105105D01*
X195647056Y-74252353D01*
X195275837Y-74252353D01*
X195275837Y-74019406D01*
X195288232Y-73818730D01*
X195309384Y-73747991D01*
X195344011Y-73698197D01*
X195393630Y-73663308D01*
X195461980Y-73642418D01*
X195659878Y-73629809D01*
X196497204Y-73629809D01*
X196617374Y-73616194D01*
X196673303Y-73585356D01*
X196702789Y-73528033D01*
X196715618Y-73410967D01*
X196715618Y-72964735D01*
X196728054Y-72805518D01*
X196756223Y-72724950D01*
X196809490Y-72676513D01*
X196898556Y-72658699D01*
X196996005Y-72677076D01*
G37*
D11*
X230941009Y-85319285D02*
X230988628Y-85176428D01*
X230988628Y-85176428D02*
X231036247Y-85128809D01*
X231036247Y-85128809D02*
X231131485Y-85081190D01*
X231131485Y-85081190D02*
X231274342Y-85081190D01*
X231274342Y-85081190D02*
X231369580Y-85128809D01*
X231369580Y-85128809D02*
X231417200Y-85176428D01*
X231417200Y-85176428D02*
X231464819Y-85271666D01*
X231464819Y-85271666D02*
X231464819Y-85652618D01*
X231464819Y-85652618D02*
X230464819Y-85652618D01*
X230464819Y-85652618D02*
X230464819Y-85319285D01*
X230464819Y-85319285D02*
X230512438Y-85224047D01*
X230512438Y-85224047D02*
X230560057Y-85176428D01*
X230560057Y-85176428D02*
X230655295Y-85128809D01*
X230655295Y-85128809D02*
X230750533Y-85128809D01*
X230750533Y-85128809D02*
X230845771Y-85176428D01*
X230845771Y-85176428D02*
X230893390Y-85224047D01*
X230893390Y-85224047D02*
X230941009Y-85319285D01*
X230941009Y-85319285D02*
X230941009Y-85652618D01*
X231179104Y-84700237D02*
X231179104Y-84224047D01*
X231464819Y-84795475D02*
X230464819Y-84462142D01*
X230464819Y-84462142D02*
X231464819Y-84128809D01*
X230464819Y-83938332D02*
X230464819Y-83366904D01*
X231464819Y-83652618D02*
X230464819Y-83652618D01*
X231464819Y-82509761D02*
X231464819Y-83081189D01*
X231464819Y-82795475D02*
X230464819Y-82795475D01*
X230464819Y-82795475D02*
X230607676Y-82890713D01*
X230607676Y-82890713D02*
X230702914Y-82985951D01*
X230702914Y-82985951D02*
X230750533Y-83081189D01*
X219097200Y-69143332D02*
X219144819Y-69000475D01*
X219144819Y-69000475D02*
X219144819Y-68762380D01*
X219144819Y-68762380D02*
X219097200Y-68667142D01*
X219097200Y-68667142D02*
X219049580Y-68619523D01*
X219049580Y-68619523D02*
X218954342Y-68571904D01*
X218954342Y-68571904D02*
X218859104Y-68571904D01*
X218859104Y-68571904D02*
X218763866Y-68619523D01*
X218763866Y-68619523D02*
X218716247Y-68667142D01*
X218716247Y-68667142D02*
X218668628Y-68762380D01*
X218668628Y-68762380D02*
X218621009Y-68952856D01*
X218621009Y-68952856D02*
X218573390Y-69048094D01*
X218573390Y-69048094D02*
X218525771Y-69095713D01*
X218525771Y-69095713D02*
X218430533Y-69143332D01*
X218430533Y-69143332D02*
X218335295Y-69143332D01*
X218335295Y-69143332D02*
X218240057Y-69095713D01*
X218240057Y-69095713D02*
X218192438Y-69048094D01*
X218192438Y-69048094D02*
X218144819Y-68952856D01*
X218144819Y-68952856D02*
X218144819Y-68714761D01*
X218144819Y-68714761D02*
X218192438Y-68571904D01*
X218144819Y-68238570D02*
X219144819Y-68000475D01*
X219144819Y-68000475D02*
X218430533Y-67809999D01*
X218430533Y-67809999D02*
X219144819Y-67619523D01*
X219144819Y-67619523D02*
X218144819Y-67381428D01*
X218144819Y-67095713D02*
X218144819Y-66476666D01*
X218144819Y-66476666D02*
X218525771Y-66809999D01*
X218525771Y-66809999D02*
X218525771Y-66667142D01*
X218525771Y-66667142D02*
X218573390Y-66571904D01*
X218573390Y-66571904D02*
X218621009Y-66524285D01*
X218621009Y-66524285D02*
X218716247Y-66476666D01*
X218716247Y-66476666D02*
X218954342Y-66476666D01*
X218954342Y-66476666D02*
X219049580Y-66524285D01*
X219049580Y-66524285D02*
X219097200Y-66571904D01*
X219097200Y-66571904D02*
X219144819Y-66667142D01*
X219144819Y-66667142D02*
X219144819Y-66952856D01*
X219144819Y-66952856D02*
X219097200Y-67048094D01*
X219097200Y-67048094D02*
X219049580Y-67095713D01*
X174037200Y-69043332D02*
X174084819Y-68900475D01*
X174084819Y-68900475D02*
X174084819Y-68662380D01*
X174084819Y-68662380D02*
X174037200Y-68567142D01*
X174037200Y-68567142D02*
X173989580Y-68519523D01*
X173989580Y-68519523D02*
X173894342Y-68471904D01*
X173894342Y-68471904D02*
X173799104Y-68471904D01*
X173799104Y-68471904D02*
X173703866Y-68519523D01*
X173703866Y-68519523D02*
X173656247Y-68567142D01*
X173656247Y-68567142D02*
X173608628Y-68662380D01*
X173608628Y-68662380D02*
X173561009Y-68852856D01*
X173561009Y-68852856D02*
X173513390Y-68948094D01*
X173513390Y-68948094D02*
X173465771Y-68995713D01*
X173465771Y-68995713D02*
X173370533Y-69043332D01*
X173370533Y-69043332D02*
X173275295Y-69043332D01*
X173275295Y-69043332D02*
X173180057Y-68995713D01*
X173180057Y-68995713D02*
X173132438Y-68948094D01*
X173132438Y-68948094D02*
X173084819Y-68852856D01*
X173084819Y-68852856D02*
X173084819Y-68614761D01*
X173084819Y-68614761D02*
X173132438Y-68471904D01*
X173084819Y-68138570D02*
X174084819Y-67900475D01*
X174084819Y-67900475D02*
X173370533Y-67709999D01*
X173370533Y-67709999D02*
X174084819Y-67519523D01*
X174084819Y-67519523D02*
X173084819Y-67281428D01*
X173084819Y-66709999D02*
X173084819Y-66614761D01*
X173084819Y-66614761D02*
X173132438Y-66519523D01*
X173132438Y-66519523D02*
X173180057Y-66471904D01*
X173180057Y-66471904D02*
X173275295Y-66424285D01*
X173275295Y-66424285D02*
X173465771Y-66376666D01*
X173465771Y-66376666D02*
X173703866Y-66376666D01*
X173703866Y-66376666D02*
X173894342Y-66424285D01*
X173894342Y-66424285D02*
X173989580Y-66471904D01*
X173989580Y-66471904D02*
X174037200Y-66519523D01*
X174037200Y-66519523D02*
X174084819Y-66614761D01*
X174084819Y-66614761D02*
X174084819Y-66709999D01*
X174084819Y-66709999D02*
X174037200Y-66805237D01*
X174037200Y-66805237D02*
X173989580Y-66852856D01*
X173989580Y-66852856D02*
X173894342Y-66900475D01*
X173894342Y-66900475D02*
X173703866Y-66948094D01*
X173703866Y-66948094D02*
X173465771Y-66948094D01*
X173465771Y-66948094D02*
X173275295Y-66900475D01*
X173275295Y-66900475D02*
X173180057Y-66852856D01*
X173180057Y-66852856D02*
X173132438Y-66805237D01*
X173132438Y-66805237D02*
X173084819Y-66709999D01*
X224100390Y-79693523D02*
X224062295Y-79769713D01*
X224062295Y-79769713D02*
X224062295Y-79883999D01*
X224062295Y-79883999D02*
X224100390Y-79998285D01*
X224100390Y-79998285D02*
X224176580Y-80074475D01*
X224176580Y-80074475D02*
X224252771Y-80112570D01*
X224252771Y-80112570D02*
X224405152Y-80150666D01*
X224405152Y-80150666D02*
X224519438Y-80150666D01*
X224519438Y-80150666D02*
X224671819Y-80112570D01*
X224671819Y-80112570D02*
X224748009Y-80074475D01*
X224748009Y-80074475D02*
X224824200Y-79998285D01*
X224824200Y-79998285D02*
X224862295Y-79883999D01*
X224862295Y-79883999D02*
X224862295Y-79807808D01*
X224862295Y-79807808D02*
X224824200Y-79693523D01*
X224824200Y-79693523D02*
X224786104Y-79655427D01*
X224786104Y-79655427D02*
X224519438Y-79655427D01*
X224519438Y-79655427D02*
X224519438Y-79807808D01*
X224862295Y-79312570D02*
X224062295Y-79312570D01*
X224062295Y-79312570D02*
X224862295Y-78855427D01*
X224862295Y-78855427D02*
X224062295Y-78855427D01*
X224862295Y-78474475D02*
X224062295Y-78474475D01*
X224062295Y-78474475D02*
X224062295Y-78283999D01*
X224062295Y-78283999D02*
X224100390Y-78169713D01*
X224100390Y-78169713D02*
X224176580Y-78093523D01*
X224176580Y-78093523D02*
X224252771Y-78055428D01*
X224252771Y-78055428D02*
X224405152Y-78017332D01*
X224405152Y-78017332D02*
X224519438Y-78017332D01*
X224519438Y-78017332D02*
X224671819Y-78055428D01*
X224671819Y-78055428D02*
X224748009Y-78093523D01*
X224748009Y-78093523D02*
X224824200Y-78169713D01*
X224824200Y-78169713D02*
X224862295Y-78283999D01*
X224862295Y-78283999D02*
X224862295Y-78474475D01*
X212162295Y-90615524D02*
X212162295Y-91072667D01*
X212162295Y-90844095D02*
X211362295Y-90844095D01*
X211362295Y-90844095D02*
X211476580Y-90920286D01*
X211476580Y-90920286D02*
X211552771Y-90996476D01*
X211552771Y-90996476D02*
X211590866Y-91072667D01*
X212162295Y-89853619D02*
X212162295Y-90310762D01*
X212162295Y-90082190D02*
X211362295Y-90082190D01*
X211362295Y-90082190D02*
X211476580Y-90158381D01*
X211476580Y-90158381D02*
X211552771Y-90234571D01*
X211552771Y-90234571D02*
X211590866Y-90310762D01*
X211362295Y-89586952D02*
X211362295Y-89091714D01*
X211362295Y-89091714D02*
X211667057Y-89358380D01*
X211667057Y-89358380D02*
X211667057Y-89244095D01*
X211667057Y-89244095D02*
X211705152Y-89167904D01*
X211705152Y-89167904D02*
X211743247Y-89129809D01*
X211743247Y-89129809D02*
X211819438Y-89091714D01*
X211819438Y-89091714D02*
X212009914Y-89091714D01*
X212009914Y-89091714D02*
X212086104Y-89129809D01*
X212086104Y-89129809D02*
X212124200Y-89167904D01*
X212124200Y-89167904D02*
X212162295Y-89244095D01*
X212162295Y-89244095D02*
X212162295Y-89472666D01*
X212162295Y-89472666D02*
X212124200Y-89548857D01*
X212124200Y-89548857D02*
X212086104Y-89586952D01*
X207082295Y-79541143D02*
X207082295Y-79998286D01*
X207082295Y-79769714D02*
X206282295Y-79769714D01*
X206282295Y-79769714D02*
X206396580Y-79845905D01*
X206396580Y-79845905D02*
X206472771Y-79922095D01*
X206472771Y-79922095D02*
X206510866Y-79998286D01*
X206282295Y-79045904D02*
X206282295Y-78969714D01*
X206282295Y-78969714D02*
X206320390Y-78893523D01*
X206320390Y-78893523D02*
X206358485Y-78855428D01*
X206358485Y-78855428D02*
X206434676Y-78817333D01*
X206434676Y-78817333D02*
X206587057Y-78779238D01*
X206587057Y-78779238D02*
X206777533Y-78779238D01*
X206777533Y-78779238D02*
X206929914Y-78817333D01*
X206929914Y-78817333D02*
X207006104Y-78855428D01*
X207006104Y-78855428D02*
X207044200Y-78893523D01*
X207044200Y-78893523D02*
X207082295Y-78969714D01*
X207082295Y-78969714D02*
X207082295Y-79045904D01*
X207082295Y-79045904D02*
X207044200Y-79122095D01*
X207044200Y-79122095D02*
X207006104Y-79160190D01*
X207006104Y-79160190D02*
X206929914Y-79198285D01*
X206929914Y-79198285D02*
X206777533Y-79236381D01*
X206777533Y-79236381D02*
X206587057Y-79236381D01*
X206587057Y-79236381D02*
X206434676Y-79198285D01*
X206434676Y-79198285D02*
X206358485Y-79160190D01*
X206358485Y-79160190D02*
X206320390Y-79122095D01*
X206320390Y-79122095D02*
X206282295Y-79045904D01*
X206548961Y-78093523D02*
X207082295Y-78093523D01*
X206244200Y-78283999D02*
X206815628Y-78474476D01*
X206815628Y-78474476D02*
X206815628Y-77979237D01*
X221522295Y-90882190D02*
X221522295Y-90806000D01*
X221522295Y-90806000D02*
X221560390Y-90729809D01*
X221560390Y-90729809D02*
X221598485Y-90691714D01*
X221598485Y-90691714D02*
X221674676Y-90653619D01*
X221674676Y-90653619D02*
X221827057Y-90615524D01*
X221827057Y-90615524D02*
X222017533Y-90615524D01*
X222017533Y-90615524D02*
X222169914Y-90653619D01*
X222169914Y-90653619D02*
X222246104Y-90691714D01*
X222246104Y-90691714D02*
X222284200Y-90729809D01*
X222284200Y-90729809D02*
X222322295Y-90806000D01*
X222322295Y-90806000D02*
X222322295Y-90882190D01*
X222322295Y-90882190D02*
X222284200Y-90958381D01*
X222284200Y-90958381D02*
X222246104Y-90996476D01*
X222246104Y-90996476D02*
X222169914Y-91034571D01*
X222169914Y-91034571D02*
X222017533Y-91072667D01*
X222017533Y-91072667D02*
X221827057Y-91072667D01*
X221827057Y-91072667D02*
X221674676Y-91034571D01*
X221674676Y-91034571D02*
X221598485Y-90996476D01*
X221598485Y-90996476D02*
X221560390Y-90958381D01*
X221560390Y-90958381D02*
X221522295Y-90882190D01*
X221522295Y-90348857D02*
X221522295Y-89853619D01*
X221522295Y-89853619D02*
X221827057Y-90120285D01*
X221827057Y-90120285D02*
X221827057Y-90006000D01*
X221827057Y-90006000D02*
X221865152Y-89929809D01*
X221865152Y-89929809D02*
X221903247Y-89891714D01*
X221903247Y-89891714D02*
X221979438Y-89853619D01*
X221979438Y-89853619D02*
X222169914Y-89853619D01*
X222169914Y-89853619D02*
X222246104Y-89891714D01*
X222246104Y-89891714D02*
X222284200Y-89929809D01*
X222284200Y-89929809D02*
X222322295Y-90006000D01*
X222322295Y-90006000D02*
X222322295Y-90234571D01*
X222322295Y-90234571D02*
X222284200Y-90310762D01*
X222284200Y-90310762D02*
X222246104Y-90348857D01*
X222322295Y-89091714D02*
X222322295Y-89548857D01*
X222322295Y-89320285D02*
X221522295Y-89320285D01*
X221522295Y-89320285D02*
X221636580Y-89396476D01*
X221636580Y-89396476D02*
X221712771Y-89472666D01*
X221712771Y-89472666D02*
X221750866Y-89548857D01*
X227402295Y-90571094D02*
X227021342Y-90837761D01*
X227402295Y-91028237D02*
X226602295Y-91028237D01*
X226602295Y-91028237D02*
X226602295Y-90723475D01*
X226602295Y-90723475D02*
X226640390Y-90647285D01*
X226640390Y-90647285D02*
X226678485Y-90609190D01*
X226678485Y-90609190D02*
X226754676Y-90571094D01*
X226754676Y-90571094D02*
X226868961Y-90571094D01*
X226868961Y-90571094D02*
X226945152Y-90609190D01*
X226945152Y-90609190D02*
X226983247Y-90647285D01*
X226983247Y-90647285D02*
X227021342Y-90723475D01*
X227021342Y-90723475D02*
X227021342Y-91028237D01*
X227364200Y-90266333D02*
X227402295Y-90152047D01*
X227402295Y-90152047D02*
X227402295Y-89961571D01*
X227402295Y-89961571D02*
X227364200Y-89885380D01*
X227364200Y-89885380D02*
X227326104Y-89847285D01*
X227326104Y-89847285D02*
X227249914Y-89809190D01*
X227249914Y-89809190D02*
X227173723Y-89809190D01*
X227173723Y-89809190D02*
X227097533Y-89847285D01*
X227097533Y-89847285D02*
X227059438Y-89885380D01*
X227059438Y-89885380D02*
X227021342Y-89961571D01*
X227021342Y-89961571D02*
X226983247Y-90113952D01*
X226983247Y-90113952D02*
X226945152Y-90190142D01*
X226945152Y-90190142D02*
X226907057Y-90228237D01*
X226907057Y-90228237D02*
X226830866Y-90266333D01*
X226830866Y-90266333D02*
X226754676Y-90266333D01*
X226754676Y-90266333D02*
X226678485Y-90228237D01*
X226678485Y-90228237D02*
X226640390Y-90190142D01*
X226640390Y-90190142D02*
X226602295Y-90113952D01*
X226602295Y-90113952D02*
X226602295Y-89923475D01*
X226602295Y-89923475D02*
X226640390Y-89809190D01*
X226602295Y-89580618D02*
X226602295Y-89123475D01*
X227402295Y-89352047D02*
X226602295Y-89352047D01*
X231682295Y-79807809D02*
X231682295Y-79731619D01*
X231682295Y-79731619D02*
X231720390Y-79655428D01*
X231720390Y-79655428D02*
X231758485Y-79617333D01*
X231758485Y-79617333D02*
X231834676Y-79579238D01*
X231834676Y-79579238D02*
X231987057Y-79541143D01*
X231987057Y-79541143D02*
X232177533Y-79541143D01*
X232177533Y-79541143D02*
X232329914Y-79579238D01*
X232329914Y-79579238D02*
X232406104Y-79617333D01*
X232406104Y-79617333D02*
X232444200Y-79655428D01*
X232444200Y-79655428D02*
X232482295Y-79731619D01*
X232482295Y-79731619D02*
X232482295Y-79807809D01*
X232482295Y-79807809D02*
X232444200Y-79884000D01*
X232444200Y-79884000D02*
X232406104Y-79922095D01*
X232406104Y-79922095D02*
X232329914Y-79960190D01*
X232329914Y-79960190D02*
X232177533Y-79998286D01*
X232177533Y-79998286D02*
X231987057Y-79998286D01*
X231987057Y-79998286D02*
X231834676Y-79960190D01*
X231834676Y-79960190D02*
X231758485Y-79922095D01*
X231758485Y-79922095D02*
X231720390Y-79884000D01*
X231720390Y-79884000D02*
X231682295Y-79807809D01*
X231682295Y-79045904D02*
X231682295Y-78969714D01*
X231682295Y-78969714D02*
X231720390Y-78893523D01*
X231720390Y-78893523D02*
X231758485Y-78855428D01*
X231758485Y-78855428D02*
X231834676Y-78817333D01*
X231834676Y-78817333D02*
X231987057Y-78779238D01*
X231987057Y-78779238D02*
X232177533Y-78779238D01*
X232177533Y-78779238D02*
X232329914Y-78817333D01*
X232329914Y-78817333D02*
X232406104Y-78855428D01*
X232406104Y-78855428D02*
X232444200Y-78893523D01*
X232444200Y-78893523D02*
X232482295Y-78969714D01*
X232482295Y-78969714D02*
X232482295Y-79045904D01*
X232482295Y-79045904D02*
X232444200Y-79122095D01*
X232444200Y-79122095D02*
X232406104Y-79160190D01*
X232406104Y-79160190D02*
X232329914Y-79198285D01*
X232329914Y-79198285D02*
X232177533Y-79236381D01*
X232177533Y-79236381D02*
X231987057Y-79236381D01*
X231987057Y-79236381D02*
X231834676Y-79198285D01*
X231834676Y-79198285D02*
X231758485Y-79160190D01*
X231758485Y-79160190D02*
X231720390Y-79122095D01*
X231720390Y-79122095D02*
X231682295Y-79045904D01*
X231682295Y-78093523D02*
X231682295Y-78245904D01*
X231682295Y-78245904D02*
X231720390Y-78322095D01*
X231720390Y-78322095D02*
X231758485Y-78360190D01*
X231758485Y-78360190D02*
X231872771Y-78436380D01*
X231872771Y-78436380D02*
X232025152Y-78474476D01*
X232025152Y-78474476D02*
X232329914Y-78474476D01*
X232329914Y-78474476D02*
X232406104Y-78436380D01*
X232406104Y-78436380D02*
X232444200Y-78398285D01*
X232444200Y-78398285D02*
X232482295Y-78322095D01*
X232482295Y-78322095D02*
X232482295Y-78169714D01*
X232482295Y-78169714D02*
X232444200Y-78093523D01*
X232444200Y-78093523D02*
X232406104Y-78055428D01*
X232406104Y-78055428D02*
X232329914Y-78017333D01*
X232329914Y-78017333D02*
X232139438Y-78017333D01*
X232139438Y-78017333D02*
X232063247Y-78055428D01*
X232063247Y-78055428D02*
X232025152Y-78093523D01*
X232025152Y-78093523D02*
X231987057Y-78169714D01*
X231987057Y-78169714D02*
X231987057Y-78322095D01*
X231987057Y-78322095D02*
X232025152Y-78398285D01*
X232025152Y-78398285D02*
X232063247Y-78436380D01*
X232063247Y-78436380D02*
X232139438Y-78474476D01*
X232482295Y-90571095D02*
X232101342Y-90837762D01*
X232482295Y-91028238D02*
X231682295Y-91028238D01*
X231682295Y-91028238D02*
X231682295Y-90723476D01*
X231682295Y-90723476D02*
X231720390Y-90647286D01*
X231720390Y-90647286D02*
X231758485Y-90609191D01*
X231758485Y-90609191D02*
X231834676Y-90571095D01*
X231834676Y-90571095D02*
X231948961Y-90571095D01*
X231948961Y-90571095D02*
X232025152Y-90609191D01*
X232025152Y-90609191D02*
X232063247Y-90647286D01*
X232063247Y-90647286D02*
X232101342Y-90723476D01*
X232101342Y-90723476D02*
X232101342Y-91028238D01*
X232253723Y-90266334D02*
X232253723Y-89885381D01*
X232482295Y-90342524D02*
X231682295Y-90075857D01*
X231682295Y-90075857D02*
X232482295Y-89809191D01*
X231682295Y-89618715D02*
X232482295Y-89428239D01*
X232482295Y-89428239D02*
X231910866Y-89275858D01*
X231910866Y-89275858D02*
X232482295Y-89123477D01*
X232482295Y-89123477D02*
X231682295Y-88933001D01*
X206282295Y-90882190D02*
X206282295Y-90806000D01*
X206282295Y-90806000D02*
X206320390Y-90729809D01*
X206320390Y-90729809D02*
X206358485Y-90691714D01*
X206358485Y-90691714D02*
X206434676Y-90653619D01*
X206434676Y-90653619D02*
X206587057Y-90615524D01*
X206587057Y-90615524D02*
X206777533Y-90615524D01*
X206777533Y-90615524D02*
X206929914Y-90653619D01*
X206929914Y-90653619D02*
X207006104Y-90691714D01*
X207006104Y-90691714D02*
X207044200Y-90729809D01*
X207044200Y-90729809D02*
X207082295Y-90806000D01*
X207082295Y-90806000D02*
X207082295Y-90882190D01*
X207082295Y-90882190D02*
X207044200Y-90958381D01*
X207044200Y-90958381D02*
X207006104Y-90996476D01*
X207006104Y-90996476D02*
X206929914Y-91034571D01*
X206929914Y-91034571D02*
X206777533Y-91072667D01*
X206777533Y-91072667D02*
X206587057Y-91072667D01*
X206587057Y-91072667D02*
X206434676Y-91034571D01*
X206434676Y-91034571D02*
X206358485Y-90996476D01*
X206358485Y-90996476D02*
X206320390Y-90958381D01*
X206320390Y-90958381D02*
X206282295Y-90882190D01*
X207082295Y-89853619D02*
X207082295Y-90310762D01*
X207082295Y-90082190D02*
X206282295Y-90082190D01*
X206282295Y-90082190D02*
X206396580Y-90158381D01*
X206396580Y-90158381D02*
X206472771Y-90234571D01*
X206472771Y-90234571D02*
X206510866Y-90310762D01*
X206282295Y-89358380D02*
X206282295Y-89282190D01*
X206282295Y-89282190D02*
X206320390Y-89205999D01*
X206320390Y-89205999D02*
X206358485Y-89167904D01*
X206358485Y-89167904D02*
X206434676Y-89129809D01*
X206434676Y-89129809D02*
X206587057Y-89091714D01*
X206587057Y-89091714D02*
X206777533Y-89091714D01*
X206777533Y-89091714D02*
X206929914Y-89129809D01*
X206929914Y-89129809D02*
X207006104Y-89167904D01*
X207006104Y-89167904D02*
X207044200Y-89205999D01*
X207044200Y-89205999D02*
X207082295Y-89282190D01*
X207082295Y-89282190D02*
X207082295Y-89358380D01*
X207082295Y-89358380D02*
X207044200Y-89434571D01*
X207044200Y-89434571D02*
X207006104Y-89472666D01*
X207006104Y-89472666D02*
X206929914Y-89510761D01*
X206929914Y-89510761D02*
X206777533Y-89548857D01*
X206777533Y-89548857D02*
X206587057Y-89548857D01*
X206587057Y-89548857D02*
X206434676Y-89510761D01*
X206434676Y-89510761D02*
X206358485Y-89472666D01*
X206358485Y-89472666D02*
X206320390Y-89434571D01*
X206320390Y-89434571D02*
X206282295Y-89358380D01*
X226640390Y-79693523D02*
X226602295Y-79769713D01*
X226602295Y-79769713D02*
X226602295Y-79883999D01*
X226602295Y-79883999D02*
X226640390Y-79998285D01*
X226640390Y-79998285D02*
X226716580Y-80074475D01*
X226716580Y-80074475D02*
X226792771Y-80112570D01*
X226792771Y-80112570D02*
X226945152Y-80150666D01*
X226945152Y-80150666D02*
X227059438Y-80150666D01*
X227059438Y-80150666D02*
X227211819Y-80112570D01*
X227211819Y-80112570D02*
X227288009Y-80074475D01*
X227288009Y-80074475D02*
X227364200Y-79998285D01*
X227364200Y-79998285D02*
X227402295Y-79883999D01*
X227402295Y-79883999D02*
X227402295Y-79807808D01*
X227402295Y-79807808D02*
X227364200Y-79693523D01*
X227364200Y-79693523D02*
X227326104Y-79655427D01*
X227326104Y-79655427D02*
X227059438Y-79655427D01*
X227059438Y-79655427D02*
X227059438Y-79807808D01*
X227402295Y-79312570D02*
X226602295Y-79312570D01*
X226602295Y-79312570D02*
X227402295Y-78855427D01*
X227402295Y-78855427D02*
X226602295Y-78855427D01*
X227402295Y-78474475D02*
X226602295Y-78474475D01*
X226602295Y-78474475D02*
X226602295Y-78283999D01*
X226602295Y-78283999D02*
X226640390Y-78169713D01*
X226640390Y-78169713D02*
X226716580Y-78093523D01*
X226716580Y-78093523D02*
X226792771Y-78055428D01*
X226792771Y-78055428D02*
X226945152Y-78017332D01*
X226945152Y-78017332D02*
X227059438Y-78017332D01*
X227059438Y-78017332D02*
X227211819Y-78055428D01*
X227211819Y-78055428D02*
X227288009Y-78093523D01*
X227288009Y-78093523D02*
X227364200Y-78169713D01*
X227364200Y-78169713D02*
X227402295Y-78283999D01*
X227402295Y-78283999D02*
X227402295Y-78474475D01*
X216412295Y-79807809D02*
X216412295Y-79731619D01*
X216412295Y-79731619D02*
X216450390Y-79655428D01*
X216450390Y-79655428D02*
X216488485Y-79617333D01*
X216488485Y-79617333D02*
X216564676Y-79579238D01*
X216564676Y-79579238D02*
X216717057Y-79541143D01*
X216717057Y-79541143D02*
X216907533Y-79541143D01*
X216907533Y-79541143D02*
X217059914Y-79579238D01*
X217059914Y-79579238D02*
X217136104Y-79617333D01*
X217136104Y-79617333D02*
X217174200Y-79655428D01*
X217174200Y-79655428D02*
X217212295Y-79731619D01*
X217212295Y-79731619D02*
X217212295Y-79807809D01*
X217212295Y-79807809D02*
X217174200Y-79884000D01*
X217174200Y-79884000D02*
X217136104Y-79922095D01*
X217136104Y-79922095D02*
X217059914Y-79960190D01*
X217059914Y-79960190D02*
X216907533Y-79998286D01*
X216907533Y-79998286D02*
X216717057Y-79998286D01*
X216717057Y-79998286D02*
X216564676Y-79960190D01*
X216564676Y-79960190D02*
X216488485Y-79922095D01*
X216488485Y-79922095D02*
X216450390Y-79884000D01*
X216450390Y-79884000D02*
X216412295Y-79807809D01*
X216488485Y-79236381D02*
X216450390Y-79198285D01*
X216450390Y-79198285D02*
X216412295Y-79122095D01*
X216412295Y-79122095D02*
X216412295Y-78931619D01*
X216412295Y-78931619D02*
X216450390Y-78855428D01*
X216450390Y-78855428D02*
X216488485Y-78817333D01*
X216488485Y-78817333D02*
X216564676Y-78779238D01*
X216564676Y-78779238D02*
X216640866Y-78779238D01*
X216640866Y-78779238D02*
X216755152Y-78817333D01*
X216755152Y-78817333D02*
X217212295Y-79274476D01*
X217212295Y-79274476D02*
X217212295Y-78779238D01*
X216488485Y-78474476D02*
X216450390Y-78436380D01*
X216450390Y-78436380D02*
X216412295Y-78360190D01*
X216412295Y-78360190D02*
X216412295Y-78169714D01*
X216412295Y-78169714D02*
X216450390Y-78093523D01*
X216450390Y-78093523D02*
X216488485Y-78055428D01*
X216488485Y-78055428D02*
X216564676Y-78017333D01*
X216564676Y-78017333D02*
X216640866Y-78017333D01*
X216640866Y-78017333D02*
X216755152Y-78055428D01*
X216755152Y-78055428D02*
X217212295Y-78512571D01*
X217212295Y-78512571D02*
X217212295Y-78017333D01*
X209622295Y-90615524D02*
X209622295Y-91072667D01*
X209622295Y-90844095D02*
X208822295Y-90844095D01*
X208822295Y-90844095D02*
X208936580Y-90920286D01*
X208936580Y-90920286D02*
X209012771Y-90996476D01*
X209012771Y-90996476D02*
X209050866Y-91072667D01*
X209622295Y-89853619D02*
X209622295Y-90310762D01*
X209622295Y-90082190D02*
X208822295Y-90082190D01*
X208822295Y-90082190D02*
X208936580Y-90158381D01*
X208936580Y-90158381D02*
X209012771Y-90234571D01*
X209012771Y-90234571D02*
X209050866Y-90310762D01*
X209622295Y-89091714D02*
X209622295Y-89548857D01*
X209622295Y-89320285D02*
X208822295Y-89320285D01*
X208822295Y-89320285D02*
X208936580Y-89396476D01*
X208936580Y-89396476D02*
X209012771Y-89472666D01*
X209012771Y-89472666D02*
X209050866Y-89548857D01*
X218912295Y-79807809D02*
X218912295Y-79731619D01*
X218912295Y-79731619D02*
X218950390Y-79655428D01*
X218950390Y-79655428D02*
X218988485Y-79617333D01*
X218988485Y-79617333D02*
X219064676Y-79579238D01*
X219064676Y-79579238D02*
X219217057Y-79541143D01*
X219217057Y-79541143D02*
X219407533Y-79541143D01*
X219407533Y-79541143D02*
X219559914Y-79579238D01*
X219559914Y-79579238D02*
X219636104Y-79617333D01*
X219636104Y-79617333D02*
X219674200Y-79655428D01*
X219674200Y-79655428D02*
X219712295Y-79731619D01*
X219712295Y-79731619D02*
X219712295Y-79807809D01*
X219712295Y-79807809D02*
X219674200Y-79884000D01*
X219674200Y-79884000D02*
X219636104Y-79922095D01*
X219636104Y-79922095D02*
X219559914Y-79960190D01*
X219559914Y-79960190D02*
X219407533Y-79998286D01*
X219407533Y-79998286D02*
X219217057Y-79998286D01*
X219217057Y-79998286D02*
X219064676Y-79960190D01*
X219064676Y-79960190D02*
X218988485Y-79922095D01*
X218988485Y-79922095D02*
X218950390Y-79884000D01*
X218950390Y-79884000D02*
X218912295Y-79807809D01*
X218988485Y-79236381D02*
X218950390Y-79198285D01*
X218950390Y-79198285D02*
X218912295Y-79122095D01*
X218912295Y-79122095D02*
X218912295Y-78931619D01*
X218912295Y-78931619D02*
X218950390Y-78855428D01*
X218950390Y-78855428D02*
X218988485Y-78817333D01*
X218988485Y-78817333D02*
X219064676Y-78779238D01*
X219064676Y-78779238D02*
X219140866Y-78779238D01*
X219140866Y-78779238D02*
X219255152Y-78817333D01*
X219255152Y-78817333D02*
X219712295Y-79274476D01*
X219712295Y-79274476D02*
X219712295Y-78779238D01*
X218912295Y-78283999D02*
X218912295Y-78207809D01*
X218912295Y-78207809D02*
X218950390Y-78131618D01*
X218950390Y-78131618D02*
X218988485Y-78093523D01*
X218988485Y-78093523D02*
X219064676Y-78055428D01*
X219064676Y-78055428D02*
X219217057Y-78017333D01*
X219217057Y-78017333D02*
X219407533Y-78017333D01*
X219407533Y-78017333D02*
X219559914Y-78055428D01*
X219559914Y-78055428D02*
X219636104Y-78093523D01*
X219636104Y-78093523D02*
X219674200Y-78131618D01*
X219674200Y-78131618D02*
X219712295Y-78207809D01*
X219712295Y-78207809D02*
X219712295Y-78283999D01*
X219712295Y-78283999D02*
X219674200Y-78360190D01*
X219674200Y-78360190D02*
X219636104Y-78398285D01*
X219636104Y-78398285D02*
X219559914Y-78436380D01*
X219559914Y-78436380D02*
X219407533Y-78474476D01*
X219407533Y-78474476D02*
X219217057Y-78474476D01*
X219217057Y-78474476D02*
X219064676Y-78436380D01*
X219064676Y-78436380D02*
X218988485Y-78398285D01*
X218988485Y-78398285D02*
X218950390Y-78360190D01*
X218950390Y-78360190D02*
X218912295Y-78283999D01*
X214702295Y-90615524D02*
X214702295Y-91072667D01*
X214702295Y-90844095D02*
X213902295Y-90844095D01*
X213902295Y-90844095D02*
X214016580Y-90920286D01*
X214016580Y-90920286D02*
X214092771Y-90996476D01*
X214092771Y-90996476D02*
X214130866Y-91072667D01*
X214702295Y-89853619D02*
X214702295Y-90310762D01*
X214702295Y-90082190D02*
X213902295Y-90082190D01*
X213902295Y-90082190D02*
X214016580Y-90158381D01*
X214016580Y-90158381D02*
X214092771Y-90234571D01*
X214092771Y-90234571D02*
X214130866Y-90310762D01*
X213902295Y-89129809D02*
X213902295Y-89510761D01*
X213902295Y-89510761D02*
X214283247Y-89548857D01*
X214283247Y-89548857D02*
X214245152Y-89510761D01*
X214245152Y-89510761D02*
X214207057Y-89434571D01*
X214207057Y-89434571D02*
X214207057Y-89244095D01*
X214207057Y-89244095D02*
X214245152Y-89167904D01*
X214245152Y-89167904D02*
X214283247Y-89129809D01*
X214283247Y-89129809D02*
X214359438Y-89091714D01*
X214359438Y-89091714D02*
X214549914Y-89091714D01*
X214549914Y-89091714D02*
X214626104Y-89129809D01*
X214626104Y-89129809D02*
X214664200Y-89167904D01*
X214664200Y-89167904D02*
X214702295Y-89244095D01*
X214702295Y-89244095D02*
X214702295Y-89434571D01*
X214702295Y-89434571D02*
X214664200Y-89510761D01*
X214664200Y-89510761D02*
X214626104Y-89548857D01*
X221512295Y-79807809D02*
X221512295Y-79731619D01*
X221512295Y-79731619D02*
X221550390Y-79655428D01*
X221550390Y-79655428D02*
X221588485Y-79617333D01*
X221588485Y-79617333D02*
X221664676Y-79579238D01*
X221664676Y-79579238D02*
X221817057Y-79541143D01*
X221817057Y-79541143D02*
X222007533Y-79541143D01*
X222007533Y-79541143D02*
X222159914Y-79579238D01*
X222159914Y-79579238D02*
X222236104Y-79617333D01*
X222236104Y-79617333D02*
X222274200Y-79655428D01*
X222274200Y-79655428D02*
X222312295Y-79731619D01*
X222312295Y-79731619D02*
X222312295Y-79807809D01*
X222312295Y-79807809D02*
X222274200Y-79884000D01*
X222274200Y-79884000D02*
X222236104Y-79922095D01*
X222236104Y-79922095D02*
X222159914Y-79960190D01*
X222159914Y-79960190D02*
X222007533Y-79998286D01*
X222007533Y-79998286D02*
X221817057Y-79998286D01*
X221817057Y-79998286D02*
X221664676Y-79960190D01*
X221664676Y-79960190D02*
X221588485Y-79922095D01*
X221588485Y-79922095D02*
X221550390Y-79884000D01*
X221550390Y-79884000D02*
X221512295Y-79807809D01*
X222312295Y-78779238D02*
X222312295Y-79236381D01*
X222312295Y-79007809D02*
X221512295Y-79007809D01*
X221512295Y-79007809D02*
X221626580Y-79084000D01*
X221626580Y-79084000D02*
X221702771Y-79160190D01*
X221702771Y-79160190D02*
X221740866Y-79236381D01*
X221512295Y-78512571D02*
X221512295Y-77979237D01*
X221512295Y-77979237D02*
X222312295Y-78322095D01*
D10*
X204366328Y-89834714D02*
X205366328Y-89834714D01*
X204509185Y-89834714D02*
X204437757Y-89763285D01*
X204437757Y-89763285D02*
X204366328Y-89620428D01*
X204366328Y-89620428D02*
X204366328Y-89406142D01*
X204366328Y-89406142D02*
X204437757Y-89263285D01*
X204437757Y-89263285D02*
X204580614Y-89191857D01*
X204580614Y-89191857D02*
X205366328Y-89191857D01*
X205366328Y-88477571D02*
X204366328Y-88477571D01*
X203866328Y-88477571D02*
X203937757Y-88548999D01*
X203937757Y-88548999D02*
X204009185Y-88477571D01*
X204009185Y-88477571D02*
X203937757Y-88406142D01*
X203937757Y-88406142D02*
X203866328Y-88477571D01*
X203866328Y-88477571D02*
X204009185Y-88477571D01*
X205294900Y-87120428D02*
X205366328Y-87263285D01*
X205366328Y-87263285D02*
X205366328Y-87548999D01*
X205366328Y-87548999D02*
X205294900Y-87691856D01*
X205294900Y-87691856D02*
X205223471Y-87763285D01*
X205223471Y-87763285D02*
X205080614Y-87834713D01*
X205080614Y-87834713D02*
X204652042Y-87834713D01*
X204652042Y-87834713D02*
X204509185Y-87763285D01*
X204509185Y-87763285D02*
X204437757Y-87691856D01*
X204437757Y-87691856D02*
X204366328Y-87548999D01*
X204366328Y-87548999D02*
X204366328Y-87263285D01*
X204366328Y-87263285D02*
X204437757Y-87120428D01*
X205294900Y-85906142D02*
X205366328Y-86048999D01*
X205366328Y-86048999D02*
X205366328Y-86334714D01*
X205366328Y-86334714D02*
X205294900Y-86477571D01*
X205294900Y-86477571D02*
X205152042Y-86548999D01*
X205152042Y-86548999D02*
X204580614Y-86548999D01*
X204580614Y-86548999D02*
X204437757Y-86477571D01*
X204437757Y-86477571D02*
X204366328Y-86334714D01*
X204366328Y-86334714D02*
X204366328Y-86048999D01*
X204366328Y-86048999D02*
X204437757Y-85906142D01*
X204437757Y-85906142D02*
X204580614Y-85834714D01*
X204580614Y-85834714D02*
X204723471Y-85834714D01*
X204723471Y-85834714D02*
X204866328Y-86548999D01*
X205223471Y-85191857D02*
X205294900Y-85120428D01*
X205294900Y-85120428D02*
X205366328Y-85191857D01*
X205366328Y-85191857D02*
X205294900Y-85263285D01*
X205294900Y-85263285D02*
X205223471Y-85191857D01*
X205223471Y-85191857D02*
X205366328Y-85191857D01*
X204794900Y-85191857D02*
X203937757Y-85263285D01*
X203937757Y-85263285D02*
X203866328Y-85191857D01*
X203866328Y-85191857D02*
X203937757Y-85120428D01*
X203937757Y-85120428D02*
X204794900Y-85191857D01*
X204794900Y-85191857D02*
X203866328Y-85191857D01*
X204366328Y-84477571D02*
X205366328Y-84477571D01*
X204509185Y-84477571D02*
X204437757Y-84406142D01*
X204437757Y-84406142D02*
X204366328Y-84263285D01*
X204366328Y-84263285D02*
X204366328Y-84048999D01*
X204366328Y-84048999D02*
X204437757Y-83906142D01*
X204437757Y-83906142D02*
X204580614Y-83834714D01*
X204580614Y-83834714D02*
X205366328Y-83834714D01*
X205366328Y-82477571D02*
X204580614Y-82477571D01*
X204580614Y-82477571D02*
X204437757Y-82548999D01*
X204437757Y-82548999D02*
X204366328Y-82691856D01*
X204366328Y-82691856D02*
X204366328Y-82977571D01*
X204366328Y-82977571D02*
X204437757Y-83120428D01*
X205294900Y-82477571D02*
X205366328Y-82620428D01*
X205366328Y-82620428D02*
X205366328Y-82977571D01*
X205366328Y-82977571D02*
X205294900Y-83120428D01*
X205294900Y-83120428D02*
X205152042Y-83191856D01*
X205152042Y-83191856D02*
X205009185Y-83191856D01*
X205009185Y-83191856D02*
X204866328Y-83120428D01*
X204866328Y-83120428D02*
X204794900Y-82977571D01*
X204794900Y-82977571D02*
X204794900Y-82620428D01*
X204794900Y-82620428D02*
X204723471Y-82477571D01*
X204366328Y-81763285D02*
X205366328Y-81763285D01*
X204509185Y-81763285D02*
X204437757Y-81691856D01*
X204437757Y-81691856D02*
X204366328Y-81548999D01*
X204366328Y-81548999D02*
X204366328Y-81334713D01*
X204366328Y-81334713D02*
X204437757Y-81191856D01*
X204437757Y-81191856D02*
X204580614Y-81120428D01*
X204580614Y-81120428D02*
X205366328Y-81120428D01*
X205366328Y-80191856D02*
X205294900Y-80334713D01*
X205294900Y-80334713D02*
X205223471Y-80406142D01*
X205223471Y-80406142D02*
X205080614Y-80477570D01*
X205080614Y-80477570D02*
X204652042Y-80477570D01*
X204652042Y-80477570D02*
X204509185Y-80406142D01*
X204509185Y-80406142D02*
X204437757Y-80334713D01*
X204437757Y-80334713D02*
X204366328Y-80191856D01*
X204366328Y-80191856D02*
X204366328Y-79977570D01*
X204366328Y-79977570D02*
X204437757Y-79834713D01*
X204437757Y-79834713D02*
X204509185Y-79763285D01*
X204509185Y-79763285D02*
X204652042Y-79691856D01*
X204652042Y-79691856D02*
X205080614Y-79691856D01*
X205080614Y-79691856D02*
X205223471Y-79763285D01*
X205223471Y-79763285D02*
X205294900Y-79834713D01*
X205294900Y-79834713D02*
X205366328Y-79977570D01*
X205366328Y-79977570D02*
X205366328Y-80191856D01*
D11*
X218982295Y-90882190D02*
X218982295Y-90806000D01*
X218982295Y-90806000D02*
X219020390Y-90729809D01*
X219020390Y-90729809D02*
X219058485Y-90691714D01*
X219058485Y-90691714D02*
X219134676Y-90653619D01*
X219134676Y-90653619D02*
X219287057Y-90615524D01*
X219287057Y-90615524D02*
X219477533Y-90615524D01*
X219477533Y-90615524D02*
X219629914Y-90653619D01*
X219629914Y-90653619D02*
X219706104Y-90691714D01*
X219706104Y-90691714D02*
X219744200Y-90729809D01*
X219744200Y-90729809D02*
X219782295Y-90806000D01*
X219782295Y-90806000D02*
X219782295Y-90882190D01*
X219782295Y-90882190D02*
X219744200Y-90958381D01*
X219744200Y-90958381D02*
X219706104Y-90996476D01*
X219706104Y-90996476D02*
X219629914Y-91034571D01*
X219629914Y-91034571D02*
X219477533Y-91072667D01*
X219477533Y-91072667D02*
X219287057Y-91072667D01*
X219287057Y-91072667D02*
X219134676Y-91034571D01*
X219134676Y-91034571D02*
X219058485Y-90996476D01*
X219058485Y-90996476D02*
X219020390Y-90958381D01*
X219020390Y-90958381D02*
X218982295Y-90882190D01*
X219058485Y-90310762D02*
X219020390Y-90272666D01*
X219020390Y-90272666D02*
X218982295Y-90196476D01*
X218982295Y-90196476D02*
X218982295Y-90006000D01*
X218982295Y-90006000D02*
X219020390Y-89929809D01*
X219020390Y-89929809D02*
X219058485Y-89891714D01*
X219058485Y-89891714D02*
X219134676Y-89853619D01*
X219134676Y-89853619D02*
X219210866Y-89853619D01*
X219210866Y-89853619D02*
X219325152Y-89891714D01*
X219325152Y-89891714D02*
X219782295Y-90348857D01*
X219782295Y-90348857D02*
X219782295Y-89853619D01*
X219782295Y-89472666D02*
X219782295Y-89320285D01*
X219782295Y-89320285D02*
X219744200Y-89244095D01*
X219744200Y-89244095D02*
X219706104Y-89205999D01*
X219706104Y-89205999D02*
X219591819Y-89129809D01*
X219591819Y-89129809D02*
X219439438Y-89091714D01*
X219439438Y-89091714D02*
X219134676Y-89091714D01*
X219134676Y-89091714D02*
X219058485Y-89129809D01*
X219058485Y-89129809D02*
X219020390Y-89167904D01*
X219020390Y-89167904D02*
X218982295Y-89244095D01*
X218982295Y-89244095D02*
X218982295Y-89396476D01*
X218982295Y-89396476D02*
X219020390Y-89472666D01*
X219020390Y-89472666D02*
X219058485Y-89510761D01*
X219058485Y-89510761D02*
X219134676Y-89548857D01*
X219134676Y-89548857D02*
X219325152Y-89548857D01*
X219325152Y-89548857D02*
X219401342Y-89510761D01*
X219401342Y-89510761D02*
X219439438Y-89472666D01*
X219439438Y-89472666D02*
X219477533Y-89396476D01*
X219477533Y-89396476D02*
X219477533Y-89244095D01*
X219477533Y-89244095D02*
X219439438Y-89167904D01*
X219439438Y-89167904D02*
X219401342Y-89129809D01*
X219401342Y-89129809D02*
X219325152Y-89091714D01*
X213902295Y-79807809D02*
X213902295Y-79731619D01*
X213902295Y-79731619D02*
X213940390Y-79655428D01*
X213940390Y-79655428D02*
X213978485Y-79617333D01*
X213978485Y-79617333D02*
X214054676Y-79579238D01*
X214054676Y-79579238D02*
X214207057Y-79541143D01*
X214207057Y-79541143D02*
X214397533Y-79541143D01*
X214397533Y-79541143D02*
X214549914Y-79579238D01*
X214549914Y-79579238D02*
X214626104Y-79617333D01*
X214626104Y-79617333D02*
X214664200Y-79655428D01*
X214664200Y-79655428D02*
X214702295Y-79731619D01*
X214702295Y-79731619D02*
X214702295Y-79807809D01*
X214702295Y-79807809D02*
X214664200Y-79884000D01*
X214664200Y-79884000D02*
X214626104Y-79922095D01*
X214626104Y-79922095D02*
X214549914Y-79960190D01*
X214549914Y-79960190D02*
X214397533Y-79998286D01*
X214397533Y-79998286D02*
X214207057Y-79998286D01*
X214207057Y-79998286D02*
X214054676Y-79960190D01*
X214054676Y-79960190D02*
X213978485Y-79922095D01*
X213978485Y-79922095D02*
X213940390Y-79884000D01*
X213940390Y-79884000D02*
X213902295Y-79807809D01*
X213978485Y-79236381D02*
X213940390Y-79198285D01*
X213940390Y-79198285D02*
X213902295Y-79122095D01*
X213902295Y-79122095D02*
X213902295Y-78931619D01*
X213902295Y-78931619D02*
X213940390Y-78855428D01*
X213940390Y-78855428D02*
X213978485Y-78817333D01*
X213978485Y-78817333D02*
X214054676Y-78779238D01*
X214054676Y-78779238D02*
X214130866Y-78779238D01*
X214130866Y-78779238D02*
X214245152Y-78817333D01*
X214245152Y-78817333D02*
X214702295Y-79274476D01*
X214702295Y-79274476D02*
X214702295Y-78779238D01*
X214168961Y-78093523D02*
X214702295Y-78093523D01*
X213864200Y-78283999D02*
X214435628Y-78474476D01*
X214435628Y-78474476D02*
X214435628Y-77979237D01*
X229180390Y-90609190D02*
X229142295Y-90685380D01*
X229142295Y-90685380D02*
X229142295Y-90799666D01*
X229142295Y-90799666D02*
X229180390Y-90913952D01*
X229180390Y-90913952D02*
X229256580Y-90990142D01*
X229256580Y-90990142D02*
X229332771Y-91028237D01*
X229332771Y-91028237D02*
X229485152Y-91066333D01*
X229485152Y-91066333D02*
X229599438Y-91066333D01*
X229599438Y-91066333D02*
X229751819Y-91028237D01*
X229751819Y-91028237D02*
X229828009Y-90990142D01*
X229828009Y-90990142D02*
X229904200Y-90913952D01*
X229904200Y-90913952D02*
X229942295Y-90799666D01*
X229942295Y-90799666D02*
X229942295Y-90723475D01*
X229942295Y-90723475D02*
X229904200Y-90609190D01*
X229904200Y-90609190D02*
X229866104Y-90571094D01*
X229866104Y-90571094D02*
X229599438Y-90571094D01*
X229599438Y-90571094D02*
X229599438Y-90723475D01*
X229942295Y-90228237D02*
X229142295Y-90228237D01*
X229142295Y-90228237D02*
X229942295Y-89771094D01*
X229942295Y-89771094D02*
X229142295Y-89771094D01*
X229942295Y-89390142D02*
X229142295Y-89390142D01*
X229142295Y-89390142D02*
X229142295Y-89199666D01*
X229142295Y-89199666D02*
X229180390Y-89085380D01*
X229180390Y-89085380D02*
X229256580Y-89009190D01*
X229256580Y-89009190D02*
X229332771Y-88971095D01*
X229332771Y-88971095D02*
X229485152Y-88932999D01*
X229485152Y-88932999D02*
X229599438Y-88932999D01*
X229599438Y-88932999D02*
X229751819Y-88971095D01*
X229751819Y-88971095D02*
X229828009Y-89009190D01*
X229828009Y-89009190D02*
X229904200Y-89085380D01*
X229904200Y-89085380D02*
X229942295Y-89199666D01*
X229942295Y-89199666D02*
X229942295Y-89390142D01*
X212162295Y-79541143D02*
X212162295Y-79998286D01*
X212162295Y-79769714D02*
X211362295Y-79769714D01*
X211362295Y-79769714D02*
X211476580Y-79845905D01*
X211476580Y-79845905D02*
X211552771Y-79922095D01*
X211552771Y-79922095D02*
X211590866Y-79998286D01*
X211362295Y-79045904D02*
X211362295Y-78969714D01*
X211362295Y-78969714D02*
X211400390Y-78893523D01*
X211400390Y-78893523D02*
X211438485Y-78855428D01*
X211438485Y-78855428D02*
X211514676Y-78817333D01*
X211514676Y-78817333D02*
X211667057Y-78779238D01*
X211667057Y-78779238D02*
X211857533Y-78779238D01*
X211857533Y-78779238D02*
X212009914Y-78817333D01*
X212009914Y-78817333D02*
X212086104Y-78855428D01*
X212086104Y-78855428D02*
X212124200Y-78893523D01*
X212124200Y-78893523D02*
X212162295Y-78969714D01*
X212162295Y-78969714D02*
X212162295Y-79045904D01*
X212162295Y-79045904D02*
X212124200Y-79122095D01*
X212124200Y-79122095D02*
X212086104Y-79160190D01*
X212086104Y-79160190D02*
X212009914Y-79198285D01*
X212009914Y-79198285D02*
X211857533Y-79236381D01*
X211857533Y-79236381D02*
X211667057Y-79236381D01*
X211667057Y-79236381D02*
X211514676Y-79198285D01*
X211514676Y-79198285D02*
X211438485Y-79160190D01*
X211438485Y-79160190D02*
X211400390Y-79122095D01*
X211400390Y-79122095D02*
X211362295Y-79045904D01*
X211362295Y-78283999D02*
X211362295Y-78207809D01*
X211362295Y-78207809D02*
X211400390Y-78131618D01*
X211400390Y-78131618D02*
X211438485Y-78093523D01*
X211438485Y-78093523D02*
X211514676Y-78055428D01*
X211514676Y-78055428D02*
X211667057Y-78017333D01*
X211667057Y-78017333D02*
X211857533Y-78017333D01*
X211857533Y-78017333D02*
X212009914Y-78055428D01*
X212009914Y-78055428D02*
X212086104Y-78093523D01*
X212086104Y-78093523D02*
X212124200Y-78131618D01*
X212124200Y-78131618D02*
X212162295Y-78207809D01*
X212162295Y-78207809D02*
X212162295Y-78283999D01*
X212162295Y-78283999D02*
X212124200Y-78360190D01*
X212124200Y-78360190D02*
X212086104Y-78398285D01*
X212086104Y-78398285D02*
X212009914Y-78436380D01*
X212009914Y-78436380D02*
X211857533Y-78474476D01*
X211857533Y-78474476D02*
X211667057Y-78474476D01*
X211667057Y-78474476D02*
X211514676Y-78436380D01*
X211514676Y-78436380D02*
X211438485Y-78398285D01*
X211438485Y-78398285D02*
X211400390Y-78360190D01*
X211400390Y-78360190D02*
X211362295Y-78283999D01*
X224062295Y-91148857D02*
X224862295Y-90882190D01*
X224862295Y-90882190D02*
X224062295Y-90615524D01*
X224786104Y-89891714D02*
X224824200Y-89929810D01*
X224824200Y-89929810D02*
X224862295Y-90044095D01*
X224862295Y-90044095D02*
X224862295Y-90120286D01*
X224862295Y-90120286D02*
X224824200Y-90234572D01*
X224824200Y-90234572D02*
X224748009Y-90310762D01*
X224748009Y-90310762D02*
X224671819Y-90348857D01*
X224671819Y-90348857D02*
X224519438Y-90386953D01*
X224519438Y-90386953D02*
X224405152Y-90386953D01*
X224405152Y-90386953D02*
X224252771Y-90348857D01*
X224252771Y-90348857D02*
X224176580Y-90310762D01*
X224176580Y-90310762D02*
X224100390Y-90234572D01*
X224100390Y-90234572D02*
X224062295Y-90120286D01*
X224062295Y-90120286D02*
X224062295Y-90044095D01*
X224062295Y-90044095D02*
X224100390Y-89929810D01*
X224100390Y-89929810D02*
X224138485Y-89891714D01*
X224786104Y-89091714D02*
X224824200Y-89129810D01*
X224824200Y-89129810D02*
X224862295Y-89244095D01*
X224862295Y-89244095D02*
X224862295Y-89320286D01*
X224862295Y-89320286D02*
X224824200Y-89434572D01*
X224824200Y-89434572D02*
X224748009Y-89510762D01*
X224748009Y-89510762D02*
X224671819Y-89548857D01*
X224671819Y-89548857D02*
X224519438Y-89586953D01*
X224519438Y-89586953D02*
X224405152Y-89586953D01*
X224405152Y-89586953D02*
X224252771Y-89548857D01*
X224252771Y-89548857D02*
X224176580Y-89510762D01*
X224176580Y-89510762D02*
X224100390Y-89434572D01*
X224100390Y-89434572D02*
X224062295Y-89320286D01*
X224062295Y-89320286D02*
X224062295Y-89244095D01*
X224062295Y-89244095D02*
X224100390Y-89129810D01*
X224100390Y-89129810D02*
X224138485Y-89091714D01*
X216442295Y-90882190D02*
X216442295Y-90806000D01*
X216442295Y-90806000D02*
X216480390Y-90729809D01*
X216480390Y-90729809D02*
X216518485Y-90691714D01*
X216518485Y-90691714D02*
X216594676Y-90653619D01*
X216594676Y-90653619D02*
X216747057Y-90615524D01*
X216747057Y-90615524D02*
X216937533Y-90615524D01*
X216937533Y-90615524D02*
X217089914Y-90653619D01*
X217089914Y-90653619D02*
X217166104Y-90691714D01*
X217166104Y-90691714D02*
X217204200Y-90729809D01*
X217204200Y-90729809D02*
X217242295Y-90806000D01*
X217242295Y-90806000D02*
X217242295Y-90882190D01*
X217242295Y-90882190D02*
X217204200Y-90958381D01*
X217204200Y-90958381D02*
X217166104Y-90996476D01*
X217166104Y-90996476D02*
X217089914Y-91034571D01*
X217089914Y-91034571D02*
X216937533Y-91072667D01*
X216937533Y-91072667D02*
X216747057Y-91072667D01*
X216747057Y-91072667D02*
X216594676Y-91034571D01*
X216594676Y-91034571D02*
X216518485Y-90996476D01*
X216518485Y-90996476D02*
X216480390Y-90958381D01*
X216480390Y-90958381D02*
X216442295Y-90882190D01*
X216442295Y-90120285D02*
X216442295Y-90044095D01*
X216442295Y-90044095D02*
X216480390Y-89967904D01*
X216480390Y-89967904D02*
X216518485Y-89929809D01*
X216518485Y-89929809D02*
X216594676Y-89891714D01*
X216594676Y-89891714D02*
X216747057Y-89853619D01*
X216747057Y-89853619D02*
X216937533Y-89853619D01*
X216937533Y-89853619D02*
X217089914Y-89891714D01*
X217089914Y-89891714D02*
X217166104Y-89929809D01*
X217166104Y-89929809D02*
X217204200Y-89967904D01*
X217204200Y-89967904D02*
X217242295Y-90044095D01*
X217242295Y-90044095D02*
X217242295Y-90120285D01*
X217242295Y-90120285D02*
X217204200Y-90196476D01*
X217204200Y-90196476D02*
X217166104Y-90234571D01*
X217166104Y-90234571D02*
X217089914Y-90272666D01*
X217089914Y-90272666D02*
X216937533Y-90310762D01*
X216937533Y-90310762D02*
X216747057Y-90310762D01*
X216747057Y-90310762D02*
X216594676Y-90272666D01*
X216594676Y-90272666D02*
X216518485Y-90234571D01*
X216518485Y-90234571D02*
X216480390Y-90196476D01*
X216480390Y-90196476D02*
X216442295Y-90120285D01*
X216518485Y-89548857D02*
X216480390Y-89510761D01*
X216480390Y-89510761D02*
X216442295Y-89434571D01*
X216442295Y-89434571D02*
X216442295Y-89244095D01*
X216442295Y-89244095D02*
X216480390Y-89167904D01*
X216480390Y-89167904D02*
X216518485Y-89129809D01*
X216518485Y-89129809D02*
X216594676Y-89091714D01*
X216594676Y-89091714D02*
X216670866Y-89091714D01*
X216670866Y-89091714D02*
X216785152Y-89129809D01*
X216785152Y-89129809D02*
X217242295Y-89586952D01*
X217242295Y-89586952D02*
X217242295Y-89091714D01*
X229212295Y-79807809D02*
X229212295Y-79731619D01*
X229212295Y-79731619D02*
X229250390Y-79655428D01*
X229250390Y-79655428D02*
X229288485Y-79617333D01*
X229288485Y-79617333D02*
X229364676Y-79579238D01*
X229364676Y-79579238D02*
X229517057Y-79541143D01*
X229517057Y-79541143D02*
X229707533Y-79541143D01*
X229707533Y-79541143D02*
X229859914Y-79579238D01*
X229859914Y-79579238D02*
X229936104Y-79617333D01*
X229936104Y-79617333D02*
X229974200Y-79655428D01*
X229974200Y-79655428D02*
X230012295Y-79731619D01*
X230012295Y-79731619D02*
X230012295Y-79807809D01*
X230012295Y-79807809D02*
X229974200Y-79884000D01*
X229974200Y-79884000D02*
X229936104Y-79922095D01*
X229936104Y-79922095D02*
X229859914Y-79960190D01*
X229859914Y-79960190D02*
X229707533Y-79998286D01*
X229707533Y-79998286D02*
X229517057Y-79998286D01*
X229517057Y-79998286D02*
X229364676Y-79960190D01*
X229364676Y-79960190D02*
X229288485Y-79922095D01*
X229288485Y-79922095D02*
X229250390Y-79884000D01*
X229250390Y-79884000D02*
X229212295Y-79807809D01*
X229212295Y-79045904D02*
X229212295Y-78969714D01*
X229212295Y-78969714D02*
X229250390Y-78893523D01*
X229250390Y-78893523D02*
X229288485Y-78855428D01*
X229288485Y-78855428D02*
X229364676Y-78817333D01*
X229364676Y-78817333D02*
X229517057Y-78779238D01*
X229517057Y-78779238D02*
X229707533Y-78779238D01*
X229707533Y-78779238D02*
X229859914Y-78817333D01*
X229859914Y-78817333D02*
X229936104Y-78855428D01*
X229936104Y-78855428D02*
X229974200Y-78893523D01*
X229974200Y-78893523D02*
X230012295Y-78969714D01*
X230012295Y-78969714D02*
X230012295Y-79045904D01*
X230012295Y-79045904D02*
X229974200Y-79122095D01*
X229974200Y-79122095D02*
X229936104Y-79160190D01*
X229936104Y-79160190D02*
X229859914Y-79198285D01*
X229859914Y-79198285D02*
X229707533Y-79236381D01*
X229707533Y-79236381D02*
X229517057Y-79236381D01*
X229517057Y-79236381D02*
X229364676Y-79198285D01*
X229364676Y-79198285D02*
X229288485Y-79160190D01*
X229288485Y-79160190D02*
X229250390Y-79122095D01*
X229250390Y-79122095D02*
X229212295Y-79045904D01*
X229555152Y-78322095D02*
X229517057Y-78398285D01*
X229517057Y-78398285D02*
X229478961Y-78436380D01*
X229478961Y-78436380D02*
X229402771Y-78474476D01*
X229402771Y-78474476D02*
X229364676Y-78474476D01*
X229364676Y-78474476D02*
X229288485Y-78436380D01*
X229288485Y-78436380D02*
X229250390Y-78398285D01*
X229250390Y-78398285D02*
X229212295Y-78322095D01*
X229212295Y-78322095D02*
X229212295Y-78169714D01*
X229212295Y-78169714D02*
X229250390Y-78093523D01*
X229250390Y-78093523D02*
X229288485Y-78055428D01*
X229288485Y-78055428D02*
X229364676Y-78017333D01*
X229364676Y-78017333D02*
X229402771Y-78017333D01*
X229402771Y-78017333D02*
X229478961Y-78055428D01*
X229478961Y-78055428D02*
X229517057Y-78093523D01*
X229517057Y-78093523D02*
X229555152Y-78169714D01*
X229555152Y-78169714D02*
X229555152Y-78322095D01*
X229555152Y-78322095D02*
X229593247Y-78398285D01*
X229593247Y-78398285D02*
X229631342Y-78436380D01*
X229631342Y-78436380D02*
X229707533Y-78474476D01*
X229707533Y-78474476D02*
X229859914Y-78474476D01*
X229859914Y-78474476D02*
X229936104Y-78436380D01*
X229936104Y-78436380D02*
X229974200Y-78398285D01*
X229974200Y-78398285D02*
X230012295Y-78322095D01*
X230012295Y-78322095D02*
X230012295Y-78169714D01*
X230012295Y-78169714D02*
X229974200Y-78093523D01*
X229974200Y-78093523D02*
X229936104Y-78055428D01*
X229936104Y-78055428D02*
X229859914Y-78017333D01*
X229859914Y-78017333D02*
X229707533Y-78017333D01*
X229707533Y-78017333D02*
X229631342Y-78055428D01*
X229631342Y-78055428D02*
X229593247Y-78093523D01*
X229593247Y-78093523D02*
X229555152Y-78169714D01*
D12*
X188804919Y-83488333D02*
X189519204Y-83488333D01*
X189519204Y-83488333D02*
X189662061Y-83535952D01*
X189662061Y-83535952D02*
X189757300Y-83631190D01*
X189757300Y-83631190D02*
X189804919Y-83774047D01*
X189804919Y-83774047D02*
X189804919Y-83869285D01*
X189804919Y-82488333D02*
X189804919Y-83059761D01*
X189804919Y-82774047D02*
X188804919Y-82774047D01*
X188804919Y-82774047D02*
X188947776Y-82869285D01*
X188947776Y-82869285D02*
X189043014Y-82964523D01*
X189043014Y-82964523D02*
X189090633Y-83059761D01*
D11*
X204077200Y-69063332D02*
X204124819Y-68920475D01*
X204124819Y-68920475D02*
X204124819Y-68682380D01*
X204124819Y-68682380D02*
X204077200Y-68587142D01*
X204077200Y-68587142D02*
X204029580Y-68539523D01*
X204029580Y-68539523D02*
X203934342Y-68491904D01*
X203934342Y-68491904D02*
X203839104Y-68491904D01*
X203839104Y-68491904D02*
X203743866Y-68539523D01*
X203743866Y-68539523D02*
X203696247Y-68587142D01*
X203696247Y-68587142D02*
X203648628Y-68682380D01*
X203648628Y-68682380D02*
X203601009Y-68872856D01*
X203601009Y-68872856D02*
X203553390Y-68968094D01*
X203553390Y-68968094D02*
X203505771Y-69015713D01*
X203505771Y-69015713D02*
X203410533Y-69063332D01*
X203410533Y-69063332D02*
X203315295Y-69063332D01*
X203315295Y-69063332D02*
X203220057Y-69015713D01*
X203220057Y-69015713D02*
X203172438Y-68968094D01*
X203172438Y-68968094D02*
X203124819Y-68872856D01*
X203124819Y-68872856D02*
X203124819Y-68634761D01*
X203124819Y-68634761D02*
X203172438Y-68491904D01*
X203124819Y-68158570D02*
X204124819Y-67920475D01*
X204124819Y-67920475D02*
X203410533Y-67729999D01*
X203410533Y-67729999D02*
X204124819Y-67539523D01*
X204124819Y-67539523D02*
X203124819Y-67301428D01*
X203220057Y-66968094D02*
X203172438Y-66920475D01*
X203172438Y-66920475D02*
X203124819Y-66825237D01*
X203124819Y-66825237D02*
X203124819Y-66587142D01*
X203124819Y-66587142D02*
X203172438Y-66491904D01*
X203172438Y-66491904D02*
X203220057Y-66444285D01*
X203220057Y-66444285D02*
X203315295Y-66396666D01*
X203315295Y-66396666D02*
X203410533Y-66396666D01*
X203410533Y-66396666D02*
X203553390Y-66444285D01*
X203553390Y-66444285D02*
X204124819Y-67015713D01*
X204124819Y-67015713D02*
X204124819Y-66396666D01*
X189167200Y-68923332D02*
X189214819Y-68780475D01*
X189214819Y-68780475D02*
X189214819Y-68542380D01*
X189214819Y-68542380D02*
X189167200Y-68447142D01*
X189167200Y-68447142D02*
X189119580Y-68399523D01*
X189119580Y-68399523D02*
X189024342Y-68351904D01*
X189024342Y-68351904D02*
X188929104Y-68351904D01*
X188929104Y-68351904D02*
X188833866Y-68399523D01*
X188833866Y-68399523D02*
X188786247Y-68447142D01*
X188786247Y-68447142D02*
X188738628Y-68542380D01*
X188738628Y-68542380D02*
X188691009Y-68732856D01*
X188691009Y-68732856D02*
X188643390Y-68828094D01*
X188643390Y-68828094D02*
X188595771Y-68875713D01*
X188595771Y-68875713D02*
X188500533Y-68923332D01*
X188500533Y-68923332D02*
X188405295Y-68923332D01*
X188405295Y-68923332D02*
X188310057Y-68875713D01*
X188310057Y-68875713D02*
X188262438Y-68828094D01*
X188262438Y-68828094D02*
X188214819Y-68732856D01*
X188214819Y-68732856D02*
X188214819Y-68494761D01*
X188214819Y-68494761D02*
X188262438Y-68351904D01*
X188214819Y-68018570D02*
X189214819Y-67780475D01*
X189214819Y-67780475D02*
X188500533Y-67589999D01*
X188500533Y-67589999D02*
X189214819Y-67399523D01*
X189214819Y-67399523D02*
X188214819Y-67161428D01*
X189214819Y-66256666D02*
X189214819Y-66828094D01*
X189214819Y-66542380D02*
X188214819Y-66542380D01*
X188214819Y-66542380D02*
X188357676Y-66637618D01*
X188357676Y-66637618D02*
X188452914Y-66732856D01*
X188452914Y-66732856D02*
X188500533Y-66828094D01*
X173512200Y-75618332D02*
X173559819Y-75475475D01*
X173559819Y-75475475D02*
X173559819Y-75237380D01*
X173559819Y-75237380D02*
X173512200Y-75142142D01*
X173512200Y-75142142D02*
X173464580Y-75094523D01*
X173464580Y-75094523D02*
X173369342Y-75046904D01*
X173369342Y-75046904D02*
X173274104Y-75046904D01*
X173274104Y-75046904D02*
X173178866Y-75094523D01*
X173178866Y-75094523D02*
X173131247Y-75142142D01*
X173131247Y-75142142D02*
X173083628Y-75237380D01*
X173083628Y-75237380D02*
X173036009Y-75427856D01*
X173036009Y-75427856D02*
X172988390Y-75523094D01*
X172988390Y-75523094D02*
X172940771Y-75570713D01*
X172940771Y-75570713D02*
X172845533Y-75618332D01*
X172845533Y-75618332D02*
X172750295Y-75618332D01*
X172750295Y-75618332D02*
X172655057Y-75570713D01*
X172655057Y-75570713D02*
X172607438Y-75523094D01*
X172607438Y-75523094D02*
X172559819Y-75427856D01*
X172559819Y-75427856D02*
X172559819Y-75189761D01*
X172559819Y-75189761D02*
X172607438Y-75046904D01*
X172559819Y-74713570D02*
X173559819Y-74475475D01*
X173559819Y-74475475D02*
X172845533Y-74284999D01*
X172845533Y-74284999D02*
X173559819Y-74094523D01*
X173559819Y-74094523D02*
X172559819Y-73856428D01*
X172893152Y-73046904D02*
X173559819Y-73046904D01*
X172512200Y-73284999D02*
X173226485Y-73523094D01*
X173226485Y-73523094D02*
X173226485Y-72904047D01*
D13*
%TO.C,BAT1*%
X224550000Y-82390000D02*
X224550000Y-85820000D01*
X227370000Y-81120000D02*
X228820000Y-81120000D01*
X227370000Y-87090000D02*
X228820000Y-87090000D01*
X228820000Y-81120000D02*
X228820000Y-82920000D01*
X228820000Y-82920000D02*
X229810000Y-82920000D01*
X228820000Y-87090000D02*
X228820000Y-85290000D01*
%TO.C,SW3*%
X220925000Y-68325000D02*
X220925000Y-67775000D01*
X221950000Y-66200000D02*
X221025000Y-66200000D01*
X225725000Y-66200000D02*
X224800000Y-66200000D01*
X225725000Y-69900000D02*
X221025000Y-69900000D01*
X225825000Y-68325000D02*
X225825000Y-67775000D01*
%TO.C,SW0*%
X175825000Y-68375000D02*
X175825000Y-67825000D01*
X176850000Y-66250000D02*
X175925000Y-66250000D01*
X180625000Y-66250000D02*
X179700000Y-66250000D01*
X180625000Y-69950000D02*
X175925000Y-69950000D01*
X180725000Y-68375000D02*
X180725000Y-67825000D01*
%TO.C,U2*%
X202810000Y-72935000D02*
X202810000Y-78135000D01*
X202820000Y-90725000D02*
X202820000Y-95925000D01*
D14*
X202910000Y-75655000D02*
X202910000Y-93435000D01*
X202910000Y-93435000D02*
X233390000Y-93435000D01*
D13*
X203380000Y-72935000D02*
X202810000Y-72935000D01*
X203380000Y-78135000D02*
X202810000Y-78135000D01*
X203390000Y-90725000D02*
X202820000Y-90725000D01*
X203390000Y-95925000D02*
X202820000Y-95925000D01*
X205920000Y-72935000D02*
X204900000Y-72935000D01*
X205920000Y-78135000D02*
X204900000Y-78135000D01*
X205930000Y-90725000D02*
X204910000Y-90725000D01*
X205930000Y-95925000D02*
X204910000Y-95925000D01*
X208460000Y-72935000D02*
X207440000Y-72935000D01*
X208460000Y-78135000D02*
X207440000Y-78135000D01*
X208470000Y-90725000D02*
X207450000Y-90725000D01*
X208470000Y-95925000D02*
X207450000Y-95925000D01*
X211000000Y-72935000D02*
X209980000Y-72935000D01*
X211000000Y-78135000D02*
X209980000Y-78135000D01*
X211010000Y-90725000D02*
X209990000Y-90725000D01*
X211010000Y-95925000D02*
X209990000Y-95925000D01*
X213540000Y-72935000D02*
X212520000Y-72935000D01*
X213540000Y-78135000D02*
X212520000Y-78135000D01*
X213550000Y-90725000D02*
X212530000Y-90725000D01*
X213550000Y-95925000D02*
X212530000Y-95925000D01*
X216080000Y-72935000D02*
X215060000Y-72935000D01*
X216080000Y-78135000D02*
X215060000Y-78135000D01*
X216090000Y-90725000D02*
X215070000Y-90725000D01*
X216090000Y-95925000D02*
X215070000Y-95925000D01*
X218620000Y-72935000D02*
X217600000Y-72935000D01*
X218620000Y-78135000D02*
X217600000Y-78135000D01*
X218630000Y-90725000D02*
X217610000Y-90725000D01*
X218630000Y-95925000D02*
X217610000Y-95925000D01*
X221160000Y-72935000D02*
X220140000Y-72935000D01*
X221160000Y-78135000D02*
X220140000Y-78135000D01*
X221170000Y-90725000D02*
X220150000Y-90725000D01*
X221170000Y-95925000D02*
X220150000Y-95925000D01*
X223700000Y-72935000D02*
X222680000Y-72935000D01*
X223700000Y-78135000D02*
X222680000Y-78135000D01*
X223710000Y-90725000D02*
X222690000Y-90725000D01*
X223710000Y-95925000D02*
X222690000Y-95925000D01*
X226240000Y-72935000D02*
X225220000Y-72935000D01*
X226240000Y-78135000D02*
X225220000Y-78135000D01*
X226250000Y-90725000D02*
X225230000Y-90725000D01*
X226250000Y-95925000D02*
X225230000Y-95925000D01*
X228780000Y-72935000D02*
X227760000Y-72935000D01*
X228780000Y-78135000D02*
X227760000Y-78135000D01*
X228790000Y-90725000D02*
X227770000Y-90725000D01*
X228790000Y-95925000D02*
X227770000Y-95925000D01*
X231320000Y-72935000D02*
X230300000Y-72935000D01*
X231320000Y-78135000D02*
X230300000Y-78135000D01*
X231330000Y-90725000D02*
X230310000Y-90725000D01*
X231330000Y-95925000D02*
X230310000Y-95925000D01*
X232840000Y-71495000D02*
X232840000Y-72935000D01*
X232850000Y-89285000D02*
X232850000Y-90725000D01*
D14*
X233390000Y-75655000D02*
X202910000Y-75655000D01*
X233390000Y-93435000D02*
X235930000Y-93435000D01*
D13*
X233410000Y-72935000D02*
X232840000Y-72935000D01*
X233410000Y-72935000D02*
X233410000Y-78135000D01*
X233410000Y-78135000D02*
X232840000Y-78135000D01*
X233420000Y-90725000D02*
X232850000Y-90725000D01*
X233420000Y-90725000D02*
X233420000Y-95925000D01*
X233420000Y-95925000D02*
X232850000Y-95925000D01*
D14*
X235930000Y-75655000D02*
X233390000Y-75655000D01*
X235930000Y-93435000D02*
X235930000Y-75655000D01*
D13*
%TO.C,SW5*%
X168010000Y-90920000D02*
X168010000Y-98720000D01*
X168010000Y-90920000D02*
X172110000Y-90920000D01*
X172060000Y-93920000D02*
X172060000Y-93220000D01*
X172060000Y-96420000D02*
X172060000Y-95720000D01*
X172060000Y-98720000D02*
X168010000Y-98720000D01*
D12*
X172110000Y-91720000D02*
X172110000Y-90920000D01*
X172110000Y-97820000D02*
X172110000Y-98720000D01*
D13*
%TO.C,J1*%
X174772500Y-82225000D02*
X174772500Y-79115000D01*
X174772500Y-87305000D02*
X174772500Y-83745000D01*
X174772500Y-88825000D02*
X173252500Y-88825000D01*
X174772500Y-89395000D02*
X174772500Y-88825000D01*
X177432500Y-79115000D02*
X174772500Y-79115000D01*
X177432500Y-79685000D02*
X177432500Y-79115000D01*
X177432500Y-84765000D02*
X177432500Y-81205000D01*
X177432500Y-89395000D02*
X174772500Y-89395000D01*
X177432500Y-89395000D02*
X177432500Y-86285000D01*
D15*
X174822500Y-96755000D02*
X201847500Y-96755000D01*
X201847500Y-71730000D01*
X174822500Y-71730000D01*
X174822500Y-96755000D01*
D13*
%TO.C,SW2*%
X205875000Y-68325000D02*
X205875000Y-67775000D01*
X206900000Y-66200000D02*
X205975000Y-66200000D01*
X210675000Y-66200000D02*
X209750000Y-66200000D01*
X210675000Y-69900000D02*
X205975000Y-69900000D01*
X210775000Y-68325000D02*
X210775000Y-67775000D01*
%TO.C,SW1*%
X190900000Y-68300000D02*
X190900000Y-67750000D01*
X191925000Y-66175000D02*
X191000000Y-66175000D01*
X195700000Y-66175000D02*
X194775000Y-66175000D01*
X195700000Y-69875000D02*
X191000000Y-69875000D01*
X195800000Y-68300000D02*
X195800000Y-67750000D01*
%TO.C,SW4*%
X168255000Y-71935000D02*
X168255000Y-72860000D01*
X168255000Y-75710000D02*
X168255000Y-76635000D01*
X170380000Y-71835000D02*
X169830000Y-71835000D01*
X170380000Y-76735000D02*
X169830000Y-76735000D01*
X171955000Y-71935000D02*
X171955000Y-76635000D01*
%TD*%
M02*
