%TF.GenerationSoftware,KiCad,Pcbnew,9.0.0*%
%TF.CreationDate,2025-08-04T08:15:31-07:00*%
%TF.ProjectId,flatchord,666c6174-6368-46f7-9264-2e6b69636164,rev?*%
%TF.SameCoordinates,Original*%
%TF.FileFunction,Copper,L1,Top*%
%TF.FilePolarity,Positive*%
%FSLAX46Y46*%
G04 Gerber Fmt 4.6, Leading zero omitted, Abs format (unit mm)*
G04 Created by KiCad (PCBNEW 9.0.0) date 2025-08-04 08:15:31*
%MOMM*%
%LPD*%
G01*
G04 APERTURE LIST*
G04 Aperture macros list*
%AMRoundRect*
0 Rectangle with rounded corners*
0 $1 Rounding radius*
0 $2 $3 $4 $5 $6 $7 $8 $9 X,Y pos of 4 corners*
0 Add a 4 corners polygon primitive as box body*
4,1,4,$2,$3,$4,$5,$6,$7,$8,$9,$2,$3,0*
0 Add four circle primitives for the rounded corners*
1,1,$1+$1,$2,$3*
1,1,$1+$1,$4,$5*
1,1,$1+$1,$6,$7*
1,1,$1+$1,$8,$9*
0 Add four rect primitives between the rounded corners*
20,1,$1+$1,$2,$3,$4,$5,0*
20,1,$1+$1,$4,$5,$6,$7,0*
20,1,$1+$1,$6,$7,$8,$9,0*
20,1,$1+$1,$8,$9,$2,$3,0*%
G04 Aperture macros list end*
%TA.AperFunction,SMDPad,CuDef*%
%ADD10RoundRect,0.150000X-0.700000X0.150000X-0.700000X-0.150000X0.700000X-0.150000X0.700000X0.150000X0*%
%TD*%
%TA.AperFunction,SMDPad,CuDef*%
%ADD11RoundRect,0.250000X-1.100000X0.250000X-1.100000X-0.250000X1.100000X-0.250000X1.100000X0.250000X0*%
%TD*%
%TA.AperFunction,SMDPad,CuDef*%
%ADD12R,1.550000X1.000000*%
%TD*%
%TA.AperFunction,SMDPad,CuDef*%
%ADD13R,1.000000X8.300000*%
%TD*%
%TA.AperFunction,SMDPad,CuDef*%
%ADD14RoundRect,0.240000X-1.010000X0.360000X-1.010000X-0.360000X1.010000X-0.360000X1.010000X0.360000X0*%
%TD*%
%TA.AperFunction,SMDPad,CuDef*%
%ADD15R,2.510000X1.000000*%
%TD*%
%TA.AperFunction,SMDPad,CuDef*%
%ADD16R,1.000000X1.550000*%
%TD*%
%TA.AperFunction,Conductor*%
%ADD17C,0.500000*%
%TD*%
%TA.AperFunction,Conductor*%
%ADD18C,0.300000*%
%TD*%
G04 APERTURE END LIST*
D10*
%TO.P,BAT1,1,Pin_1*%
%TO.N,/B+*%
X228960000Y-83480000D03*
%TO.P,BAT1,2,Pin_2*%
%TO.N,GND*%
X228960000Y-84730000D03*
D11*
%TO.P,BAT1,3,Pin_3*%
%TO.N,/mp*%
X225760000Y-81630000D03*
%TO.P,BAT1,4,Pin_4*%
X225760000Y-86580000D03*
%TD*%
D12*
%TO.P,SW3,1,A*%
%TO.N,/pinky*%
X220750000Y-67200000D03*
X226000000Y-67200000D03*
%TO.P,SW3,2,B*%
%TO.N,GND*%
X220750000Y-68900000D03*
X226000000Y-68900000D03*
%TD*%
%TO.P,SW0,1,A*%
%TO.N,/index*%
X175650000Y-67250000D03*
X180900000Y-67250000D03*
%TO.P,SW0,2,B*%
%TO.N,GND*%
X175650000Y-68950000D03*
X180900000Y-68950000D03*
%TD*%
D13*
%TO.P,U2,1,GP0(TX)*%
%TO.N,unconnected-(U2-GP0(TX)-Pad1)*%
X232090000Y-75485000D03*
%TO.P,U2,2,GP1(RX)*%
%TO.N,unconnected-(U2-GP1(RX)-Pad2)*%
X229530000Y-75485000D03*
%TO.P,U2,3,GND*%
%TO.N,unconnected-(U2-GND-Pad3)*%
X227010000Y-75485000D03*
%TO.P,U2,4,GND*%
%TO.N,unconnected-(U2-GND-Pad4)*%
X224490000Y-75485000D03*
%TO.P,U2,5,SDA(GP2)*%
%TO.N,/SDA*%
X221930000Y-75485000D03*
%TO.P,U2,6,SCL(GP3)*%
%TO.N,/SCL*%
X219390000Y-75485000D03*
%TO.P,U2,7,GP4*%
%TO.N,unconnected-(U2-GP4-Pad7)*%
X216860000Y-75485000D03*
%TO.P,U2,8,GP5*%
%TO.N,/pinky*%
X214300000Y-75485000D03*
%TO.P,U2,9,GP6*%
%TO.N,/ring*%
X211780000Y-75485000D03*
%TO.P,U2,10,GP7*%
%TO.N,/middle*%
X209260000Y-75485000D03*
%TO.P,U2,11,GP8*%
%TO.N,/index*%
X206700000Y-75485000D03*
%TO.P,U2,12,GP9*%
%TO.N,/thumb*%
X204160000Y-75485000D03*
%TO.P,U2,13,GP21*%
%TO.N,unconnected-(U2-GP21-Pad13)*%
X204160000Y-93315000D03*
%TO.P,U2,14,GP23*%
%TO.N,unconnected-(U2-GP23-Pad14)*%
X206700000Y-93315000D03*
%TO.P,U2,15,GP20*%
%TO.N,unconnected-(U2-GP20-Pad15)*%
X209260000Y-93315000D03*
%TO.P,U2,16,GP22*%
%TO.N,unconnected-(U2-GP22-Pad16)*%
X211780000Y-93315000D03*
%TO.P,U2,17,GP26(A0)*%
%TO.N,unconnected-(U2-GP26(A0)-Pad17)*%
X214300000Y-93315000D03*
%TO.P,U2,18,GP27(A1)*%
%TO.N,unconnected-(U2-GP27(A1)-Pad18)*%
X216860000Y-93315000D03*
%TO.P,U2,19,GP28(A2)*%
%TO.N,unconnected-(U2-GP28(A2)-Pad19)*%
X219390000Y-93315000D03*
%TO.P,U2,20,GP29(A3)*%
%TO.N,unconnected-(U2-GP29(A3)-Pad20)*%
X221930000Y-93315000D03*
%TO.P,U2,21,3v3*%
%TO.N,VCC*%
X224490000Y-93315000D03*
%TO.P,U2,22,RST*%
%TO.N,unconnected-(U2-RST-Pad22)*%
X227010000Y-93315000D03*
%TO.P,U2,23,GND*%
%TO.N,GND*%
X229530000Y-93315000D03*
%TO.P,U2,24,5V*%
%TO.N,/RAW*%
X232090000Y-93315000D03*
%TD*%
D14*
%TO.P,SW5,1,A*%
%TO.N,/B+*%
X172910000Y-92320000D03*
%TO.P,SW5,2,B*%
%TO.N,/RAW*%
X172910000Y-94820000D03*
%TO.P,SW5,3,C*%
%TO.N,unconnected-(SW5A-C-Pad3)*%
X172910000Y-97320000D03*
%TD*%
D15*
%TO.P,J1,1,Pin_1*%
%TO.N,GND*%
X174447500Y-88065000D03*
%TO.P,J1,2,Pin_2*%
%TO.N,VCC*%
X177757500Y-85525000D03*
%TO.P,J1,3,Pin_3*%
%TO.N,/SCL*%
X174447500Y-82985000D03*
%TO.P,J1,4,Pin_4*%
%TO.N,/SDA*%
X177757500Y-80445000D03*
%TD*%
D12*
%TO.P,SW2,1,A*%
%TO.N,/ring*%
X205700000Y-67200000D03*
X210950000Y-67200000D03*
%TO.P,SW2,2,B*%
%TO.N,GND*%
X205700000Y-68900000D03*
X210950000Y-68900000D03*
%TD*%
%TO.P,SW1,1,A*%
%TO.N,/middle*%
X190725000Y-67175000D03*
X195975000Y-67175000D03*
%TO.P,SW1,2,B*%
%TO.N,GND*%
X190725000Y-68875000D03*
X195975000Y-68875000D03*
%TD*%
D16*
%TO.P,SW4,1,A*%
%TO.N,/thumb*%
X169255000Y-76910000D03*
X169255000Y-71660000D03*
%TO.P,SW4,2,B*%
%TO.N,GND*%
X170955000Y-76910000D03*
X170955000Y-71660000D03*
%TD*%
D17*
%TO.N,/B+*%
X171050000Y-91750000D02*
X171620000Y-92320000D01*
X232580000Y-83480000D02*
X235250000Y-86150000D01*
X171620000Y-92320000D02*
X172910000Y-92320000D01*
X233851000Y-99199000D02*
X170599000Y-99199000D01*
X168900000Y-92400000D02*
X169550000Y-91750000D01*
X170599000Y-99199000D02*
X168900000Y-97500000D01*
X235250000Y-97800000D02*
X233851000Y-99199000D01*
X169550000Y-91750000D02*
X171050000Y-91750000D01*
X235250000Y-86150000D02*
X235250000Y-97800000D01*
X168900000Y-97500000D02*
X168900000Y-92400000D01*
X228960000Y-83480000D02*
X232580000Y-83480000D01*
%TO.N,/SCL*%
X217665000Y-82985000D02*
X219380000Y-81270000D01*
X174447500Y-82985000D02*
X217665000Y-82985000D01*
X219380000Y-81270000D02*
X219380000Y-78060000D01*
%TO.N,VCC*%
X177757500Y-85525000D02*
X221575000Y-85525000D01*
X224470000Y-88420000D02*
X224470000Y-90800000D01*
X221575000Y-85525000D02*
X224470000Y-88420000D01*
%TO.N,/SDA*%
X179585000Y-80445000D02*
X180460000Y-81320000D01*
X177757500Y-80445000D02*
X179585000Y-80445000D01*
X217950000Y-80400000D02*
X217950000Y-71463000D01*
X221920000Y-71370000D02*
X221920000Y-73010000D01*
X221100000Y-70550000D02*
X221920000Y-71370000D01*
X217950000Y-71463000D02*
X218863000Y-70550000D01*
X180460000Y-81320000D02*
X217030000Y-81320000D01*
X217030000Y-81320000D02*
X217950000Y-80400000D01*
X218863000Y-70550000D02*
X221100000Y-70550000D01*
D18*
%TO.N,/index*%
X175650000Y-67250000D02*
X176450000Y-68050000D01*
D17*
X206680000Y-73010000D02*
X206680000Y-71880000D01*
X206680000Y-71880000D02*
X205551000Y-70751000D01*
X187701000Y-70751000D02*
X184200000Y-67250000D01*
D18*
X180100000Y-68050000D02*
X180900000Y-67250000D01*
D17*
X205551000Y-70751000D02*
X187701000Y-70751000D01*
X184200000Y-67250000D02*
X180900000Y-67250000D01*
D18*
X176450000Y-68050000D02*
X180100000Y-68050000D01*
D17*
%TO.N,/middle*%
X207250000Y-70175000D02*
X207250000Y-70100000D01*
D18*
X190725000Y-67175000D02*
X191550000Y-68000000D01*
D17*
X207250000Y-70100000D02*
X207200000Y-70050000D01*
X209220000Y-73010000D02*
X209220000Y-72145000D01*
D18*
X195150000Y-68000000D02*
X195975000Y-67175000D01*
X191550000Y-68000000D02*
X195150000Y-68000000D01*
D17*
X207200000Y-70050000D02*
X201900000Y-70050000D01*
X209220000Y-72145000D02*
X207250000Y-70175000D01*
X201900000Y-70050000D02*
X199025000Y-67175000D01*
X199025000Y-67175000D02*
X195975000Y-67175000D01*
D18*
%TO.N,/ring*%
X206549000Y-68049000D02*
X210101000Y-68049000D01*
D17*
X212700000Y-72070000D02*
X212700000Y-68000000D01*
D18*
X210101000Y-68049000D02*
X210950000Y-67200000D01*
D17*
X212700000Y-68000000D02*
X211900000Y-67200000D01*
D18*
X205700000Y-67200000D02*
X206549000Y-68049000D01*
D17*
X211760000Y-73010000D02*
X212700000Y-72070000D01*
X211900000Y-67200000D02*
X210950000Y-67200000D01*
%TO.N,/pinky*%
X214300000Y-73010000D02*
X214300000Y-71450000D01*
X214300000Y-71450000D02*
X218550000Y-67200000D01*
D18*
X221600000Y-68050000D02*
X225150000Y-68050000D01*
D17*
X218550000Y-67200000D02*
X220750000Y-67200000D01*
D18*
X225150000Y-68050000D02*
X226000000Y-67200000D01*
X220750000Y-67200000D02*
X221600000Y-68050000D01*
%TO.N,/thumb*%
X169255000Y-71660000D02*
X170050000Y-72455000D01*
X170050000Y-76115000D02*
X169255000Y-76910000D01*
D17*
X169750000Y-78350000D02*
X169255000Y-77855000D01*
X201295000Y-78350000D02*
X169750000Y-78350000D01*
X204160000Y-75485000D02*
X201295000Y-78350000D01*
X169255000Y-77855000D02*
X169255000Y-76910000D01*
D18*
X170050000Y-72455000D02*
X170050000Y-76115000D01*
D17*
%TO.N,/RAW*%
X232090000Y-97610000D02*
X232090000Y-95850000D01*
X172910000Y-94820000D02*
X173890000Y-94820000D01*
X173890000Y-94820000D02*
X177370000Y-98300000D01*
X231400000Y-98300000D02*
X232090000Y-97610000D01*
X177370000Y-98300000D02*
X231400000Y-98300000D01*
%TO.N,/mp*%
X225760000Y-81630000D02*
X225760000Y-86580000D01*
%TD*%
%TA.AperFunction,Conductor*%
%TO.N,GND*%
G36*
X235064352Y-65864352D02*
G01*
X236244787Y-67044787D01*
X236259014Y-67075939D01*
X236269201Y-67218368D01*
X236269326Y-67221864D01*
X236269326Y-98377957D01*
X236269175Y-98381801D01*
X236251662Y-98604348D01*
X236250459Y-98611942D01*
X236198800Y-98827124D01*
X236196424Y-98834437D01*
X236170563Y-98896871D01*
X236156082Y-98916239D01*
X235046974Y-99812059D01*
X235020029Y-99822789D01*
X234811802Y-99839175D01*
X234807958Y-99839326D01*
X234776978Y-99839326D01*
X234776897Y-99839335D01*
X169353312Y-99859282D01*
X169353300Y-99859282D01*
X169346691Y-99859282D01*
X169346412Y-99859124D01*
X169321217Y-99859283D01*
X169320925Y-99859284D01*
X169320898Y-99859273D01*
X169317725Y-99859180D01*
X169112935Y-99845788D01*
X169105980Y-99844829D01*
X168979302Y-99818002D01*
X168954807Y-99804715D01*
X167895504Y-98745496D01*
X167882280Y-98721303D01*
X167856498Y-98603276D01*
X167855498Y-98596351D01*
X167840800Y-98391637D01*
X167840674Y-98388128D01*
X167840674Y-92340688D01*
X168449500Y-92340688D01*
X168449500Y-97559310D01*
X168462963Y-97609552D01*
X168462963Y-97609553D01*
X168480200Y-97673886D01*
X168480201Y-97673888D01*
X168539511Y-97776614D01*
X170322386Y-99559490D01*
X170425113Y-99618799D01*
X170449326Y-99625286D01*
X170494508Y-99637393D01*
X170539689Y-99649500D01*
X170539691Y-99649500D01*
X233910311Y-99649500D01*
X233940430Y-99641428D01*
X234000673Y-99625286D01*
X234024887Y-99618799D01*
X234127614Y-99559489D01*
X235610490Y-98076614D01*
X235669799Y-97973887D01*
X235679010Y-97939511D01*
X235700500Y-97859309D01*
X235700500Y-86090691D01*
X235700500Y-86090688D01*
X235671469Y-85982346D01*
X235671468Y-85982342D01*
X235671468Y-85982343D01*
X235669799Y-85976114D01*
X235669799Y-85976113D01*
X235610489Y-85873386D01*
X232856614Y-83119511D01*
X232753888Y-83060201D01*
X232753886Y-83060200D01*
X232729673Y-83053713D01*
X232699551Y-83045642D01*
X232639311Y-83029500D01*
X232639309Y-83029500D01*
X229854700Y-83029500D01*
X229833180Y-83024521D01*
X229761396Y-82989428D01*
X229761394Y-82989427D01*
X229761393Y-82989427D01*
X229738682Y-82986118D01*
X229693262Y-82979500D01*
X229693260Y-82979500D01*
X228226740Y-82979500D01*
X228226738Y-82979500D01*
X228158605Y-82989427D01*
X228158603Y-82989428D01*
X228053519Y-83040801D01*
X228053515Y-83040803D01*
X227970803Y-83123515D01*
X227970801Y-83123519D01*
X227919428Y-83228603D01*
X227919427Y-83228605D01*
X227919427Y-83228607D01*
X227909500Y-83296740D01*
X227909500Y-83663260D01*
X227919427Y-83731393D01*
X227970802Y-83836483D01*
X228053517Y-83919198D01*
X228158607Y-83970573D01*
X228206884Y-83977606D01*
X228226738Y-83980500D01*
X228226740Y-83980500D01*
X229693262Y-83980500D01*
X229707076Y-83978486D01*
X229761393Y-83970573D01*
X229803867Y-83949808D01*
X229833180Y-83935479D01*
X229854700Y-83930500D01*
X232373101Y-83930500D01*
X232407749Y-83944852D01*
X234785148Y-86322251D01*
X234799500Y-86356899D01*
X234799500Y-97593100D01*
X234785148Y-97627748D01*
X233678749Y-98734148D01*
X233644101Y-98748500D01*
X231706264Y-98748500D01*
X231671616Y-98734148D01*
X231657264Y-98699500D01*
X231671616Y-98664852D01*
X231676439Y-98660622D01*
X231676603Y-98660495D01*
X231676614Y-98660489D01*
X232450489Y-97886614D01*
X232509798Y-97783887D01*
X232509799Y-97783886D01*
X232509800Y-97783884D01*
X232531790Y-97701818D01*
X232554620Y-97672065D01*
X232579120Y-97665500D01*
X232609745Y-97665500D01*
X232609748Y-97665500D01*
X232668231Y-97653867D01*
X232734552Y-97609552D01*
X232778867Y-97543231D01*
X232790500Y-97484748D01*
X232790500Y-89145252D01*
X232778867Y-89086769D01*
X232752301Y-89047012D01*
X232734552Y-89020447D01*
X232694795Y-88993882D01*
X232668231Y-88976133D01*
X232609748Y-88964500D01*
X231570252Y-88964500D01*
X231511769Y-88976133D01*
X231445447Y-89020447D01*
X231401133Y-89086769D01*
X231389500Y-89145252D01*
X231389500Y-97484748D01*
X231401133Y-97543231D01*
X231415678Y-97564999D01*
X231426269Y-97580849D01*
X231433585Y-97617631D01*
X231420175Y-97642720D01*
X231227749Y-97835148D01*
X231193101Y-97849500D01*
X177576899Y-97849500D01*
X177542251Y-97835148D01*
X174374852Y-94667749D01*
X174360500Y-94633101D01*
X174360500Y-94454038D01*
X175397000Y-94454038D01*
X175397000Y-94705961D01*
X175436409Y-94954782D01*
X175436410Y-94954785D01*
X175514259Y-95194380D01*
X175628628Y-95418842D01*
X175628630Y-95418845D01*
X175741247Y-95573850D01*
X175776708Y-95622657D01*
X175776712Y-95622662D01*
X175954838Y-95800788D01*
X175954842Y-95800791D01*
X175954844Y-95800793D01*
X176158655Y-95948870D01*
X176383121Y-96063241D01*
X176622715Y-96141090D01*
X176871538Y-96180500D01*
X176871539Y-96180500D01*
X177123461Y-96180500D01*
X177123462Y-96180500D01*
X177372285Y-96141090D01*
X177611879Y-96063241D01*
X177836345Y-95948870D01*
X178040156Y-95800793D01*
X178040159Y-95800789D01*
X178040162Y-95800788D01*
X178218288Y-95622662D01*
X178218289Y-95622659D01*
X178218293Y-95622656D01*
X178366370Y-95418845D01*
X178480741Y-95194379D01*
X178558590Y-94954785D01*
X178598000Y-94705962D01*
X178598000Y-94454038D01*
X198047000Y-94454038D01*
X198047000Y-94705961D01*
X198086409Y-94954782D01*
X198086410Y-94954785D01*
X198164259Y-95194380D01*
X198278628Y-95418842D01*
X198278630Y-95418845D01*
X198391247Y-95573850D01*
X198426708Y-95622657D01*
X198426712Y-95622662D01*
X198604838Y-95800788D01*
X198604842Y-95800791D01*
X198604844Y-95800793D01*
X198808655Y-95948870D01*
X199033121Y-96063241D01*
X199272715Y-96141090D01*
X199521538Y-96180500D01*
X199521539Y-96180500D01*
X199773461Y-96180500D01*
X199773462Y-96180500D01*
X200022285Y-96141090D01*
X200261879Y-96063241D01*
X200486345Y-95948870D01*
X200690156Y-95800793D01*
X200690159Y-95800789D01*
X200690162Y-95800788D01*
X200868288Y-95622662D01*
X200868289Y-95622659D01*
X200868293Y-95622656D01*
X201016370Y-95418845D01*
X201130741Y-95194379D01*
X201208590Y-94954785D01*
X201248000Y-94705962D01*
X201248000Y-94454038D01*
X201208590Y-94205215D01*
X201130741Y-93965621D01*
X201016370Y-93741155D01*
X200868293Y-93537344D01*
X200868291Y-93537342D01*
X200868288Y-93537338D01*
X200690162Y-93359212D01*
X200690157Y-93359208D01*
X200486342Y-93211128D01*
X200261880Y-93096759D01*
X200022285Y-93018910D01*
X200022282Y-93018909D01*
X199828322Y-92988189D01*
X199773462Y-92979500D01*
X199521538Y-92979500D01*
X199474712Y-92986916D01*
X199272717Y-93018909D01*
X199272714Y-93018910D01*
X199033119Y-93096759D01*
X198808657Y-93211128D01*
X198604842Y-93359208D01*
X198426708Y-93537342D01*
X198278628Y-93741157D01*
X198164259Y-93965619D01*
X198086410Y-94205214D01*
X198086409Y-94205217D01*
X198047000Y-94454038D01*
X178598000Y-94454038D01*
X178558590Y-94205215D01*
X178480741Y-93965621D01*
X178366370Y-93741155D01*
X178218293Y-93537344D01*
X178218291Y-93537342D01*
X178218288Y-93537338D01*
X178040162Y-93359212D01*
X178040157Y-93359208D01*
X177836342Y-93211128D01*
X177611880Y-93096759D01*
X177372285Y-93018910D01*
X177372282Y-93018909D01*
X177178322Y-92988189D01*
X177123462Y-92979500D01*
X176871538Y-92979500D01*
X176824712Y-92986916D01*
X176622717Y-93018909D01*
X176622714Y-93018910D01*
X176383119Y-93096759D01*
X176158657Y-93211128D01*
X175954842Y-93359208D01*
X175776708Y-93537342D01*
X175628628Y-93741157D01*
X175514259Y-93965619D01*
X175436410Y-94205214D01*
X175436409Y-94205217D01*
X175397000Y-94454038D01*
X174360500Y-94454038D01*
X174360500Y-94406943D01*
X174360500Y-94406934D01*
X174357710Y-94377181D01*
X174313852Y-94251843D01*
X174313850Y-94251840D01*
X174313851Y-94251840D01*
X174234999Y-94145000D01*
X174128159Y-94066149D01*
X174128157Y-94066148D01*
X174090537Y-94052984D01*
X174002821Y-94022290D01*
X174002812Y-94022289D01*
X173973077Y-94019501D01*
X173973076Y-94019500D01*
X173973066Y-94019500D01*
X171846934Y-94019500D01*
X171846924Y-94019500D01*
X171846922Y-94019501D01*
X171817187Y-94022289D01*
X171817178Y-94022290D01*
X171691840Y-94066149D01*
X171585000Y-94145000D01*
X171506149Y-94251840D01*
X171462290Y-94377178D01*
X171462289Y-94377187D01*
X171459501Y-94406922D01*
X171459500Y-94406943D01*
X171459500Y-95233056D01*
X171459501Y-95233077D01*
X171462289Y-95262812D01*
X171462290Y-95262821D01*
X171479232Y-95311237D01*
X171506148Y-95388157D01*
X171506149Y-95388159D01*
X171506148Y-95388159D01*
X171585000Y-95494999D01*
X171691840Y-95573850D01*
X171691843Y-95573852D01*
X171817181Y-95617710D01*
X171846934Y-95620500D01*
X171846944Y-95620500D01*
X173973056Y-95620500D01*
X173973066Y-95620500D01*
X174002819Y-95617710D01*
X174009154Y-95615493D01*
X174046597Y-95617591D01*
X174059990Y-95627093D01*
X177093386Y-98660489D01*
X177093393Y-98660493D01*
X177093561Y-98660622D01*
X177093618Y-98660721D01*
X177095657Y-98662760D01*
X177095110Y-98663306D01*
X177112316Y-98693099D01*
X177102614Y-98729325D01*
X177070137Y-98748080D01*
X177063736Y-98748500D01*
X170805900Y-98748500D01*
X170771252Y-98734148D01*
X169364852Y-97327748D01*
X169350500Y-97293100D01*
X169350500Y-96251001D01*
X169459500Y-96251001D01*
X169459500Y-96388998D01*
X169486417Y-96524318D01*
X169486420Y-96524329D01*
X169536404Y-96645001D01*
X169539225Y-96651811D01*
X169570137Y-96698074D01*
X169615883Y-96766539D01*
X169713460Y-96864116D01*
X169733014Y-96877181D01*
X169828189Y-96940775D01*
X169955672Y-96993580D01*
X169955678Y-96993581D01*
X169955681Y-96993582D01*
X170091001Y-97020499D01*
X170091007Y-97020500D01*
X170228993Y-97020500D01*
X170364328Y-96993580D01*
X170491811Y-96940775D01*
X170542444Y-96906943D01*
X171459500Y-96906943D01*
X171459500Y-97733056D01*
X171459501Y-97733077D01*
X171462289Y-97762812D01*
X171462290Y-97762821D01*
X171487599Y-97835148D01*
X171506148Y-97888157D01*
X171506149Y-97888159D01*
X171506148Y-97888159D01*
X171585000Y-97994999D01*
X171691840Y-98073850D01*
X171691843Y-98073852D01*
X171817181Y-98117710D01*
X171846934Y-98120500D01*
X171846944Y-98120500D01*
X173973056Y-98120500D01*
X173973066Y-98120500D01*
X174002819Y-98117710D01*
X174128157Y-98073852D01*
X174234999Y-97994999D01*
X174313852Y-97888157D01*
X174357710Y-97762819D01*
X174360500Y-97733066D01*
X174360500Y-96906934D01*
X174357710Y-96877181D01*
X174313852Y-96751843D01*
X174313850Y-96751840D01*
X174313851Y-96751840D01*
X174234999Y-96645000D01*
X174128159Y-96566149D01*
X174128157Y-96566148D01*
X174090537Y-96552984D01*
X174002821Y-96522290D01*
X174002812Y-96522289D01*
X173973077Y-96519501D01*
X173973076Y-96519500D01*
X173973066Y-96519500D01*
X171846934Y-96519500D01*
X171846924Y-96519500D01*
X171846922Y-96519501D01*
X171817187Y-96522289D01*
X171817178Y-96522290D01*
X171691840Y-96566149D01*
X171585000Y-96645000D01*
X171506149Y-96751840D01*
X171462290Y-96877178D01*
X171462289Y-96877187D01*
X171459501Y-96906922D01*
X171459500Y-96906943D01*
X170542444Y-96906943D01*
X170586986Y-96877181D01*
X170605148Y-96865046D01*
X170605149Y-96865045D01*
X170605499Y-96864810D01*
X170606542Y-96864114D01*
X170704114Y-96766542D01*
X170780775Y-96651811D01*
X170833580Y-96524328D01*
X170860500Y-96388993D01*
X170860500Y-96251007D01*
X170833580Y-96115672D01*
X170780775Y-95988189D01*
X170734613Y-95919102D01*
X170704116Y-95873460D01*
X170606539Y-95775883D01*
X170538074Y-95730137D01*
X170491811Y-95699225D01*
X170491808Y-95699223D01*
X170491807Y-95699223D01*
X170364329Y-95646420D01*
X170364318Y-95646417D01*
X170228998Y-95619500D01*
X170228993Y-95619500D01*
X170091007Y-95619500D01*
X170091001Y-95619500D01*
X169955681Y-95646417D01*
X169955670Y-95646420D01*
X169828192Y-95699223D01*
X169713460Y-95775883D01*
X169615883Y-95873460D01*
X169539223Y-95988192D01*
X169486420Y-96115670D01*
X169486417Y-96115681D01*
X169459500Y-96251001D01*
X169350500Y-96251001D01*
X169350500Y-93251001D01*
X169459500Y-93251001D01*
X169459500Y-93388998D01*
X169486417Y-93524318D01*
X169486420Y-93524329D01*
X169491811Y-93537344D01*
X169539225Y-93651811D01*
X169552112Y-93671097D01*
X169615883Y-93766539D01*
X169713460Y-93864116D01*
X169759102Y-93894613D01*
X169828189Y-93940775D01*
X169955672Y-93993580D01*
X169955678Y-93993581D01*
X169955681Y-93993582D01*
X170091001Y-94020499D01*
X170091007Y-94020500D01*
X170228993Y-94020500D01*
X170364328Y-93993580D01*
X170491811Y-93940775D01*
X170606542Y-93864114D01*
X170704114Y-93766542D01*
X170780775Y-93651811D01*
X170833580Y-93524328D01*
X170860500Y-93388993D01*
X170860500Y-93251007D01*
X170847333Y-93184814D01*
X170833582Y-93115681D01*
X170833579Y-93115670D01*
X170825746Y-93096759D01*
X170780775Y-92988189D01*
X170713936Y-92888157D01*
X170704116Y-92873460D01*
X170606539Y-92775883D01*
X170538074Y-92730137D01*
X170491811Y-92699225D01*
X170491808Y-92699223D01*
X170491807Y-92699223D01*
X170364329Y-92646420D01*
X170364318Y-92646417D01*
X170228998Y-92619500D01*
X170228993Y-92619500D01*
X170091007Y-92619500D01*
X170091001Y-92619500D01*
X169955681Y-92646417D01*
X169955670Y-92646420D01*
X169828192Y-92699223D01*
X169713460Y-92775883D01*
X169615883Y-92873460D01*
X169539223Y-92988192D01*
X169486420Y-93115670D01*
X169486417Y-93115681D01*
X169459500Y-93251001D01*
X169350500Y-93251001D01*
X169350500Y-92606899D01*
X169364852Y-92572251D01*
X169722252Y-92214852D01*
X169756900Y-92200500D01*
X170843101Y-92200500D01*
X170877748Y-92214851D01*
X171343386Y-92680490D01*
X171440545Y-92736584D01*
X171462295Y-92762835D01*
X171466861Y-92775883D01*
X171506148Y-92888157D01*
X171506149Y-92888159D01*
X171506148Y-92888159D01*
X171585000Y-92994999D01*
X171691840Y-93073850D01*
X171691843Y-93073852D01*
X171817181Y-93117710D01*
X171846934Y-93120500D01*
X171846944Y-93120500D01*
X173973056Y-93120500D01*
X173973066Y-93120500D01*
X174002819Y-93117710D01*
X174128157Y-93073852D01*
X174234999Y-92994999D01*
X174313852Y-92888157D01*
X174357710Y-92762819D01*
X174360500Y-92733066D01*
X174360500Y-91906934D01*
X174357710Y-91877181D01*
X174313852Y-91751843D01*
X174313850Y-91751840D01*
X174313851Y-91751840D01*
X174234999Y-91645000D01*
X174128159Y-91566149D01*
X174128157Y-91566148D01*
X174090537Y-91552984D01*
X174002821Y-91522290D01*
X174002812Y-91522289D01*
X173973077Y-91519501D01*
X173973076Y-91519500D01*
X173973066Y-91519500D01*
X171846934Y-91519500D01*
X171846924Y-91519500D01*
X171846922Y-91519501D01*
X171817187Y-91522289D01*
X171817178Y-91522290D01*
X171691842Y-91566148D01*
X171617261Y-91621191D01*
X171580860Y-91630218D01*
X171553516Y-91616413D01*
X171326614Y-91389511D01*
X171223888Y-91330201D01*
X171223886Y-91330200D01*
X171199673Y-91323713D01*
X171169551Y-91315642D01*
X171109311Y-91299500D01*
X171109309Y-91299500D01*
X169490691Y-91299500D01*
X169490688Y-91299500D01*
X169400326Y-91323713D01*
X169376113Y-91330200D01*
X169376110Y-91330201D01*
X169273385Y-91389510D01*
X168539512Y-92123384D01*
X168539511Y-92123385D01*
X168480201Y-92226111D01*
X168478532Y-92232343D01*
X168478531Y-92232342D01*
X168478531Y-92232346D01*
X168449500Y-92340688D01*
X167840674Y-92340688D01*
X167840674Y-89145252D01*
X203459500Y-89145252D01*
X203459500Y-97484748D01*
X203471133Y-97543231D01*
X203485678Y-97564999D01*
X203515447Y-97609552D01*
X203542012Y-97627301D01*
X203581769Y-97653867D01*
X203640252Y-97665500D01*
X203640255Y-97665500D01*
X204679745Y-97665500D01*
X204679748Y-97665500D01*
X204738231Y-97653867D01*
X204804552Y-97609552D01*
X204848867Y-97543231D01*
X204860500Y-97484748D01*
X204860500Y-89145252D01*
X205999500Y-89145252D01*
X205999500Y-97484748D01*
X206011133Y-97543231D01*
X206025678Y-97564999D01*
X206055447Y-97609552D01*
X206082012Y-97627301D01*
X206121769Y-97653867D01*
X206180252Y-97665500D01*
X206180255Y-97665500D01*
X207219745Y-97665500D01*
X207219748Y-97665500D01*
X207278231Y-97653867D01*
X207344552Y-97609552D01*
X207388867Y-97543231D01*
X207400500Y-97484748D01*
X207400500Y-89145252D01*
X208559500Y-89145252D01*
X208559500Y-97484748D01*
X208571133Y-97543231D01*
X208585678Y-97564999D01*
X208615447Y-97609552D01*
X208642012Y-97627301D01*
X208681769Y-97653867D01*
X208740252Y-97665500D01*
X208740255Y-97665500D01*
X209779745Y-97665500D01*
X209779748Y-97665500D01*
X209838231Y-97653867D01*
X209904552Y-97609552D01*
X209948867Y-97543231D01*
X209960500Y-97484748D01*
X209960500Y-89145252D01*
X211079500Y-89145252D01*
X211079500Y-97484748D01*
X211091133Y-97543231D01*
X211105678Y-97564999D01*
X211135447Y-97609552D01*
X211162012Y-97627301D01*
X211201769Y-97653867D01*
X211260252Y-97665500D01*
X211260255Y-97665500D01*
X212299745Y-97665500D01*
X212299748Y-97665500D01*
X212358231Y-97653867D01*
X212424552Y-97609552D01*
X212468867Y-97543231D01*
X212480500Y-97484748D01*
X212480500Y-89145252D01*
X213599500Y-89145252D01*
X213599500Y-97484748D01*
X213611133Y-97543231D01*
X213625678Y-97564999D01*
X213655447Y-97609552D01*
X213682012Y-97627301D01*
X213721769Y-97653867D01*
X213780252Y-97665500D01*
X213780255Y-97665500D01*
X214819745Y-97665500D01*
X214819748Y-97665500D01*
X214878231Y-97653867D01*
X214944552Y-97609552D01*
X214988867Y-97543231D01*
X215000500Y-97484748D01*
X215000500Y-89145252D01*
X216159500Y-89145252D01*
X216159500Y-97484748D01*
X216171133Y-97543231D01*
X216185678Y-97564999D01*
X216215447Y-97609552D01*
X216242012Y-97627301D01*
X216281769Y-97653867D01*
X216340252Y-97665500D01*
X216340255Y-97665500D01*
X217379745Y-97665500D01*
X217379748Y-97665500D01*
X217438231Y-97653867D01*
X217504552Y-97609552D01*
X217548867Y-97543231D01*
X217560500Y-97484748D01*
X217560500Y-89145252D01*
X218689500Y-89145252D01*
X218689500Y-97484748D01*
X218701133Y-97543231D01*
X218715678Y-97564999D01*
X218745447Y-97609552D01*
X218772012Y-97627301D01*
X218811769Y-97653867D01*
X218870252Y-97665500D01*
X218870255Y-97665500D01*
X219909745Y-97665500D01*
X219909748Y-97665500D01*
X219968231Y-97653867D01*
X220034552Y-97609552D01*
X220078867Y-97543231D01*
X220090500Y-97484748D01*
X220090500Y-89145252D01*
X221229500Y-89145252D01*
X221229500Y-97484748D01*
X221241133Y-97543231D01*
X221255678Y-97564999D01*
X221285447Y-97609552D01*
X221312012Y-97627301D01*
X221351769Y-97653867D01*
X221410252Y-97665500D01*
X221410255Y-97665500D01*
X222449745Y-97665500D01*
X222449748Y-97665500D01*
X222508231Y-97653867D01*
X222574552Y-97609552D01*
X222618867Y-97543231D01*
X222630500Y-97484748D01*
X222630500Y-89145252D01*
X222618867Y-89086769D01*
X222592301Y-89047012D01*
X222574552Y-89020447D01*
X222534795Y-88993882D01*
X222508231Y-88976133D01*
X222449748Y-88964500D01*
X221410252Y-88964500D01*
X221351769Y-88976133D01*
X221285447Y-89020447D01*
X221241133Y-89086769D01*
X221229500Y-89145252D01*
X220090500Y-89145252D01*
X220078867Y-89086769D01*
X220052301Y-89047012D01*
X220034552Y-89020447D01*
X219994795Y-88993882D01*
X219968231Y-88976133D01*
X219909748Y-88964500D01*
X218870252Y-88964500D01*
X218811769Y-88976133D01*
X218745447Y-89020447D01*
X218701133Y-89086769D01*
X218689500Y-89145252D01*
X217560500Y-89145252D01*
X217548867Y-89086769D01*
X217522301Y-89047012D01*
X217504552Y-89020447D01*
X217464795Y-88993882D01*
X217438231Y-88976133D01*
X217379748Y-88964500D01*
X216340252Y-88964500D01*
X216281769Y-88976133D01*
X216215447Y-89020447D01*
X216171133Y-89086769D01*
X216159500Y-89145252D01*
X215000500Y-89145252D01*
X214988867Y-89086769D01*
X214962301Y-89047012D01*
X214944552Y-89020447D01*
X214904795Y-88993882D01*
X214878231Y-88976133D01*
X214819748Y-88964500D01*
X213780252Y-88964500D01*
X213721769Y-88976133D01*
X213655447Y-89020447D01*
X213611133Y-89086769D01*
X213599500Y-89145252D01*
X212480500Y-89145252D01*
X212468867Y-89086769D01*
X212442301Y-89047012D01*
X212424552Y-89020447D01*
X212384795Y-88993882D01*
X212358231Y-88976133D01*
X212299748Y-88964500D01*
X211260252Y-88964500D01*
X211201769Y-88976133D01*
X211135447Y-89020447D01*
X211091133Y-89086769D01*
X211079500Y-89145252D01*
X209960500Y-89145252D01*
X209948867Y-89086769D01*
X209922301Y-89047012D01*
X209904552Y-89020447D01*
X209864795Y-88993882D01*
X209838231Y-88976133D01*
X209779748Y-88964500D01*
X208740252Y-88964500D01*
X208681769Y-88976133D01*
X208615447Y-89020447D01*
X208571133Y-89086769D01*
X208559500Y-89145252D01*
X207400500Y-89145252D01*
X207388867Y-89086769D01*
X207362301Y-89047012D01*
X207344552Y-89020447D01*
X207304795Y-88993882D01*
X207278231Y-88976133D01*
X207219748Y-88964500D01*
X206180252Y-88964500D01*
X206121769Y-88976133D01*
X206055447Y-89020447D01*
X206011133Y-89086769D01*
X205999500Y-89145252D01*
X204860500Y-89145252D01*
X204848867Y-89086769D01*
X204822301Y-89047012D01*
X204804552Y-89020447D01*
X204764795Y-88993882D01*
X204738231Y-88976133D01*
X204679748Y-88964500D01*
X203640252Y-88964500D01*
X203581769Y-88976133D01*
X203515447Y-89020447D01*
X203471133Y-89086769D01*
X203459500Y-89145252D01*
X167840674Y-89145252D01*
X167840674Y-88574845D01*
X173092501Y-88574845D01*
X173098302Y-88604018D01*
X173098304Y-88604022D01*
X173120404Y-88637097D01*
X173153480Y-88659197D01*
X173182654Y-88664999D01*
X173947499Y-88664999D01*
X174947500Y-88664999D01*
X175712345Y-88664999D01*
X175712345Y-88664998D01*
X175741518Y-88659197D01*
X175741522Y-88659195D01*
X175774597Y-88637095D01*
X175796697Y-88604019D01*
X175802500Y-88574845D01*
X175802500Y-88565000D01*
X174947500Y-88565000D01*
X174947500Y-88664999D01*
X173947499Y-88664999D01*
X173947500Y-88664998D01*
X173947500Y-88565000D01*
X173092501Y-88565000D01*
X173092501Y-88574845D01*
X167840674Y-88574845D01*
X167840674Y-87555154D01*
X173092500Y-87555154D01*
X173092500Y-87565000D01*
X173947500Y-87565000D01*
X174947500Y-87565000D01*
X175802499Y-87565000D01*
X175802499Y-87555155D01*
X175802498Y-87555154D01*
X175796697Y-87525981D01*
X175796695Y-87525977D01*
X175774595Y-87492902D01*
X175741519Y-87470802D01*
X175712346Y-87465000D01*
X174947500Y-87465000D01*
X174947500Y-87565000D01*
X173947500Y-87565000D01*
X173947500Y-87465000D01*
X173182655Y-87465000D01*
X173182654Y-87465001D01*
X173153481Y-87470802D01*
X173153477Y-87470804D01*
X173120402Y-87492904D01*
X173098302Y-87525980D01*
X173092500Y-87555154D01*
X167840674Y-87555154D01*
X167840674Y-85005252D01*
X176302000Y-85005252D01*
X176302000Y-86044748D01*
X176313633Y-86103231D01*
X176331382Y-86129795D01*
X176357947Y-86169552D01*
X176384512Y-86187301D01*
X176424269Y-86213867D01*
X176482752Y-86225500D01*
X176482755Y-86225500D01*
X179032245Y-86225500D01*
X179032248Y-86225500D01*
X179090731Y-86213867D01*
X179157052Y-86169552D01*
X179201367Y-86103231D01*
X179213000Y-86044748D01*
X179213000Y-86024500D01*
X179227352Y-85989852D01*
X179262000Y-85975500D01*
X221368101Y-85975500D01*
X221402749Y-85989852D01*
X224005148Y-88592251D01*
X224019500Y-88626899D01*
X224019500Y-88915500D01*
X224005148Y-88950148D01*
X223972587Y-88963635D01*
X223972649Y-88964264D01*
X223970576Y-88964468D01*
X223970500Y-88964500D01*
X223970252Y-88964500D01*
X223911769Y-88976133D01*
X223845447Y-89020447D01*
X223801133Y-89086769D01*
X223789500Y-89145252D01*
X223789500Y-97484748D01*
X223801133Y-97543231D01*
X223815678Y-97564999D01*
X223845447Y-97609552D01*
X223872012Y-97627301D01*
X223911769Y-97653867D01*
X223970252Y-97665500D01*
X223970255Y-97665500D01*
X225009745Y-97665500D01*
X225009748Y-97665500D01*
X225068231Y-97653867D01*
X225134552Y-97609552D01*
X225178867Y-97543231D01*
X225190500Y-97484748D01*
X225190500Y-89145252D01*
X226309500Y-89145252D01*
X226309500Y-97484748D01*
X226321133Y-97543231D01*
X226335678Y-97564999D01*
X226365447Y-97609552D01*
X226392012Y-97627301D01*
X226431769Y-97653867D01*
X226490252Y-97665500D01*
X226490255Y-97665500D01*
X227529745Y-97665500D01*
X227529748Y-97665500D01*
X227588231Y-97653867D01*
X227654552Y-97609552D01*
X227698867Y-97543231D01*
X227710500Y-97484748D01*
X227710500Y-97474845D01*
X228930001Y-97474845D01*
X228935802Y-97504018D01*
X228935804Y-97504022D01*
X228957904Y-97537097D01*
X228990980Y-97559197D01*
X229020153Y-97564999D01*
X230030000Y-97564999D01*
X230039845Y-97564999D01*
X230039845Y-97564998D01*
X230069018Y-97559197D01*
X230069022Y-97559195D01*
X230102097Y-97537095D01*
X230124197Y-97504019D01*
X230130000Y-97474845D01*
X230130000Y-93815000D01*
X230030000Y-93815000D01*
X230030000Y-97564999D01*
X229020153Y-97564999D01*
X229030000Y-97564998D01*
X229030000Y-93815000D01*
X228930001Y-93815000D01*
X228930001Y-97474845D01*
X227710500Y-97474845D01*
X227710500Y-89155154D01*
X228930000Y-89155154D01*
X228930000Y-92815000D01*
X229030000Y-92815000D01*
X230030000Y-92815000D01*
X230129999Y-92815000D01*
X230129999Y-89155155D01*
X230129998Y-89155154D01*
X230124197Y-89125981D01*
X230124195Y-89125977D01*
X230102095Y-89092902D01*
X230069019Y-89070802D01*
X230039846Y-89065000D01*
X230030000Y-89065000D01*
X230030000Y-92815000D01*
X229030000Y-92815000D01*
X229030000Y-89064999D01*
X229020157Y-89065000D01*
X229020152Y-89065001D01*
X228990981Y-89070802D01*
X228990977Y-89070804D01*
X228957902Y-89092904D01*
X228935802Y-89125980D01*
X228930000Y-89155154D01*
X227710500Y-89155154D01*
X227710500Y-89145252D01*
X227698867Y-89086769D01*
X227672301Y-89047012D01*
X227654552Y-89020447D01*
X227614795Y-88993882D01*
X227588231Y-88976133D01*
X227529748Y-88964500D01*
X226490252Y-88964500D01*
X226431769Y-88976133D01*
X226365447Y-89020447D01*
X226321133Y-89086769D01*
X226309500Y-89145252D01*
X225190500Y-89145252D01*
X225178867Y-89086769D01*
X225152301Y-89047012D01*
X225134552Y-89020447D01*
X225094795Y-88993882D01*
X225068231Y-88976133D01*
X225009748Y-88964500D01*
X225009745Y-88964500D01*
X224969500Y-88964500D01*
X224934852Y-88950148D01*
X224920500Y-88915500D01*
X224920500Y-88360688D01*
X224891469Y-88252346D01*
X224891468Y-88252342D01*
X224891468Y-88252343D01*
X224889799Y-88246114D01*
X224889799Y-88246113D01*
X224830489Y-88143386D01*
X221851614Y-85164511D01*
X221791840Y-85130000D01*
X221748888Y-85105201D01*
X221748886Y-85105200D01*
X221724673Y-85098713D01*
X221694551Y-85090642D01*
X221634311Y-85074500D01*
X221634309Y-85074500D01*
X179262000Y-85074500D01*
X179227352Y-85060148D01*
X179213000Y-85025500D01*
X179213000Y-85005255D01*
X179213000Y-85005252D01*
X179201367Y-84946769D01*
X179174801Y-84907012D01*
X179157052Y-84880447D01*
X179117295Y-84853882D01*
X179090731Y-84836133D01*
X179032248Y-84824500D01*
X176482752Y-84824500D01*
X176424269Y-84836133D01*
X176357947Y-84880447D01*
X176313633Y-84946769D01*
X176302000Y-85005252D01*
X167840674Y-85005252D01*
X167840674Y-82465252D01*
X172992000Y-82465252D01*
X172992000Y-83504748D01*
X173003633Y-83563231D01*
X173021382Y-83589795D01*
X173047947Y-83629552D01*
X173074512Y-83647301D01*
X173114269Y-83673867D01*
X173172752Y-83685500D01*
X173172755Y-83685500D01*
X175722245Y-83685500D01*
X175722248Y-83685500D01*
X175780731Y-83673867D01*
X175847052Y-83629552D01*
X175891367Y-83563231D01*
X175903000Y-83504748D01*
X175903000Y-83484500D01*
X175917352Y-83449852D01*
X175952000Y-83435500D01*
X217724311Y-83435500D01*
X217754430Y-83427428D01*
X217814673Y-83411286D01*
X217838887Y-83404799D01*
X217941614Y-83345489D01*
X219740489Y-81546614D01*
X219799799Y-81443887D01*
X219824048Y-81353387D01*
X219830500Y-81329309D01*
X219830500Y-81325724D01*
X224209500Y-81325724D01*
X224209500Y-81934275D01*
X224212353Y-81964698D01*
X224212353Y-81964699D01*
X224257204Y-82092876D01*
X224257208Y-82092885D01*
X224337849Y-82202150D01*
X224447114Y-82282791D01*
X224447117Y-82282792D01*
X224447118Y-82282793D01*
X224447120Y-82282793D01*
X224447123Y-82282795D01*
X224575301Y-82327646D01*
X224605734Y-82330500D01*
X225260500Y-82330500D01*
X225295148Y-82344852D01*
X225309500Y-82379500D01*
X225309500Y-85830500D01*
X225295148Y-85865148D01*
X225260500Y-85879500D01*
X224605724Y-85879500D01*
X224575301Y-85882353D01*
X224575300Y-85882353D01*
X224447123Y-85927204D01*
X224447114Y-85927208D01*
X224337849Y-86007849D01*
X224257208Y-86117114D01*
X224257204Y-86117123D01*
X224212353Y-86245300D01*
X224212353Y-86245301D01*
X224209500Y-86275724D01*
X224209500Y-86884275D01*
X224212353Y-86914698D01*
X224212353Y-86914699D01*
X224257204Y-87042876D01*
X224257208Y-87042885D01*
X224337849Y-87152150D01*
X224447114Y-87232791D01*
X224447117Y-87232792D01*
X224447118Y-87232793D01*
X224447120Y-87232793D01*
X224447123Y-87232795D01*
X224575301Y-87277646D01*
X224605734Y-87280500D01*
X224605744Y-87280500D01*
X226914256Y-87280500D01*
X226914266Y-87280500D01*
X226944699Y-87277646D01*
X227072882Y-87232793D01*
X227182150Y-87152150D01*
X227262793Y-87042882D01*
X227307646Y-86914699D01*
X227310500Y-86884266D01*
X227310500Y-86275734D01*
X227307646Y-86245301D01*
X227300717Y-86225500D01*
X227262795Y-86117123D01*
X227262791Y-86117114D01*
X227182150Y-86007849D01*
X227072885Y-85927208D01*
X227072876Y-85927204D01*
X226944698Y-85882353D01*
X226914275Y-85879500D01*
X226914266Y-85879500D01*
X226259500Y-85879500D01*
X226224852Y-85865148D01*
X226210500Y-85830500D01*
X226210500Y-85030000D01*
X228059554Y-85030000D01*
X228079759Y-85060240D01*
X228162457Y-85115496D01*
X228235370Y-85129999D01*
X228235376Y-85130000D01*
X228660000Y-85130000D01*
X229260000Y-85130000D01*
X229684624Y-85130000D01*
X229684629Y-85129999D01*
X229757542Y-85115496D01*
X229840240Y-85060240D01*
X229860446Y-85030000D01*
X229260000Y-85030000D01*
X229260000Y-85130000D01*
X228660000Y-85130000D01*
X228660000Y-85030000D01*
X228059554Y-85030000D01*
X226210500Y-85030000D01*
X226210500Y-84430000D01*
X228059554Y-84430000D01*
X228660000Y-84430000D01*
X229260000Y-84430000D01*
X229860446Y-84430000D01*
X229840240Y-84399759D01*
X229757542Y-84344503D01*
X229684629Y-84330000D01*
X229260000Y-84330000D01*
X229260000Y-84430000D01*
X228660000Y-84430000D01*
X228660000Y-84330000D01*
X228235370Y-84330000D01*
X228162457Y-84344503D01*
X228079759Y-84399759D01*
X228059554Y-84430000D01*
X226210500Y-84430000D01*
X226210500Y-82379500D01*
X226224852Y-82344852D01*
X226259500Y-82330500D01*
X226914256Y-82330500D01*
X226914266Y-82330500D01*
X226944699Y-82327646D01*
X227072882Y-82282793D01*
X227182150Y-82202150D01*
X227262793Y-82092882D01*
X227307646Y-81964699D01*
X227310500Y-81934266D01*
X227310500Y-81325734D01*
X227307646Y-81295301D01*
X227262793Y-81167118D01*
X227262792Y-81167117D01*
X227262791Y-81167114D01*
X227182150Y-81057849D01*
X227072885Y-80977208D01*
X227072876Y-80977204D01*
X226944698Y-80932353D01*
X226914275Y-80929500D01*
X226914266Y-80929500D01*
X224605734Y-80929500D01*
X224605724Y-80929500D01*
X224575301Y-80932353D01*
X224575300Y-80932353D01*
X224447123Y-80977204D01*
X224447114Y-80977208D01*
X224337849Y-81057849D01*
X224257208Y-81167114D01*
X224257204Y-81167123D01*
X224212353Y-81295300D01*
X224212353Y-81295301D01*
X224209500Y-81325724D01*
X219830500Y-81325724D01*
X219830500Y-79884500D01*
X219844852Y-79849852D01*
X219879500Y-79835500D01*
X219909745Y-79835500D01*
X219909748Y-79835500D01*
X219968231Y-79823867D01*
X220034552Y-79779552D01*
X220078867Y-79713231D01*
X220090500Y-79654748D01*
X220090500Y-71315252D01*
X220078867Y-71256769D01*
X220035093Y-71191257D01*
X220034552Y-71190447D01*
X219988984Y-71160000D01*
X219968231Y-71146133D01*
X219909748Y-71134500D01*
X219909745Y-71134500D01*
X219033899Y-71134500D01*
X218999251Y-71120148D01*
X218984899Y-71085500D01*
X218999251Y-71050852D01*
X219035251Y-71014852D01*
X219069899Y-71000500D01*
X220893101Y-71000500D01*
X220927749Y-71014852D01*
X221215148Y-71302251D01*
X221229500Y-71336899D01*
X221229500Y-79654748D01*
X221241133Y-79713231D01*
X221258882Y-79739795D01*
X221285447Y-79779552D01*
X221312012Y-79797301D01*
X221351769Y-79823867D01*
X221410252Y-79835500D01*
X221410255Y-79835500D01*
X222449745Y-79835500D01*
X222449748Y-79835500D01*
X222508231Y-79823867D01*
X222574552Y-79779552D01*
X222618867Y-79713231D01*
X222630500Y-79654748D01*
X222630500Y-71315252D01*
X223789500Y-71315252D01*
X223789500Y-79654748D01*
X223801133Y-79713231D01*
X223818882Y-79739795D01*
X223845447Y-79779552D01*
X223872012Y-79797301D01*
X223911769Y-79823867D01*
X223970252Y-79835500D01*
X223970255Y-79835500D01*
X225009745Y-79835500D01*
X225009748Y-79835500D01*
X225068231Y-79823867D01*
X225134552Y-79779552D01*
X225178867Y-79713231D01*
X225190500Y-79654748D01*
X225190500Y-71315252D01*
X226309500Y-71315252D01*
X226309500Y-79654748D01*
X226321133Y-79713231D01*
X226338882Y-79739795D01*
X226365447Y-79779552D01*
X226392012Y-79797301D01*
X226431769Y-79823867D01*
X226490252Y-79835500D01*
X226490255Y-79835500D01*
X227529745Y-79835500D01*
X227529748Y-79835500D01*
X227588231Y-79823867D01*
X227654552Y-79779552D01*
X227698867Y-79713231D01*
X227710500Y-79654748D01*
X227710500Y-71315252D01*
X228829500Y-71315252D01*
X228829500Y-79654748D01*
X228841133Y-79713231D01*
X228858882Y-79739795D01*
X228885447Y-79779552D01*
X228912012Y-79797301D01*
X228951769Y-79823867D01*
X229010252Y-79835500D01*
X229010255Y-79835500D01*
X230049745Y-79835500D01*
X230049748Y-79835500D01*
X230108231Y-79823867D01*
X230174552Y-79779552D01*
X230218867Y-79713231D01*
X230230500Y-79654748D01*
X230230500Y-71315252D01*
X231389500Y-71315252D01*
X231389500Y-79654748D01*
X231401133Y-79713231D01*
X231418882Y-79739795D01*
X231445447Y-79779552D01*
X231472012Y-79797301D01*
X231511769Y-79823867D01*
X231570252Y-79835500D01*
X231570255Y-79835500D01*
X232609745Y-79835500D01*
X232609748Y-79835500D01*
X232668231Y-79823867D01*
X232734552Y-79779552D01*
X232778867Y-79713231D01*
X232790500Y-79654748D01*
X232790500Y-71315252D01*
X232778867Y-71256769D01*
X232735093Y-71191257D01*
X232734552Y-71190447D01*
X232688984Y-71160000D01*
X232668231Y-71146133D01*
X232609748Y-71134500D01*
X231570252Y-71134500D01*
X231511769Y-71146133D01*
X231445447Y-71190447D01*
X231405322Y-71250500D01*
X231401133Y-71256769D01*
X231389500Y-71315252D01*
X230230500Y-71315252D01*
X230218867Y-71256769D01*
X230175093Y-71191257D01*
X230174552Y-71190447D01*
X230128984Y-71160000D01*
X230108231Y-71146133D01*
X230049748Y-71134500D01*
X229010252Y-71134500D01*
X228951769Y-71146133D01*
X228885447Y-71190447D01*
X228845322Y-71250500D01*
X228841133Y-71256769D01*
X228829500Y-71315252D01*
X227710500Y-71315252D01*
X227698867Y-71256769D01*
X227655093Y-71191257D01*
X227654552Y-71190447D01*
X227608984Y-71160000D01*
X227588231Y-71146133D01*
X227529748Y-71134500D01*
X226490252Y-71134500D01*
X226431769Y-71146133D01*
X226365447Y-71190447D01*
X226325322Y-71250500D01*
X226321133Y-71256769D01*
X226309500Y-71315252D01*
X225190500Y-71315252D01*
X225178867Y-71256769D01*
X225135093Y-71191257D01*
X225134552Y-71190447D01*
X225088984Y-71160000D01*
X225068231Y-71146133D01*
X225009748Y-71134500D01*
X223970252Y-71134500D01*
X223911769Y-71146133D01*
X223845447Y-71190447D01*
X223805322Y-71250500D01*
X223801133Y-71256769D01*
X223789500Y-71315252D01*
X222630500Y-71315252D01*
X222618867Y-71256769D01*
X222575093Y-71191257D01*
X222574552Y-71190447D01*
X222528984Y-71160000D01*
X222508231Y-71146133D01*
X222449748Y-71134500D01*
X222449745Y-71134500D01*
X222332516Y-71134500D01*
X222297868Y-71120148D01*
X222290081Y-71110000D01*
X222280488Y-71093385D01*
X221376614Y-70189511D01*
X221273888Y-70130201D01*
X221273886Y-70130200D01*
X221249673Y-70123713D01*
X221219551Y-70115642D01*
X221159311Y-70099500D01*
X221159309Y-70099500D01*
X218803691Y-70099500D01*
X218803688Y-70099500D01*
X218713326Y-70123713D01*
X218689115Y-70130199D01*
X218689110Y-70130201D01*
X218586385Y-70189511D01*
X218586385Y-70189512D01*
X217589514Y-71186382D01*
X217589507Y-71186392D01*
X217588268Y-71188538D01*
X217558512Y-71211366D01*
X217521331Y-71206467D01*
X217505093Y-71191257D01*
X217504552Y-71190447D01*
X217458984Y-71160000D01*
X217438231Y-71146133D01*
X217379748Y-71134500D01*
X216340252Y-71134500D01*
X216281769Y-71146133D01*
X216215447Y-71190447D01*
X216175322Y-71250500D01*
X216171133Y-71256769D01*
X216159500Y-71315252D01*
X216159500Y-79654748D01*
X216171133Y-79713231D01*
X216188882Y-79739795D01*
X216215447Y-79779552D01*
X216242012Y-79797301D01*
X216281769Y-79823867D01*
X216340252Y-79835500D01*
X216340255Y-79835500D01*
X217379747Y-79835500D01*
X217379748Y-79835500D01*
X217438231Y-79823867D01*
X217438231Y-79823866D01*
X217440940Y-79823328D01*
X217477723Y-79830644D01*
X217498558Y-79861826D01*
X217499500Y-79871386D01*
X217499500Y-80193101D01*
X217485148Y-80227749D01*
X216857749Y-80855148D01*
X216823101Y-80869500D01*
X180666899Y-80869500D01*
X180632251Y-80855148D01*
X179861614Y-80084511D01*
X179758888Y-80025201D01*
X179758886Y-80025200D01*
X179734673Y-80018713D01*
X179704551Y-80010642D01*
X179644311Y-79994500D01*
X179644309Y-79994500D01*
X179262000Y-79994500D01*
X179227352Y-79980148D01*
X179213000Y-79945500D01*
X179213000Y-79925255D01*
X179213000Y-79925252D01*
X179201367Y-79866769D01*
X179172340Y-79823328D01*
X179157052Y-79800447D01*
X179117295Y-79773882D01*
X179090731Y-79756133D01*
X179032248Y-79744500D01*
X176482752Y-79744500D01*
X176424269Y-79756133D01*
X176357947Y-79800447D01*
X176316936Y-79861826D01*
X176313633Y-79866769D01*
X176302000Y-79925252D01*
X176302000Y-80964748D01*
X176313633Y-81023231D01*
X176331382Y-81049795D01*
X176357947Y-81089552D01*
X176370215Y-81097749D01*
X176424269Y-81133867D01*
X176482752Y-81145500D01*
X176482755Y-81145500D01*
X179032245Y-81145500D01*
X179032248Y-81145500D01*
X179090731Y-81133867D01*
X179157052Y-81089552D01*
X179201367Y-81023231D01*
X179213000Y-80964748D01*
X179213000Y-80944500D01*
X179227352Y-80909852D01*
X179262000Y-80895500D01*
X179378101Y-80895500D01*
X179412749Y-80909852D01*
X180183386Y-81680489D01*
X180286113Y-81739799D01*
X180310326Y-81746286D01*
X180355508Y-81758393D01*
X180400689Y-81770500D01*
X180400691Y-81770500D01*
X217089311Y-81770500D01*
X217119430Y-81762428D01*
X217179673Y-81746286D01*
X217203887Y-81739799D01*
X217306614Y-81680489D01*
X218310489Y-80676614D01*
X218369798Y-80573887D01*
X218369799Y-80573886D01*
X218400499Y-80459312D01*
X218400500Y-80459312D01*
X218400500Y-71669899D01*
X218414852Y-71635251D01*
X218605852Y-71444251D01*
X218640500Y-71429899D01*
X218675148Y-71444251D01*
X218689500Y-71478899D01*
X218689500Y-79654748D01*
X218701133Y-79713231D01*
X218718882Y-79739795D01*
X218745447Y-79779552D01*
X218772012Y-79797301D01*
X218811769Y-79823867D01*
X218870252Y-79835500D01*
X218880500Y-79835500D01*
X218915148Y-79849852D01*
X218929500Y-79884500D01*
X218929500Y-81063101D01*
X218915148Y-81097749D01*
X217492749Y-82520148D01*
X217458101Y-82534500D01*
X175952000Y-82534500D01*
X175917352Y-82520148D01*
X175903000Y-82485500D01*
X175903000Y-82465255D01*
X175903000Y-82465252D01*
X175891367Y-82406769D01*
X175849995Y-82344852D01*
X175847052Y-82340447D01*
X175807295Y-82313882D01*
X175780731Y-82296133D01*
X175722248Y-82284500D01*
X173172752Y-82284500D01*
X173114269Y-82296133D01*
X173047947Y-82340447D01*
X173003633Y-82406769D01*
X172992000Y-82465252D01*
X167840674Y-82465252D01*
X167840674Y-74216001D01*
X168029500Y-74216001D01*
X168029500Y-74353998D01*
X168056417Y-74489318D01*
X168056420Y-74489328D01*
X168109225Y-74616811D01*
X168110942Y-74619380D01*
X168185883Y-74731539D01*
X168283460Y-74829116D01*
X168305504Y-74843845D01*
X168398189Y-74905775D01*
X168525672Y-74958580D01*
X168525678Y-74958581D01*
X168525681Y-74958582D01*
X168661001Y-74985499D01*
X168661007Y-74985500D01*
X168798993Y-74985500D01*
X168934328Y-74958580D01*
X169061811Y-74905775D01*
X169176542Y-74829114D01*
X169274114Y-74731542D01*
X169350775Y-74616811D01*
X169403580Y-74489328D01*
X169430500Y-74353993D01*
X169430500Y-74216007D01*
X169430499Y-74216001D01*
X169403582Y-74080681D01*
X169403579Y-74080670D01*
X169350776Y-73953192D01*
X169350775Y-73953189D01*
X169301229Y-73879038D01*
X169274116Y-73838460D01*
X169176539Y-73740883D01*
X169082865Y-73678293D01*
X169061811Y-73664225D01*
X169061808Y-73664223D01*
X169061807Y-73664223D01*
X168934329Y-73611420D01*
X168934318Y-73611417D01*
X168798998Y-73584500D01*
X168798993Y-73584500D01*
X168661007Y-73584500D01*
X168661001Y-73584500D01*
X168525681Y-73611417D01*
X168525670Y-73611420D01*
X168398192Y-73664223D01*
X168283460Y-73740883D01*
X168185883Y-73838460D01*
X168109223Y-73953192D01*
X168056420Y-74080670D01*
X168056417Y-74080681D01*
X168029500Y-74216001D01*
X167840674Y-74216001D01*
X167840674Y-70865252D01*
X168554500Y-70865252D01*
X168554500Y-72454748D01*
X168566133Y-72513231D01*
X168580678Y-72534999D01*
X168610447Y-72579552D01*
X168617103Y-72583999D01*
X168676769Y-72623867D01*
X168735252Y-72635500D01*
X169650500Y-72635500D01*
X169685148Y-72649852D01*
X169699500Y-72684500D01*
X169699500Y-75885500D01*
X169685148Y-75920148D01*
X169650500Y-75934500D01*
X168735252Y-75934500D01*
X168676769Y-75946133D01*
X168610447Y-75990447D01*
X168576802Y-76040802D01*
X168566133Y-76056769D01*
X168554500Y-76115252D01*
X168554500Y-77704748D01*
X168566133Y-77763231D01*
X168580678Y-77784999D01*
X168610447Y-77829552D01*
X168630167Y-77842728D01*
X168676769Y-77873867D01*
X168735252Y-77885500D01*
X168759181Y-77885500D01*
X168770997Y-77890394D01*
X168783680Y-77892064D01*
X168787711Y-77897318D01*
X168793829Y-77899852D01*
X168806511Y-77921817D01*
X168827646Y-78000690D01*
X168827646Y-78000691D01*
X168835200Y-78028886D01*
X168835201Y-78028888D01*
X168894511Y-78131614D01*
X169473386Y-78710490D01*
X169576113Y-78769799D01*
X169600326Y-78776286D01*
X169645508Y-78788393D01*
X169690689Y-78800500D01*
X169690691Y-78800500D01*
X201354311Y-78800500D01*
X201384430Y-78792428D01*
X201444673Y-78776286D01*
X201468887Y-78769799D01*
X201571614Y-78710489D01*
X203375852Y-76906251D01*
X203410500Y-76891899D01*
X203445148Y-76906251D01*
X203459500Y-76940899D01*
X203459500Y-79654748D01*
X203471133Y-79713231D01*
X203488882Y-79739795D01*
X203515447Y-79779552D01*
X203542012Y-79797301D01*
X203581769Y-79823867D01*
X203640252Y-79835500D01*
X203640255Y-79835500D01*
X204679745Y-79835500D01*
X204679748Y-79835500D01*
X204738231Y-79823867D01*
X204804552Y-79779552D01*
X204848867Y-79713231D01*
X204860500Y-79654748D01*
X204860500Y-71315252D01*
X204849521Y-71260057D01*
X204856838Y-71223277D01*
X204888021Y-71202441D01*
X204897580Y-71201500D01*
X205344101Y-71201500D01*
X205378749Y-71215852D01*
X205985148Y-71822251D01*
X205999500Y-71856899D01*
X205999500Y-79654748D01*
X206011133Y-79713231D01*
X206028882Y-79739795D01*
X206055447Y-79779552D01*
X206082012Y-79797301D01*
X206121769Y-79823867D01*
X206180252Y-79835500D01*
X206180255Y-79835500D01*
X207219745Y-79835500D01*
X207219748Y-79835500D01*
X207278231Y-79823867D01*
X207344552Y-79779552D01*
X207388867Y-79713231D01*
X207400500Y-79654748D01*
X207400500Y-71315252D01*
X207388867Y-71256769D01*
X207345093Y-71191257D01*
X207344552Y-71190447D01*
X207298984Y-71160000D01*
X207278231Y-71146133D01*
X207219748Y-71134500D01*
X207219745Y-71134500D01*
X206591899Y-71134500D01*
X206557251Y-71120148D01*
X206021251Y-70584148D01*
X206006899Y-70549500D01*
X206021251Y-70514852D01*
X206055899Y-70500500D01*
X206918101Y-70500500D01*
X206952749Y-70514852D01*
X208545148Y-72107251D01*
X208559500Y-72141899D01*
X208559500Y-79654748D01*
X208571133Y-79713231D01*
X208588882Y-79739795D01*
X208615447Y-79779552D01*
X208642012Y-79797301D01*
X208681769Y-79823867D01*
X208740252Y-79835500D01*
X208740255Y-79835500D01*
X209779745Y-79835500D01*
X209779748Y-79835500D01*
X209838231Y-79823867D01*
X209904552Y-79779552D01*
X209948867Y-79713231D01*
X209960500Y-79654748D01*
X209960500Y-71315252D01*
X209948867Y-71256769D01*
X209905093Y-71191257D01*
X209904552Y-71190447D01*
X209858984Y-71160000D01*
X209838231Y-71146133D01*
X209779748Y-71134500D01*
X209779745Y-71134500D01*
X208866900Y-71134500D01*
X208832252Y-71120148D01*
X207690643Y-69978540D01*
X207677960Y-69956573D01*
X207669799Y-69926113D01*
X207669799Y-69926112D01*
X207610489Y-69823385D01*
X207476615Y-69689512D01*
X207476614Y-69689511D01*
X207373888Y-69630201D01*
X207373886Y-69630200D01*
X207349673Y-69623713D01*
X207319551Y-69615642D01*
X207259311Y-69599500D01*
X207259309Y-69599500D01*
X202106899Y-69599500D01*
X202072251Y-69585148D01*
X201896948Y-69409845D01*
X204825001Y-69409845D01*
X204830802Y-69439018D01*
X204830804Y-69439022D01*
X204852904Y-69472097D01*
X204885980Y-69494197D01*
X204915154Y-69499999D01*
X205199999Y-69499999D01*
X206200000Y-69499999D01*
X206484845Y-69499999D01*
X206484845Y-69499998D01*
X206514018Y-69494197D01*
X206514022Y-69494195D01*
X206547097Y-69472095D01*
X206569197Y-69439019D01*
X206575000Y-69409845D01*
X206575000Y-69400000D01*
X206200000Y-69400000D01*
X206200000Y-69499999D01*
X205199999Y-69499999D01*
X205200000Y-69499998D01*
X205200000Y-69400000D01*
X204825001Y-69400000D01*
X204825001Y-69409845D01*
X201896948Y-69409845D01*
X201843104Y-69356001D01*
X207624500Y-69356001D01*
X207624500Y-69493998D01*
X207651417Y-69629318D01*
X207651420Y-69629329D01*
X207704223Y-69756807D01*
X207704225Y-69756811D01*
X207735137Y-69803074D01*
X207780883Y-69871539D01*
X207878460Y-69969116D01*
X207924102Y-69999613D01*
X207993189Y-70045775D01*
X208120672Y-70098580D01*
X208120678Y-70098581D01*
X208120681Y-70098582D01*
X208256001Y-70125499D01*
X208256007Y-70125500D01*
X208393993Y-70125500D01*
X208529328Y-70098580D01*
X208656811Y-70045775D01*
X208771542Y-69969114D01*
X208869114Y-69871542D01*
X208945775Y-69756811D01*
X208998580Y-69629328D01*
X209025500Y-69493993D01*
X209025500Y-69409845D01*
X210075001Y-69409845D01*
X210080802Y-69439018D01*
X210080804Y-69439022D01*
X210102904Y-69472097D01*
X210135980Y-69494197D01*
X210165154Y-69499999D01*
X210449999Y-69499999D01*
X211450000Y-69499999D01*
X211734845Y-69499999D01*
X211734845Y-69499998D01*
X211764018Y-69494197D01*
X211764022Y-69494195D01*
X211797097Y-69472095D01*
X211819197Y-69439019D01*
X211825000Y-69409845D01*
X211825000Y-69400000D01*
X211450000Y-69400000D01*
X211450000Y-69499999D01*
X210449999Y-69499999D01*
X210450000Y-69499998D01*
X210450000Y-69400000D01*
X210075001Y-69400000D01*
X210075001Y-69409845D01*
X209025500Y-69409845D01*
X209025500Y-69356007D01*
X209020526Y-69331001D01*
X208998582Y-69220681D01*
X208998579Y-69220670D01*
X208992274Y-69205449D01*
X208945775Y-69093189D01*
X208899613Y-69024102D01*
X208869116Y-68978460D01*
X208771539Y-68880883D01*
X208703074Y-68835137D01*
X208656811Y-68804225D01*
X208656808Y-68804223D01*
X208656807Y-68804223D01*
X208529329Y-68751420D01*
X208529318Y-68751417D01*
X208393998Y-68724500D01*
X208393993Y-68724500D01*
X208256007Y-68724500D01*
X208256001Y-68724500D01*
X208120681Y-68751417D01*
X208120670Y-68751420D01*
X207993192Y-68804223D01*
X207878460Y-68880883D01*
X207780883Y-68978460D01*
X207704223Y-69093192D01*
X207651420Y-69220670D01*
X207651417Y-69220681D01*
X207624500Y-69356001D01*
X201843104Y-69356001D01*
X200877257Y-68390154D01*
X204825000Y-68390154D01*
X204825000Y-68400000D01*
X205200000Y-68400000D01*
X205200000Y-68300000D01*
X204915155Y-68300000D01*
X204915154Y-68300001D01*
X204885981Y-68305802D01*
X204885977Y-68305804D01*
X204852902Y-68327904D01*
X204830802Y-68360980D01*
X204825000Y-68390154D01*
X200877257Y-68390154D01*
X199301614Y-66814511D01*
X199198888Y-66755201D01*
X199198886Y-66755200D01*
X199157057Y-66743993D01*
X199132804Y-66737494D01*
X199086830Y-66725175D01*
X199084311Y-66724500D01*
X199084309Y-66724500D01*
X196999500Y-66724500D01*
X196964852Y-66710148D01*
X196952468Y-66680252D01*
X204724500Y-66680252D01*
X204724500Y-67719748D01*
X204736133Y-67778231D01*
X204753882Y-67804795D01*
X204780447Y-67844552D01*
X204800285Y-67857807D01*
X204846769Y-67888867D01*
X204905252Y-67900500D01*
X205884523Y-67900500D01*
X205919171Y-67914852D01*
X206220671Y-68216352D01*
X206235023Y-68251000D01*
X206220671Y-68285648D01*
X206209883Y-68290116D01*
X206200000Y-68300000D01*
X206200000Y-68400000D01*
X206594588Y-68400000D01*
X206595795Y-68399500D01*
X210054204Y-68399500D01*
X210055411Y-68400000D01*
X210450000Y-68400000D01*
X211450000Y-68400000D01*
X211824999Y-68400000D01*
X211824999Y-68390155D01*
X211824998Y-68390154D01*
X211819197Y-68360981D01*
X211819195Y-68360977D01*
X211797095Y-68327902D01*
X211764019Y-68305802D01*
X211734846Y-68300000D01*
X211450000Y-68300000D01*
X211450000Y-68400000D01*
X210450000Y-68400000D01*
X210450000Y-68302898D01*
X210432917Y-68288898D01*
X210431703Y-68286631D01*
X210429329Y-68285648D01*
X210423010Y-68270393D01*
X210415216Y-68255835D01*
X210415960Y-68253374D01*
X210414977Y-68251000D01*
X210421295Y-68235745D01*
X210426079Y-68219940D01*
X210428345Y-68218726D01*
X210429328Y-68216353D01*
X210730830Y-67914852D01*
X210765478Y-67900500D01*
X211744745Y-67900500D01*
X211744748Y-67900500D01*
X211803231Y-67888867D01*
X211858836Y-67851712D01*
X211895615Y-67844396D01*
X211920704Y-67857807D01*
X212235148Y-68172251D01*
X212249500Y-68206899D01*
X212249500Y-71085500D01*
X212235148Y-71120148D01*
X212200500Y-71134500D01*
X211260252Y-71134500D01*
X211201769Y-71146133D01*
X211135447Y-71190447D01*
X211095322Y-71250500D01*
X211091133Y-71256769D01*
X211079500Y-71315252D01*
X211079500Y-79654748D01*
X211091133Y-79713231D01*
X211108882Y-79739795D01*
X211135447Y-79779552D01*
X211162012Y-79797301D01*
X211201769Y-79823867D01*
X211260252Y-79835500D01*
X211260255Y-79835500D01*
X212299745Y-79835500D01*
X212299748Y-79835500D01*
X212358231Y-79823867D01*
X212424552Y-79779552D01*
X212468867Y-79713231D01*
X212480500Y-79654748D01*
X212480500Y-72946899D01*
X212494852Y-72912251D01*
X212762935Y-72644168D01*
X213060490Y-72346614D01*
X213119799Y-72243887D01*
X213130404Y-72204309D01*
X213132892Y-72195022D01*
X213150500Y-72129311D01*
X213150500Y-71315252D01*
X213599500Y-71315252D01*
X213599500Y-79654748D01*
X213611133Y-79713231D01*
X213628882Y-79739795D01*
X213655447Y-79779552D01*
X213682012Y-79797301D01*
X213721769Y-79823867D01*
X213780252Y-79835500D01*
X213780255Y-79835500D01*
X214819745Y-79835500D01*
X214819748Y-79835500D01*
X214878231Y-79823867D01*
X214944552Y-79779552D01*
X214988867Y-79713231D01*
X215000500Y-79654748D01*
X215000500Y-71406899D01*
X215014852Y-71372251D01*
X216977259Y-69409845D01*
X219875001Y-69409845D01*
X219880802Y-69439018D01*
X219880804Y-69439022D01*
X219902904Y-69472097D01*
X219935980Y-69494197D01*
X219965154Y-69499999D01*
X220249999Y-69499999D01*
X221250000Y-69499999D01*
X221534845Y-69499999D01*
X221534845Y-69499998D01*
X221564018Y-69494197D01*
X221564022Y-69494195D01*
X221597097Y-69472095D01*
X221619197Y-69439019D01*
X221625000Y-69409845D01*
X221625000Y-69400000D01*
X221250000Y-69400000D01*
X221250000Y-69499999D01*
X220249999Y-69499999D01*
X220250000Y-69499998D01*
X220250000Y-69400000D01*
X219875001Y-69400000D01*
X219875001Y-69409845D01*
X216977259Y-69409845D01*
X217031103Y-69356001D01*
X222674500Y-69356001D01*
X222674500Y-69493998D01*
X222701417Y-69629318D01*
X222701420Y-69629329D01*
X222754223Y-69756807D01*
X222754225Y-69756811D01*
X222785137Y-69803074D01*
X222830883Y-69871539D01*
X222928460Y-69969116D01*
X222974102Y-69999613D01*
X223043189Y-70045775D01*
X223170672Y-70098580D01*
X223170678Y-70098581D01*
X223170681Y-70098582D01*
X223306001Y-70125499D01*
X223306007Y-70125500D01*
X223443993Y-70125500D01*
X223579328Y-70098580D01*
X223706811Y-70045775D01*
X223821542Y-69969114D01*
X223919114Y-69871542D01*
X223995775Y-69756811D01*
X224048580Y-69629328D01*
X224075500Y-69493993D01*
X224075500Y-69409845D01*
X225125001Y-69409845D01*
X225130802Y-69439018D01*
X225130804Y-69439022D01*
X225152904Y-69472097D01*
X225185980Y-69494197D01*
X225215154Y-69499999D01*
X225499999Y-69499999D01*
X226500000Y-69499999D01*
X226784845Y-69499999D01*
X226784845Y-69499998D01*
X226814018Y-69494197D01*
X226814022Y-69494195D01*
X226847097Y-69472095D01*
X226869197Y-69439019D01*
X226875000Y-69409845D01*
X226875000Y-69400000D01*
X226500000Y-69400000D01*
X226500000Y-69499999D01*
X225499999Y-69499999D01*
X225500000Y-69499998D01*
X225500000Y-69400000D01*
X225125001Y-69400000D01*
X225125001Y-69409845D01*
X224075500Y-69409845D01*
X224075500Y-69356007D01*
X224070526Y-69331001D01*
X224048582Y-69220681D01*
X224048579Y-69220670D01*
X224042274Y-69205449D01*
X223995775Y-69093189D01*
X223949613Y-69024102D01*
X223919116Y-68978460D01*
X223821539Y-68880883D01*
X223753074Y-68835137D01*
X223706811Y-68804225D01*
X223706808Y-68804223D01*
X223706807Y-68804223D01*
X223579329Y-68751420D01*
X223579318Y-68751417D01*
X223443998Y-68724500D01*
X223443993Y-68724500D01*
X223306007Y-68724500D01*
X223306001Y-68724500D01*
X223170681Y-68751417D01*
X223170670Y-68751420D01*
X223043192Y-68804223D01*
X222928460Y-68880883D01*
X222830883Y-68978460D01*
X222754223Y-69093192D01*
X222701420Y-69220670D01*
X222701417Y-69220681D01*
X222674500Y-69356001D01*
X217031103Y-69356001D01*
X217042048Y-69345056D01*
X217996950Y-68390154D01*
X219875000Y-68390154D01*
X219875000Y-68400000D01*
X220250000Y-68400000D01*
X220250000Y-68300000D01*
X219965155Y-68300000D01*
X219965154Y-68300001D01*
X219935981Y-68305802D01*
X219935977Y-68305804D01*
X219902902Y-68327904D01*
X219880802Y-68360980D01*
X219875000Y-68390154D01*
X217996950Y-68390154D01*
X218722252Y-67664852D01*
X218756900Y-67650500D01*
X219725500Y-67650500D01*
X219760148Y-67664852D01*
X219774500Y-67699500D01*
X219774500Y-67719748D01*
X219786133Y-67778231D01*
X219803882Y-67804795D01*
X219830447Y-67844552D01*
X219850285Y-67857807D01*
X219896769Y-67888867D01*
X219955252Y-67900500D01*
X220934522Y-67900500D01*
X220969170Y-67914852D01*
X221270670Y-68216352D01*
X221285022Y-68251000D01*
X221270670Y-68285648D01*
X221259884Y-68290115D01*
X221250000Y-68300000D01*
X221250000Y-68400000D01*
X221546844Y-68400000D01*
X221553236Y-68400419D01*
X221553852Y-68400500D01*
X221553856Y-68400500D01*
X225196148Y-68400500D01*
X225196764Y-68400419D01*
X225203156Y-68400000D01*
X225500000Y-68400000D01*
X226500000Y-68400000D01*
X226874999Y-68400000D01*
X226874999Y-68390155D01*
X226874998Y-68390154D01*
X226869197Y-68360981D01*
X226869195Y-68360977D01*
X226847095Y-68327902D01*
X226814019Y-68305802D01*
X226784846Y-68300000D01*
X226500000Y-68300000D01*
X226500000Y-68400000D01*
X225500000Y-68400000D01*
X225500000Y-68302898D01*
X225482917Y-68288898D01*
X225481703Y-68286631D01*
X225479329Y-68285648D01*
X225473010Y-68270393D01*
X225465216Y-68255835D01*
X225465960Y-68253374D01*
X225464977Y-68251000D01*
X225471295Y-68235745D01*
X225476079Y-68219940D01*
X225478345Y-68218726D01*
X225479328Y-68216353D01*
X225731806Y-67963876D01*
X229569500Y-67963876D01*
X229569500Y-68196123D01*
X229605830Y-68425511D01*
X229605831Y-68425514D01*
X229613624Y-68449500D01*
X229677600Y-68646396D01*
X229783039Y-68853331D01*
X229919551Y-69041224D01*
X229919552Y-69041225D01*
X229919556Y-69041230D01*
X230083770Y-69205444D01*
X230083774Y-69205447D01*
X230083776Y-69205449D01*
X230271669Y-69341961D01*
X230478604Y-69447400D01*
X230699486Y-69519169D01*
X230928876Y-69555500D01*
X230928877Y-69555500D01*
X231161123Y-69555500D01*
X231161124Y-69555500D01*
X231390514Y-69519169D01*
X231611396Y-69447400D01*
X231818331Y-69341961D01*
X232006224Y-69205449D01*
X232006227Y-69205445D01*
X232006230Y-69205444D01*
X232170444Y-69041230D01*
X232170445Y-69041227D01*
X232170449Y-69041224D01*
X232306961Y-68853331D01*
X232412400Y-68646396D01*
X232484169Y-68425514D01*
X232520500Y-68196124D01*
X232520500Y-67963876D01*
X232484169Y-67734486D01*
X232412400Y-67513604D01*
X232306961Y-67306669D01*
X232170449Y-67118776D01*
X232170447Y-67118774D01*
X232170444Y-67118770D01*
X232006230Y-66954556D01*
X232006225Y-66954552D01*
X232006224Y-66954551D01*
X231818331Y-66818039D01*
X231611396Y-66712600D01*
X231611395Y-66712599D01*
X231611394Y-66712599D01*
X231390514Y-66640831D01*
X231390511Y-66640830D01*
X231214297Y-66612921D01*
X231161124Y-66604500D01*
X230928876Y-66604500D01*
X230885709Y-66611336D01*
X230699488Y-66640830D01*
X230699485Y-66640831D01*
X230478605Y-66712599D01*
X230271669Y-66818039D01*
X230083774Y-66954552D01*
X229919552Y-67118774D01*
X229783039Y-67306669D01*
X229677599Y-67513605D01*
X229605831Y-67734485D01*
X229605830Y-67734488D01*
X229569500Y-67963876D01*
X225731806Y-67963876D01*
X225780830Y-67914852D01*
X225815478Y-67900500D01*
X226794745Y-67900500D01*
X226794748Y-67900500D01*
X226853231Y-67888867D01*
X226919552Y-67844552D01*
X226963867Y-67778231D01*
X226975500Y-67719748D01*
X226975500Y-66680252D01*
X226963867Y-66621769D01*
X226923351Y-66561133D01*
X226919552Y-66555447D01*
X226867520Y-66520681D01*
X226853231Y-66511133D01*
X226794748Y-66499500D01*
X225205252Y-66499500D01*
X225146769Y-66511133D01*
X225080447Y-66555447D01*
X225046669Y-66606001D01*
X225036133Y-66621769D01*
X225024500Y-66680252D01*
X225024500Y-66680255D01*
X225024500Y-67650500D01*
X225010148Y-67685148D01*
X224975500Y-67699500D01*
X221774500Y-67699500D01*
X221739852Y-67685148D01*
X221725500Y-67650500D01*
X221725500Y-66680255D01*
X221725500Y-66680252D01*
X221713867Y-66621769D01*
X221703331Y-66606001D01*
X222674500Y-66606001D01*
X222674500Y-66743998D01*
X222701417Y-66879318D01*
X222701420Y-66879329D01*
X222751815Y-67000993D01*
X222754225Y-67006811D01*
X222772920Y-67034790D01*
X222830883Y-67121539D01*
X222928460Y-67219116D01*
X222974102Y-67249613D01*
X223043189Y-67295775D01*
X223170672Y-67348580D01*
X223170678Y-67348581D01*
X223170681Y-67348582D01*
X223306001Y-67375499D01*
X223306007Y-67375500D01*
X223443993Y-67375500D01*
X223579328Y-67348580D01*
X223706811Y-67295775D01*
X223821542Y-67219114D01*
X223919114Y-67121542D01*
X223995775Y-67006811D01*
X224048580Y-66879328D01*
X224075500Y-66743993D01*
X224075500Y-66606007D01*
X224075200Y-66604500D01*
X224048582Y-66470681D01*
X224048579Y-66470670D01*
X224016487Y-66393192D01*
X223995775Y-66343189D01*
X223938741Y-66257832D01*
X223919116Y-66228460D01*
X223821539Y-66130883D01*
X223753074Y-66085137D01*
X223706811Y-66054225D01*
X223706808Y-66054223D01*
X223706807Y-66054223D01*
X223579329Y-66001420D01*
X223579318Y-66001417D01*
X223443998Y-65974500D01*
X223443993Y-65974500D01*
X223306007Y-65974500D01*
X223306001Y-65974500D01*
X223170681Y-66001417D01*
X223170670Y-66001420D01*
X223043192Y-66054223D01*
X222928460Y-66130883D01*
X222830883Y-66228460D01*
X222754223Y-66343192D01*
X222701420Y-66470670D01*
X222701417Y-66470681D01*
X222674500Y-66606001D01*
X221703331Y-66606001D01*
X221673351Y-66561133D01*
X221669552Y-66555447D01*
X221617520Y-66520681D01*
X221603231Y-66511133D01*
X221544748Y-66499500D01*
X219955252Y-66499500D01*
X219896769Y-66511133D01*
X219830447Y-66555447D01*
X219796669Y-66606001D01*
X219786133Y-66621769D01*
X219774500Y-66680252D01*
X219774500Y-66680255D01*
X219774500Y-66700500D01*
X219760148Y-66735148D01*
X219725500Y-66749500D01*
X218490688Y-66749500D01*
X218376118Y-66780199D01*
X218376114Y-66780201D01*
X218273389Y-66839507D01*
X218273383Y-66839512D01*
X213992749Y-71120148D01*
X213958101Y-71134500D01*
X213780252Y-71134500D01*
X213721769Y-71146133D01*
X213655447Y-71190447D01*
X213615322Y-71250500D01*
X213611133Y-71256769D01*
X213599500Y-71315252D01*
X213150500Y-71315252D01*
X213150500Y-67940689D01*
X213126286Y-67850326D01*
X213126285Y-67850323D01*
X213119799Y-67826114D01*
X213119799Y-67826113D01*
X213060490Y-67723386D01*
X212176614Y-66839511D01*
X212160487Y-66830200D01*
X212073888Y-66780201D01*
X212073886Y-66780200D01*
X212049673Y-66773713D01*
X212031361Y-66768806D01*
X211961817Y-66750171D01*
X211932064Y-66727340D01*
X211925500Y-66702841D01*
X211925500Y-66680255D01*
X211925500Y-66680252D01*
X211913867Y-66621769D01*
X211873351Y-66561133D01*
X211869552Y-66555447D01*
X211817520Y-66520681D01*
X211803231Y-66511133D01*
X211744748Y-66499500D01*
X210155252Y-66499500D01*
X210096769Y-66511133D01*
X210030447Y-66555447D01*
X209996669Y-66606001D01*
X209986133Y-66621769D01*
X209974500Y-66680252D01*
X209974500Y-66680255D01*
X209974500Y-67649500D01*
X209960148Y-67684148D01*
X209925500Y-67698500D01*
X206724500Y-67698500D01*
X206689852Y-67684148D01*
X206675500Y-67649500D01*
X206675500Y-66680255D01*
X206675500Y-66680252D01*
X206663867Y-66621769D01*
X206653331Y-66606001D01*
X207624500Y-66606001D01*
X207624500Y-66743998D01*
X207651417Y-66879318D01*
X207651420Y-66879329D01*
X207701815Y-67000993D01*
X207704225Y-67006811D01*
X207722920Y-67034790D01*
X207780883Y-67121539D01*
X207878460Y-67219116D01*
X207924102Y-67249613D01*
X207993189Y-67295775D01*
X208120672Y-67348580D01*
X208120678Y-67348581D01*
X208120681Y-67348582D01*
X208256001Y-67375499D01*
X208256007Y-67375500D01*
X208393993Y-67375500D01*
X208529328Y-67348580D01*
X208656811Y-67295775D01*
X208771542Y-67219114D01*
X208869114Y-67121542D01*
X208945775Y-67006811D01*
X208998580Y-66879328D01*
X209025500Y-66743993D01*
X209025500Y-66606007D01*
X209025200Y-66604500D01*
X208998582Y-66470681D01*
X208998579Y-66470670D01*
X208966487Y-66393192D01*
X208945775Y-66343189D01*
X208888741Y-66257832D01*
X208869116Y-66228460D01*
X208771539Y-66130883D01*
X208703074Y-66085137D01*
X208656811Y-66054225D01*
X208656808Y-66054223D01*
X208656807Y-66054223D01*
X208529329Y-66001420D01*
X208529318Y-66001417D01*
X208393998Y-65974500D01*
X208393993Y-65974500D01*
X208256007Y-65974500D01*
X208256001Y-65974500D01*
X208120681Y-66001417D01*
X208120670Y-66001420D01*
X207993192Y-66054223D01*
X207878460Y-66130883D01*
X207780883Y-66228460D01*
X207704223Y-66343192D01*
X207651420Y-66470670D01*
X207651417Y-66470681D01*
X207624500Y-66606001D01*
X206653331Y-66606001D01*
X206623351Y-66561133D01*
X206619552Y-66555447D01*
X206567520Y-66520681D01*
X206553231Y-66511133D01*
X206494748Y-66499500D01*
X204905252Y-66499500D01*
X204846769Y-66511133D01*
X204780447Y-66555447D01*
X204746669Y-66606001D01*
X204736133Y-66621769D01*
X204724500Y-66680252D01*
X196952468Y-66680252D01*
X196950500Y-66675500D01*
X196950500Y-66655255D01*
X196950500Y-66655252D01*
X196938867Y-66596769D01*
X196911256Y-66555447D01*
X196894552Y-66530447D01*
X196848236Y-66499500D01*
X196828231Y-66486133D01*
X196769748Y-66474500D01*
X195180252Y-66474500D01*
X195121769Y-66486133D01*
X195055447Y-66530447D01*
X195021669Y-66581001D01*
X195011133Y-66596769D01*
X194999500Y-66655252D01*
X194999500Y-66655255D01*
X194999500Y-67600500D01*
X194985148Y-67635148D01*
X194950500Y-67649500D01*
X191749500Y-67649500D01*
X191714852Y-67635148D01*
X191700500Y-67600500D01*
X191700500Y-66655255D01*
X191700500Y-66655252D01*
X191688867Y-66596769D01*
X191678331Y-66581001D01*
X192649500Y-66581001D01*
X192649500Y-66718998D01*
X192676417Y-66854318D01*
X192676420Y-66854329D01*
X192729223Y-66981807D01*
X192729225Y-66981811D01*
X192742042Y-67000993D01*
X192805883Y-67096539D01*
X192903460Y-67194116D01*
X192940873Y-67219114D01*
X193018189Y-67270775D01*
X193145672Y-67323580D01*
X193145678Y-67323581D01*
X193145681Y-67323582D01*
X193281001Y-67350499D01*
X193281007Y-67350500D01*
X193418993Y-67350500D01*
X193554328Y-67323580D01*
X193681811Y-67270775D01*
X193796542Y-67194114D01*
X193894114Y-67096542D01*
X193970775Y-66981811D01*
X194023580Y-66854328D01*
X194050500Y-66718993D01*
X194050500Y-66581007D01*
X194040443Y-66530447D01*
X194023582Y-66445681D01*
X194023579Y-66445670D01*
X194011915Y-66417511D01*
X193970775Y-66318189D01*
X193910819Y-66228458D01*
X193894116Y-66203460D01*
X193796539Y-66105883D01*
X193715028Y-66051420D01*
X193681811Y-66029225D01*
X193681808Y-66029223D01*
X193681807Y-66029223D01*
X193554329Y-65976420D01*
X193554318Y-65976417D01*
X193418998Y-65949500D01*
X193418993Y-65949500D01*
X193281007Y-65949500D01*
X193281001Y-65949500D01*
X193145681Y-65976417D01*
X193145670Y-65976420D01*
X193018192Y-66029223D01*
X192903460Y-66105883D01*
X192805883Y-66203460D01*
X192729223Y-66318192D01*
X192676420Y-66445670D01*
X192676417Y-66445681D01*
X192649500Y-66581001D01*
X191678331Y-66581001D01*
X191661256Y-66555447D01*
X191644552Y-66530447D01*
X191598236Y-66499500D01*
X191578231Y-66486133D01*
X191519748Y-66474500D01*
X189930252Y-66474500D01*
X189871769Y-66486133D01*
X189805447Y-66530447D01*
X189771669Y-66581001D01*
X189761133Y-66596769D01*
X189749500Y-66655252D01*
X189749500Y-67694748D01*
X189761133Y-67753231D01*
X189777837Y-67778230D01*
X189805447Y-67819552D01*
X189832012Y-67837301D01*
X189871769Y-67863867D01*
X189930252Y-67875500D01*
X190909522Y-67875500D01*
X190944170Y-67889852D01*
X191245670Y-68191352D01*
X191260022Y-68226000D01*
X191245670Y-68260648D01*
X191234884Y-68265115D01*
X191225000Y-68275000D01*
X191225000Y-68375000D01*
X191599999Y-68375000D01*
X191610147Y-68364852D01*
X191644795Y-68350500D01*
X195055204Y-68350500D01*
X195089852Y-68364852D01*
X195100000Y-68375000D01*
X195475000Y-68375000D01*
X196475000Y-68375000D01*
X196849999Y-68375000D01*
X196849999Y-68365155D01*
X196849998Y-68365154D01*
X196844197Y-68335981D01*
X196844195Y-68335977D01*
X196822095Y-68302902D01*
X196789019Y-68280802D01*
X196759846Y-68275000D01*
X196475000Y-68275000D01*
X196475000Y-68375000D01*
X195475000Y-68375000D01*
X195475000Y-68277898D01*
X195457917Y-68263898D01*
X195456703Y-68261631D01*
X195454329Y-68260648D01*
X195448010Y-68245393D01*
X195440216Y-68230835D01*
X195440960Y-68228374D01*
X195439977Y-68226000D01*
X195446295Y-68210745D01*
X195451079Y-68194940D01*
X195453345Y-68193726D01*
X195454328Y-68191353D01*
X195755830Y-67889852D01*
X195790478Y-67875500D01*
X196769745Y-67875500D01*
X196769748Y-67875500D01*
X196828231Y-67863867D01*
X196894552Y-67819552D01*
X196938867Y-67753231D01*
X196950500Y-67694748D01*
X196950500Y-67674500D01*
X196964852Y-67639852D01*
X196999500Y-67625500D01*
X198818101Y-67625500D01*
X198852749Y-67639852D01*
X201429749Y-70216852D01*
X201444101Y-70251500D01*
X201429749Y-70286148D01*
X201395101Y-70300500D01*
X187907900Y-70300500D01*
X187873252Y-70286148D01*
X186976456Y-69389352D01*
X186971949Y-69384845D01*
X189850001Y-69384845D01*
X189855802Y-69414018D01*
X189855804Y-69414022D01*
X189877904Y-69447097D01*
X189910980Y-69469197D01*
X189940154Y-69474999D01*
X190224999Y-69474999D01*
X191225000Y-69474999D01*
X191509845Y-69474999D01*
X191509845Y-69474998D01*
X191539018Y-69469197D01*
X191539022Y-69469195D01*
X191572097Y-69447095D01*
X191594197Y-69414019D01*
X191600000Y-69384845D01*
X191600000Y-69375000D01*
X191225000Y-69375000D01*
X191225000Y-69474999D01*
X190224999Y-69474999D01*
X190225000Y-69474998D01*
X190225000Y-69375000D01*
X189850001Y-69375000D01*
X189850001Y-69384845D01*
X186971949Y-69384845D01*
X186918105Y-69331001D01*
X192649500Y-69331001D01*
X192649500Y-69468998D01*
X192676417Y-69604318D01*
X192676420Y-69604329D01*
X192711704Y-69689512D01*
X192729225Y-69731811D01*
X192745927Y-69756807D01*
X192805883Y-69846539D01*
X192903460Y-69944116D01*
X192922104Y-69956573D01*
X193018189Y-70020775D01*
X193145672Y-70073580D01*
X193145678Y-70073581D01*
X193145681Y-70073582D01*
X193281001Y-70100499D01*
X193281007Y-70100500D01*
X193418993Y-70100500D01*
X193554328Y-70073580D01*
X193681811Y-70020775D01*
X193796542Y-69944114D01*
X193894114Y-69846542D01*
X193970775Y-69731811D01*
X194023580Y-69604328D01*
X194040520Y-69519168D01*
X194050499Y-69468998D01*
X194050500Y-69468993D01*
X194050500Y-69384845D01*
X195100001Y-69384845D01*
X195105802Y-69414018D01*
X195105804Y-69414022D01*
X195127904Y-69447097D01*
X195160980Y-69469197D01*
X195190154Y-69474999D01*
X195474999Y-69474999D01*
X196475000Y-69474999D01*
X196759845Y-69474999D01*
X196759845Y-69474998D01*
X196789018Y-69469197D01*
X196789022Y-69469195D01*
X196822097Y-69447095D01*
X196844197Y-69414019D01*
X196850000Y-69384845D01*
X196850000Y-69375000D01*
X196475000Y-69375000D01*
X196475000Y-69474999D01*
X195474999Y-69474999D01*
X195475000Y-69474998D01*
X195475000Y-69375000D01*
X195100001Y-69375000D01*
X195100001Y-69384845D01*
X194050500Y-69384845D01*
X194050500Y-69331007D01*
X194050499Y-69331001D01*
X194023582Y-69195681D01*
X194023579Y-69195670D01*
X194001841Y-69143189D01*
X193970775Y-69068189D01*
X193910819Y-68978458D01*
X193894116Y-68953460D01*
X193796539Y-68855883D01*
X193715028Y-68801420D01*
X193681811Y-68779225D01*
X193681808Y-68779223D01*
X193681807Y-68779223D01*
X193554329Y-68726420D01*
X193554318Y-68726417D01*
X193418998Y-68699500D01*
X193418993Y-68699500D01*
X193281007Y-68699500D01*
X193281001Y-68699500D01*
X193145681Y-68726417D01*
X193145670Y-68726420D01*
X193018192Y-68779223D01*
X192903460Y-68855883D01*
X192805883Y-68953460D01*
X192729223Y-69068192D01*
X192676420Y-69195670D01*
X192676417Y-69195681D01*
X192649500Y-69331001D01*
X186918105Y-69331001D01*
X186494826Y-68907722D01*
X185952258Y-68365154D01*
X189850000Y-68365154D01*
X189850000Y-68375000D01*
X190225000Y-68375000D01*
X190225000Y-68275000D01*
X189940155Y-68275000D01*
X189940154Y-68275001D01*
X189910981Y-68280802D01*
X189910977Y-68280804D01*
X189877902Y-68302904D01*
X189855802Y-68335980D01*
X189850000Y-68365154D01*
X185952258Y-68365154D01*
X184476614Y-66889511D01*
X184373888Y-66830201D01*
X184373886Y-66830200D01*
X184349673Y-66823713D01*
X184315331Y-66814511D01*
X184259311Y-66799500D01*
X184259309Y-66799500D01*
X181924500Y-66799500D01*
X181889852Y-66785148D01*
X181875500Y-66750500D01*
X181875500Y-66730255D01*
X181875500Y-66730252D01*
X181863867Y-66671769D01*
X181830458Y-66621769D01*
X181819552Y-66605447D01*
X181779795Y-66578882D01*
X181753231Y-66561133D01*
X181694748Y-66549500D01*
X180105252Y-66549500D01*
X180046769Y-66561133D01*
X179980447Y-66605447D01*
X179956805Y-66640831D01*
X179936133Y-66671769D01*
X179924500Y-66730252D01*
X179924500Y-66730255D01*
X179924500Y-67650500D01*
X179910148Y-67685148D01*
X179875500Y-67699500D01*
X176674500Y-67699500D01*
X176639852Y-67685148D01*
X176625500Y-67650500D01*
X176625500Y-66730255D01*
X176625500Y-66730252D01*
X176613867Y-66671769D01*
X176603331Y-66656001D01*
X177574500Y-66656001D01*
X177574500Y-66793998D01*
X177601417Y-66929318D01*
X177601420Y-66929329D01*
X177654223Y-67056807D01*
X177654225Y-67056811D01*
X177683515Y-67100646D01*
X177730883Y-67171539D01*
X177828460Y-67269116D01*
X177868359Y-67295775D01*
X177943189Y-67345775D01*
X178070672Y-67398580D01*
X178070678Y-67398581D01*
X178070681Y-67398582D01*
X178206001Y-67425499D01*
X178206007Y-67425500D01*
X178343993Y-67425500D01*
X178479328Y-67398580D01*
X178606811Y-67345775D01*
X178721542Y-67269114D01*
X178819114Y-67171542D01*
X178895775Y-67056811D01*
X178948580Y-66929328D01*
X178975500Y-66793993D01*
X178975500Y-66656007D01*
X178975499Y-66656001D01*
X178948582Y-66520681D01*
X178948579Y-66520670D01*
X178939810Y-66499500D01*
X178895775Y-66393189D01*
X178849613Y-66324102D01*
X178819116Y-66278460D01*
X178721539Y-66180883D01*
X178646707Y-66130883D01*
X178606811Y-66104225D01*
X178606808Y-66104223D01*
X178606807Y-66104223D01*
X178479329Y-66051420D01*
X178479318Y-66051417D01*
X178343998Y-66024500D01*
X178343993Y-66024500D01*
X178206007Y-66024500D01*
X178206001Y-66024500D01*
X178070681Y-66051417D01*
X178070670Y-66051420D01*
X177943192Y-66104223D01*
X177828460Y-66180883D01*
X177730883Y-66278460D01*
X177654223Y-66393192D01*
X177601420Y-66520670D01*
X177601417Y-66520681D01*
X177574500Y-66656001D01*
X176603331Y-66656001D01*
X176580458Y-66621769D01*
X176569552Y-66605447D01*
X176529795Y-66578882D01*
X176503231Y-66561133D01*
X176444748Y-66549500D01*
X174855252Y-66549500D01*
X174796769Y-66561133D01*
X174730447Y-66605447D01*
X174706805Y-66640831D01*
X174686133Y-66671769D01*
X174674500Y-66730252D01*
X174674500Y-67769748D01*
X174686133Y-67828231D01*
X174703882Y-67854795D01*
X174730447Y-67894552D01*
X174757012Y-67912301D01*
X174796769Y-67938867D01*
X174855252Y-67950500D01*
X175834522Y-67950500D01*
X175869170Y-67964852D01*
X176170670Y-68266352D01*
X176185022Y-68301000D01*
X176170670Y-68335648D01*
X176159884Y-68340115D01*
X176150000Y-68350000D01*
X176150000Y-68450000D01*
X176524999Y-68450000D01*
X176524999Y-68449500D01*
X176539351Y-68414852D01*
X176573999Y-68400500D01*
X179976000Y-68400500D01*
X180010648Y-68414852D01*
X180025000Y-68449500D01*
X180025000Y-68450000D01*
X180400000Y-68450000D01*
X181400000Y-68450000D01*
X181774999Y-68450000D01*
X181774999Y-68440155D01*
X181774998Y-68440154D01*
X181769197Y-68410981D01*
X181769195Y-68410977D01*
X181747095Y-68377902D01*
X181714019Y-68355802D01*
X181684846Y-68350000D01*
X181400000Y-68350000D01*
X181400000Y-68450000D01*
X180400000Y-68450000D01*
X180400000Y-68352899D01*
X180382917Y-68338898D01*
X180381703Y-68336631D01*
X180379330Y-68335648D01*
X180373011Y-68320394D01*
X180365217Y-68305834D01*
X180365961Y-68303374D01*
X180364978Y-68301000D01*
X180371295Y-68285748D01*
X180376080Y-68269939D01*
X180378346Y-68268725D01*
X180379330Y-68266352D01*
X180680830Y-67964852D01*
X180715478Y-67950500D01*
X181694745Y-67950500D01*
X181694748Y-67950500D01*
X181753231Y-67938867D01*
X181819552Y-67894552D01*
X181863867Y-67828231D01*
X181875500Y-67769748D01*
X181875500Y-67749500D01*
X181889852Y-67714852D01*
X181924500Y-67700500D01*
X183993101Y-67700500D01*
X184027748Y-67714851D01*
X187424386Y-71111490D01*
X187424389Y-71111491D01*
X187424392Y-71111494D01*
X187439382Y-71120148D01*
X187527113Y-71170799D01*
X187536772Y-71173387D01*
X187641688Y-71201500D01*
X187641691Y-71201500D01*
X203422420Y-71201500D01*
X203457068Y-71215852D01*
X203471420Y-71250500D01*
X203470479Y-71260054D01*
X203459500Y-71315252D01*
X203459500Y-71315255D01*
X203459500Y-75528100D01*
X203445148Y-75562748D01*
X201122749Y-77885148D01*
X201088101Y-77899500D01*
X169956900Y-77899500D01*
X169922252Y-77885148D01*
X169914810Y-77877706D01*
X169900458Y-77843058D01*
X169908715Y-77815837D01*
X169943867Y-77763231D01*
X169955500Y-77704748D01*
X169955500Y-77694845D01*
X170355001Y-77694845D01*
X170360802Y-77724018D01*
X170360804Y-77724022D01*
X170382904Y-77757097D01*
X170415980Y-77779197D01*
X170445153Y-77784999D01*
X171455000Y-77784999D01*
X171464845Y-77784999D01*
X171464845Y-77784998D01*
X171494018Y-77779197D01*
X171494022Y-77779195D01*
X171527097Y-77757095D01*
X171549197Y-77724019D01*
X171555000Y-77694845D01*
X171555000Y-77410000D01*
X171455000Y-77410000D01*
X171455000Y-77784999D01*
X170445153Y-77784999D01*
X170455000Y-77784998D01*
X170455000Y-77410000D01*
X170355001Y-77410000D01*
X170355001Y-77694845D01*
X169955500Y-77694845D01*
X169955500Y-76725478D01*
X169969852Y-76690830D01*
X170271352Y-76389330D01*
X170306000Y-76374978D01*
X170340648Y-76389330D01*
X170345115Y-76400115D01*
X170355000Y-76410000D01*
X170455000Y-76410000D01*
X171455000Y-76410000D01*
X171554999Y-76410000D01*
X171554999Y-76125155D01*
X171554998Y-76125154D01*
X171549197Y-76095981D01*
X171549195Y-76095977D01*
X171527095Y-76062902D01*
X171494019Y-76040802D01*
X171464846Y-76035000D01*
X171455000Y-76035000D01*
X171455000Y-76410000D01*
X170455000Y-76410000D01*
X170455000Y-76044277D01*
X170426666Y-76029355D01*
X170421836Y-76023542D01*
X170414854Y-76020651D01*
X170410300Y-76009658D01*
X170402698Y-76000510D01*
X170403392Y-75992985D01*
X170400500Y-75986004D01*
X170400500Y-74216001D01*
X170779500Y-74216001D01*
X170779500Y-74353998D01*
X170806417Y-74489318D01*
X170806420Y-74489328D01*
X170859225Y-74616811D01*
X170860942Y-74619380D01*
X170935883Y-74731539D01*
X171033460Y-74829116D01*
X171055504Y-74843845D01*
X171148189Y-74905775D01*
X171275672Y-74958580D01*
X171275678Y-74958581D01*
X171275681Y-74958582D01*
X171411001Y-74985499D01*
X171411007Y-74985500D01*
X171548993Y-74985500D01*
X171684328Y-74958580D01*
X171811811Y-74905775D01*
X171926542Y-74829114D01*
X172024114Y-74731542D01*
X172100775Y-74616811D01*
X172153580Y-74489328D01*
X172180500Y-74353993D01*
X172180500Y-74216007D01*
X172180499Y-74216001D01*
X172153582Y-74080681D01*
X172153579Y-74080670D01*
X172100776Y-73953192D01*
X172100775Y-73953189D01*
X172051229Y-73879038D01*
X175397000Y-73879038D01*
X175397000Y-74130961D01*
X175436409Y-74379782D01*
X175436410Y-74379785D01*
X175514259Y-74619380D01*
X175573801Y-74736237D01*
X175628630Y-74843845D01*
X175731547Y-74985499D01*
X175776708Y-75047657D01*
X175776712Y-75047662D01*
X175954838Y-75225788D01*
X175954842Y-75225791D01*
X175954844Y-75225793D01*
X176158655Y-75373870D01*
X176383121Y-75488241D01*
X176622715Y-75566090D01*
X176871538Y-75605500D01*
X176871539Y-75605500D01*
X177123461Y-75605500D01*
X177123462Y-75605500D01*
X177372285Y-75566090D01*
X177611879Y-75488241D01*
X177836345Y-75373870D01*
X178040156Y-75225793D01*
X178040159Y-75225789D01*
X178040162Y-75225788D01*
X178218288Y-75047662D01*
X178218289Y-75047659D01*
X178218293Y-75047656D01*
X178366370Y-74843845D01*
X178480741Y-74619379D01*
X178558590Y-74379785D01*
X178598000Y-74130962D01*
X178598000Y-73879038D01*
X198047000Y-73879038D01*
X198047000Y-74130961D01*
X198086409Y-74379782D01*
X198086410Y-74379785D01*
X198164259Y-74619380D01*
X198223801Y-74736237D01*
X198278630Y-74843845D01*
X198381547Y-74985499D01*
X198426708Y-75047657D01*
X198426712Y-75047662D01*
X198604838Y-75225788D01*
X198604842Y-75225791D01*
X198604844Y-75225793D01*
X198808655Y-75373870D01*
X199033121Y-75488241D01*
X199272715Y-75566090D01*
X199521538Y-75605500D01*
X199521539Y-75605500D01*
X199773461Y-75605500D01*
X199773462Y-75605500D01*
X200022285Y-75566090D01*
X200261879Y-75488241D01*
X200486345Y-75373870D01*
X200690156Y-75225793D01*
X200690159Y-75225789D01*
X200690162Y-75225788D01*
X200868288Y-75047662D01*
X200868289Y-75047659D01*
X200868293Y-75047656D01*
X201016370Y-74843845D01*
X201130741Y-74619379D01*
X201208590Y-74379785D01*
X201248000Y-74130962D01*
X201248000Y-73879038D01*
X201208590Y-73630215D01*
X201130741Y-73390621D01*
X201016370Y-73166155D01*
X200868293Y-72962344D01*
X200868291Y-72962342D01*
X200868288Y-72962338D01*
X200690162Y-72784212D01*
X200690157Y-72784208D01*
X200552920Y-72684500D01*
X200486345Y-72636130D01*
X200486344Y-72636129D01*
X200486342Y-72636128D01*
X200261880Y-72521759D01*
X200022285Y-72443910D01*
X200022282Y-72443909D01*
X199800964Y-72408856D01*
X199773462Y-72404500D01*
X199521538Y-72404500D01*
X199494036Y-72408856D01*
X199272717Y-72443909D01*
X199272714Y-72443910D01*
X199033119Y-72521759D01*
X198808657Y-72636128D01*
X198604842Y-72784208D01*
X198426708Y-72962342D01*
X198278628Y-73166157D01*
X198164259Y-73390619D01*
X198086410Y-73630214D01*
X198086409Y-73630217D01*
X198047000Y-73879038D01*
X178598000Y-73879038D01*
X178558590Y-73630215D01*
X178480741Y-73390621D01*
X178366370Y-73166155D01*
X178218293Y-72962344D01*
X178218291Y-72962342D01*
X178218288Y-72962338D01*
X178040162Y-72784212D01*
X178040157Y-72784208D01*
X177902920Y-72684500D01*
X177836345Y-72636130D01*
X177836344Y-72636129D01*
X177836342Y-72636128D01*
X177611880Y-72521759D01*
X177372285Y-72443910D01*
X177372282Y-72443909D01*
X177150964Y-72408856D01*
X177123462Y-72404500D01*
X176871538Y-72404500D01*
X176844036Y-72408856D01*
X176622717Y-72443909D01*
X176622714Y-72443910D01*
X176383119Y-72521759D01*
X176158657Y-72636128D01*
X175954842Y-72784208D01*
X175776708Y-72962342D01*
X175628628Y-73166157D01*
X175514259Y-73390619D01*
X175436410Y-73630214D01*
X175436409Y-73630217D01*
X175397000Y-73879038D01*
X172051229Y-73879038D01*
X172024116Y-73838460D01*
X171926539Y-73740883D01*
X171832865Y-73678293D01*
X171811811Y-73664225D01*
X171811808Y-73664223D01*
X171811807Y-73664223D01*
X171684329Y-73611420D01*
X171684318Y-73611417D01*
X171548998Y-73584500D01*
X171548993Y-73584500D01*
X171411007Y-73584500D01*
X171411001Y-73584500D01*
X171275681Y-73611417D01*
X171275670Y-73611420D01*
X171148192Y-73664223D01*
X171033460Y-73740883D01*
X170935883Y-73838460D01*
X170859223Y-73953192D01*
X170806420Y-74080670D01*
X170806417Y-74080681D01*
X170779500Y-74216001D01*
X170400500Y-74216001D01*
X170400500Y-72583999D01*
X170414852Y-72549351D01*
X170449496Y-72534999D01*
X171455000Y-72534999D01*
X171464845Y-72534999D01*
X171464845Y-72534998D01*
X171494018Y-72529197D01*
X171494022Y-72529195D01*
X171527097Y-72507095D01*
X171549197Y-72474019D01*
X171555000Y-72444845D01*
X171555000Y-72160000D01*
X171455000Y-72160000D01*
X171455000Y-72534999D01*
X170449496Y-72534999D01*
X170455000Y-72534998D01*
X170455000Y-72160000D01*
X170355002Y-72160000D01*
X170345113Y-72169887D01*
X170340643Y-72180676D01*
X170305992Y-72195022D01*
X170271352Y-72180670D01*
X169969852Y-71879170D01*
X169955500Y-71844522D01*
X169955500Y-70875154D01*
X170355000Y-70875154D01*
X170355000Y-71160000D01*
X170455000Y-71160000D01*
X171455000Y-71160000D01*
X171554999Y-71160000D01*
X171554999Y-70875155D01*
X171554998Y-70875154D01*
X171549197Y-70845981D01*
X171549195Y-70845977D01*
X171527095Y-70812902D01*
X171494019Y-70790802D01*
X171464846Y-70785000D01*
X171455000Y-70785000D01*
X171455000Y-71160000D01*
X170455000Y-71160000D01*
X170455000Y-70784999D01*
X170445157Y-70785000D01*
X170445152Y-70785001D01*
X170415981Y-70790802D01*
X170415977Y-70790804D01*
X170382902Y-70812904D01*
X170360802Y-70845980D01*
X170355000Y-70875154D01*
X169955500Y-70875154D01*
X169955500Y-70865255D01*
X169955500Y-70865252D01*
X169943867Y-70806769D01*
X169917301Y-70767012D01*
X169899552Y-70740447D01*
X169859795Y-70713882D01*
X169833231Y-70696133D01*
X169774748Y-70684500D01*
X168735252Y-70684500D01*
X168676769Y-70696133D01*
X168610447Y-70740447D01*
X168566133Y-70806769D01*
X168554500Y-70865252D01*
X167840674Y-70865252D01*
X167840674Y-67963876D01*
X169029500Y-67963876D01*
X169029500Y-68196123D01*
X169065830Y-68425511D01*
X169065831Y-68425514D01*
X169073624Y-68449500D01*
X169137600Y-68646396D01*
X169243039Y-68853331D01*
X169379551Y-69041224D01*
X169379552Y-69041225D01*
X169379556Y-69041230D01*
X169543770Y-69205444D01*
X169543774Y-69205447D01*
X169543776Y-69205449D01*
X169731669Y-69341961D01*
X169938604Y-69447400D01*
X170159486Y-69519169D01*
X170388876Y-69555500D01*
X170388877Y-69555500D01*
X170621123Y-69555500D01*
X170621124Y-69555500D01*
X170850514Y-69519169D01*
X171033094Y-69459845D01*
X174775001Y-69459845D01*
X174780802Y-69489018D01*
X174780804Y-69489022D01*
X174802904Y-69522097D01*
X174835980Y-69544197D01*
X174865154Y-69549999D01*
X175149999Y-69549999D01*
X176150000Y-69549999D01*
X176434845Y-69549999D01*
X176434845Y-69549998D01*
X176464018Y-69544197D01*
X176464022Y-69544195D01*
X176497097Y-69522095D01*
X176519197Y-69489019D01*
X176525000Y-69459845D01*
X176525000Y-69450000D01*
X176150000Y-69450000D01*
X176150000Y-69549999D01*
X175149999Y-69549999D01*
X175150000Y-69549998D01*
X175150000Y-69450000D01*
X174775001Y-69450000D01*
X174775001Y-69459845D01*
X171033094Y-69459845D01*
X171071396Y-69447400D01*
X171152646Y-69406001D01*
X177574500Y-69406001D01*
X177574500Y-69543998D01*
X177601417Y-69679318D01*
X177601420Y-69679329D01*
X177633514Y-69756811D01*
X177654225Y-69806811D01*
X177685137Y-69853074D01*
X177730883Y-69921539D01*
X177828460Y-70019116D01*
X177868359Y-70045775D01*
X177943189Y-70095775D01*
X178070672Y-70148580D01*
X178070678Y-70148581D01*
X178070681Y-70148582D01*
X178206001Y-70175499D01*
X178206007Y-70175500D01*
X178343993Y-70175500D01*
X178479328Y-70148580D01*
X178606811Y-70095775D01*
X178721542Y-70019114D01*
X178819114Y-69921542D01*
X178895775Y-69806811D01*
X178948580Y-69679328D01*
X178975500Y-69543993D01*
X178975500Y-69459845D01*
X180025001Y-69459845D01*
X180030802Y-69489018D01*
X180030804Y-69489022D01*
X180052904Y-69522097D01*
X180085980Y-69544197D01*
X180115154Y-69549999D01*
X180399999Y-69549999D01*
X181400000Y-69549999D01*
X181684845Y-69549999D01*
X181684845Y-69549998D01*
X181714018Y-69544197D01*
X181714022Y-69544195D01*
X181747097Y-69522095D01*
X181769197Y-69489019D01*
X181775000Y-69459845D01*
X181775000Y-69450000D01*
X181400000Y-69450000D01*
X181400000Y-69549999D01*
X180399999Y-69549999D01*
X180400000Y-69549998D01*
X180400000Y-69450000D01*
X180025001Y-69450000D01*
X180025001Y-69459845D01*
X178975500Y-69459845D01*
X178975500Y-69406007D01*
X178969332Y-69375000D01*
X178948582Y-69270681D01*
X178948579Y-69270670D01*
X178927869Y-69220672D01*
X178895775Y-69143189D01*
X178849613Y-69074102D01*
X178819116Y-69028460D01*
X178721539Y-68930883D01*
X178646707Y-68880883D01*
X178606811Y-68854225D01*
X178606808Y-68854223D01*
X178606807Y-68854223D01*
X178479329Y-68801420D01*
X178479318Y-68801417D01*
X178343998Y-68774500D01*
X178343993Y-68774500D01*
X178206007Y-68774500D01*
X178206001Y-68774500D01*
X178070681Y-68801417D01*
X178070670Y-68801420D01*
X177943192Y-68854223D01*
X177828460Y-68930883D01*
X177730883Y-69028460D01*
X177654223Y-69143192D01*
X177601420Y-69270670D01*
X177601417Y-69270681D01*
X177574500Y-69406001D01*
X171152646Y-69406001D01*
X171278331Y-69341961D01*
X171466224Y-69205449D01*
X171466227Y-69205445D01*
X171466230Y-69205444D01*
X171630444Y-69041230D01*
X171630445Y-69041227D01*
X171630449Y-69041224D01*
X171766961Y-68853331D01*
X171872400Y-68646396D01*
X171939412Y-68440154D01*
X174775000Y-68440154D01*
X174775000Y-68450000D01*
X175150000Y-68450000D01*
X175150000Y-68350000D01*
X174865155Y-68350000D01*
X174865154Y-68350001D01*
X174835981Y-68355802D01*
X174835977Y-68355804D01*
X174802902Y-68377904D01*
X174780802Y-68410980D01*
X174775000Y-68440154D01*
X171939412Y-68440154D01*
X171944169Y-68425514D01*
X171980500Y-68196124D01*
X171980500Y-67963876D01*
X171944169Y-67734486D01*
X171872400Y-67513604D01*
X171766961Y-67306669D01*
X171630449Y-67118776D01*
X171630447Y-67118774D01*
X171630444Y-67118770D01*
X171466230Y-66954556D01*
X171466225Y-66954552D01*
X171466224Y-66954551D01*
X171278331Y-66818039D01*
X171071396Y-66712600D01*
X171071395Y-66712599D01*
X171071394Y-66712599D01*
X170850514Y-66640831D01*
X170850511Y-66640830D01*
X170674297Y-66612921D01*
X170621124Y-66604500D01*
X170388876Y-66604500D01*
X170345709Y-66611336D01*
X170159488Y-66640830D01*
X170159485Y-66640831D01*
X169938605Y-66712599D01*
X169731669Y-66818039D01*
X169543774Y-66954552D01*
X169379552Y-67118774D01*
X169243039Y-67306669D01*
X169137599Y-67513605D01*
X169065831Y-67734485D01*
X169065830Y-67734488D01*
X169029500Y-67963876D01*
X167840674Y-67963876D01*
X167840674Y-67211864D01*
X167840799Y-67208369D01*
X167841818Y-67194114D01*
X167850984Y-67065938D01*
X167865209Y-67034790D01*
X169035648Y-65864352D01*
X169070296Y-65850000D01*
X235029704Y-65850000D01*
X235064352Y-65864352D01*
G37*
%TD.AperFunction*%
%TD*%
M02*
