  0
SECTION
  2
HEADER
  9
$ANGBASE
  50
0.0
  9
$ANGDIR
  70
1
  9
$MEASUREMENT
  70
1
  0
ENDSEC
  0
SECTION
  2
TABLES
  0
TABLE
  2
LTYPE
  70
4
  0
LTYPE
  5
40F
  2
CONTINUOUS
  70
0
  3
Solid line
  72
65
  73
0
  40
0.0
  0
LTYPE
  5
410
  2
DASHDOT
 70
0
  3
Dash Dot ____ _ ____ _
 72
65
 73
4
 40
2.0
 49
1.25
 49
-0.25
 49
0.25
 49
-0.25
  0
LTYPE
  5
411
  2
DASHED
 70
0
  3
Dashed __ __ __ __ __
 72
65
 73
2
 40
0.75
 49
0.5
 49
-0.25
  0
LTYPE
  5
43B
  2
DOTTED
 70
0
  3
Dotted .  .  .  .
 72
65
 73
2
 40
0.2
 49
0.0
 49
-0.2
  0
ENDTAB
  0
TABLE
  2
STYLE
  70
4
  0
STYLE
  2
KICAD
  70
0
  40
0
  41
1
  42
1
  50
0
  71
0
  3
isocp.shx
  0
STYLE
  2
KICADB
  70
0
  40
0
  41
1
  42
1
  50
0
  71
0
  3
isocp.shx
  0
STYLE
  2
KICADI
  70
0
  40
0
  41
1
  42
1
  50
15
  71
0
  3
isocp.shx
  0
STYLE
  2
KICADBI
  70
0
  40
0
  41
1
  42
1
  50
15
  71
0
  3
isocp.shx
  0
ENDTAB
  0
TABLE
  2
LAYER
  70
1
  0
LAYER
  2
BLACK
  70
0
  62
7
  6
CONTINUOUS
  0
ENDTAB
  0
ENDSEC
  0
SECTION
  2
ENTITIES
0
LINE
8
BLACK
6
CONTINUOUS
10
174.0118439999999964
20
-96.7382690000000025
11
174.0897059999999783
21
-96.7902939999999887
0
LINE
8
BLACK
6
CONTINUOUS
10
174.0897059999999783
20
-96.7902939999999887
11
174.1417309999999929
21
-96.868155999999999
0
LINE
8
BLACK
6
CONTINUOUS
10
174.1417309999999929
20
-96.868155999999999
11
174.1599999999999966
21
-96.9599999999999937
0
LINE
8
BLACK
6
CONTINUOUS
10
174.1599999999999966
20
-96.9599999999999937
11
174.1599999999999966
21
-97.6799999999999926
0
LINE
8
BLACK
6
CONTINUOUS
10
174.1599999999999966
20
-97.6799999999999926
11
174.1417309999999929
21
-97.7718440000000015
0
LINE
8
BLACK
6
CONTINUOUS
10
174.1417309999999929
20
-97.7718440000000015
11
174.0897059999999783
21
-97.8497059999999976
0
LINE
8
BLACK
6
CONTINUOUS
10
174.0897059999999783
20
-97.8497059999999976
11
174.0118439999999964
21
-97.9017309999999981
0
LINE
8
BLACK
6
CONTINUOUS
10
174.0118439999999964
20
-97.9017309999999981
11
173.9199999999999875
21
-97.9200000000000017
0
LINE
8
BLACK
6
CONTINUOUS
10
173.9199999999999875
20
-97.9200000000000017
11
171.9000000000000057
21
-97.9200000000000017
0
LINE
8
BLACK
6
CONTINUOUS
10
171.9000000000000057
20
-97.9200000000000017
11
171.8081559999999968
21
-97.9017309999999981
0
LINE
8
BLACK
6
CONTINUOUS
10
171.8081559999999968
20
-97.9017309999999981
11
171.7302939999999865
21
-97.8497059999999976
0
LINE
8
BLACK
6
CONTINUOUS
10
171.7302939999999865
20
-97.8497059999999976
11
171.6782690000000002
21
-97.7718440000000015
0
LINE
8
BLACK
6
CONTINUOUS
10
171.6782690000000002
20
-97.7718440000000015
11
171.6599999999999966
21
-97.6799999999999926
0
LINE
8
BLACK
6
CONTINUOUS
10
171.6599999999999966
20
-97.6799999999999926
11
171.6599999999999966
21
-96.9599999999999937
0
LINE
8
BLACK
6
CONTINUOUS
10
171.6599999999999966
20
-96.9599999999999937
11
171.6782690000000002
21
-96.868155999999999
0
LINE
8
BLACK
6
CONTINUOUS
10
171.6782690000000002
20
-96.868155999999999
11
171.7302939999999865
21
-96.7902939999999887
0
LINE
8
BLACK
6
CONTINUOUS
10
171.7302939999999865
20
-96.7902939999999887
11
171.8081559999999968
21
-96.7382690000000025
0
LINE
8
BLACK
6
CONTINUOUS
10
171.8081559999999968
20
-96.7382690000000025
11
171.9000000000000057
21
-96.7199999999999989
0
LINE
8
BLACK
6
CONTINUOUS
10
171.9000000000000057
20
-96.7199999999999989
11
173.9199999999999875
21
-96.7199999999999989
0
LINE
8
BLACK
6
CONTINUOUS
10
173.9199999999999875
20
-96.7199999999999989
11
174.0118439999999964
21
-96.7382690000000025
0
LINE
8
BLACK
6
CONTINUOUS
10
204.6599999999999966
20
-97.4649999999999892
11
203.6599999999999966
21
-97.4649999999999892
0
LINE
8
BLACK
6
CONTINUOUS
10
203.6599999999999966
20
-97.4649999999999892
11
203.6599999999999966
21
-89.164999999999992
0
LINE
8
BLACK
6
CONTINUOUS
10
203.6599999999999966
20
-89.164999999999992
11
204.6599999999999966
21
-89.164999999999992
0
LINE
8
BLACK
6
CONTINUOUS
10
204.6599999999999966
20
-89.164999999999992
11
204.6599999999999966
21
-97.4649999999999892
0
LINE
8
BLACK
6
CONTINUOUS
10
207.1999999999999886
20
-97.4649999999999892
11
206.1999999999999886
21
-97.4649999999999892
0
LINE
8
BLACK
6
CONTINUOUS
10
206.1999999999999886
20
-97.4649999999999892
11
206.1999999999999886
21
-89.164999999999992
0
LINE
8
BLACK
6
CONTINUOUS
10
206.1999999999999886
20
-89.164999999999992
11
207.1999999999999886
21
-89.164999999999992
0
LINE
8
BLACK
6
CONTINUOUS
10
207.1999999999999886
20
-89.164999999999992
11
207.1999999999999886
21
-97.4649999999999892
0
LINE
8
BLACK
6
CONTINUOUS
10
209.7599999999999909
20
-97.4649999999999892
11
208.7599999999999909
21
-97.4649999999999892
0
LINE
8
BLACK
6
CONTINUOUS
10
208.7599999999999909
20
-97.4649999999999892
11
208.7599999999999909
21
-89.164999999999992
0
LINE
8
BLACK
6
CONTINUOUS
10
208.7599999999999909
20
-89.164999999999992
11
209.7599999999999909
21
-89.164999999999992
0
LINE
8
BLACK
6
CONTINUOUS
10
209.7599999999999909
20
-89.164999999999992
11
209.7599999999999909
21
-97.4649999999999892
0
LINE
8
BLACK
6
CONTINUOUS
10
212.2800000000000011
20
-97.4649999999999892
11
211.2800000000000011
21
-97.4649999999999892
0
LINE
8
BLACK
6
CONTINUOUS
10
211.2800000000000011
20
-97.4649999999999892
11
211.2800000000000011
21
-89.164999999999992
0
LINE
8
BLACK
6
CONTINUOUS
10
211.2800000000000011
20
-89.164999999999992
11
212.2800000000000011
21
-89.164999999999992
0
LINE
8
BLACK
6
CONTINUOUS
10
212.2800000000000011
20
-89.164999999999992
11
212.2800000000000011
21
-97.4649999999999892
0
LINE
8
BLACK
6
CONTINUOUS
10
214.7999999999999829
20
-97.4649999999999892
11
213.7999999999999829
21
-97.4649999999999892
0
LINE
8
BLACK
6
CONTINUOUS
10
213.7999999999999829
20
-97.4649999999999892
11
213.7999999999999829
21
-89.164999999999992
0
LINE
8
BLACK
6
CONTINUOUS
10
213.7999999999999829
20
-89.164999999999992
11
214.7999999999999829
21
-89.164999999999992
0
LINE
8
BLACK
6
CONTINUOUS
10
214.7999999999999829
20
-89.164999999999992
11
214.7999999999999829
21
-97.4649999999999892
0
LINE
8
BLACK
6
CONTINUOUS
10
217.3599999999999852
20
-97.4649999999999892
11
216.3599999999999852
21
-97.4649999999999892
0
LINE
8
BLACK
6
CONTINUOUS
10
216.3599999999999852
20
-97.4649999999999892
11
216.3599999999999852
21
-89.164999999999992
0
LINE
8
BLACK
6
CONTINUOUS
10
216.3599999999999852
20
-89.164999999999992
11
217.3599999999999852
21
-89.164999999999992
0
LINE
8
BLACK
6
CONTINUOUS
10
217.3599999999999852
20
-89.164999999999992
11
217.3599999999999852
21
-97.4649999999999892
0
LINE
8
BLACK
6
CONTINUOUS
10
219.8899999999999864
20
-97.4649999999999892
11
218.8899999999999864
21
-97.4649999999999892
0
LINE
8
BLACK
6
CONTINUOUS
10
218.8899999999999864
20
-97.4649999999999892
11
218.8899999999999864
21
-89.164999999999992
0
LINE
8
BLACK
6
CONTINUOUS
10
218.8899999999999864
20
-89.164999999999992
11
219.8899999999999864
21
-89.164999999999992
0
LINE
8
BLACK
6
CONTINUOUS
10
219.8899999999999864
20
-89.164999999999992
11
219.8899999999999864
21
-97.4649999999999892
0
LINE
8
BLACK
6
CONTINUOUS
10
222.4299999999999784
20
-97.4649999999999892
11
221.4299999999999784
21
-97.4649999999999892
0
LINE
8
BLACK
6
CONTINUOUS
10
221.4299999999999784
20
-97.4649999999999892
11
221.4299999999999784
21
-89.164999999999992
0
LINE
8
BLACK
6
CONTINUOUS
10
221.4299999999999784
20
-89.164999999999992
11
222.4299999999999784
21
-89.164999999999992
0
LINE
8
BLACK
6
CONTINUOUS
10
222.4299999999999784
20
-89.164999999999992
11
222.4299999999999784
21
-97.4649999999999892
0
LINE
8
BLACK
6
CONTINUOUS
10
224.9899999999999807
20
-97.4649999999999892
11
223.9899999999999807
21
-97.4649999999999892
0
LINE
8
BLACK
6
CONTINUOUS
10
223.9899999999999807
20
-97.4649999999999892
11
223.9899999999999807
21
-89.164999999999992
0
LINE
8
BLACK
6
CONTINUOUS
10
223.9899999999999807
20
-89.164999999999992
11
224.9899999999999807
21
-89.164999999999992
0
LINE
8
BLACK
6
CONTINUOUS
10
224.9899999999999807
20
-89.164999999999992
11
224.9899999999999807
21
-97.4649999999999892
0
LINE
8
BLACK
6
CONTINUOUS
10
227.5099999999999909
20
-97.4649999999999892
11
226.5099999999999909
21
-97.4649999999999892
0
LINE
8
BLACK
6
CONTINUOUS
10
226.5099999999999909
20
-97.4649999999999892
11
226.5099999999999909
21
-89.164999999999992
0
LINE
8
BLACK
6
CONTINUOUS
10
226.5099999999999909
20
-89.164999999999992
11
227.5099999999999909
21
-89.164999999999992
0
LINE
8
BLACK
6
CONTINUOUS
10
227.5099999999999909
20
-89.164999999999992
11
227.5099999999999909
21
-97.4649999999999892
0
LINE
8
BLACK
6
CONTINUOUS
10
230.0300000000000011
20
-97.4649999999999892
11
229.0300000000000011
21
-97.4649999999999892
0
LINE
8
BLACK
6
CONTINUOUS
10
229.0300000000000011
20
-97.4649999999999892
11
229.0300000000000011
21
-89.164999999999992
0
LINE
8
BLACK
6
CONTINUOUS
10
229.0300000000000011
20
-89.164999999999992
11
230.0300000000000011
21
-89.164999999999992
0
LINE
8
BLACK
6
CONTINUOUS
10
230.0300000000000011
20
-89.164999999999992
11
230.0300000000000011
21
-97.4649999999999892
0
LINE
8
BLACK
6
CONTINUOUS
10
232.5900000000000034
20
-97.4649999999999892
11
231.5900000000000034
21
-97.4649999999999892
0
LINE
8
BLACK
6
CONTINUOUS
10
231.5900000000000034
20
-97.4649999999999892
11
231.5900000000000034
21
-89.164999999999992
0
LINE
8
BLACK
6
CONTINUOUS
10
231.5900000000000034
20
-89.164999999999992
11
232.5900000000000034
21
-89.164999999999992
0
LINE
8
BLACK
6
CONTINUOUS
10
232.5900000000000034
20
-89.164999999999992
11
232.5900000000000034
21
-97.4649999999999892
0
LINE
8
BLACK
6
CONTINUOUS
10
174.0118439999999964
20
-94.2382690000000025
11
174.0897059999999783
21
-94.2902939999999887
0
LINE
8
BLACK
6
CONTINUOUS
10
174.0897059999999783
20
-94.2902939999999887
11
174.1417309999999929
21
-94.368155999999999
0
LINE
8
BLACK
6
CONTINUOUS
10
174.1417309999999929
20
-94.368155999999999
11
174.1599999999999966
21
-94.4599999999999937
0
LINE
8
BLACK
6
CONTINUOUS
10
174.1599999999999966
20
-94.4599999999999937
11
174.1599999999999966
21
-95.1799999999999926
0
LINE
8
BLACK
6
CONTINUOUS
10
174.1599999999999966
20
-95.1799999999999926
11
174.1417309999999929
21
-95.2718440000000015
0
LINE
8
BLACK
6
CONTINUOUS
10
174.1417309999999929
20
-95.2718440000000015
11
174.0897059999999783
21
-95.3497059999999976
0
LINE
8
BLACK
6
CONTINUOUS
10
174.0897059999999783
20
-95.3497059999999976
11
174.0118439999999964
21
-95.4017309999999981
0
LINE
8
BLACK
6
CONTINUOUS
10
174.0118439999999964
20
-95.4017309999999981
11
173.9199999999999875
21
-95.4200000000000017
0
LINE
8
BLACK
6
CONTINUOUS
10
173.9199999999999875
20
-95.4200000000000017
11
171.9000000000000057
21
-95.4200000000000017
0
LINE
8
BLACK
6
CONTINUOUS
10
171.9000000000000057
20
-95.4200000000000017
11
171.8081559999999968
21
-95.4017309999999981
0
LINE
8
BLACK
6
CONTINUOUS
10
171.8081559999999968
20
-95.4017309999999981
11
171.7302939999999865
21
-95.3497059999999976
0
LINE
8
BLACK
6
CONTINUOUS
10
171.7302939999999865
20
-95.3497059999999976
11
171.6782690000000002
21
-95.2718440000000015
0
LINE
8
BLACK
6
CONTINUOUS
10
171.6782690000000002
20
-95.2718440000000015
11
171.6599999999999966
21
-95.1799999999999926
0
LINE
8
BLACK
6
CONTINUOUS
10
171.6599999999999966
20
-95.1799999999999926
11
171.6599999999999966
21
-94.4599999999999937
0
LINE
8
BLACK
6
CONTINUOUS
10
171.6599999999999966
20
-94.4599999999999937
11
171.6782690000000002
21
-94.368155999999999
0
LINE
8
BLACK
6
CONTINUOUS
10
171.6782690000000002
20
-94.368155999999999
11
171.7302939999999865
21
-94.2902939999999887
0
LINE
8
BLACK
6
CONTINUOUS
10
171.7302939999999865
20
-94.2902939999999887
11
171.8081559999999968
21
-94.2382690000000025
0
LINE
8
BLACK
6
CONTINUOUS
10
171.8081559999999968
20
-94.2382690000000025
11
171.9000000000000057
21
-94.2199999999999989
0
LINE
8
BLACK
6
CONTINUOUS
10
171.9000000000000057
20
-94.2199999999999989
11
173.9199999999999875
21
-94.2199999999999989
0
LINE
8
BLACK
6
CONTINUOUS
10
173.9199999999999875
20
-94.2199999999999989
11
174.0118439999999964
21
-94.2382690000000025
0
LINE
8
BLACK
6
CONTINUOUS
10
174.0118439999999964
20
-91.7382690000000025
11
174.0897059999999783
21
-91.7902940000000029
0
LINE
8
BLACK
6
CONTINUOUS
10
174.0897059999999783
20
-91.7902940000000029
11
174.1417309999999929
21
-91.868155999999999
0
LINE
8
BLACK
6
CONTINUOUS
10
174.1417309999999929
20
-91.868155999999999
11
174.1599999999999966
21
-91.9599999999999937
0
LINE
8
BLACK
6
CONTINUOUS
10
174.1599999999999966
20
-91.9599999999999937
11
174.1599999999999966
21
-92.6799999999999926
0
LINE
8
BLACK
6
CONTINUOUS
10
174.1599999999999966
20
-92.6799999999999926
11
174.1417309999999929
21
-92.7718440000000015
0
LINE
8
BLACK
6
CONTINUOUS
10
174.1417309999999929
20
-92.7718440000000015
11
174.0897059999999783
21
-92.8497059999999976
0
LINE
8
BLACK
6
CONTINUOUS
10
174.0897059999999783
20
-92.8497059999999976
11
174.0118439999999964
21
-92.9017309999999981
0
LINE
8
BLACK
6
CONTINUOUS
10
174.0118439999999964
20
-92.9017309999999981
11
173.9199999999999875
21
-92.9200000000000017
0
LINE
8
BLACK
6
CONTINUOUS
10
173.9199999999999875
20
-92.9200000000000017
11
171.9000000000000057
21
-92.9200000000000017
0
LINE
8
BLACK
6
CONTINUOUS
10
171.9000000000000057
20
-92.9200000000000017
11
171.8081559999999968
21
-92.9017309999999981
0
LINE
8
BLACK
6
CONTINUOUS
10
171.8081559999999968
20
-92.9017309999999981
11
171.7302939999999865
21
-92.8497059999999976
0
LINE
8
BLACK
6
CONTINUOUS
10
171.7302939999999865
20
-92.8497059999999976
11
171.6782690000000002
21
-92.7718440000000015
0
LINE
8
BLACK
6
CONTINUOUS
10
171.6782690000000002
20
-92.7718440000000015
11
171.6599999999999966
21
-92.6799999999999926
0
LINE
8
BLACK
6
CONTINUOUS
10
171.6599999999999966
20
-92.6799999999999926
11
171.6599999999999966
21
-91.9599999999999937
0
LINE
8
BLACK
6
CONTINUOUS
10
171.6599999999999966
20
-91.9599999999999937
11
171.6782690000000002
21
-91.868155999999999
0
LINE
8
BLACK
6
CONTINUOUS
10
171.6782690000000002
20
-91.868155999999999
11
171.7302939999999865
21
-91.7902940000000029
0
LINE
8
BLACK
6
CONTINUOUS
10
171.7302939999999865
20
-91.7902940000000029
11
171.8081559999999968
21
-91.7382690000000025
0
LINE
8
BLACK
6
CONTINUOUS
10
171.8081559999999968
20
-91.7382690000000025
11
171.9000000000000057
21
-91.7199999999999989
0
LINE
8
BLACK
6
CONTINUOUS
10
171.9000000000000057
20
-91.7199999999999989
11
173.9199999999999875
21
-91.7199999999999989
0
LINE
8
BLACK
6
CONTINUOUS
10
173.9199999999999875
20
-91.7199999999999989
11
174.0118439999999964
21
-91.7382690000000025
0
LINE
8
BLACK
6
CONTINUOUS
10
175.7024999999999864
20
-88.5649999999999977
11
173.1924999999999955
21
-88.5649999999999977
0
LINE
8
BLACK
6
CONTINUOUS
10
173.1924999999999955
20
-88.5649999999999977
11
173.1924999999999955
21
-87.5649999999999977
0
LINE
8
BLACK
6
CONTINUOUS
10
173.1924999999999955
20
-87.5649999999999977
11
175.7024999999999864
21
-87.5649999999999977
0
LINE
8
BLACK
6
CONTINUOUS
10
175.7024999999999864
20
-87.5649999999999977
11
175.7024999999999864
21
-88.5649999999999977
0
LINE
8
BLACK
6
CONTINUOUS
10
226.9556709999999953
20
-86.0990299999999991
11
227.0367770000000007
21
-86.153222999999997
0
LINE
8
BLACK
6
CONTINUOUS
10
227.0367770000000007
20
-86.153222999999997
11
227.0909699999999987
21
-86.2343290000000025
0
LINE
8
BLACK
6
CONTINUOUS
10
227.0909699999999987
20
-86.2343290000000025
11
227.1099999999999852
21
-86.3299999999999983
0
LINE
8
BLACK
6
CONTINUOUS
10
227.1099999999999852
20
-86.3299999999999983
11
227.1099999999999852
21
-86.8299999999999983
0
LINE
8
BLACK
6
CONTINUOUS
10
227.1099999999999852
20
-86.8299999999999983
11
227.0909699999999987
21
-86.9256709999999941
0
LINE
8
BLACK
6
CONTINUOUS
10
227.0909699999999987
20
-86.9256709999999941
11
227.0367770000000007
21
-87.0067769999999996
0
LINE
8
BLACK
6
CONTINUOUS
10
227.0367770000000007
20
-87.0067769999999996
11
226.9556709999999953
21
-87.0609699999999975
0
LINE
8
BLACK
6
CONTINUOUS
10
226.9556709999999953
20
-87.0609699999999975
11
226.8599999999999852
21
-87.0799999999999983
0
LINE
8
BLACK
6
CONTINUOUS
10
226.8599999999999852
20
-87.0799999999999983
11
224.6599999999999966
21
-87.0799999999999983
0
LINE
8
BLACK
6
CONTINUOUS
10
224.6599999999999966
20
-87.0799999999999983
11
224.5643289999999865
21
-87.0609699999999975
0
LINE
8
BLACK
6
CONTINUOUS
10
224.5643289999999865
20
-87.0609699999999975
11
224.4832229999999811
21
-87.0067769999999996
0
LINE
8
BLACK
6
CONTINUOUS
10
224.4832229999999811
20
-87.0067769999999996
11
224.4290299999999831
21
-86.9256709999999941
0
LINE
8
BLACK
6
CONTINUOUS
10
224.4290299999999831
20
-86.9256709999999941
11
224.4099999999999966
21
-86.8299999999999983
0
LINE
8
BLACK
6
CONTINUOUS
10
224.4099999999999966
20
-86.8299999999999983
11
224.4099999999999966
21
-86.3299999999999983
0
LINE
8
BLACK
6
CONTINUOUS
10
224.4099999999999966
20
-86.3299999999999983
11
224.4290299999999831
21
-86.2343290000000025
0
LINE
8
BLACK
6
CONTINUOUS
10
224.4290299999999831
20
-86.2343290000000025
11
224.4832229999999811
21
-86.153222999999997
0
LINE
8
BLACK
6
CONTINUOUS
10
224.4832229999999811
20
-86.153222999999997
11
224.5643289999999865
21
-86.0990299999999991
0
LINE
8
BLACK
6
CONTINUOUS
10
224.5643289999999865
20
-86.0990299999999991
11
224.6599999999999966
21
-86.0799999999999983
0
LINE
8
BLACK
6
CONTINUOUS
10
224.6599999999999966
20
-86.0799999999999983
11
226.8599999999999852
21
-86.0799999999999983
0
LINE
8
BLACK
6
CONTINUOUS
10
226.8599999999999852
20
-86.0799999999999983
11
226.9556709999999953
21
-86.0990299999999991
0
LINE
8
BLACK
6
CONTINUOUS
10
179.0124999999999886
20
-86.0249999999999915
11
176.5024999999999977
21
-86.0249999999999915
0
LINE
8
BLACK
6
CONTINUOUS
10
176.5024999999999977
20
-86.0249999999999915
11
176.5024999999999977
21
-85.0249999999999915
0
LINE
8
BLACK
6
CONTINUOUS
10
176.5024999999999977
20
-85.0249999999999915
11
179.0124999999999886
21
-85.0249999999999915
0
LINE
8
BLACK
6
CONTINUOUS
10
179.0124999999999886
20
-85.0249999999999915
11
179.0124999999999886
21
-86.0249999999999915
0
LINE
8
BLACK
6
CONTINUOUS
10
229.7174029999999902
20
-84.4414179999999988
11
229.766065999999995
21
-84.4739339999999999
0
LINE
8
BLACK
6
CONTINUOUS
10
229.766065999999995
20
-84.4739339999999999
11
229.7985819999999819
21
-84.5225969999999904
0
LINE
8
BLACK
6
CONTINUOUS
10
229.7985819999999819
20
-84.5225969999999904
11
229.8100000000000023
21
-84.5799999999999983
0
LINE
8
BLACK
6
CONTINUOUS
10
229.8100000000000023
20
-84.5799999999999983
11
229.8100000000000023
21
-84.8799999999999955
0
LINE
8
BLACK
6
CONTINUOUS
10
229.8100000000000023
20
-84.8799999999999955
11
229.7985819999999819
21
-84.9374029999999891
0
LINE
8
BLACK
6
CONTINUOUS
10
229.7985819999999819
20
-84.9374029999999891
11
229.766065999999995
21
-84.9860659999999939
0
LINE
8
BLACK
6
CONTINUOUS
10
229.766065999999995
20
-84.9860659999999939
11
229.7174029999999902
21
-85.018581999999995
0
LINE
8
BLACK
6
CONTINUOUS
10
229.7174029999999902
20
-85.018581999999995
11
229.6599999999999966
21
-85.0300000000000011
0
LINE
8
BLACK
6
CONTINUOUS
10
229.6599999999999966
20
-85.0300000000000011
11
228.2599999999999909
21
-85.0300000000000011
0
LINE
8
BLACK
6
CONTINUOUS
10
228.2599999999999909
20
-85.0300000000000011
11
228.2025969999999973
21
-85.018581999999995
0
LINE
8
BLACK
6
CONTINUOUS
10
228.2025969999999973
20
-85.018581999999995
11
228.1539339999999925
21
-84.9860659999999939
0
LINE
8
BLACK
6
CONTINUOUS
10
228.1539339999999925
20
-84.9860659999999939
11
228.1214179999999772
21
-84.9374029999999891
0
LINE
8
BLACK
6
CONTINUOUS
10
228.1214179999999772
20
-84.9374029999999891
11
228.1099999999999852
21
-84.8799999999999955
0
LINE
8
BLACK
6
CONTINUOUS
10
228.1099999999999852
20
-84.8799999999999955
11
228.1099999999999852
21
-84.5799999999999983
0
LINE
8
BLACK
6
CONTINUOUS
10
228.1099999999999852
20
-84.5799999999999983
11
228.1214179999999772
21
-84.5225969999999904
0
LINE
8
BLACK
6
CONTINUOUS
10
228.1214179999999772
20
-84.5225969999999904
11
228.1539339999999925
21
-84.4739339999999999
0
LINE
8
BLACK
6
CONTINUOUS
10
228.1539339999999925
20
-84.4739339999999999
11
228.2025969999999973
21
-84.4414179999999988
0
LINE
8
BLACK
6
CONTINUOUS
10
228.2025969999999973
20
-84.4414179999999988
11
228.2599999999999909
21
-84.4299999999999926
0
LINE
8
BLACK
6
CONTINUOUS
10
228.2599999999999909
20
-84.4299999999999926
11
229.6599999999999966
21
-84.4299999999999926
0
LINE
8
BLACK
6
CONTINUOUS
10
229.6599999999999966
20
-84.4299999999999926
11
229.7174029999999902
21
-84.4414179999999988
0
LINE
8
BLACK
6
CONTINUOUS
10
229.7174029999999902
20
-83.1914179999999988
11
229.766065999999995
21
-83.2239339999999999
0
LINE
8
BLACK
6
CONTINUOUS
10
229.766065999999995
20
-83.2239339999999999
11
229.7985819999999819
21
-83.2725969999999904
0
LINE
8
BLACK
6
CONTINUOUS
10
229.7985819999999819
20
-83.2725969999999904
11
229.8100000000000023
21
-83.3299999999999983
0
LINE
8
BLACK
6
CONTINUOUS
10
229.8100000000000023
20
-83.3299999999999983
11
229.8100000000000023
21
-83.6299999999999955
0
LINE
8
BLACK
6
CONTINUOUS
10
229.8100000000000023
20
-83.6299999999999955
11
229.7985819999999819
21
-83.6874030000000033
0
LINE
8
BLACK
6
CONTINUOUS
10
229.7985819999999819
20
-83.6874030000000033
11
229.766065999999995
21
-83.7360659999999939
0
LINE
8
BLACK
6
CONTINUOUS
10
229.766065999999995
20
-83.7360659999999939
11
229.7174029999999902
21
-83.768581999999995
0
LINE
8
BLACK
6
CONTINUOUS
10
229.7174029999999902
20
-83.768581999999995
11
229.6599999999999966
21
-83.7800000000000011
0
LINE
8
BLACK
6
CONTINUOUS
10
229.6599999999999966
20
-83.7800000000000011
11
228.2599999999999909
21
-83.7800000000000011
0
LINE
8
BLACK
6
CONTINUOUS
10
228.2599999999999909
20
-83.7800000000000011
11
228.2025969999999973
21
-83.768581999999995
0
LINE
8
BLACK
6
CONTINUOUS
10
228.2025969999999973
20
-83.768581999999995
11
228.1539339999999925
21
-83.7360659999999939
0
LINE
8
BLACK
6
CONTINUOUS
10
228.1539339999999925
20
-83.7360659999999939
11
228.1214179999999772
21
-83.6874030000000033
0
LINE
8
BLACK
6
CONTINUOUS
10
228.1214179999999772
20
-83.6874030000000033
11
228.1099999999999852
21
-83.6299999999999955
0
LINE
8
BLACK
6
CONTINUOUS
10
228.1099999999999852
20
-83.6299999999999955
11
228.1099999999999852
21
-83.3299999999999983
0
LINE
8
BLACK
6
CONTINUOUS
10
228.1099999999999852
20
-83.3299999999999983
11
228.1214179999999772
21
-83.2725969999999904
0
LINE
8
BLACK
6
CONTINUOUS
10
228.1214179999999772
20
-83.2725969999999904
11
228.1539339999999925
21
-83.2239339999999999
0
LINE
8
BLACK
6
CONTINUOUS
10
228.1539339999999925
20
-83.2239339999999999
11
228.2025969999999973
21
-83.1914179999999988
0
LINE
8
BLACK
6
CONTINUOUS
10
228.2025969999999973
20
-83.1914179999999988
11
228.2599999999999909
21
-83.1799999999999926
0
LINE
8
BLACK
6
CONTINUOUS
10
228.2599999999999909
20
-83.1799999999999926
11
229.6599999999999966
21
-83.1799999999999926
0
LINE
8
BLACK
6
CONTINUOUS
10
229.6599999999999966
20
-83.1799999999999926
11
229.7174029999999902
21
-83.1914179999999988
0
LINE
8
BLACK
6
CONTINUOUS
10
175.7024999999999864
20
-83.4849999999999994
11
173.1924999999999955
21
-83.4849999999999994
0
LINE
8
BLACK
6
CONTINUOUS
10
173.1924999999999955
20
-83.4849999999999994
11
173.1924999999999955
21
-82.4849999999999994
0
LINE
8
BLACK
6
CONTINUOUS
10
173.1924999999999955
20
-82.4849999999999994
11
175.7024999999999864
21
-82.4849999999999994
0
LINE
8
BLACK
6
CONTINUOUS
10
175.7024999999999864
20
-82.4849999999999994
11
175.7024999999999864
21
-83.4849999999999994
0
LINE
8
BLACK
6
CONTINUOUS
10
226.9556709999999953
20
-81.1490299999999962
11
227.0367770000000007
21
-81.2032229999999942
0
LINE
8
BLACK
6
CONTINUOUS
10
227.0367770000000007
20
-81.2032229999999942
11
227.0909699999999987
21
-81.2843289999999996
0
LINE
8
BLACK
6
CONTINUOUS
10
227.0909699999999987
20
-81.2843289999999996
11
227.1099999999999852
21
-81.3799999999999955
0
LINE
8
BLACK
6
CONTINUOUS
10
227.1099999999999852
20
-81.3799999999999955
11
227.1099999999999852
21
-81.8799999999999955
0
LINE
8
BLACK
6
CONTINUOUS
10
227.1099999999999852
20
-81.8799999999999955
11
227.0909699999999987
21
-81.9756709999999913
0
LINE
8
BLACK
6
CONTINUOUS
10
227.0909699999999987
20
-81.9756709999999913
11
227.0367770000000007
21
-82.0567769999999967
0
LINE
8
BLACK
6
CONTINUOUS
10
227.0367770000000007
20
-82.0567769999999967
11
226.9556709999999953
21
-82.1109699999999947
0
LINE
8
BLACK
6
CONTINUOUS
10
226.9556709999999953
20
-82.1109699999999947
11
226.8599999999999852
21
-82.1299999999999955
0
LINE
8
BLACK
6
CONTINUOUS
10
226.8599999999999852
20
-82.1299999999999955
11
224.6599999999999966
21
-82.1299999999999955
0
LINE
8
BLACK
6
CONTINUOUS
10
224.6599999999999966
20
-82.1299999999999955
11
224.5643289999999865
21
-82.1109699999999947
0
LINE
8
BLACK
6
CONTINUOUS
10
224.5643289999999865
20
-82.1109699999999947
11
224.4832229999999811
21
-82.0567769999999967
0
LINE
8
BLACK
6
CONTINUOUS
10
224.4832229999999811
20
-82.0567769999999967
11
224.4290299999999831
21
-81.9756709999999913
0
LINE
8
BLACK
6
CONTINUOUS
10
224.4290299999999831
20
-81.9756709999999913
11
224.4099999999999966
21
-81.8799999999999955
0
LINE
8
BLACK
6
CONTINUOUS
10
224.4099999999999966
20
-81.8799999999999955
11
224.4099999999999966
21
-81.3799999999999955
0
LINE
8
BLACK
6
CONTINUOUS
10
224.4099999999999966
20
-81.3799999999999955
11
224.4290299999999831
21
-81.2843289999999996
0
LINE
8
BLACK
6
CONTINUOUS
10
224.4290299999999831
20
-81.2843289999999996
11
224.4832229999999811
21
-81.2032229999999942
0
LINE
8
BLACK
6
CONTINUOUS
10
224.4832229999999811
20
-81.2032229999999942
11
224.5643289999999865
21
-81.1490299999999962
0
LINE
8
BLACK
6
CONTINUOUS
10
224.5643289999999865
20
-81.1490299999999962
11
224.6599999999999966
21
-81.1299999999999955
0
LINE
8
BLACK
6
CONTINUOUS
10
224.6599999999999966
20
-81.1299999999999955
11
226.8599999999999852
21
-81.1299999999999955
0
LINE
8
BLACK
6
CONTINUOUS
10
226.8599999999999852
20
-81.1299999999999955
11
226.9556709999999953
21
-81.1490299999999962
0
LINE
8
BLACK
6
CONTINUOUS
10
179.0124999999999886
20
-80.9449999999999932
11
176.5024999999999977
21
-80.9449999999999932
0
LINE
8
BLACK
6
CONTINUOUS
10
176.5024999999999977
20
-80.9449999999999932
11
176.5024999999999977
21
-79.9449999999999932
0
LINE
8
BLACK
6
CONTINUOUS
10
176.5024999999999977
20
-79.9449999999999932
11
179.0124999999999886
21
-79.9449999999999932
0
LINE
8
BLACK
6
CONTINUOUS
10
179.0124999999999886
20
-79.9449999999999932
11
179.0124999999999886
21
-80.9449999999999932
0
LINE
8
BLACK
6
CONTINUOUS
10
204.6599999999999966
20
-79.6349999999999909
11
203.6599999999999966
21
-79.6349999999999909
0
LINE
8
BLACK
6
CONTINUOUS
10
203.6599999999999966
20
-79.6349999999999909
11
203.6599999999999966
21
-71.3349999999999937
0
LINE
8
BLACK
6
CONTINUOUS
10
203.6599999999999966
20
-71.3349999999999937
11
204.6599999999999966
21
-71.3349999999999937
0
LINE
8
BLACK
6
CONTINUOUS
10
204.6599999999999966
20
-71.3349999999999937
11
204.6599999999999966
21
-79.6349999999999909
0
LINE
8
BLACK
6
CONTINUOUS
10
207.1999999999999886
20
-79.6349999999999909
11
206.1999999999999886
21
-79.6349999999999909
0
LINE
8
BLACK
6
CONTINUOUS
10
206.1999999999999886
20
-79.6349999999999909
11
206.1999999999999886
21
-71.3349999999999937
0
LINE
8
BLACK
6
CONTINUOUS
10
206.1999999999999886
20
-71.3349999999999937
11
207.1999999999999886
21
-71.3349999999999937
0
LINE
8
BLACK
6
CONTINUOUS
10
207.1999999999999886
20
-71.3349999999999937
11
207.1999999999999886
21
-79.6349999999999909
0
LINE
8
BLACK
6
CONTINUOUS
10
209.7599999999999909
20
-79.6349999999999909
11
208.7599999999999909
21
-79.6349999999999909
0
LINE
8
BLACK
6
CONTINUOUS
10
208.7599999999999909
20
-79.6349999999999909
11
208.7599999999999909
21
-71.3349999999999937
0
LINE
8
BLACK
6
CONTINUOUS
10
208.7599999999999909
20
-71.3349999999999937
11
209.7599999999999909
21
-71.3349999999999937
0
LINE
8
BLACK
6
CONTINUOUS
10
209.7599999999999909
20
-71.3349999999999937
11
209.7599999999999909
21
-79.6349999999999909
0
LINE
8
BLACK
6
CONTINUOUS
10
212.2800000000000011
20
-79.6349999999999909
11
211.2800000000000011
21
-79.6349999999999909
0
LINE
8
BLACK
6
CONTINUOUS
10
211.2800000000000011
20
-79.6349999999999909
11
211.2800000000000011
21
-71.3349999999999937
0
LINE
8
BLACK
6
CONTINUOUS
10
211.2800000000000011
20
-71.3349999999999937
11
212.2800000000000011
21
-71.3349999999999937
0
LINE
8
BLACK
6
CONTINUOUS
10
212.2800000000000011
20
-71.3349999999999937
11
212.2800000000000011
21
-79.6349999999999909
0
LINE
8
BLACK
6
CONTINUOUS
10
214.7999999999999829
20
-79.6349999999999909
11
213.7999999999999829
21
-79.6349999999999909
0
LINE
8
BLACK
6
CONTINUOUS
10
213.7999999999999829
20
-79.6349999999999909
11
213.7999999999999829
21
-71.3349999999999937
0
LINE
8
BLACK
6
CONTINUOUS
10
213.7999999999999829
20
-71.3349999999999937
11
214.7999999999999829
21
-71.3349999999999937
0
LINE
8
BLACK
6
CONTINUOUS
10
214.7999999999999829
20
-71.3349999999999937
11
214.7999999999999829
21
-79.6349999999999909
0
LINE
8
BLACK
6
CONTINUOUS
10
217.3599999999999852
20
-79.6349999999999909
11
216.3599999999999852
21
-79.6349999999999909
0
LINE
8
BLACK
6
CONTINUOUS
10
216.3599999999999852
20
-79.6349999999999909
11
216.3599999999999852
21
-71.3349999999999937
0
LINE
8
BLACK
6
CONTINUOUS
10
216.3599999999999852
20
-71.3349999999999937
11
217.3599999999999852
21
-71.3349999999999937
0
LINE
8
BLACK
6
CONTINUOUS
10
217.3599999999999852
20
-71.3349999999999937
11
217.3599999999999852
21
-79.6349999999999909
0
LINE
8
BLACK
6
CONTINUOUS
10
219.8899999999999864
20
-79.6349999999999909
11
218.8899999999999864
21
-79.6349999999999909
0
LINE
8
BLACK
6
CONTINUOUS
10
218.8899999999999864
20
-79.6349999999999909
11
218.8899999999999864
21
-71.3349999999999937
0
LINE
8
BLACK
6
CONTINUOUS
10
218.8899999999999864
20
-71.3349999999999937
11
219.8899999999999864
21
-71.3349999999999937
0
LINE
8
BLACK
6
CONTINUOUS
10
219.8899999999999864
20
-71.3349999999999937
11
219.8899999999999864
21
-79.6349999999999909
0
LINE
8
BLACK
6
CONTINUOUS
10
222.4299999999999784
20
-79.6349999999999909
11
221.4299999999999784
21
-79.6349999999999909
0
LINE
8
BLACK
6
CONTINUOUS
10
221.4299999999999784
20
-79.6349999999999909
11
221.4299999999999784
21
-71.3349999999999937
0
LINE
8
BLACK
6
CONTINUOUS
10
221.4299999999999784
20
-71.3349999999999937
11
222.4299999999999784
21
-71.3349999999999937
0
LINE
8
BLACK
6
CONTINUOUS
10
222.4299999999999784
20
-71.3349999999999937
11
222.4299999999999784
21
-79.6349999999999909
0
LINE
8
BLACK
6
CONTINUOUS
10
224.9899999999999807
20
-79.6349999999999909
11
223.9899999999999807
21
-79.6349999999999909
0
LINE
8
BLACK
6
CONTINUOUS
10
223.9899999999999807
20
-79.6349999999999909
11
223.9899999999999807
21
-71.3349999999999937
0
LINE
8
BLACK
6
CONTINUOUS
10
223.9899999999999807
20
-71.3349999999999937
11
224.9899999999999807
21
-71.3349999999999937
0
LINE
8
BLACK
6
CONTINUOUS
10
224.9899999999999807
20
-71.3349999999999937
11
224.9899999999999807
21
-79.6349999999999909
0
LINE
8
BLACK
6
CONTINUOUS
10
227.5099999999999909
20
-79.6349999999999909
11
226.5099999999999909
21
-79.6349999999999909
0
LINE
8
BLACK
6
CONTINUOUS
10
226.5099999999999909
20
-79.6349999999999909
11
226.5099999999999909
21
-71.3349999999999937
0
LINE
8
BLACK
6
CONTINUOUS
10
226.5099999999999909
20
-71.3349999999999937
11
227.5099999999999909
21
-71.3349999999999937
0
LINE
8
BLACK
6
CONTINUOUS
10
227.5099999999999909
20
-71.3349999999999937
11
227.5099999999999909
21
-79.6349999999999909
0
LINE
8
BLACK
6
CONTINUOUS
10
230.0300000000000011
20
-79.6349999999999909
11
229.0300000000000011
21
-79.6349999999999909
0
LINE
8
BLACK
6
CONTINUOUS
10
229.0300000000000011
20
-79.6349999999999909
11
229.0300000000000011
21
-71.3349999999999937
0
LINE
8
BLACK
6
CONTINUOUS
10
229.0300000000000011
20
-71.3349999999999937
11
230.0300000000000011
21
-71.3349999999999937
0
LINE
8
BLACK
6
CONTINUOUS
10
230.0300000000000011
20
-71.3349999999999937
11
230.0300000000000011
21
-79.6349999999999909
0
LINE
8
BLACK
6
CONTINUOUS
10
232.5900000000000034
20
-79.6349999999999909
11
231.5900000000000034
21
-79.6349999999999909
0
LINE
8
BLACK
6
CONTINUOUS
10
231.5900000000000034
20
-79.6349999999999909
11
231.5900000000000034
21
-71.3349999999999937
0
LINE
8
BLACK
6
CONTINUOUS
10
231.5900000000000034
20
-71.3349999999999937
11
232.5900000000000034
21
-71.3349999999999937
0
LINE
8
BLACK
6
CONTINUOUS
10
232.5900000000000034
20
-71.3349999999999937
11
232.5900000000000034
21
-79.6349999999999909
0
LINE
8
BLACK
6
CONTINUOUS
10
169.7549999999999955
20
-77.6850000000000023
11
168.7549999999999955
21
-77.6850000000000023
0
LINE
8
BLACK
6
CONTINUOUS
10
168.7549999999999955
20
-77.6850000000000023
11
168.7549999999999955
21
-76.1349999999999909
0
LINE
8
BLACK
6
CONTINUOUS
10
168.7549999999999955
20
-76.1349999999999909
11
169.7549999999999955
21
-76.1349999999999909
0
LINE
8
BLACK
6
CONTINUOUS
10
169.7549999999999955
20
-76.1349999999999909
11
169.7549999999999955
21
-77.6850000000000023
0
LINE
8
BLACK
6
CONTINUOUS
10
171.4549999999999841
20
-77.6850000000000023
11
170.4549999999999841
21
-77.6850000000000023
0
LINE
8
BLACK
6
CONTINUOUS
10
170.4549999999999841
20
-77.6850000000000023
11
170.4549999999999841
21
-76.1349999999999909
0
LINE
8
BLACK
6
CONTINUOUS
10
170.4549999999999841
20
-76.1349999999999909
11
171.4549999999999841
21
-76.1349999999999909
0
LINE
8
BLACK
6
CONTINUOUS
10
171.4549999999999841
20
-76.1349999999999909
11
171.4549999999999841
21
-77.6850000000000023
0
LINE
8
BLACK
6
CONTINUOUS
10
169.7549999999999955
20
-72.4350000000000023
11
168.7549999999999955
21
-72.4350000000000023
0
LINE
8
BLACK
6
CONTINUOUS
10
168.7549999999999955
20
-72.4350000000000023
11
168.7549999999999955
21
-70.8849999999999909
0
LINE
8
BLACK
6
CONTINUOUS
10
168.7549999999999955
20
-70.8849999999999909
11
169.7549999999999955
21
-70.8849999999999909
0
LINE
8
BLACK
6
CONTINUOUS
10
169.7549999999999955
20
-70.8849999999999909
11
169.7549999999999955
21
-72.4350000000000023
0
LINE
8
BLACK
6
CONTINUOUS
10
171.4549999999999841
20
-72.4350000000000023
11
170.4549999999999841
21
-72.4350000000000023
0
LINE
8
BLACK
6
CONTINUOUS
10
170.4549999999999841
20
-72.4350000000000023
11
170.4549999999999841
21
-70.8849999999999909
0
LINE
8
BLACK
6
CONTINUOUS
10
170.4549999999999841
20
-70.8849999999999909
11
171.4549999999999841
21
-70.8849999999999909
0
LINE
8
BLACK
6
CONTINUOUS
10
171.4549999999999841
20
-70.8849999999999909
11
171.4549999999999841
21
-72.4350000000000023
0
LINE
8
BLACK
6
CONTINUOUS
10
176.4249999999999829
20
-69.4500000000000028
11
174.875
21
-69.4500000000000028
0
LINE
8
BLACK
6
CONTINUOUS
10
174.875
20
-69.4500000000000028
11
174.875
21
-68.4500000000000028
0
LINE
8
BLACK
6
CONTINUOUS
10
174.875
20
-68.4500000000000028
11
176.4249999999999829
21
-68.4500000000000028
0
LINE
8
BLACK
6
CONTINUOUS
10
176.4249999999999829
20
-68.4500000000000028
11
176.4249999999999829
21
-69.4500000000000028
0
LINE
8
BLACK
6
CONTINUOUS
10
181.6749999999999829
20
-69.4500000000000028
11
180.125
21
-69.4500000000000028
0
LINE
8
BLACK
6
CONTINUOUS
10
180.125
20
-69.4500000000000028
11
180.125
21
-68.4500000000000028
0
LINE
8
BLACK
6
CONTINUOUS
10
180.125
20
-68.4500000000000028
11
181.6749999999999829
21
-68.4500000000000028
0
LINE
8
BLACK
6
CONTINUOUS
10
181.6749999999999829
20
-68.4500000000000028
11
181.6749999999999829
21
-69.4500000000000028
0
LINE
8
BLACK
6
CONTINUOUS
10
206.4749999999999943
20
-69.3999999999999915
11
204.9249999999999829
21
-69.3999999999999915
0
LINE
8
BLACK
6
CONTINUOUS
10
204.9249999999999829
20
-69.3999999999999915
11
204.9249999999999829
21
-68.3999999999999915
0
LINE
8
BLACK
6
CONTINUOUS
10
204.9249999999999829
20
-68.3999999999999915
11
206.4749999999999943
21
-68.3999999999999915
0
LINE
8
BLACK
6
CONTINUOUS
10
206.4749999999999943
20
-68.3999999999999915
11
206.4749999999999943
21
-69.3999999999999915
0
LINE
8
BLACK
6
CONTINUOUS
10
211.7249999999999943
20
-69.3999999999999915
11
210.1749999999999829
21
-69.3999999999999915
0
LINE
8
BLACK
6
CONTINUOUS
10
210.1749999999999829
20
-69.3999999999999915
11
210.1749999999999829
21
-68.3999999999999915
0
LINE
8
BLACK
6
CONTINUOUS
10
210.1749999999999829
20
-68.3999999999999915
11
211.7249999999999943
21
-68.3999999999999915
0
LINE
8
BLACK
6
CONTINUOUS
10
211.7249999999999943
20
-68.3999999999999915
11
211.7249999999999943
21
-69.3999999999999915
0
LINE
8
BLACK
6
CONTINUOUS
10
221.5249999999999773
20
-69.3999999999999915
11
219.9749999999999943
21
-69.3999999999999915
0
LINE
8
BLACK
6
CONTINUOUS
10
219.9749999999999943
20
-69.3999999999999915
11
219.9749999999999943
21
-68.3999999999999915
0
LINE
8
BLACK
6
CONTINUOUS
10
219.9749999999999943
20
-68.3999999999999915
11
221.5249999999999773
21
-68.3999999999999915
0
LINE
8
BLACK
6
CONTINUOUS
10
221.5249999999999773
20
-68.3999999999999915
11
221.5249999999999773
21
-69.3999999999999915
0
LINE
8
BLACK
6
CONTINUOUS
10
226.7749999999999773
20
-69.3999999999999915
11
225.2249999999999943
21
-69.3999999999999915
0
LINE
8
BLACK
6
CONTINUOUS
10
225.2249999999999943
20
-69.3999999999999915
11
225.2249999999999943
21
-68.3999999999999915
0
LINE
8
BLACK
6
CONTINUOUS
10
225.2249999999999943
20
-68.3999999999999915
11
226.7749999999999773
21
-68.3999999999999915
0
LINE
8
BLACK
6
CONTINUOUS
10
226.7749999999999773
20
-68.3999999999999915
11
226.7749999999999773
21
-69.3999999999999915
0
LINE
8
BLACK
6
CONTINUOUS
10
191.5
20
-69.375
11
189.9499999999999886
21
-69.375
0
LINE
8
BLACK
6
CONTINUOUS
10
189.9499999999999886
20
-69.375
11
189.9499999999999886
21
-68.375
0
LINE
8
BLACK
6
CONTINUOUS
10
189.9499999999999886
20
-68.375
11
191.5
21
-68.375
0
LINE
8
BLACK
6
CONTINUOUS
10
191.5
20
-68.375
11
191.5
21
-69.375
0
LINE
8
BLACK
6
CONTINUOUS
10
196.75
20
-69.375
11
195.1999999999999886
21
-69.375
0
LINE
8
BLACK
6
CONTINUOUS
10
195.1999999999999886
20
-69.375
11
195.1999999999999886
21
-68.375
0
LINE
8
BLACK
6
CONTINUOUS
10
195.1999999999999886
20
-68.375
11
196.75
21
-68.375
0
LINE
8
BLACK
6
CONTINUOUS
10
196.75
20
-68.375
11
196.75
21
-69.375
0
LINE
8
BLACK
6
CONTINUOUS
10
176.4249999999999829
20
-67.75
11
174.875
21
-67.75
0
LINE
8
BLACK
6
CONTINUOUS
10
174.875
20
-67.75
11
174.875
21
-66.75
0
LINE
8
BLACK
6
CONTINUOUS
10
174.875
20
-66.75
11
176.4249999999999829
21
-66.75
0
LINE
8
BLACK
6
CONTINUOUS
10
176.4249999999999829
20
-66.75
11
176.4249999999999829
21
-67.75
0
LINE
8
BLACK
6
CONTINUOUS
10
181.6749999999999829
20
-67.75
11
180.125
21
-67.75
0
LINE
8
BLACK
6
CONTINUOUS
10
180.125
20
-67.75
11
180.125
21
-66.75
0
LINE
8
BLACK
6
CONTINUOUS
10
180.125
20
-66.75
11
181.6749999999999829
21
-66.75
0
LINE
8
BLACK
6
CONTINUOUS
10
181.6749999999999829
20
-66.75
11
181.6749999999999829
21
-67.75
0
LINE
8
BLACK
6
CONTINUOUS
10
206.4749999999999943
20
-67.7000000000000028
11
204.9249999999999829
21
-67.7000000000000028
0
LINE
8
BLACK
6
CONTINUOUS
10
204.9249999999999829
20
-67.7000000000000028
11
204.9249999999999829
21
-66.7000000000000028
0
LINE
8
BLACK
6
CONTINUOUS
10
204.9249999999999829
20
-66.7000000000000028
11
206.4749999999999943
21
-66.7000000000000028
0
LINE
8
BLACK
6
CONTINUOUS
10
206.4749999999999943
20
-66.7000000000000028
11
206.4749999999999943
21
-67.7000000000000028
0
LINE
8
BLACK
6
CONTINUOUS
10
211.7249999999999943
20
-67.7000000000000028
11
210.1749999999999829
21
-67.7000000000000028
0
LINE
8
BLACK
6
CONTINUOUS
10
210.1749999999999829
20
-67.7000000000000028
11
210.1749999999999829
21
-66.7000000000000028
0
LINE
8
BLACK
6
CONTINUOUS
10
210.1749999999999829
20
-66.7000000000000028
11
211.7249999999999943
21
-66.7000000000000028
0
LINE
8
BLACK
6
CONTINUOUS
10
211.7249999999999943
20
-66.7000000000000028
11
211.7249999999999943
21
-67.7000000000000028
0
LINE
8
BLACK
6
CONTINUOUS
10
221.5249999999999773
20
-67.7000000000000028
11
219.9749999999999943
21
-67.7000000000000028
0
LINE
8
BLACK
6
CONTINUOUS
10
219.9749999999999943
20
-67.7000000000000028
11
219.9749999999999943
21
-66.7000000000000028
0
LINE
8
BLACK
6
CONTINUOUS
10
219.9749999999999943
20
-66.7000000000000028
11
221.5249999999999773
21
-66.7000000000000028
0
LINE
8
BLACK
6
CONTINUOUS
10
221.5249999999999773
20
-66.7000000000000028
11
221.5249999999999773
21
-67.7000000000000028
0
LINE
8
BLACK
6
CONTINUOUS
10
226.7749999999999773
20
-67.7000000000000028
11
225.2249999999999943
21
-67.7000000000000028
0
LINE
8
BLACK
6
CONTINUOUS
10
225.2249999999999943
20
-67.7000000000000028
11
225.2249999999999943
21
-66.7000000000000028
0
LINE
8
BLACK
6
CONTINUOUS
10
225.2249999999999943
20
-66.7000000000000028
11
226.7749999999999773
21
-66.7000000000000028
0
LINE
8
BLACK
6
CONTINUOUS
10
226.7749999999999773
20
-66.7000000000000028
11
226.7749999999999773
21
-67.7000000000000028
0
LINE
8
BLACK
6
CONTINUOUS
10
191.5
20
-67.6749999999999972
11
189.9499999999999886
21
-67.6749999999999972
0
LINE
8
BLACK
6
CONTINUOUS
10
189.9499999999999886
20
-67.6749999999999972
11
189.9499999999999886
21
-66.6749999999999972
0
LINE
8
BLACK
6
CONTINUOUS
10
189.9499999999999886
20
-66.6749999999999972
11
191.5
21
-66.6749999999999972
0
LINE
8
BLACK
6
CONTINUOUS
10
191.5
20
-66.6749999999999972
11
191.5
21
-67.6749999999999972
0
LINE
8
BLACK
6
CONTINUOUS
10
196.75
20
-67.6749999999999972
11
195.1999999999999886
21
-67.6749999999999972
0
LINE
8
BLACK
6
CONTINUOUS
10
195.1999999999999886
20
-67.6749999999999972
11
195.1999999999999886
21
-66.6749999999999972
0
LINE
8
BLACK
6
CONTINUOUS
10
195.1999999999999886
20
-66.6749999999999972
11
196.75
21
-66.6749999999999972
0
LINE
8
BLACK
6
CONTINUOUS
10
196.75
20
-66.6749999999999972
11
196.75
21
-67.6749999999999972
  0
ENDSEC
  0
EOF
