%TF.GenerationSoftware,KiCad,Pcbnew,9.0.0*%
%TF.CreationDate,2025-08-04T08:15:32-07:00*%
%TF.ProjectId,flatchord,666c6174-6368-46f7-9264-2e6b69636164,rev?*%
%TF.SameCoordinates,Original*%
%TF.FileFunction,Profile,NP*%
%FSLAX46Y46*%
G04 Gerber Fmt 4.6, Leading zero omitted, Abs format (unit mm)*
G04 Created by KiCad (PCBNEW 9.0.0) date 2025-08-04 08:15:32*
%MOMM*%
%LPD*%
G01*
G04 APERTURE LIST*
%TA.AperFunction,Profile*%
%ADD10C,0.050000*%
%TD*%
G04 APERTURE END LIST*
D10*
X236369826Y-67220100D02*
X236369826Y-98379882D01*
X232420000Y-68080000D02*
G75*
G02*
X229670000Y-68080000I-1375000J0D01*
G01*
X229670000Y-68080000D02*
G75*
G02*
X232420000Y-68080000I1375000J0D01*
G01*
X171880000Y-68080000D02*
G75*
G02*
X169130000Y-68080000I-1375000J0D01*
G01*
X169130000Y-68080000D02*
G75*
G02*
X171880000Y-68080000I1375000J0D01*
G01*
X167740174Y-67210118D02*
G75*
G02*
X169310118Y-65640174I1569926J18D01*
G01*
X234799882Y-65650174D02*
G75*
G02*
X236369826Y-67220118I18J-1569926D01*
G01*
X234809900Y-99939826D02*
X169320126Y-99959794D01*
X234799900Y-65650174D02*
X169310118Y-65640174D01*
X169320126Y-99959794D02*
G75*
G02*
X167740174Y-98389882I-10026J1569894D01*
G01*
X167740174Y-98389882D02*
X167740174Y-67210118D01*
X236369826Y-98379882D02*
G75*
G02*
X234809882Y-99939826I-1559926J-18D01*
G01*
%TO.C,J1*%
X178497500Y-74005000D02*
G75*
G02*
X175497500Y-74005000I-1500000J0D01*
G01*
X175497500Y-74005000D02*
G75*
G02*
X178497500Y-74005000I1500000J0D01*
G01*
X178497500Y-94580000D02*
G75*
G02*
X175497500Y-94580000I-1500000J0D01*
G01*
X175497500Y-94580000D02*
G75*
G02*
X178497500Y-94580000I1500000J0D01*
G01*
X201147500Y-74005000D02*
G75*
G02*
X198147500Y-74005000I-1500000J0D01*
G01*
X198147500Y-74005000D02*
G75*
G02*
X201147500Y-74005000I1500000J0D01*
G01*
X201147500Y-94580000D02*
G75*
G02*
X198147500Y-94580000I-1500000J0D01*
G01*
X198147500Y-94580000D02*
G75*
G02*
X201147500Y-94580000I1500000J0D01*
G01*
%TD*%
M02*
