  0
SECTION
  2
HEADER
  9
$ANGBASE
  50
0.0
  9
$ANGDIR
  70
1
  9
$MEASUREMENT
  70
1
  0
ENDSEC
  0
SECTION
  2
TABLES
  0
TABLE
  2
LTYPE
  70
4
  0
LTYPE
  5
40F
  2
CONTINUOUS
  70
0
  3
Solid line
  72
65
  73
0
  40
0.0
  0
LTYPE
  5
410
  2
DASHDOT
 70
0
  3
Dash Dot ____ _ ____ _
 72
65
 73
4
 40
2.0
 49
1.25
 49
-0.25
 49
0.25
 49
-0.25
  0
LTYPE
  5
411
  2
DASHED
 70
0
  3
Dashed __ __ __ __ __
 72
65
 73
2
 40
0.75
 49
0.5
 49
-0.25
  0
LTYPE
  5
43B
  2
DOTTED
 70
0
  3
Dotted .  .  .  .
 72
65
 73
2
 40
0.2
 49
0.0
 49
-0.2
  0
ENDTAB
  0
TABLE
  2
STYLE
  70
4
  0
STYLE
  2
KICAD
  70
0
  40
0
  41
1
  42
1
  50
0
  71
0
  3
isocp.shx
  0
STYLE
  2
KICADB
  70
0
  40
0
  41
1
  42
1
  50
0
  71
0
  3
isocp.shx
  0
STYLE
  2
KICADI
  70
0
  40
0
  41
1
  42
1
  50
15
  71
0
  3
isocp.shx
  0
STYLE
  2
KICADBI
  70
0
  40
0
  41
1
  42
1
  50
15
  71
0
  3
isocp.shx
  0
ENDTAB
  0
TABLE
  2
LAYER
  70
1
  0
LAYER
  2
BLACK
  70
0
  62
7
  6
CONTINUOUS
  0
ENDTAB
  0
ENDSEC
  0
SECTION
  2
ENTITIES
0
LINE
8
BLACK
6
CONTINUOUS
10
177.3535039999999867
20
-93.0971359999999919
11
177.581091999999984
21
-93.1710839999999934
0
LINE
8
BLACK
6
CONTINUOUS
10
177.581091999999984
20
-93.1710839999999934
11
177.7943099999999959
21
-93.2797240000000016
0
LINE
8
BLACK
6
CONTINUOUS
10
177.7943099999999959
20
-93.2797240000000016
11
177.9879080000000044
21
-93.4203809999999919
0
LINE
8
BLACK
6
CONTINUOUS
10
177.9879080000000044
20
-93.4203809999999919
11
178.1571189999999945
21
-93.5895919999999961
0
LINE
8
BLACK
6
CONTINUOUS
10
178.1571189999999945
20
-93.5895919999999961
11
178.2977759999999989
21
-93.7831899999999905
0
LINE
8
BLACK
6
CONTINUOUS
10
178.2977759999999989
20
-93.7831899999999905
11
178.4064159999999788
21
-93.9964080000000024
0
LINE
8
BLACK
6
CONTINUOUS
10
178.4064159999999788
20
-93.9964080000000024
11
178.4803639999999803
21
-94.2239959999999996
0
LINE
8
BLACK
6
CONTINUOUS
10
178.4803639999999803
20
-94.2239959999999996
11
178.5177989999999966
21
-94.4603499999999912
0
LINE
8
BLACK
6
CONTINUOUS
10
178.5177989999999966
20
-94.4603499999999912
11
178.5177989999999966
21
-94.6996499999999912
0
LINE
8
BLACK
6
CONTINUOUS
10
178.5177989999999966
20
-94.6996499999999912
11
178.4803639999999803
21
-94.9360039999999969
0
LINE
8
BLACK
6
CONTINUOUS
10
178.4803639999999803
20
-94.9360039999999969
11
178.4064159999999788
21
-95.1635919999999942
0
LINE
8
BLACK
6
CONTINUOUS
10
178.4064159999999788
20
-95.1635919999999942
11
178.2977759999999989
21
-95.3768099999999919
0
LINE
8
BLACK
6
CONTINUOUS
10
178.2977759999999989
20
-95.3768099999999919
11
178.1571189999999945
21
-95.5704080000000005
0
LINE
8
BLACK
6
CONTINUOUS
10
178.1571189999999945
20
-95.5704080000000005
11
177.9879080000000044
21
-95.7396189999999905
0
LINE
8
BLACK
6
CONTINUOUS
10
177.9879080000000044
20
-95.7396189999999905
11
177.7943099999999959
21
-95.880275999999995
0
LINE
8
BLACK
6
CONTINUOUS
10
177.7943099999999959
20
-95.880275999999995
11
177.581091999999984
21
-95.988915999999989
0
LINE
8
BLACK
6
CONTINUOUS
10
177.581091999999984
20
-95.988915999999989
11
177.3535039999999867
21
-96.0628639999999905
0
LINE
8
BLACK
6
CONTINUOUS
10
177.3535039999999867
20
-96.0628639999999905
11
177.117149999999981
21
-96.1002989999999926
0
LINE
8
BLACK
6
CONTINUOUS
10
177.117149999999981
20
-96.1002989999999926
11
176.8778499999999951
21
-96.1002989999999926
0
LINE
8
BLACK
6
CONTINUOUS
10
176.8778499999999951
20
-96.1002989999999926
11
176.6414959999999894
21
-96.0628639999999905
0
LINE
8
BLACK
6
CONTINUOUS
10
176.6414959999999894
20
-96.0628639999999905
11
176.4139079999999922
21
-95.988915999999989
0
LINE
8
BLACK
6
CONTINUOUS
10
176.4139079999999922
20
-95.988915999999989
11
176.2006899999999803
21
-95.880275999999995
0
LINE
8
BLACK
6
CONTINUOUS
10
176.2006899999999803
20
-95.880275999999995
11
176.0070920000000001
21
-95.7396189999999905
0
LINE
8
BLACK
6
CONTINUOUS
10
176.0070920000000001
20
-95.7396189999999905
11
175.8378809999999817
21
-95.5704080000000005
0
LINE
8
BLACK
6
CONTINUOUS
10
175.8378809999999817
20
-95.5704080000000005
11
175.6972240000000056
21
-95.3768099999999919
0
LINE
8
BLACK
6
CONTINUOUS
10
175.6972240000000056
20
-95.3768099999999919
11
175.5885839999999973
21
-95.1635919999999942
0
LINE
8
BLACK
6
CONTINUOUS
10
175.5885839999999973
20
-95.1635919999999942
11
175.5146359999999959
21
-94.9360039999999969
0
LINE
8
BLACK
6
CONTINUOUS
10
175.5146359999999959
20
-94.9360039999999969
11
175.4772009999999796
21
-94.6996499999999912
0
LINE
8
BLACK
6
CONTINUOUS
10
175.4772009999999796
20
-94.6996499999999912
11
175.4772009999999796
21
-94.4639150000000001
0
LINE
8
BLACK
6
CONTINUOUS
10
175.4772009999999796
20
-94.4639150000000001
11
175.4772009999999796
21
-94.4603499999999912
0
LINE
8
BLACK
6
CONTINUOUS
10
175.4772009999999796
20
-94.4603499999999912
11
175.5146359999999959
21
-94.2239959999999996
0
LINE
8
BLACK
6
CONTINUOUS
10
175.5146359999999959
20
-94.2239959999999996
11
175.5885839999999973
21
-93.9964080000000024
0
LINE
8
BLACK
6
CONTINUOUS
10
175.5885839999999973
20
-93.9964080000000024
11
175.6972240000000056
21
-93.7831899999999905
0
LINE
8
BLACK
6
CONTINUOUS
10
175.6972240000000056
20
-93.7831899999999905
11
175.8378809999999817
21
-93.5895919999999961
0
LINE
8
BLACK
6
CONTINUOUS
10
175.8378809999999817
20
-93.5895919999999961
11
176.0070920000000001
21
-93.4203809999999919
0
LINE
8
BLACK
6
CONTINUOUS
10
176.0070920000000001
20
-93.4203809999999919
11
176.2006899999999803
21
-93.2797240000000016
0
LINE
8
BLACK
6
CONTINUOUS
10
176.2006899999999803
20
-93.2797240000000016
11
176.4139079999999922
21
-93.1710839999999934
0
LINE
8
BLACK
6
CONTINUOUS
10
176.4139079999999922
20
-93.1710839999999934
11
176.6414959999999894
21
-93.0971359999999919
0
LINE
8
BLACK
6
CONTINUOUS
10
176.6414959999999894
20
-93.0971359999999919
11
176.8778499999999951
21
-93.0597009999999898
0
LINE
8
BLACK
6
CONTINUOUS
10
176.8778499999999951
20
-93.0597009999999898
11
177.117149999999981
21
-93.0597009999999898
0
LINE
8
BLACK
6
CONTINUOUS
10
177.117149999999981
20
-93.0597009999999898
11
177.3535039999999867
21
-93.0971359999999919
0
LINE
8
BLACK
6
CONTINUOUS
10
175.5224999999999795
20
-94.6960849999999965
11
175.5588189999999997
21
-94.9253969999999896
0
LINE
8
BLACK
6
CONTINUOUS
10
175.5588189999999997
20
-94.9253969999999896
11
175.6305639999999926
21
-95.1462029999999999
0
LINE
8
BLACK
6
CONTINUOUS
10
175.6305639999999926
20
-95.1462029999999999
11
175.735966999999988
21
-95.3530679999999933
0
LINE
8
BLACK
6
CONTINUOUS
10
175.735966999999988
20
-95.3530679999999933
11
175.8724330000000009
21
-95.5408979999999985
0
LINE
8
BLACK
6
CONTINUOUS
10
175.8724330000000009
20
-95.5408979999999985
11
176.0366019999999878
21
-95.7050669999999997
0
LINE
8
BLACK
6
CONTINUOUS
10
176.0366019999999878
20
-95.7050669999999997
11
176.2244319999999789
21
-95.8415329999999983
0
LINE
8
BLACK
6
CONTINUOUS
10
176.2244319999999789
20
-95.8415329999999983
11
176.4312970000000007
21
-95.9469359999999938
0
LINE
8
BLACK
6
CONTINUOUS
10
176.4312970000000007
20
-95.9469359999999938
11
176.6521029999999826
21
-96.0186810000000008
0
LINE
8
BLACK
6
CONTINUOUS
10
176.6521029999999826
20
-96.0186810000000008
11
176.8814150000000041
21
-96.0549999999999926
0
LINE
8
BLACK
6
CONTINUOUS
10
176.8814150000000041
20
-96.0549999999999926
11
177.1135850000000005
21
-96.0549999999999926
0
LINE
8
BLACK
6
CONTINUOUS
10
177.1135850000000005
20
-96.0549999999999926
11
177.3428969999999936
21
-96.0186810000000008
0
LINE
8
BLACK
6
CONTINUOUS
10
177.3428969999999936
20
-96.0186810000000008
11
177.5637030000000038
21
-95.9469359999999938
0
LINE
8
BLACK
6
CONTINUOUS
10
177.5637030000000038
20
-95.9469359999999938
11
177.7705679999999973
21
-95.8415329999999983
0
LINE
8
BLACK
6
CONTINUOUS
10
177.7705679999999973
20
-95.8415329999999983
11
177.9583979999999883
21
-95.7050669999999997
0
LINE
8
BLACK
6
CONTINUOUS
10
177.9583979999999883
20
-95.7050669999999997
11
178.1225670000000036
21
-95.5408979999999985
0
LINE
8
BLACK
6
CONTINUOUS
10
178.1225670000000036
20
-95.5408979999999985
11
178.2590329999999881
21
-95.3530679999999933
0
LINE
8
BLACK
6
CONTINUOUS
10
178.2590329999999881
20
-95.3530679999999933
11
178.3644359999999836
21
-95.1462029999999999
0
LINE
8
BLACK
6
CONTINUOUS
10
178.3644359999999836
20
-95.1462029999999999
11
178.4361810000000048
21
-94.9253969999999896
0
LINE
8
BLACK
6
CONTINUOUS
10
178.4361810000000048
20
-94.9253969999999896
11
178.4724999999999966
21
-94.6960849999999965
0
LINE
8
BLACK
6
CONTINUOUS
10
178.4724999999999966
20
-94.6960849999999965
11
178.4724999999999966
21
-94.4639150000000001
0
LINE
8
BLACK
6
CONTINUOUS
10
178.4724999999999966
20
-94.4639150000000001
11
178.4361810000000048
21
-94.2346029999999928
0
LINE
8
BLACK
6
CONTINUOUS
10
178.4361810000000048
20
-94.2346029999999928
11
178.3644359999999836
21
-94.0137969999999967
0
LINE
8
BLACK
6
CONTINUOUS
10
178.3644359999999836
20
-94.0137969999999967
11
178.2590329999999881
21
-93.8069319999999891
0
LINE
8
BLACK
6
CONTINUOUS
10
178.2590329999999881
20
-93.8069319999999891
11
178.1225670000000036
21
-93.619101999999998
0
LINE
8
BLACK
6
CONTINUOUS
10
178.1225670000000036
20
-93.619101999999998
11
177.9583979999999883
21
-93.4549329999999969
0
LINE
8
BLACK
6
CONTINUOUS
10
177.9583979999999883
20
-93.4549329999999969
11
177.7705679999999973
21
-93.3184669999999983
0
LINE
8
BLACK
6
CONTINUOUS
10
177.7705679999999973
20
-93.3184669999999983
11
177.5637030000000038
21
-93.2130640000000028
0
LINE
8
BLACK
6
CONTINUOUS
10
177.5637030000000038
20
-93.2130640000000028
11
177.3428969999999936
21
-93.1413189999999958
0
LINE
8
BLACK
6
CONTINUOUS
10
177.3428969999999936
20
-93.1413189999999958
11
177.1135850000000005
21
-93.1049999999999898
0
LINE
8
BLACK
6
CONTINUOUS
10
177.1135850000000005
20
-93.1049999999999898
11
176.8814150000000041
21
-93.1049999999999898
0
LINE
8
BLACK
6
CONTINUOUS
10
176.8814150000000041
20
-93.1049999999999898
11
176.6521029999999826
21
-93.1413189999999958
0
LINE
8
BLACK
6
CONTINUOUS
10
176.6521029999999826
20
-93.1413189999999958
11
176.4312970000000007
21
-93.2130640000000028
0
LINE
8
BLACK
6
CONTINUOUS
10
176.4312970000000007
20
-93.2130640000000028
11
176.2244319999999789
21
-93.3184669999999983
0
LINE
8
BLACK
6
CONTINUOUS
10
176.2244319999999789
20
-93.3184669999999983
11
176.0366019999999878
21
-93.4549329999999969
0
LINE
8
BLACK
6
CONTINUOUS
10
176.0366019999999878
20
-93.4549329999999969
11
175.8724330000000009
21
-93.619101999999998
0
LINE
8
BLACK
6
CONTINUOUS
10
175.8724330000000009
20
-93.619101999999998
11
175.735966999999988
21
-93.8069319999999891
0
LINE
8
BLACK
6
CONTINUOUS
10
175.735966999999988
20
-93.8069319999999891
11
175.6305639999999926
21
-94.0137969999999967
0
LINE
8
BLACK
6
CONTINUOUS
10
175.6305639999999926
20
-94.0137969999999967
11
175.5588189999999997
21
-94.2346029999999928
0
LINE
8
BLACK
6
CONTINUOUS
10
175.5588189999999997
20
-94.2346029999999928
11
175.5224999999999795
21
-94.4639150000000001
0
LINE
8
BLACK
6
CONTINUOUS
10
175.5224999999999795
20
-94.4639150000000001
11
175.5224999999999795
21
-94.6960849999999965
0
LINE
8
BLACK
6
CONTINUOUS
10
200.0035039999999924
20
-93.0971359999999919
11
200.2310919999999896
21
-93.1710839999999934
0
LINE
8
BLACK
6
CONTINUOUS
10
200.2310919999999896
20
-93.1710839999999934
11
200.4443100000000015
21
-93.2797240000000016
0
LINE
8
BLACK
6
CONTINUOUS
10
200.4443100000000015
20
-93.2797240000000016
11
200.6379079999999817
21
-93.4203809999999919
0
LINE
8
BLACK
6
CONTINUOUS
10
200.6379079999999817
20
-93.4203809999999919
11
200.8071190000000001
21
-93.5895919999999961
0
LINE
8
BLACK
6
CONTINUOUS
10
200.8071190000000001
20
-93.5895919999999961
11
200.9477760000000046
21
-93.7831899999999905
0
LINE
8
BLACK
6
CONTINUOUS
10
200.9477760000000046
20
-93.7831899999999905
11
201.0564159999999845
21
-93.9964080000000024
0
LINE
8
BLACK
6
CONTINUOUS
10
201.0564159999999845
20
-93.9964080000000024
11
201.1303639999999859
21
-94.2239959999999996
0
LINE
8
BLACK
6
CONTINUOUS
10
201.1303639999999859
20
-94.2239959999999996
11
201.1677990000000023
21
-94.4603499999999912
0
LINE
8
BLACK
6
CONTINUOUS
10
201.1677990000000023
20
-94.4603499999999912
11
201.1677990000000023
21
-94.6996499999999912
0
LINE
8
BLACK
6
CONTINUOUS
10
201.1677990000000023
20
-94.6996499999999912
11
201.1303639999999859
21
-94.9360039999999969
0
LINE
8
BLACK
6
CONTINUOUS
10
201.1303639999999859
20
-94.9360039999999969
11
201.0564159999999845
21
-95.1635919999999942
0
LINE
8
BLACK
6
CONTINUOUS
10
201.0564159999999845
20
-95.1635919999999942
11
200.9477760000000046
21
-95.3768099999999919
0
LINE
8
BLACK
6
CONTINUOUS
10
200.9477760000000046
20
-95.3768099999999919
11
200.8071190000000001
21
-95.5704080000000005
0
LINE
8
BLACK
6
CONTINUOUS
10
200.8071190000000001
20
-95.5704080000000005
11
200.6379079999999817
21
-95.7396189999999905
0
LINE
8
BLACK
6
CONTINUOUS
10
200.6379079999999817
20
-95.7396189999999905
11
200.4443100000000015
21
-95.880275999999995
0
LINE
8
BLACK
6
CONTINUOUS
10
200.4443100000000015
20
-95.880275999999995
11
200.2310919999999896
21
-95.988915999999989
0
LINE
8
BLACK
6
CONTINUOUS
10
200.2310919999999896
20
-95.988915999999989
11
200.0035039999999924
21
-96.0628639999999905
0
LINE
8
BLACK
6
CONTINUOUS
10
200.0035039999999924
20
-96.0628639999999905
11
199.7671499999999867
21
-96.1002989999999926
0
LINE
8
BLACK
6
CONTINUOUS
10
199.7671499999999867
20
-96.1002989999999926
11
199.5278500000000008
21
-96.1002989999999926
0
LINE
8
BLACK
6
CONTINUOUS
10
199.5278500000000008
20
-96.1002989999999926
11
199.2914959999999951
21
-96.0628639999999905
0
LINE
8
BLACK
6
CONTINUOUS
10
199.2914959999999951
20
-96.0628639999999905
11
199.0639079999999979
21
-95.988915999999989
0
LINE
8
BLACK
6
CONTINUOUS
10
199.0639079999999979
20
-95.988915999999989
11
198.850689999999986
21
-95.880275999999995
0
LINE
8
BLACK
6
CONTINUOUS
10
198.850689999999986
20
-95.880275999999995
11
198.6570919999999774
21
-95.7396189999999905
0
LINE
8
BLACK
6
CONTINUOUS
10
198.6570919999999774
20
-95.7396189999999905
11
198.4878809999999874
21
-95.5704080000000005
0
LINE
8
BLACK
6
CONTINUOUS
10
198.4878809999999874
20
-95.5704080000000005
11
198.3472239999999829
21
-95.3768099999999919
0
LINE
8
BLACK
6
CONTINUOUS
10
198.3472239999999829
20
-95.3768099999999919
11
198.238584000000003
21
-95.1635919999999942
0
LINE
8
BLACK
6
CONTINUOUS
10
198.238584000000003
20
-95.1635919999999942
11
198.1646360000000016
21
-94.9360039999999969
0
LINE
8
BLACK
6
CONTINUOUS
10
198.1646360000000016
20
-94.9360039999999969
11
198.1272009999999852
21
-94.6996499999999912
0
LINE
8
BLACK
6
CONTINUOUS
10
198.1272009999999852
20
-94.6996499999999912
11
198.1272009999999852
21
-94.4639150000000001
0
LINE
8
BLACK
6
CONTINUOUS
10
198.1272009999999852
20
-94.4639150000000001
11
198.1272009999999852
21
-94.4603499999999912
0
LINE
8
BLACK
6
CONTINUOUS
10
198.1272009999999852
20
-94.4603499999999912
11
198.1646360000000016
21
-94.2239959999999996
0
LINE
8
BLACK
6
CONTINUOUS
10
198.1646360000000016
20
-94.2239959999999996
11
198.238584000000003
21
-93.9964080000000024
0
LINE
8
BLACK
6
CONTINUOUS
10
198.238584000000003
20
-93.9964080000000024
11
198.3472239999999829
21
-93.7831899999999905
0
LINE
8
BLACK
6
CONTINUOUS
10
198.3472239999999829
20
-93.7831899999999905
11
198.4878809999999874
21
-93.5895919999999961
0
LINE
8
BLACK
6
CONTINUOUS
10
198.4878809999999874
20
-93.5895919999999961
11
198.6570919999999774
21
-93.4203809999999919
0
LINE
8
BLACK
6
CONTINUOUS
10
198.6570919999999774
20
-93.4203809999999919
11
198.850689999999986
21
-93.2797240000000016
0
LINE
8
BLACK
6
CONTINUOUS
10
198.850689999999986
20
-93.2797240000000016
11
199.0639079999999979
21
-93.1710839999999934
0
LINE
8
BLACK
6
CONTINUOUS
10
199.0639079999999979
20
-93.1710839999999934
11
199.2914959999999951
21
-93.0971359999999919
0
LINE
8
BLACK
6
CONTINUOUS
10
199.2914959999999951
20
-93.0971359999999919
11
199.5278500000000008
21
-93.0597009999999898
0
LINE
8
BLACK
6
CONTINUOUS
10
199.5278500000000008
20
-93.0597009999999898
11
199.7671499999999867
21
-93.0597009999999898
0
LINE
8
BLACK
6
CONTINUOUS
10
199.7671499999999867
20
-93.0597009999999898
11
200.0035039999999924
21
-93.0971359999999919
0
LINE
8
BLACK
6
CONTINUOUS
10
198.1724999999999852
20
-94.6960849999999965
11
198.208818999999977
21
-94.9253969999999896
0
LINE
8
BLACK
6
CONTINUOUS
10
198.208818999999977
20
-94.9253969999999896
11
198.2805639999999983
21
-95.1462029999999999
0
LINE
8
BLACK
6
CONTINUOUS
10
198.2805639999999983
20
-95.1462029999999999
11
198.3859669999999937
21
-95.3530679999999933
0
LINE
8
BLACK
6
CONTINUOUS
10
198.3859669999999937
20
-95.3530679999999933
11
198.5224329999999782
21
-95.5408979999999985
0
LINE
8
BLACK
6
CONTINUOUS
10
198.5224329999999782
20
-95.5408979999999985
11
198.6866019999999935
21
-95.7050669999999997
0
LINE
8
BLACK
6
CONTINUOUS
10
198.6866019999999935
20
-95.7050669999999997
11
198.8744319999999846
21
-95.8415329999999983
0
LINE
8
BLACK
6
CONTINUOUS
10
198.8744319999999846
20
-95.8415329999999983
11
199.081296999999978
21
-95.9469359999999938
0
LINE
8
BLACK
6
CONTINUOUS
10
199.081296999999978
20
-95.9469359999999938
11
199.3021029999999882
21
-96.0186810000000008
0
LINE
8
BLACK
6
CONTINUOUS
10
199.3021029999999882
20
-96.0186810000000008
11
199.5314149999999813
21
-96.0549999999999926
0
LINE
8
BLACK
6
CONTINUOUS
10
199.5314149999999813
20
-96.0549999999999926
11
199.7635849999999778
21
-96.0549999999999926
0
LINE
8
BLACK
6
CONTINUOUS
10
199.7635849999999778
20
-96.0549999999999926
11
199.9928969999999993
21
-96.0186810000000008
0
LINE
8
BLACK
6
CONTINUOUS
10
199.9928969999999993
20
-96.0186810000000008
11
200.2137029999999811
21
-95.9469359999999938
0
LINE
8
BLACK
6
CONTINUOUS
10
200.2137029999999811
20
-95.9469359999999938
11
200.4205680000000029
21
-95.8415329999999983
0
LINE
8
BLACK
6
CONTINUOUS
10
200.4205680000000029
20
-95.8415329999999983
11
200.608397999999994
21
-95.7050669999999997
0
LINE
8
BLACK
6
CONTINUOUS
10
200.608397999999994
20
-95.7050669999999997
11
200.7725669999999809
21
-95.5408979999999985
0
LINE
8
BLACK
6
CONTINUOUS
10
200.7725669999999809
20
-95.5408979999999985
11
200.9090329999999938
21
-95.3530679999999933
0
LINE
8
BLACK
6
CONTINUOUS
10
200.9090329999999938
20
-95.3530679999999933
11
201.0144359999999892
21
-95.1462029999999999
0
LINE
8
BLACK
6
CONTINUOUS
10
201.0144359999999892
20
-95.1462029999999999
11
201.0861809999999821
21
-94.9253969999999896
0
LINE
8
BLACK
6
CONTINUOUS
10
201.0861809999999821
20
-94.9253969999999896
11
201.1225000000000023
21
-94.6960849999999965
0
LINE
8
BLACK
6
CONTINUOUS
10
201.1225000000000023
20
-94.6960849999999965
11
201.1225000000000023
21
-94.4639150000000001
0
LINE
8
BLACK
6
CONTINUOUS
10
201.1225000000000023
20
-94.4639150000000001
11
201.0861809999999821
21
-94.2346029999999928
0
LINE
8
BLACK
6
CONTINUOUS
10
201.0861809999999821
20
-94.2346029999999928
11
201.0144359999999892
21
-94.0137969999999967
0
LINE
8
BLACK
6
CONTINUOUS
10
201.0144359999999892
20
-94.0137969999999967
11
200.9090329999999938
21
-93.8069319999999891
0
LINE
8
BLACK
6
CONTINUOUS
10
200.9090329999999938
20
-93.8069319999999891
11
200.7725669999999809
21
-93.619101999999998
0
LINE
8
BLACK
6
CONTINUOUS
10
200.7725669999999809
20
-93.619101999999998
11
200.608397999999994
21
-93.4549329999999969
0
LINE
8
BLACK
6
CONTINUOUS
10
200.608397999999994
20
-93.4549329999999969
11
200.4205680000000029
21
-93.3184669999999983
0
LINE
8
BLACK
6
CONTINUOUS
10
200.4205680000000029
20
-93.3184669999999983
11
200.2137029999999811
21
-93.2130640000000028
0
LINE
8
BLACK
6
CONTINUOUS
10
200.2137029999999811
20
-93.2130640000000028
11
199.9928969999999993
21
-93.1413189999999958
0
LINE
8
BLACK
6
CONTINUOUS
10
199.9928969999999993
20
-93.1413189999999958
11
199.7635849999999778
21
-93.1049999999999898
0
LINE
8
BLACK
6
CONTINUOUS
10
199.7635849999999778
20
-93.1049999999999898
11
199.5314149999999813
21
-93.1049999999999898
0
LINE
8
BLACK
6
CONTINUOUS
10
199.5314149999999813
20
-93.1049999999999898
11
199.3021029999999882
21
-93.1413189999999958
0
LINE
8
BLACK
6
CONTINUOUS
10
199.3021029999999882
20
-93.1413189999999958
11
199.081296999999978
21
-93.2130640000000028
0
LINE
8
BLACK
6
CONTINUOUS
10
199.081296999999978
20
-93.2130640000000028
11
198.8744319999999846
21
-93.3184669999999983
0
LINE
8
BLACK
6
CONTINUOUS
10
198.8744319999999846
20
-93.3184669999999983
11
198.6866019999999935
21
-93.4549329999999969
0
LINE
8
BLACK
6
CONTINUOUS
10
198.6866019999999935
20
-93.4549329999999969
11
198.5224329999999782
21
-93.619101999999998
0
LINE
8
BLACK
6
CONTINUOUS
10
198.5224329999999782
20
-93.619101999999998
11
198.3859669999999937
21
-93.8069319999999891
0
LINE
8
BLACK
6
CONTINUOUS
10
198.3859669999999937
20
-93.8069319999999891
11
198.2805639999999983
21
-94.0137969999999967
0
LINE
8
BLACK
6
CONTINUOUS
10
198.2805639999999983
20
-94.0137969999999967
11
198.208818999999977
21
-94.2346029999999928
0
LINE
8
BLACK
6
CONTINUOUS
10
198.208818999999977
20
-94.2346029999999928
11
198.1724999999999852
21
-94.4639150000000001
0
LINE
8
BLACK
6
CONTINUOUS
10
198.1724999999999852
20
-94.4639150000000001
11
198.1724999999999852
21
-94.6960849999999965
0
LINE
8
BLACK
6
CONTINUOUS
10
177.3535039999999867
20
-72.5221360000000033
11
177.581091999999984
21
-72.5960839999999905
0
LINE
8
BLACK
6
CONTINUOUS
10
177.581091999999984
20
-72.5960839999999905
11
177.7943099999999959
21
-72.7047239999999988
0
LINE
8
BLACK
6
CONTINUOUS
10
177.7943099999999959
20
-72.7047239999999988
11
177.9879080000000044
21
-72.8453810000000033
0
LINE
8
BLACK
6
CONTINUOUS
10
177.9879080000000044
20
-72.8453810000000033
11
178.1571189999999945
21
-73.0145919999999933
0
LINE
8
BLACK
6
CONTINUOUS
10
178.1571189999999945
20
-73.0145919999999933
11
178.2977759999999989
21
-73.2081900000000019
0
LINE
8
BLACK
6
CONTINUOUS
10
178.2977759999999989
20
-73.2081900000000019
11
178.4064159999999788
21
-73.4214079999999996
0
LINE
8
BLACK
6
CONTINUOUS
10
178.4064159999999788
20
-73.4214079999999996
11
178.4803639999999803
21
-73.6489959999999968
0
LINE
8
BLACK
6
CONTINUOUS
10
178.4803639999999803
20
-73.6489959999999968
11
178.5177989999999966
21
-73.8853500000000025
0
LINE
8
BLACK
6
CONTINUOUS
10
178.5177989999999966
20
-73.8853500000000025
11
178.5177989999999966
21
-74.1246500000000026
0
LINE
8
BLACK
6
CONTINUOUS
10
178.5177989999999966
20
-74.1246500000000026
11
178.4803639999999803
21
-74.3610039999999941
0
LINE
8
BLACK
6
CONTINUOUS
10
178.4803639999999803
20
-74.3610039999999941
11
178.4064159999999788
21
-74.5885919999999913
0
LINE
8
BLACK
6
CONTINUOUS
10
178.4064159999999788
20
-74.5885919999999913
11
178.2977759999999989
21
-74.8018100000000032
0
LINE
8
BLACK
6
CONTINUOUS
10
178.2977759999999989
20
-74.8018100000000032
11
178.1571189999999945
21
-74.9954079999999976
0
LINE
8
BLACK
6
CONTINUOUS
10
178.1571189999999945
20
-74.9954079999999976
11
177.9879080000000044
21
-75.1646190000000018
0
LINE
8
BLACK
6
CONTINUOUS
10
177.9879080000000044
20
-75.1646190000000018
11
177.7943099999999959
21
-75.3052759999999921
0
LINE
8
BLACK
6
CONTINUOUS
10
177.7943099999999959
20
-75.3052759999999921
11
177.581091999999984
21
-75.4139160000000004
0
LINE
8
BLACK
6
CONTINUOUS
10
177.581091999999984
20
-75.4139160000000004
11
177.3535039999999867
21
-75.4878640000000019
0
LINE
8
BLACK
6
CONTINUOUS
10
177.3535039999999867
20
-75.4878640000000019
11
177.117149999999981
21
-75.5252989999999897
0
LINE
8
BLACK
6
CONTINUOUS
10
177.117149999999981
20
-75.5252989999999897
11
176.8778499999999951
21
-75.5252989999999897
0
LINE
8
BLACK
6
CONTINUOUS
10
176.8778499999999951
20
-75.5252989999999897
11
176.6414959999999894
21
-75.4878640000000019
0
LINE
8
BLACK
6
CONTINUOUS
10
176.6414959999999894
20
-75.4878640000000019
11
176.4139079999999922
21
-75.4139160000000004
0
LINE
8
BLACK
6
CONTINUOUS
10
176.4139079999999922
20
-75.4139160000000004
11
176.2006899999999803
21
-75.3052759999999921
0
LINE
8
BLACK
6
CONTINUOUS
10
176.2006899999999803
20
-75.3052759999999921
11
176.0070920000000001
21
-75.1646190000000018
0
LINE
8
BLACK
6
CONTINUOUS
10
176.0070920000000001
20
-75.1646190000000018
11
175.8378809999999817
21
-74.9954079999999976
0
LINE
8
BLACK
6
CONTINUOUS
10
175.8378809999999817
20
-74.9954079999999976
11
175.6972240000000056
21
-74.8018100000000032
0
LINE
8
BLACK
6
CONTINUOUS
10
175.6972240000000056
20
-74.8018100000000032
11
175.5885839999999973
21
-74.5885919999999913
0
LINE
8
BLACK
6
CONTINUOUS
10
175.5885839999999973
20
-74.5885919999999913
11
175.5146359999999959
21
-74.3610039999999941
0
LINE
8
BLACK
6
CONTINUOUS
10
175.5146359999999959
20
-74.3610039999999941
11
175.4772009999999796
21
-74.1246500000000026
0
LINE
8
BLACK
6
CONTINUOUS
10
175.4772009999999796
20
-74.1246500000000026
11
175.4772009999999796
21
-73.8889149999999972
0
LINE
8
BLACK
6
CONTINUOUS
10
175.4772009999999796
20
-73.8889149999999972
11
175.4772009999999796
21
-73.8853500000000025
0
LINE
8
BLACK
6
CONTINUOUS
10
175.4772009999999796
20
-73.8853500000000025
11
175.5146359999999959
21
-73.6489959999999968
0
LINE
8
BLACK
6
CONTINUOUS
10
175.5146359999999959
20
-73.6489959999999968
11
175.5885839999999973
21
-73.4214079999999996
0
LINE
8
BLACK
6
CONTINUOUS
10
175.5885839999999973
20
-73.4214079999999996
11
175.6972240000000056
21
-73.2081900000000019
0
LINE
8
BLACK
6
CONTINUOUS
10
175.6972240000000056
20
-73.2081900000000019
11
175.8378809999999817
21
-73.0145919999999933
0
LINE
8
BLACK
6
CONTINUOUS
10
175.8378809999999817
20
-73.0145919999999933
11
176.0070920000000001
21
-72.8453810000000033
0
LINE
8
BLACK
6
CONTINUOUS
10
176.0070920000000001
20
-72.8453810000000033
11
176.2006899999999803
21
-72.7047239999999988
0
LINE
8
BLACK
6
CONTINUOUS
10
176.2006899999999803
20
-72.7047239999999988
11
176.4139079999999922
21
-72.5960839999999905
0
LINE
8
BLACK
6
CONTINUOUS
10
176.4139079999999922
20
-72.5960839999999905
11
176.6414959999999894
21
-72.5221360000000033
0
LINE
8
BLACK
6
CONTINUOUS
10
176.6414959999999894
20
-72.5221360000000033
11
176.8778499999999951
21
-72.4847010000000012
0
LINE
8
BLACK
6
CONTINUOUS
10
176.8778499999999951
20
-72.4847010000000012
11
177.117149999999981
21
-72.4847010000000012
0
LINE
8
BLACK
6
CONTINUOUS
10
177.117149999999981
20
-72.4847010000000012
11
177.3535039999999867
21
-72.5221360000000033
0
LINE
8
BLACK
6
CONTINUOUS
10
175.5224999999999795
20
-74.1210849999999937
11
175.5588189999999997
21
-74.350397000000001
0
LINE
8
BLACK
6
CONTINUOUS
10
175.5588189999999997
20
-74.350397000000001
11
175.6305639999999926
21
-74.571202999999997
0
LINE
8
BLACK
6
CONTINUOUS
10
175.6305639999999926
20
-74.571202999999997
11
175.735966999999988
21
-74.7780679999999904
0
LINE
8
BLACK
6
CONTINUOUS
10
175.735966999999988
20
-74.7780679999999904
11
175.8724330000000009
21
-74.9658979999999957
0
LINE
8
BLACK
6
CONTINUOUS
10
175.8724330000000009
20
-74.9658979999999957
11
176.0366019999999878
21
-75.1300669999999968
0
LINE
8
BLACK
6
CONTINUOUS
10
176.0366019999999878
20
-75.1300669999999968
11
176.2244319999999789
21
-75.2665329999999955
0
LINE
8
BLACK
6
CONTINUOUS
10
176.2244319999999789
20
-75.2665329999999955
11
176.4312970000000007
21
-75.3719359999999909
0
LINE
8
BLACK
6
CONTINUOUS
10
176.4312970000000007
20
-75.3719359999999909
11
176.6521029999999826
21
-75.443680999999998
0
LINE
8
BLACK
6
CONTINUOUS
10
176.6521029999999826
20
-75.443680999999998
11
176.8814150000000041
21
-75.4799999999999898
0
LINE
8
BLACK
6
CONTINUOUS
10
176.8814150000000041
20
-75.4799999999999898
11
177.1135850000000005
21
-75.4799999999999898
0
LINE
8
BLACK
6
CONTINUOUS
10
177.1135850000000005
20
-75.4799999999999898
11
177.3428969999999936
21
-75.443680999999998
0
LINE
8
BLACK
6
CONTINUOUS
10
177.3428969999999936
20
-75.443680999999998
11
177.5637030000000038
21
-75.3719359999999909
0
LINE
8
BLACK
6
CONTINUOUS
10
177.5637030000000038
20
-75.3719359999999909
11
177.7705679999999973
21
-75.2665329999999955
0
LINE
8
BLACK
6
CONTINUOUS
10
177.7705679999999973
20
-75.2665329999999955
11
177.9583979999999883
21
-75.1300669999999968
0
LINE
8
BLACK
6
CONTINUOUS
10
177.9583979999999883
20
-75.1300669999999968
11
178.1225670000000036
21
-74.9658979999999957
0
LINE
8
BLACK
6
CONTINUOUS
10
178.1225670000000036
20
-74.9658979999999957
11
178.2590329999999881
21
-74.7780679999999904
0
LINE
8
BLACK
6
CONTINUOUS
10
178.2590329999999881
20
-74.7780679999999904
11
178.3644359999999836
21
-74.571202999999997
0
LINE
8
BLACK
6
CONTINUOUS
10
178.3644359999999836
20
-74.571202999999997
11
178.4361810000000048
21
-74.350397000000001
0
LINE
8
BLACK
6
CONTINUOUS
10
178.4361810000000048
20
-74.350397000000001
11
178.4724999999999966
21
-74.1210849999999937
0
LINE
8
BLACK
6
CONTINUOUS
10
178.4724999999999966
20
-74.1210849999999937
11
178.4724999999999966
21
-73.8889149999999972
0
LINE
8
BLACK
6
CONTINUOUS
10
178.4724999999999966
20
-73.8889149999999972
11
178.4361810000000048
21
-73.6596029999999899
0
LINE
8
BLACK
6
CONTINUOUS
10
178.4361810000000048
20
-73.6596029999999899
11
178.3644359999999836
21
-73.4387969999999939
0
LINE
8
BLACK
6
CONTINUOUS
10
178.3644359999999836
20
-73.4387969999999939
11
178.2590329999999881
21
-73.2319320000000005
0
LINE
8
BLACK
6
CONTINUOUS
10
178.2590329999999881
20
-73.2319320000000005
11
178.1225670000000036
21
-73.0441019999999952
0
LINE
8
BLACK
6
CONTINUOUS
10
178.1225670000000036
20
-73.0441019999999952
11
177.9583979999999883
21
-72.8799329999999941
0
LINE
8
BLACK
6
CONTINUOUS
10
177.9583979999999883
20
-72.8799329999999941
11
177.7705679999999973
21
-72.7434669999999954
0
LINE
8
BLACK
6
CONTINUOUS
10
177.7705679999999973
20
-72.7434669999999954
11
177.5637030000000038
21
-72.638064
0
LINE
8
BLACK
6
CONTINUOUS
10
177.5637030000000038
20
-72.638064
11
177.3428969999999936
21
-72.5663189999999929
0
LINE
8
BLACK
6
CONTINUOUS
10
177.3428969999999936
20
-72.5663189999999929
11
177.1135850000000005
21
-72.5300000000000011
0
LINE
8
BLACK
6
CONTINUOUS
10
177.1135850000000005
20
-72.5300000000000011
11
176.8814150000000041
21
-72.5300000000000011
0
LINE
8
BLACK
6
CONTINUOUS
10
176.8814150000000041
20
-72.5300000000000011
11
176.6521029999999826
21
-72.5663189999999929
0
LINE
8
BLACK
6
CONTINUOUS
10
176.6521029999999826
20
-72.5663189999999929
11
176.4312970000000007
21
-72.638064
0
LINE
8
BLACK
6
CONTINUOUS
10
176.4312970000000007
20
-72.638064
11
176.2244319999999789
21
-72.7434669999999954
0
LINE
8
BLACK
6
CONTINUOUS
10
176.2244319999999789
20
-72.7434669999999954
11
176.0366019999999878
21
-72.8799329999999941
0
LINE
8
BLACK
6
CONTINUOUS
10
176.0366019999999878
20
-72.8799329999999941
11
175.8724330000000009
21
-73.0441019999999952
0
LINE
8
BLACK
6
CONTINUOUS
10
175.8724330000000009
20
-73.0441019999999952
11
175.735966999999988
21
-73.2319320000000005
0
LINE
8
BLACK
6
CONTINUOUS
10
175.735966999999988
20
-73.2319320000000005
11
175.6305639999999926
21
-73.4387969999999939
0
LINE
8
BLACK
6
CONTINUOUS
10
175.6305639999999926
20
-73.4387969999999939
11
175.5588189999999997
21
-73.6596029999999899
0
LINE
8
BLACK
6
CONTINUOUS
10
175.5588189999999997
20
-73.6596029999999899
11
175.5224999999999795
21
-73.8889149999999972
0
LINE
8
BLACK
6
CONTINUOUS
10
175.5224999999999795
20
-73.8889149999999972
11
175.5224999999999795
21
-74.1210849999999937
0
LINE
8
BLACK
6
CONTINUOUS
10
200.0035039999999924
20
-72.5221360000000033
11
200.2310919999999896
21
-72.5960839999999905
0
LINE
8
BLACK
6
CONTINUOUS
10
200.2310919999999896
20
-72.5960839999999905
11
200.4443100000000015
21
-72.7047239999999988
0
LINE
8
BLACK
6
CONTINUOUS
10
200.4443100000000015
20
-72.7047239999999988
11
200.6379079999999817
21
-72.8453810000000033
0
LINE
8
BLACK
6
CONTINUOUS
10
200.6379079999999817
20
-72.8453810000000033
11
200.8071190000000001
21
-73.0145919999999933
0
LINE
8
BLACK
6
CONTINUOUS
10
200.8071190000000001
20
-73.0145919999999933
11
200.9477760000000046
21
-73.2081900000000019
0
LINE
8
BLACK
6
CONTINUOUS
10
200.9477760000000046
20
-73.2081900000000019
11
201.0564159999999845
21
-73.4214079999999996
0
LINE
8
BLACK
6
CONTINUOUS
10
201.0564159999999845
20
-73.4214079999999996
11
201.1303639999999859
21
-73.6489959999999968
0
LINE
8
BLACK
6
CONTINUOUS
10
201.1303639999999859
20
-73.6489959999999968
11
201.1677990000000023
21
-73.8853500000000025
0
LINE
8
BLACK
6
CONTINUOUS
10
201.1677990000000023
20
-73.8853500000000025
11
201.1677990000000023
21
-74.1246500000000026
0
LINE
8
BLACK
6
CONTINUOUS
10
201.1677990000000023
20
-74.1246500000000026
11
201.1303639999999859
21
-74.3610039999999941
0
LINE
8
BLACK
6
CONTINUOUS
10
201.1303639999999859
20
-74.3610039999999941
11
201.0564159999999845
21
-74.5885919999999913
0
LINE
8
BLACK
6
CONTINUOUS
10
201.0564159999999845
20
-74.5885919999999913
11
200.9477760000000046
21
-74.8018100000000032
0
LINE
8
BLACK
6
CONTINUOUS
10
200.9477760000000046
20
-74.8018100000000032
11
200.8071190000000001
21
-74.9954079999999976
0
LINE
8
BLACK
6
CONTINUOUS
10
200.8071190000000001
20
-74.9954079999999976
11
200.6379079999999817
21
-75.1646190000000018
0
LINE
8
BLACK
6
CONTINUOUS
10
200.6379079999999817
20
-75.1646190000000018
11
200.4443100000000015
21
-75.3052759999999921
0
LINE
8
BLACK
6
CONTINUOUS
10
200.4443100000000015
20
-75.3052759999999921
11
200.2310919999999896
21
-75.4139160000000004
0
LINE
8
BLACK
6
CONTINUOUS
10
200.2310919999999896
20
-75.4139160000000004
11
200.0035039999999924
21
-75.4878640000000019
0
LINE
8
BLACK
6
CONTINUOUS
10
200.0035039999999924
20
-75.4878640000000019
11
199.7671499999999867
21
-75.5252989999999897
0
LINE
8
BLACK
6
CONTINUOUS
10
199.7671499999999867
20
-75.5252989999999897
11
199.5278500000000008
21
-75.5252989999999897
0
LINE
8
BLACK
6
CONTINUOUS
10
199.5278500000000008
20
-75.5252989999999897
11
199.2914959999999951
21
-75.4878640000000019
0
LINE
8
BLACK
6
CONTINUOUS
10
199.2914959999999951
20
-75.4878640000000019
11
199.0639079999999979
21
-75.4139160000000004
0
LINE
8
BLACK
6
CONTINUOUS
10
199.0639079999999979
20
-75.4139160000000004
11
198.850689999999986
21
-75.3052759999999921
0
LINE
8
BLACK
6
CONTINUOUS
10
198.850689999999986
20
-75.3052759999999921
11
198.6570919999999774
21
-75.1646190000000018
0
LINE
8
BLACK
6
CONTINUOUS
10
198.6570919999999774
20
-75.1646190000000018
11
198.4878809999999874
21
-74.9954079999999976
0
LINE
8
BLACK
6
CONTINUOUS
10
198.4878809999999874
20
-74.9954079999999976
11
198.3472239999999829
21
-74.8018100000000032
0
LINE
8
BLACK
6
CONTINUOUS
10
198.3472239999999829
20
-74.8018100000000032
11
198.238584000000003
21
-74.5885919999999913
0
LINE
8
BLACK
6
CONTINUOUS
10
198.238584000000003
20
-74.5885919999999913
11
198.1646360000000016
21
-74.3610039999999941
0
LINE
8
BLACK
6
CONTINUOUS
10
198.1646360000000016
20
-74.3610039999999941
11
198.1272009999999852
21
-74.1246500000000026
0
LINE
8
BLACK
6
CONTINUOUS
10
198.1272009999999852
20
-74.1246500000000026
11
198.1272009999999852
21
-73.8889149999999972
0
LINE
8
BLACK
6
CONTINUOUS
10
198.1272009999999852
20
-73.8889149999999972
11
198.1272009999999852
21
-73.8853500000000025
0
LINE
8
BLACK
6
CONTINUOUS
10
198.1272009999999852
20
-73.8853500000000025
11
198.1646360000000016
21
-73.6489959999999968
0
LINE
8
BLACK
6
CONTINUOUS
10
198.1646360000000016
20
-73.6489959999999968
11
198.238584000000003
21
-73.4214079999999996
0
LINE
8
BLACK
6
CONTINUOUS
10
198.238584000000003
20
-73.4214079999999996
11
198.3472239999999829
21
-73.2081900000000019
0
LINE
8
BLACK
6
CONTINUOUS
10
198.3472239999999829
20
-73.2081900000000019
11
198.4878809999999874
21
-73.0145919999999933
0
LINE
8
BLACK
6
CONTINUOUS
10
198.4878809999999874
20
-73.0145919999999933
11
198.6570919999999774
21
-72.8453810000000033
0
LINE
8
BLACK
6
CONTINUOUS
10
198.6570919999999774
20
-72.8453810000000033
11
198.850689999999986
21
-72.7047239999999988
0
LINE
8
BLACK
6
CONTINUOUS
10
198.850689999999986
20
-72.7047239999999988
11
199.0639079999999979
21
-72.5960839999999905
0
LINE
8
BLACK
6
CONTINUOUS
10
199.0639079999999979
20
-72.5960839999999905
11
199.2914959999999951
21
-72.5221360000000033
0
LINE
8
BLACK
6
CONTINUOUS
10
199.2914959999999951
20
-72.5221360000000033
11
199.5278500000000008
21
-72.4847010000000012
0
LINE
8
BLACK
6
CONTINUOUS
10
199.5278500000000008
20
-72.4847010000000012
11
199.7671499999999867
21
-72.4847010000000012
0
LINE
8
BLACK
6
CONTINUOUS
10
199.7671499999999867
20
-72.4847010000000012
11
200.0035039999999924
21
-72.5221360000000033
0
LINE
8
BLACK
6
CONTINUOUS
10
198.1724999999999852
20
-74.1210849999999937
11
198.208818999999977
21
-74.350397000000001
0
LINE
8
BLACK
6
CONTINUOUS
10
198.208818999999977
20
-74.350397000000001
11
198.2805639999999983
21
-74.571202999999997
0
LINE
8
BLACK
6
CONTINUOUS
10
198.2805639999999983
20
-74.571202999999997
11
198.3859669999999937
21
-74.7780679999999904
0
LINE
8
BLACK
6
CONTINUOUS
10
198.3859669999999937
20
-74.7780679999999904
11
198.5224329999999782
21
-74.9658979999999957
0
LINE
8
BLACK
6
CONTINUOUS
10
198.5224329999999782
20
-74.9658979999999957
11
198.6866019999999935
21
-75.1300669999999968
0
LINE
8
BLACK
6
CONTINUOUS
10
198.6866019999999935
20
-75.1300669999999968
11
198.8744319999999846
21
-75.2665329999999955
0
LINE
8
BLACK
6
CONTINUOUS
10
198.8744319999999846
20
-75.2665329999999955
11
199.081296999999978
21
-75.3719359999999909
0
LINE
8
BLACK
6
CONTINUOUS
10
199.081296999999978
20
-75.3719359999999909
11
199.3021029999999882
21
-75.443680999999998
0
LINE
8
BLACK
6
CONTINUOUS
10
199.3021029999999882
20
-75.443680999999998
11
199.5314149999999813
21
-75.4799999999999898
0
LINE
8
BLACK
6
CONTINUOUS
10
199.5314149999999813
20
-75.4799999999999898
11
199.7635849999999778
21
-75.4799999999999898
0
LINE
8
BLACK
6
CONTINUOUS
10
199.7635849999999778
20
-75.4799999999999898
11
199.9928969999999993
21
-75.443680999999998
0
LINE
8
BLACK
6
CONTINUOUS
10
199.9928969999999993
20
-75.443680999999998
11
200.2137029999999811
21
-75.3719359999999909
0
LINE
8
BLACK
6
CONTINUOUS
10
200.2137029999999811
20
-75.3719359999999909
11
200.4205680000000029
21
-75.2665329999999955
0
LINE
8
BLACK
6
CONTINUOUS
10
200.4205680000000029
20
-75.2665329999999955
11
200.608397999999994
21
-75.1300669999999968
0
LINE
8
BLACK
6
CONTINUOUS
10
200.608397999999994
20
-75.1300669999999968
11
200.7725669999999809
21
-74.9658979999999957
0
LINE
8
BLACK
6
CONTINUOUS
10
200.7725669999999809
20
-74.9658979999999957
11
200.9090329999999938
21
-74.7780679999999904
0
LINE
8
BLACK
6
CONTINUOUS
10
200.9090329999999938
20
-74.7780679999999904
11
201.0144359999999892
21
-74.571202999999997
0
LINE
8
BLACK
6
CONTINUOUS
10
201.0144359999999892
20
-74.571202999999997
11
201.0861809999999821
21
-74.350397000000001
0
LINE
8
BLACK
6
CONTINUOUS
10
201.0861809999999821
20
-74.350397000000001
11
201.1225000000000023
21
-74.1210849999999937
0
LINE
8
BLACK
6
CONTINUOUS
10
201.1225000000000023
20
-74.1210849999999937
11
201.1225000000000023
21
-73.8889149999999972
0
LINE
8
BLACK
6
CONTINUOUS
10
201.1225000000000023
20
-73.8889149999999972
11
201.0861809999999821
21
-73.6596029999999899
0
LINE
8
BLACK
6
CONTINUOUS
10
201.0861809999999821
20
-73.6596029999999899
11
201.0144359999999892
21
-73.4387969999999939
0
LINE
8
BLACK
6
CONTINUOUS
10
201.0144359999999892
20
-73.4387969999999939
11
200.9090329999999938
21
-73.2319320000000005
0
LINE
8
BLACK
6
CONTINUOUS
10
200.9090329999999938
20
-73.2319320000000005
11
200.7725669999999809
21
-73.0441019999999952
0
LINE
8
BLACK
6
CONTINUOUS
10
200.7725669999999809
20
-73.0441019999999952
11
200.608397999999994
21
-72.8799329999999941
0
LINE
8
BLACK
6
CONTINUOUS
10
200.608397999999994
20
-72.8799329999999941
11
200.4205680000000029
21
-72.7434669999999954
0
LINE
8
BLACK
6
CONTINUOUS
10
200.4205680000000029
20
-72.7434669999999954
11
200.2137029999999811
21
-72.638064
0
LINE
8
BLACK
6
CONTINUOUS
10
200.2137029999999811
20
-72.638064
11
199.9928969999999993
21
-72.5663189999999929
0
LINE
8
BLACK
6
CONTINUOUS
10
199.9928969999999993
20
-72.5663189999999929
11
199.7635849999999778
21
-72.5300000000000011
0
LINE
8
BLACK
6
CONTINUOUS
10
199.7635849999999778
20
-72.5300000000000011
11
199.5314149999999813
21
-72.5300000000000011
0
LINE
8
BLACK
6
CONTINUOUS
10
199.5314149999999813
20
-72.5300000000000011
11
199.3021029999999882
21
-72.5663189999999929
0
LINE
8
BLACK
6
CONTINUOUS
10
199.3021029999999882
20
-72.5663189999999929
11
199.081296999999978
21
-72.638064
0
LINE
8
BLACK
6
CONTINUOUS
10
199.081296999999978
20
-72.638064
11
198.8744319999999846
21
-72.7434669999999954
0
LINE
8
BLACK
6
CONTINUOUS
10
198.8744319999999846
20
-72.7434669999999954
11
198.6866019999999935
21
-72.8799329999999941
0
LINE
8
BLACK
6
CONTINUOUS
10
198.6866019999999935
20
-72.8799329999999941
11
198.5224329999999782
21
-73.0441019999999952
0
LINE
8
BLACK
6
CONTINUOUS
10
198.5224329999999782
20
-73.0441019999999952
11
198.3859669999999937
21
-73.2319320000000005
0
LINE
8
BLACK
6
CONTINUOUS
10
198.3859669999999937
20
-73.2319320000000005
11
198.2805639999999983
21
-73.4387969999999939
0
LINE
8
BLACK
6
CONTINUOUS
10
198.2805639999999983
20
-73.4387969999999939
11
198.208818999999977
21
-73.6596029999999899
0
LINE
8
BLACK
6
CONTINUOUS
10
198.208818999999977
20
-73.6596029999999899
11
198.1724999999999852
21
-73.8889149999999972
0
LINE
8
BLACK
6
CONTINUOUS
10
198.1724999999999852
20
-73.8889149999999972
11
198.1724999999999852
21
-74.1210849999999937
0
LINE
8
BLACK
6
CONTINUOUS
10
170.8318239999999832
20
-66.7186820000000012
11
171.0407569999999851
21
-66.7865690000000001
0
LINE
8
BLACK
6
CONTINUOUS
10
171.0407569999999851
20
-66.7865690000000001
11
171.2364979999999832
21
-66.8863039999999955
0
LINE
8
BLACK
6
CONTINUOUS
10
171.2364979999999832
20
-66.8863039999999955
11
171.4142269999999826
21
-67.0154319999999899
0
LINE
8
BLACK
6
CONTINUOUS
10
171.4142269999999826
20
-67.0154319999999899
11
171.5695680000000038
21
-67.170772999999997
0
LINE
8
BLACK
6
CONTINUOUS
10
171.5695680000000038
20
-67.170772999999997
11
171.698695999999984
21
-67.3485019999999963
0
LINE
8
BLACK
6
CONTINUOUS
10
171.698695999999984
20
-67.3485019999999963
11
171.7984309999999937
21
-67.5442429999999945
0
LINE
8
BLACK
6
CONTINUOUS
10
171.7984309999999937
20
-67.5442429999999945
11
171.8663179999999784
21
-67.7531759999999963
0
LINE
8
BLACK
6
CONTINUOUS
10
171.8663179999999784
20
-67.7531759999999963
11
171.9006839999999841
21
-67.9701570000000004
0
LINE
8
BLACK
6
CONTINUOUS
10
171.9006839999999841
20
-67.9701570000000004
11
171.9006839999999841
21
-68.1898429999999962
0
LINE
8
BLACK
6
CONTINUOUS
10
171.9006839999999841
20
-68.1898429999999962
11
171.8663179999999784
21
-68.4068240000000003
0
LINE
8
BLACK
6
CONTINUOUS
10
171.8663179999999784
20
-68.4068240000000003
11
171.7984309999999937
21
-68.6157570000000021
0
LINE
8
BLACK
6
CONTINUOUS
10
171.7984309999999937
20
-68.6157570000000021
11
171.698695999999984
21
-68.8114980000000003
0
LINE
8
BLACK
6
CONTINUOUS
10
171.698695999999984
20
-68.8114980000000003
11
171.5695680000000038
21
-68.9892269999999996
0
LINE
8
BLACK
6
CONTINUOUS
10
171.5695680000000038
20
-68.9892269999999996
11
171.4142269999999826
21
-69.1445679999999925
0
LINE
8
BLACK
6
CONTINUOUS
10
171.4142269999999826
20
-69.1445679999999925
11
171.2364979999999832
21
-69.273696000000001
0
LINE
8
BLACK
6
CONTINUOUS
10
171.2364979999999832
20
-69.273696000000001
11
171.0407569999999851
21
-69.3734309999999965
0
LINE
8
BLACK
6
CONTINUOUS
10
171.0407569999999851
20
-69.3734309999999965
11
170.8318239999999832
21
-69.4413179999999954
0
LINE
8
BLACK
6
CONTINUOUS
10
170.8318239999999832
20
-69.4413179999999954
11
170.6148429999999792
21
-69.4756840000000011
0
LINE
8
BLACK
6
CONTINUOUS
10
170.6148429999999792
20
-69.4756840000000011
11
170.3951569999999833
21
-69.4756840000000011
0
LINE
8
BLACK
6
CONTINUOUS
10
170.3951569999999833
20
-69.4756840000000011
11
170.1781759999999792
21
-69.4413179999999954
0
LINE
8
BLACK
6
CONTINUOUS
10
170.1781759999999792
20
-69.4413179999999954
11
169.9692430000000058
21
-69.3734309999999965
0
LINE
8
BLACK
6
CONTINUOUS
10
169.9692430000000058
20
-69.3734309999999965
11
169.7735019999999793
21
-69.273696000000001
0
LINE
8
BLACK
6
CONTINUOUS
10
169.7735019999999793
20
-69.273696000000001
11
169.5957729999999799
21
-69.1445679999999925
0
LINE
8
BLACK
6
CONTINUOUS
10
169.5957729999999799
20
-69.1445679999999925
11
169.4404319999999871
21
-68.9892269999999996
0
LINE
8
BLACK
6
CONTINUOUS
10
169.4404319999999871
20
-68.9892269999999996
11
169.3113039999999785
21
-68.8114980000000003
0
LINE
8
BLACK
6
CONTINUOUS
10
169.3113039999999785
20
-68.8114980000000003
11
169.2115689999999972
21
-68.6157570000000021
0
LINE
8
BLACK
6
CONTINUOUS
10
169.2115689999999972
20
-68.6157570000000021
11
169.1436819999999841
21
-68.4068240000000003
0
LINE
8
BLACK
6
CONTINUOUS
10
169.1436819999999841
20
-68.4068240000000003
11
169.1093159999999784
21
-68.1898429999999962
0
LINE
8
BLACK
6
CONTINUOUS
10
169.1093159999999784
20
-68.1898429999999962
11
169.1093159999999784
21
-67.9737530000000021
0
LINE
8
BLACK
6
CONTINUOUS
10
169.1093159999999784
20
-67.9737530000000021
11
169.1093159999999784
21
-67.9701570000000004
0
LINE
8
BLACK
6
CONTINUOUS
10
169.1093159999999784
20
-67.9701570000000004
11
169.1436819999999841
21
-67.7531759999999963
0
LINE
8
BLACK
6
CONTINUOUS
10
169.1436819999999841
20
-67.7531759999999963
11
169.2115689999999972
21
-67.5442429999999945
0
LINE
8
BLACK
6
CONTINUOUS
10
169.2115689999999972
20
-67.5442429999999945
11
169.3113039999999785
21
-67.3485019999999963
0
LINE
8
BLACK
6
CONTINUOUS
10
169.3113039999999785
20
-67.3485019999999963
11
169.4404319999999871
21
-67.170772999999997
0
LINE
8
BLACK
6
CONTINUOUS
10
169.4404319999999871
20
-67.170772999999997
11
169.5957729999999799
21
-67.0154319999999899
0
LINE
8
BLACK
6
CONTINUOUS
10
169.5957729999999799
20
-67.0154319999999899
11
169.7735019999999793
21
-66.8863039999999955
0
LINE
8
BLACK
6
CONTINUOUS
10
169.7735019999999793
20
-66.8863039999999955
11
169.9692430000000058
21
-66.7865690000000001
0
LINE
8
BLACK
6
CONTINUOUS
10
169.9692430000000058
20
-66.7865690000000001
11
170.1781759999999792
21
-66.7186820000000012
0
LINE
8
BLACK
6
CONTINUOUS
10
170.1781759999999792
20
-66.7186820000000012
11
170.3951569999999833
21
-66.6843159999999955
0
LINE
8
BLACK
6
CONTINUOUS
10
170.3951569999999833
20
-66.6843159999999955
11
170.6148429999999792
21
-66.6843159999999955
0
LINE
8
BLACK
6
CONTINUOUS
10
170.6148429999999792
20
-66.6843159999999955
11
170.8318239999999832
21
-66.7186820000000012
0
LINE
8
BLACK
6
CONTINUOUS
10
169.1550000000000011
20
-68.1862469999999945
11
169.1882420000000025
21
-68.3961259999999953
0
LINE
8
BLACK
6
CONTINUOUS
10
169.1882420000000025
20
-68.3961259999999953
11
169.2539060000000006
21
-68.5982199999999978
0
LINE
8
BLACK
6
CONTINUOUS
10
169.2539060000000006
20
-68.5982199999999978
11
169.3503769999999804
21
-68.7875540000000001
0
LINE
8
BLACK
6
CONTINUOUS
10
169.3503769999999804
20
-68.7875540000000001
11
169.475278000000003
21
-68.9594659999999919
0
LINE
8
BLACK
6
CONTINUOUS
10
169.475278000000003
20
-68.9594659999999919
11
169.6255339999999876
21
-69.1097219999999908
0
LINE
8
BLACK
6
CONTINUOUS
10
169.6255339999999876
20
-69.1097219999999908
11
169.7974459999999794
21
-69.2346229999999991
0
LINE
8
BLACK
6
CONTINUOUS
10
169.7974459999999794
20
-69.2346229999999991
11
169.9867799999999818
21
-69.3310939999999931
0
LINE
8
BLACK
6
CONTINUOUS
10
169.9867799999999818
20
-69.3310939999999931
11
170.1888739999999984
21
-69.3967579999999913
0
LINE
8
BLACK
6
CONTINUOUS
10
170.1888739999999984
20
-69.3967579999999913
11
170.3987529999999992
21
-69.4299999999999926
0
LINE
8
BLACK
6
CONTINUOUS
10
170.3987529999999992
20
-69.4299999999999926
11
170.6112469999999917
21
-69.4299999999999926
0
LINE
8
BLACK
6
CONTINUOUS
10
170.6112469999999917
20
-69.4299999999999926
11
170.8211259999999925
21
-69.3967579999999913
0
LINE
8
BLACK
6
CONTINUOUS
10
170.8211259999999925
20
-69.3967579999999913
11
171.0232199999999807
21
-69.3310939999999931
0
LINE
8
BLACK
6
CONTINUOUS
10
171.0232199999999807
20
-69.3310939999999931
11
171.212553999999983
21
-69.2346229999999991
0
LINE
8
BLACK
6
CONTINUOUS
10
171.212553999999983
20
-69.2346229999999991
11
171.3844660000000033
21
-69.1097219999999908
0
LINE
8
BLACK
6
CONTINUOUS
10
171.3844660000000033
20
-69.1097219999999908
11
171.5347219999999879
21
-68.9594659999999919
0
LINE
8
BLACK
6
CONTINUOUS
10
171.5347219999999879
20
-68.9594659999999919
11
171.6596229999999821
21
-68.7875540000000001
0
LINE
8
BLACK
6
CONTINUOUS
10
171.6596229999999821
20
-68.7875540000000001
11
171.7560939999999903
21
-68.5982199999999978
0
LINE
8
BLACK
6
CONTINUOUS
10
171.7560939999999903
20
-68.5982199999999978
11
171.8217579999999884
21
-68.3961259999999953
0
LINE
8
BLACK
6
CONTINUOUS
10
171.8217579999999884
20
-68.3961259999999953
11
171.8549999999999898
21
-68.1862469999999945
0
LINE
8
BLACK
6
CONTINUOUS
10
171.8549999999999898
20
-68.1862469999999945
11
171.8549999999999898
21
-67.9737530000000021
0
LINE
8
BLACK
6
CONTINUOUS
10
171.8549999999999898
20
-67.9737530000000021
11
171.8217579999999884
21
-67.7638740000000013
0
LINE
8
BLACK
6
CONTINUOUS
10
171.8217579999999884
20
-67.7638740000000013
11
171.7560939999999903
21
-67.5617799999999988
0
LINE
8
BLACK
6
CONTINUOUS
10
171.7560939999999903
20
-67.5617799999999988
11
171.6596229999999821
21
-67.3724459999999965
0
LINE
8
BLACK
6
CONTINUOUS
10
171.6596229999999821
20
-67.3724459999999965
11
171.5347219999999879
21
-67.2005339999999904
0
LINE
8
BLACK
6
CONTINUOUS
10
171.5347219999999879
20
-67.2005339999999904
11
171.3844660000000033
21
-67.0502779999999916
0
LINE
8
BLACK
6
CONTINUOUS
10
171.3844660000000033
20
-67.0502779999999916
11
171.212553999999983
21
-66.9253769999999975
0
LINE
8
BLACK
6
CONTINUOUS
10
171.212553999999983
20
-66.9253769999999975
11
171.0232199999999807
21
-66.8289060000000035
0
LINE
8
BLACK
6
CONTINUOUS
10
171.0232199999999807
20
-66.8289060000000035
11
170.8211259999999925
21
-66.7632419999999911
0
LINE
8
BLACK
6
CONTINUOUS
10
170.8211259999999925
20
-66.7632419999999911
11
170.6112469999999917
21
-66.730000000000004
0
LINE
8
BLACK
6
CONTINUOUS
10
170.6112469999999917
20
-66.730000000000004
11
170.3987529999999992
21
-66.730000000000004
0
LINE
8
BLACK
6
CONTINUOUS
10
170.3987529999999992
20
-66.730000000000004
11
170.1888739999999984
21
-66.7632419999999911
0
LINE
8
BLACK
6
CONTINUOUS
10
170.1888739999999984
20
-66.7632419999999911
11
169.9867799999999818
21
-66.8289060000000035
0
LINE
8
BLACK
6
CONTINUOUS
10
169.9867799999999818
20
-66.8289060000000035
11
169.7974459999999794
21
-66.9253769999999975
0
LINE
8
BLACK
6
CONTINUOUS
10
169.7974459999999794
20
-66.9253769999999975
11
169.6255339999999876
21
-67.0502779999999916
0
LINE
8
BLACK
6
CONTINUOUS
10
169.6255339999999876
20
-67.0502779999999916
11
169.475278000000003
21
-67.2005339999999904
0
LINE
8
BLACK
6
CONTINUOUS
10
169.475278000000003
20
-67.2005339999999904
11
169.3503769999999804
21
-67.3724459999999965
0
LINE
8
BLACK
6
CONTINUOUS
10
169.3503769999999804
20
-67.3724459999999965
11
169.2539060000000006
21
-67.5617799999999988
0
LINE
8
BLACK
6
CONTINUOUS
10
169.2539060000000006
20
-67.5617799999999988
11
169.1882420000000025
21
-67.7638740000000013
0
LINE
8
BLACK
6
CONTINUOUS
10
169.1882420000000025
20
-67.7638740000000013
11
169.1550000000000011
21
-67.9737530000000021
0
LINE
8
BLACK
6
CONTINUOUS
10
169.1550000000000011
20
-67.9737530000000021
11
169.1550000000000011
21
-68.1862469999999945
0
LINE
8
BLACK
6
CONTINUOUS
10
231.3718240000000037
20
-66.7186820000000012
11
231.5807569999999771
21
-66.7865690000000001
0
LINE
8
BLACK
6
CONTINUOUS
10
231.5807569999999771
20
-66.7865690000000001
11
231.7764980000000037
21
-66.8863039999999955
0
LINE
8
BLACK
6
CONTINUOUS
10
231.7764980000000037
20
-66.8863039999999955
11
231.954227000000003
21
-67.0154319999999899
0
LINE
8
BLACK
6
CONTINUOUS
10
231.954227000000003
20
-67.0154319999999899
11
232.1095679999999959
21
-67.170772999999997
0
LINE
8
BLACK
6
CONTINUOUS
10
232.1095679999999959
20
-67.170772999999997
11
232.238695999999976
21
-67.3485019999999963
0
LINE
8
BLACK
6
CONTINUOUS
10
232.238695999999976
20
-67.3485019999999963
11
232.3384309999999857
21
-67.5442429999999945
0
LINE
8
BLACK
6
CONTINUOUS
10
232.3384309999999857
20
-67.5442429999999945
11
232.4063179999999988
21
-67.7531759999999963
0
LINE
8
BLACK
6
CONTINUOUS
10
232.4063179999999988
20
-67.7531759999999963
11
232.4406839999999761
21
-67.9701570000000004
0
LINE
8
BLACK
6
CONTINUOUS
10
232.4406839999999761
20
-67.9701570000000004
11
232.4406839999999761
21
-68.1898429999999962
0
LINE
8
BLACK
6
CONTINUOUS
10
232.4406839999999761
20
-68.1898429999999962
11
232.4063179999999988
21
-68.4068240000000003
0
LINE
8
BLACK
6
CONTINUOUS
10
232.4063179999999988
20
-68.4068240000000003
11
232.3384309999999857
21
-68.6157570000000021
0
LINE
8
BLACK
6
CONTINUOUS
10
232.3384309999999857
20
-68.6157570000000021
11
232.238695999999976
21
-68.8114980000000003
0
LINE
8
BLACK
6
CONTINUOUS
10
232.238695999999976
20
-68.8114980000000003
11
232.1095679999999959
21
-68.9892269999999996
0
LINE
8
BLACK
6
CONTINUOUS
10
232.1095679999999959
20
-68.9892269999999996
11
231.954227000000003
21
-69.1445679999999925
0
LINE
8
BLACK
6
CONTINUOUS
10
231.954227000000003
20
-69.1445679999999925
11
231.7764980000000037
21
-69.273696000000001
0
LINE
8
BLACK
6
CONTINUOUS
10
231.7764980000000037
20
-69.273696000000001
11
231.5807569999999771
21
-69.3734309999999965
0
LINE
8
BLACK
6
CONTINUOUS
10
231.5807569999999771
20
-69.3734309999999965
11
231.3718240000000037
21
-69.4413179999999954
0
LINE
8
BLACK
6
CONTINUOUS
10
231.3718240000000037
20
-69.4413179999999954
11
231.1548429999999996
21
-69.4756840000000011
0
LINE
8
BLACK
6
CONTINUOUS
10
231.1548429999999996
20
-69.4756840000000011
11
230.9351569999999754
21
-69.4756840000000011
0
LINE
8
BLACK
6
CONTINUOUS
10
230.9351569999999754
20
-69.4756840000000011
11
230.7181759999999997
21
-69.4413179999999954
0
LINE
8
BLACK
6
CONTINUOUS
10
230.7181759999999997
20
-69.4413179999999954
11
230.5092429999999979
21
-69.3734309999999965
0
LINE
8
BLACK
6
CONTINUOUS
10
230.5092429999999979
20
-69.3734309999999965
11
230.3135019999999997
21
-69.273696000000001
0
LINE
8
BLACK
6
CONTINUOUS
10
230.3135019999999997
20
-69.273696000000001
11
230.1357730000000004
21
-69.1445679999999925
0
LINE
8
BLACK
6
CONTINUOUS
10
230.1357730000000004
20
-69.1445679999999925
11
229.9804319999999791
21
-68.9892269999999996
0
LINE
8
BLACK
6
CONTINUOUS
10
229.9804319999999791
20
-68.9892269999999996
11
229.851303999999999
21
-68.8114980000000003
0
LINE
8
BLACK
6
CONTINUOUS
10
229.851303999999999
20
-68.8114980000000003
11
229.7515689999999893
21
-68.6157570000000021
0
LINE
8
BLACK
6
CONTINUOUS
10
229.7515689999999893
20
-68.6157570000000021
11
229.6836819999999761
21
-68.4068240000000003
0
LINE
8
BLACK
6
CONTINUOUS
10
229.6836819999999761
20
-68.4068240000000003
11
229.6493159999999989
21
-68.1898429999999962
0
LINE
8
BLACK
6
CONTINUOUS
10
229.6493159999999989
20
-68.1898429999999962
11
229.6493159999999989
21
-67.9737530000000021
0
LINE
8
BLACK
6
CONTINUOUS
10
229.6493159999999989
20
-67.9737530000000021
11
229.6493159999999989
21
-67.9701570000000004
0
LINE
8
BLACK
6
CONTINUOUS
10
229.6493159999999989
20
-67.9701570000000004
11
229.6836819999999761
21
-67.7531759999999963
0
LINE
8
BLACK
6
CONTINUOUS
10
229.6836819999999761
20
-67.7531759999999963
11
229.7515689999999893
21
-67.5442429999999945
0
LINE
8
BLACK
6
CONTINUOUS
10
229.7515689999999893
20
-67.5442429999999945
11
229.851303999999999
21
-67.3485019999999963
0
LINE
8
BLACK
6
CONTINUOUS
10
229.851303999999999
20
-67.3485019999999963
11
229.9804319999999791
21
-67.170772999999997
0
LINE
8
BLACK
6
CONTINUOUS
10
229.9804319999999791
20
-67.170772999999997
11
230.1357730000000004
21
-67.0154319999999899
0
LINE
8
BLACK
6
CONTINUOUS
10
230.1357730000000004
20
-67.0154319999999899
11
230.3135019999999997
21
-66.8863039999999955
0
LINE
8
BLACK
6
CONTINUOUS
10
230.3135019999999997
20
-66.8863039999999955
11
230.5092429999999979
21
-66.7865690000000001
0
LINE
8
BLACK
6
CONTINUOUS
10
230.5092429999999979
20
-66.7865690000000001
11
230.7181759999999997
21
-66.7186820000000012
0
LINE
8
BLACK
6
CONTINUOUS
10
230.7181759999999997
20
-66.7186820000000012
11
230.9351569999999754
21
-66.6843159999999955
0
LINE
8
BLACK
6
CONTINUOUS
10
230.9351569999999754
20
-66.6843159999999955
11
231.1548429999999996
21
-66.6843159999999955
0
LINE
8
BLACK
6
CONTINUOUS
10
231.1548429999999996
20
-66.6843159999999955
11
231.3718240000000037
21
-66.7186820000000012
0
LINE
8
BLACK
6
CONTINUOUS
10
229.6949999999999932
20
-68.1862469999999945
11
229.7282419999999945
21
-68.3961259999999953
0
LINE
8
BLACK
6
CONTINUOUS
10
229.7282419999999945
20
-68.3961259999999953
11
229.7939059999999927
21
-68.5982199999999978
0
LINE
8
BLACK
6
CONTINUOUS
10
229.7939059999999927
20
-68.5982199999999978
11
229.8903770000000009
21
-68.7875540000000001
0
LINE
8
BLACK
6
CONTINUOUS
10
229.8903770000000009
20
-68.7875540000000001
11
230.015277999999995
21
-68.9594659999999919
0
LINE
8
BLACK
6
CONTINUOUS
10
230.015277999999995
20
-68.9594659999999919
11
230.1655339999999796
21
-69.1097219999999908
0
LINE
8
BLACK
6
CONTINUOUS
10
230.1655339999999796
20
-69.1097219999999908
11
230.3374459999999999
21
-69.2346229999999991
0
LINE
8
BLACK
6
CONTINUOUS
10
230.3374459999999999
20
-69.2346229999999991
11
230.5267800000000022
21
-69.3310939999999931
0
LINE
8
BLACK
6
CONTINUOUS
10
230.5267800000000022
20
-69.3310939999999931
11
230.7288739999999905
21
-69.3967579999999913
0
LINE
8
BLACK
6
CONTINUOUS
10
230.7288739999999905
20
-69.3967579999999913
11
230.9387529999999913
21
-69.4299999999999926
0
LINE
8
BLACK
6
CONTINUOUS
10
230.9387529999999913
20
-69.4299999999999926
11
231.1512469999999837
21
-69.4299999999999926
0
LINE
8
BLACK
6
CONTINUOUS
10
231.1512469999999837
20
-69.4299999999999926
11
231.3611259999999845
21
-69.3967579999999913
0
LINE
8
BLACK
6
CONTINUOUS
10
231.3611259999999845
20
-69.3967579999999913
11
231.5632200000000012
21
-69.3310939999999931
0
LINE
8
BLACK
6
CONTINUOUS
10
231.5632200000000012
20
-69.3310939999999931
11
231.7525540000000035
21
-69.2346229999999991
0
LINE
8
BLACK
6
CONTINUOUS
10
231.7525540000000035
20
-69.2346229999999991
11
231.9244659999999953
21
-69.1097219999999908
0
LINE
8
BLACK
6
CONTINUOUS
10
231.9244659999999953
20
-69.1097219999999908
11
232.07472199999998
21
-68.9594659999999919
0
LINE
8
BLACK
6
CONTINUOUS
10
232.07472199999998
20
-68.9594659999999919
11
232.1996230000000025
21
-68.7875540000000001
0
LINE
8
BLACK
6
CONTINUOUS
10
232.1996230000000025
20
-68.7875540000000001
11
232.2960939999999823
21
-68.5982199999999978
0
LINE
8
BLACK
6
CONTINUOUS
10
232.2960939999999823
20
-68.5982199999999978
11
232.3617579999999805
21
-68.3961259999999953
0
LINE
8
BLACK
6
CONTINUOUS
10
232.3617579999999805
20
-68.3961259999999953
11
232.3949999999999818
21
-68.1862469999999945
0
LINE
8
BLACK
6
CONTINUOUS
10
232.3949999999999818
20
-68.1862469999999945
11
232.3949999999999818
21
-67.9737530000000021
0
LINE
8
BLACK
6
CONTINUOUS
10
232.3949999999999818
20
-67.9737530000000021
11
232.3617579999999805
21
-67.7638740000000013
0
LINE
8
BLACK
6
CONTINUOUS
10
232.3617579999999805
20
-67.7638740000000013
11
232.2960939999999823
21
-67.5617799999999988
0
LINE
8
BLACK
6
CONTINUOUS
10
232.2960939999999823
20
-67.5617799999999988
11
232.1996230000000025
21
-67.3724459999999965
0
LINE
8
BLACK
6
CONTINUOUS
10
232.1996230000000025
20
-67.3724459999999965
11
232.07472199999998
21
-67.2005339999999904
0
LINE
8
BLACK
6
CONTINUOUS
10
232.07472199999998
20
-67.2005339999999904
11
231.9244659999999953
21
-67.0502779999999916
0
LINE
8
BLACK
6
CONTINUOUS
10
231.9244659999999953
20
-67.0502779999999916
11
231.7525540000000035
21
-66.9253769999999975
0
LINE
8
BLACK
6
CONTINUOUS
10
231.7525540000000035
20
-66.9253769999999975
11
231.5632200000000012
21
-66.8289060000000035
0
LINE
8
BLACK
6
CONTINUOUS
10
231.5632200000000012
20
-66.8289060000000035
11
231.3611259999999845
21
-66.7632419999999911
0
LINE
8
BLACK
6
CONTINUOUS
10
231.3611259999999845
20
-66.7632419999999911
11
231.1512469999999837
21
-66.730000000000004
0
LINE
8
BLACK
6
CONTINUOUS
10
231.1512469999999837
20
-66.730000000000004
11
230.9387529999999913
21
-66.730000000000004
0
LINE
8
BLACK
6
CONTINUOUS
10
230.9387529999999913
20
-66.730000000000004
11
230.7288739999999905
21
-66.7632419999999911
0
LINE
8
BLACK
6
CONTINUOUS
10
230.7288739999999905
20
-66.7632419999999911
11
230.5267800000000022
21
-66.8289060000000035
0
LINE
8
BLACK
6
CONTINUOUS
10
230.5267800000000022
20
-66.8289060000000035
11
230.3374459999999999
21
-66.9253769999999975
0
LINE
8
BLACK
6
CONTINUOUS
10
230.3374459999999999
20
-66.9253769999999975
11
230.1655339999999796
21
-67.0502779999999916
0
LINE
8
BLACK
6
CONTINUOUS
10
230.1655339999999796
20
-67.0502779999999916
11
230.015277999999995
21
-67.2005339999999904
0
LINE
8
BLACK
6
CONTINUOUS
10
230.015277999999995
20
-67.2005339999999904
11
229.8903770000000009
21
-67.3724459999999965
0
LINE
8
BLACK
6
CONTINUOUS
10
229.8903770000000009
20
-67.3724459999999965
11
229.7939059999999927
21
-67.5617799999999988
0
LINE
8
BLACK
6
CONTINUOUS
10
229.7939059999999927
20
-67.5617799999999988
11
229.7282419999999945
21
-67.7638740000000013
0
LINE
8
BLACK
6
CONTINUOUS
10
229.7282419999999945
20
-67.7638740000000013
11
229.6949999999999932
21
-67.9737530000000021
0
LINE
8
BLACK
6
CONTINUOUS
10
229.6949999999999932
20
-67.9737530000000021
11
229.6949999999999932
21
-68.1862469999999945
0
LINE
8
BLACK
6
CONTINUOUS
10
234.7999039999999979
20
-65.6251740000000012
11
234.7999159999999961
21
-65.6251759999999962
0
LINE
8
BLACK
6
CONTINUOUS
10
234.7999159999999961
20
-65.6251759999999962
11
235.0268669999999815
21
-65.6414060000000035
0
LINE
8
BLACK
6
CONTINUOUS
10
235.0268669999999815
20
-65.6414060000000035
11
235.2492309999999804
21
-65.6897759999999948
0
LINE
8
BLACK
6
CONTINUOUS
10
235.2492309999999804
20
-65.6897759999999948
11
235.4624489999999923
21
-65.7693009999999987
0
LINE
8
BLACK
6
CONTINUOUS
10
235.4624489999999923
20
-65.7693009999999987
11
235.6621779999999831
21
-65.8783600000000007
0
LINE
8
BLACK
6
CONTINUOUS
10
235.6621779999999831
20
-65.8783600000000007
11
235.8443529999999839
21
-66.01473399999999
0
LINE
8
BLACK
6
CONTINUOUS
10
235.8443529999999839
20
-66.01473399999999
11
236.0052659999999776
21
-66.1756469999999979
0
LINE
8
BLACK
6
CONTINUOUS
10
236.0052659999999776
20
-66.1756469999999979
11
236.1416399999999953
21
-66.3578219999999988
0
LINE
8
BLACK
6
CONTINUOUS
10
236.1416399999999953
20
-66.3578219999999988
11
236.2506989999999973
21
-66.5575510000000037
0
LINE
8
BLACK
6
CONTINUOUS
10
236.2506989999999973
20
-66.5575510000000037
11
236.330223999999987
21
-66.7707690000000014
0
LINE
8
BLACK
6
CONTINUOUS
10
236.330223999999987
20
-66.7707690000000014
11
236.3785939999999925
21
-66.9931330000000003
0
LINE
8
BLACK
6
CONTINUOUS
10
236.3785939999999925
20
-66.9931330000000003
11
236.3948230000000024
21
-67.2200890000000015
0
LINE
8
BLACK
6
CONTINUOUS
10
236.3948230000000024
20
-67.2200890000000015
11
236.3948259999999948
21
-67.2201000000000022
0
LINE
8
BLACK
6
CONTINUOUS
10
236.3948259999999948
20
-67.2201000000000022
11
236.3948259999999948
21
-98.3798819999999949
0
LINE
8
BLACK
6
CONTINUOUS
10
236.3948259999999948
20
-98.3798819999999949
11
236.3786959999999908
21
-98.6054439999999914
0
LINE
8
BLACK
6
CONTINUOUS
10
236.3786959999999908
20
-98.6054439999999914
11
236.3306289999999876
21
-98.8264139999999998
0
LINE
8
BLACK
6
CONTINUOUS
10
236.3306289999999876
20
-98.8264139999999998
11
236.2516029999999887
21
-99.0382939999999934
0
LINE
8
BLACK
6
CONTINUOUS
10
236.2516029999999887
20
-99.0382939999999934
11
236.143226999999996
21
-99.2367709999999903
0
LINE
8
BLACK
6
CONTINUOUS
10
236.143226999999996
20
-99.2367709999999903
11
236.0077079999999796
21
-99.4178050000000013
0
LINE
8
BLACK
6
CONTINUOUS
10
236.0077079999999796
20
-99.4178050000000013
11
235.8478049999999939
21
-99.5777080000000012
0
LINE
8
BLACK
6
CONTINUOUS
10
235.8478049999999939
20
-99.5777080000000012
11
235.6667709999999829
21
-99.7132269999999892
0
LINE
8
BLACK
6
CONTINUOUS
10
235.6667709999999829
20
-99.7132269999999892
11
235.468293999999986
21
-99.8216029999999961
0
LINE
8
BLACK
6
CONTINUOUS
10
235.468293999999986
20
-99.8216029999999961
11
235.2564139999999782
21
-99.900628999999995
0
LINE
8
BLACK
6
CONTINUOUS
10
235.2564139999999782
20
-99.900628999999995
11
235.035443999999984
21
-99.9486959999999982
0
LINE
8
BLACK
6
CONTINUOUS
10
235.035443999999984
20
-99.9486959999999982
11
234.8099220000000003
21
-99.9648229999999955
0
LINE
8
BLACK
6
CONTINUOUS
10
234.8099220000000003
20
-99.9648229999999955
11
234.8099079999999788
21
-99.9648260000000022
0
LINE
8
BLACK
6
CONTINUOUS
10
234.8099079999999788
20
-99.9648260000000022
11
169.3201339999999959
21
-99.9847939999999937
0
LINE
8
BLACK
6
CONTINUOUS
10
169.3201339999999959
20
-99.9847939999999937
11
169.3200510000000065
21
-99.984776999999994
0
LINE
8
BLACK
6
CONTINUOUS
10
169.3200510000000065
20
-99.984776999999994
11
169.0922860000000014
21
-99.9698829999999958
0
LINE
8
BLACK
6
CONTINUOUS
10
169.0922860000000014
20
-99.9698829999999958
11
168.868756999999988
21
-99.922545999999997
0
LINE
8
BLACK
6
CONTINUOUS
10
168.868756999999988
20
-99.922545999999997
11
168.6542849999999873
21
-99.8437550000000016
0
LINE
8
BLACK
6
CONTINUOUS
10
168.6542849999999873
20
-99.8437550000000016
11
168.4532719999999983
21
-99.7351269999999914
0
LINE
8
BLACK
6
CONTINUOUS
10
168.4532719999999983
20
-99.7351269999999914
11
168.2698440000000062
21
-99.5988899999999973
0
LINE
8
BLACK
6
CONTINUOUS
10
168.2698440000000062
20
-99.5988899999999973
11
168.107765999999998
21
-99.4378419999999892
0
LINE
8
BLACK
6
CONTINUOUS
10
168.107765999999998
20
-99.4378419999999892
11
167.9703629999999919
21
-99.2552859999999981
0
LINE
8
BLACK
6
CONTINUOUS
10
167.9703629999999919
20
-99.2552859999999981
11
167.8604550000000017
21
-99.0549699999999973
0
LINE
8
BLACK
6
CONTINUOUS
10
167.8604550000000017
20
-99.0549699999999973
11
167.7802979999999877
21
-98.8410049999999956
0
LINE
8
BLACK
6
CONTINUOUS
10
167.7802979999999877
20
-98.8410049999999956
11
167.7315380000000005
21
-98.6177819999999912
0
LINE
8
BLACK
6
CONTINUOUS
10
167.7315380000000005
20
-98.6177819999999912
11
167.7151739999999904
21
-98.3898820000000001
0
LINE
8
BLACK
6
CONTINUOUS
10
167.7151739999999904
20
-98.3898820000000001
11
167.7151739999999904
21
-67.2101179999999943
0
LINE
8
BLACK
6
CONTINUOUS
10
167.7151739999999904
20
-67.2101179999999943
11
167.7314059999999927
21
-66.9831329999999951
0
LINE
8
BLACK
6
CONTINUOUS
10
167.7314059999999927
20
-66.9831329999999951
11
167.7797759999999982
21
-66.7607689999999963
0
LINE
8
BLACK
6
CONTINUOUS
10
167.7797759999999982
20
-66.7607689999999963
11
167.8593009999999879
21
-66.5475509999999986
0
LINE
8
BLACK
6
CONTINUOUS
10
167.8593009999999879
20
-66.5475509999999986
11
167.9683599999999899
21
-66.3478219999999936
0
LINE
8
BLACK
6
CONTINUOUS
10
167.9683599999999899
20
-66.3478219999999936
11
168.1047339999999792
21
-66.1656469999999928
0
LINE
8
BLACK
6
CONTINUOUS
10
168.1047339999999792
20
-66.1656469999999928
11
168.2656470000000013
21
-66.0047339999999991
0
LINE
8
BLACK
6
CONTINUOUS
10
168.2656470000000013
20
-66.0047339999999991
11
168.4478220000000022
21
-65.8683599999999956
0
LINE
8
BLACK
6
CONTINUOUS
10
168.4478220000000022
20
-65.8683599999999956
11
168.6475509999999929
21
-65.7593009999999936
0
LINE
8
BLACK
6
CONTINUOUS
10
168.6475509999999929
20
-65.7593009999999936
11
168.8607690000000048
21
-65.6797760000000039
0
LINE
8
BLACK
6
CONTINUOUS
10
168.8607690000000048
20
-65.6797760000000039
11
169.0831330000000037
21
-65.6314059999999984
0
LINE
8
BLACK
6
CONTINUOUS
10
169.0831330000000037
20
-65.6314059999999984
11
169.3101179999999886
21
-65.6151739999999961
0
LINE
8
BLACK
6
CONTINUOUS
10
169.3101179999999886
20
-65.6151739999999961
11
169.310118999999986
21
-65.6151739999999961
0
LINE
8
BLACK
6
CONTINUOUS
10
169.310118999999986
20
-65.6151739999999961
11
169.3101219999999785
21
-65.6151739999999961
0
LINE
8
BLACK
6
CONTINUOUS
10
169.3101219999999785
20
-65.6151739999999961
11
234.7999039999999979
21
-65.6251740000000012
0
LINE
8
BLACK
6
CONTINUOUS
10
168.980875999999995
20
-65.6966219999999907
11
168.7688339999999982
21
-65.7588810000000024
0
LINE
8
BLACK
6
CONTINUOUS
10
168.7688339999999982
20
-65.7588810000000024
11
168.5678099999999802
21
-65.8506840000000011
0
LINE
8
BLACK
6
CONTINUOUS
10
168.5678099999999802
20
-65.8506840000000011
11
168.3818979999999783
21
-65.970162000000002
0
LINE
8
BLACK
6
CONTINUOUS
10
168.3818979999999783
20
-65.970162000000002
11
168.2148819999999887
21
-66.1148819999999944
0
LINE
8
BLACK
6
CONTINUOUS
10
168.2148819999999887
20
-66.1148819999999944
11
168.0701619999999821
21
-66.2818979999999982
0
LINE
8
BLACK
6
CONTINUOUS
10
168.0701619999999821
20
-66.2818979999999982
11
167.9506839999999954
21
-66.4678100000000001
0
LINE
8
BLACK
6
CONTINUOUS
10
167.9506839999999954
20
-66.4678100000000001
11
167.8588809999999967
21
-66.6688340000000039
0
LINE
8
BLACK
6
CONTINUOUS
10
167.8588809999999967
20
-66.6688340000000039
11
167.7966219999999851
21
-66.8808760000000007
0
LINE
8
BLACK
6
CONTINUOUS
10
167.7966219999999851
20
-66.8808760000000007
11
167.7651730000000043
21
-67.0996209999999991
0
LINE
8
BLACK
6
CONTINUOUS
10
167.7651730000000043
20
-67.0996209999999991
11
167.7651740000000018
21
-67.2101179999999943
0
LINE
8
BLACK
6
CONTINUOUS
10
167.7651740000000018
20
-67.2101179999999943
11
167.7651740000000018
21
-98.3898820000000001
0
LINE
8
BLACK
6
CONTINUOUS
10
167.7651740000000018
20
-98.3898820000000001
11
167.7652049999999804
21
-98.500827000000001
0
LINE
8
BLACK
6
CONTINUOUS
10
167.7652049999999804
20
-98.500827000000001
11
167.7969089999999994
21
-98.7204389999999989
0
LINE
8
BLACK
6
CONTINUOUS
10
167.7969089999999994
20
-98.7204389999999989
11
167.8596670000000017
21
-98.9332679999999982
0
LINE
8
BLACK
6
CONTINUOUS
10
167.8596670000000017
20
-98.9332679999999982
11
167.9521929999999941
21
-99.1349459999999993
0
LINE
8
BLACK
6
CONTINUOUS
10
167.9521929999999941
20
-99.1349459999999993
11
168.0725869999999986
21
-99.3213319999999982
0
LINE
8
BLACK
6
CONTINUOUS
10
168.0725869999999986
20
-99.3213319999999982
11
168.2183789999999988
21
-99.4886029999999977
0
LINE
8
BLACK
6
CONTINUOUS
10
168.2183789999999988
20
-99.4886029999999977
11
168.3865759999999909
21
-99.6333259999999967
0
LINE
8
BLACK
6
CONTINUOUS
10
168.3865759999999909
20
-99.6333259999999967
11
168.5737259999999935
21
-99.7525289999999956
0
LINE
8
BLACK
6
CONTINUOUS
10
168.5737259999999935
20
-99.7525289999999956
11
168.7759889999999814
21
-99.8437669999999997
0
LINE
8
BLACK
6
CONTINUOUS
10
168.7759889999999814
20
-99.8437669999999997
11
168.989214000000004
21
-99.9051679999999891
0
LINE
8
BLACK
6
CONTINUOUS
10
168.989214000000004
20
-99.9051679999999891
11
169.2090239999999994
21
-99.9354699999999951
0
LINE
8
BLACK
6
CONTINUOUS
10
169.2090239999999994
20
-99.9354699999999951
11
169.3199659999999938
21
-99.9347939999999966
0
LINE
8
BLACK
6
CONTINUOUS
10
169.3199659999999938
20
-99.9347939999999966
11
169.3199659999999938
21
-99.934794999999994
0
LINE
8
BLACK
6
CONTINUOUS
10
169.3199659999999938
20
-99.934794999999994
11
169.3200219999999945
21
-99.9348129999999912
0
LINE
8
BLACK
6
CONTINUOUS
10
169.3200219999999945
20
-99.9348129999999912
11
169.3201179999999795
21
-99.9347939999999966
0
LINE
8
BLACK
6
CONTINUOUS
10
169.3201179999999795
20
-99.9347939999999966
11
234.8098809999999901
21
-99.9148259999999908
0
LINE
8
BLACK
6
CONTINUOUS
10
234.8098809999999901
20
-99.9148259999999908
11
234.8098819999999876
21
-99.9148259999999908
0
LINE
8
BLACK
6
CONTINUOUS
10
234.8098819999999876
20
-99.9148259999999908
11
234.8098909999999933
21
-99.9148259999999908
0
LINE
8
BLACK
6
CONTINUOUS
10
234.8098909999999933
20
-99.9148259999999908
11
234.8098919999999907
21
-99.9148259999999908
0
LINE
8
BLACK
6
CONTINUOUS
10
234.8098919999999907
20
-99.9148259999999908
11
234.9196639999999832
21
-99.9148270000000025
0
LINE
8
BLACK
6
CONTINUOUS
10
234.9196639999999832
20
-99.9148270000000025
11
235.1369929999999897
21
-99.8835819999999899
0
LINE
8
BLACK
6
CONTINUOUS
10
235.1369929999999897
20
-99.8835819999999899
11
235.347662999999983
21
-99.8217259999999982
0
LINE
8
BLACK
6
CONTINUOUS
10
235.347662999999983
20
-99.8217259999999982
11
235.5473849999999914
21
-99.7305169999999919
0
LINE
8
BLACK
6
CONTINUOUS
10
235.5473849999999914
20
-99.7305169999999919
11
235.7320939999999894
21
-99.6118120000000005
0
LINE
8
BLACK
6
CONTINUOUS
10
235.7320939999999894
20
-99.6118120000000005
11
235.8980289999999798
21
-99.4680290000000014
0
LINE
8
BLACK
6
CONTINUOUS
10
235.8980289999999798
20
-99.4680290000000014
11
236.0418119999999931
21
-99.3020939999999968
0
LINE
8
BLACK
6
CONTINUOUS
10
236.0418119999999931
20
-99.3020939999999968
11
236.1605169999999987
21
-99.1173849999999987
0
LINE
8
BLACK
6
CONTINUOUS
10
236.1605169999999987
20
-99.1173849999999987
11
236.2517259999999908
21
-98.9176629999999903
0
LINE
8
BLACK
6
CONTINUOUS
10
236.2517259999999908
20
-98.9176629999999903
11
236.3135819999999967
21
-98.7069929999999971
0
LINE
8
BLACK
6
CONTINUOUS
10
236.3135819999999967
20
-98.7069929999999971
11
236.3448269999999809
21
-98.4896639999999906
0
LINE
8
BLACK
6
CONTINUOUS
10
236.3448269999999809
20
-98.4896639999999906
11
236.3448259999999834
21
-98.3798819999999949
0
LINE
8
BLACK
6
CONTINUOUS
10
236.3448259999999834
20
-98.3798819999999949
11
236.3448259999999834
21
-67.2201000000000022
0
LINE
8
BLACK
6
CONTINUOUS
10
236.3448259999999834
20
-67.2201000000000022
11
236.3448259999999834
21
-67.2200989999999905
0
LINE
8
BLACK
6
CONTINUOUS
10
236.3448259999999834
20
-67.2200989999999905
11
236.3448269999999809
21
-67.10962099999999
0
LINE
8
BLACK
6
CONTINUOUS
10
236.3448269999999809
20
-67.10962099999999
11
236.3133780000000002
21
-66.8908759999999916
0
LINE
8
BLACK
6
CONTINUOUS
10
236.3133780000000002
20
-66.8908759999999916
11
236.2511189999999885
21
-66.6788339999999948
0
LINE
8
BLACK
6
CONTINUOUS
10
236.2511189999999885
20
-66.6788339999999948
11
236.1593159999999898
21
-66.477809999999991
0
LINE
8
BLACK
6
CONTINUOUS
10
236.1593159999999898
20
-66.477809999999991
11
236.0398380000000031
21
-66.2918980000000033
0
LINE
8
BLACK
6
CONTINUOUS
10
236.0398380000000031
20
-66.2918980000000033
11
235.8951179999999965
21
-66.1248819999999995
0
LINE
8
BLACK
6
CONTINUOUS
10
235.8951179999999965
20
-66.1248819999999995
11
235.7281019999999785
21
-65.9801619999999929
0
LINE
8
BLACK
6
CONTINUOUS
10
235.7281019999999785
20
-65.9801619999999929
11
235.5421899999999766
21
-65.860683999999992
0
LINE
8
BLACK
6
CONTINUOUS
10
235.5421899999999766
20
-65.860683999999992
11
235.341165999999987
21
-65.7688809999999933
0
LINE
8
BLACK
6
CONTINUOUS
10
235.341165999999987
20
-65.7688809999999933
11
235.1291239999999902
21
-65.7066219999999959
0
LINE
8
BLACK
6
CONTINUOUS
10
235.1291239999999902
20
-65.7066219999999959
11
234.9103789999999776
21
-65.6751730000000009
0
LINE
8
BLACK
6
CONTINUOUS
10
234.9103789999999776
20
-65.6751730000000009
11
234.7998959999999897
21
-65.6751730000000009
0
LINE
8
BLACK
6
CONTINUOUS
10
234.7998959999999897
20
-65.6751730000000009
11
234.7998959999999897
21
-65.6751739999999984
0
LINE
8
BLACK
6
CONTINUOUS
10
234.7998959999999897
20
-65.6751739999999984
11
234.7998949999999923
21
-65.6751730000000009
0
LINE
8
BLACK
6
CONTINUOUS
10
234.7998949999999923
20
-65.6751730000000009
11
234.7998819999999967
21
-65.6751739999999984
0
LINE
8
BLACK
6
CONTINUOUS
10
234.7998819999999967
20
-65.6751739999999984
11
234.7998809999999992
21
-65.6751730000000009
0
LINE
8
BLACK
6
CONTINUOUS
10
234.7998809999999992
20
-65.6751730000000009
11
169.3101139999999987
21
-65.6651739999999933
0
LINE
8
BLACK
6
CONTINUOUS
10
169.3101139999999987
20
-65.6651739999999933
11
169.3101130000000012
21
-65.6651729999999958
0
LINE
8
BLACK
6
CONTINUOUS
10
169.3101130000000012
20
-65.6651729999999958
11
169.1996209999999792
21
-65.6651729999999958
0
LINE
8
BLACK
6
CONTINUOUS
10
169.1996209999999792
20
-65.6651729999999958
11
168.980875999999995
21
-65.6966219999999907
  0
ENDSEC
  0
EOF
