%TF.GenerationSoftware,KiCad,Pcbnew,9.0.0*%
%TF.CreationDate,2025-08-04T08:15:32-07:00*%
%TF.ProjectId,flatchord,666c6174-6368-46f7-9264-2e6b69636164,rev?*%
%TF.SameCoordinates,Original*%
%TF.FileFunction,Legend,Bot*%
%TF.FilePolarity,Positive*%
%FSLAX46Y46*%
G04 Gerber Fmt 4.6, Leading zero omitted, Abs format (unit mm)*
G04 Created by KiCad (PCBNEW 9.0.0) date 2025-08-04 08:15:32*
%MOMM*%
%LPD*%
G01*
G04 APERTURE LIST*
%ADD10C,0.150000*%
%ADD11C,0.381000*%
G04 APERTURE END LIST*
D10*
X222702295Y-88705524D02*
X223502295Y-88972191D01*
X223502295Y-88972191D02*
X222702295Y-89238857D01*
X223426104Y-89962667D02*
X223464200Y-89924571D01*
X223464200Y-89924571D02*
X223502295Y-89810286D01*
X223502295Y-89810286D02*
X223502295Y-89734095D01*
X223502295Y-89734095D02*
X223464200Y-89619809D01*
X223464200Y-89619809D02*
X223388009Y-89543619D01*
X223388009Y-89543619D02*
X223311819Y-89505524D01*
X223311819Y-89505524D02*
X223159438Y-89467428D01*
X223159438Y-89467428D02*
X223045152Y-89467428D01*
X223045152Y-89467428D02*
X222892771Y-89505524D01*
X222892771Y-89505524D02*
X222816580Y-89543619D01*
X222816580Y-89543619D02*
X222740390Y-89619809D01*
X222740390Y-89619809D02*
X222702295Y-89734095D01*
X222702295Y-89734095D02*
X222702295Y-89810286D01*
X222702295Y-89810286D02*
X222740390Y-89924571D01*
X222740390Y-89924571D02*
X222778485Y-89962667D01*
X223426104Y-90762667D02*
X223464200Y-90724571D01*
X223464200Y-90724571D02*
X223502295Y-90610286D01*
X223502295Y-90610286D02*
X223502295Y-90534095D01*
X223502295Y-90534095D02*
X223464200Y-90419809D01*
X223464200Y-90419809D02*
X223388009Y-90343619D01*
X223388009Y-90343619D02*
X223311819Y-90305524D01*
X223311819Y-90305524D02*
X223159438Y-90267428D01*
X223159438Y-90267428D02*
X223045152Y-90267428D01*
X223045152Y-90267428D02*
X222892771Y-90305524D01*
X222892771Y-90305524D02*
X222816580Y-90343619D01*
X222816580Y-90343619D02*
X222740390Y-90419809D01*
X222740390Y-90419809D02*
X222702295Y-90534095D01*
X222702295Y-90534095D02*
X222702295Y-90610286D01*
X222702295Y-90610286D02*
X222740390Y-90724571D01*
X222740390Y-90724571D02*
X222778485Y-90762667D01*
X212552295Y-77897810D02*
X212552295Y-77974000D01*
X212552295Y-77974000D02*
X212590390Y-78050191D01*
X212590390Y-78050191D02*
X212628485Y-78088286D01*
X212628485Y-78088286D02*
X212704676Y-78126381D01*
X212704676Y-78126381D02*
X212857057Y-78164476D01*
X212857057Y-78164476D02*
X213047533Y-78164476D01*
X213047533Y-78164476D02*
X213199914Y-78126381D01*
X213199914Y-78126381D02*
X213276104Y-78088286D01*
X213276104Y-78088286D02*
X213314200Y-78050191D01*
X213314200Y-78050191D02*
X213352295Y-77974000D01*
X213352295Y-77974000D02*
X213352295Y-77897810D01*
X213352295Y-77897810D02*
X213314200Y-77821619D01*
X213314200Y-77821619D02*
X213276104Y-77783524D01*
X213276104Y-77783524D02*
X213199914Y-77745429D01*
X213199914Y-77745429D02*
X213047533Y-77707333D01*
X213047533Y-77707333D02*
X212857057Y-77707333D01*
X212857057Y-77707333D02*
X212704676Y-77745429D01*
X212704676Y-77745429D02*
X212628485Y-77783524D01*
X212628485Y-77783524D02*
X212590390Y-77821619D01*
X212590390Y-77821619D02*
X212552295Y-77897810D01*
X212628485Y-78469238D02*
X212590390Y-78507334D01*
X212590390Y-78507334D02*
X212552295Y-78583524D01*
X212552295Y-78583524D02*
X212552295Y-78774000D01*
X212552295Y-78774000D02*
X212590390Y-78850191D01*
X212590390Y-78850191D02*
X212628485Y-78888286D01*
X212628485Y-78888286D02*
X212704676Y-78926381D01*
X212704676Y-78926381D02*
X212780866Y-78926381D01*
X212780866Y-78926381D02*
X212895152Y-78888286D01*
X212895152Y-78888286D02*
X213352295Y-78431143D01*
X213352295Y-78431143D02*
X213352295Y-78926381D01*
X212818961Y-79612096D02*
X213352295Y-79612096D01*
X212514200Y-79421620D02*
X213085628Y-79231143D01*
X213085628Y-79231143D02*
X213085628Y-79726382D01*
X227852295Y-77897810D02*
X227852295Y-77974000D01*
X227852295Y-77974000D02*
X227890390Y-78050191D01*
X227890390Y-78050191D02*
X227928485Y-78088286D01*
X227928485Y-78088286D02*
X228004676Y-78126381D01*
X228004676Y-78126381D02*
X228157057Y-78164476D01*
X228157057Y-78164476D02*
X228347533Y-78164476D01*
X228347533Y-78164476D02*
X228499914Y-78126381D01*
X228499914Y-78126381D02*
X228576104Y-78088286D01*
X228576104Y-78088286D02*
X228614200Y-78050191D01*
X228614200Y-78050191D02*
X228652295Y-77974000D01*
X228652295Y-77974000D02*
X228652295Y-77897810D01*
X228652295Y-77897810D02*
X228614200Y-77821619D01*
X228614200Y-77821619D02*
X228576104Y-77783524D01*
X228576104Y-77783524D02*
X228499914Y-77745429D01*
X228499914Y-77745429D02*
X228347533Y-77707333D01*
X228347533Y-77707333D02*
X228157057Y-77707333D01*
X228157057Y-77707333D02*
X228004676Y-77745429D01*
X228004676Y-77745429D02*
X227928485Y-77783524D01*
X227928485Y-77783524D02*
X227890390Y-77821619D01*
X227890390Y-77821619D02*
X227852295Y-77897810D01*
X227852295Y-78659715D02*
X227852295Y-78735905D01*
X227852295Y-78735905D02*
X227890390Y-78812096D01*
X227890390Y-78812096D02*
X227928485Y-78850191D01*
X227928485Y-78850191D02*
X228004676Y-78888286D01*
X228004676Y-78888286D02*
X228157057Y-78926381D01*
X228157057Y-78926381D02*
X228347533Y-78926381D01*
X228347533Y-78926381D02*
X228499914Y-78888286D01*
X228499914Y-78888286D02*
X228576104Y-78850191D01*
X228576104Y-78850191D02*
X228614200Y-78812096D01*
X228614200Y-78812096D02*
X228652295Y-78735905D01*
X228652295Y-78735905D02*
X228652295Y-78659715D01*
X228652295Y-78659715D02*
X228614200Y-78583524D01*
X228614200Y-78583524D02*
X228576104Y-78545429D01*
X228576104Y-78545429D02*
X228499914Y-78507334D01*
X228499914Y-78507334D02*
X228347533Y-78469238D01*
X228347533Y-78469238D02*
X228157057Y-78469238D01*
X228157057Y-78469238D02*
X228004676Y-78507334D01*
X228004676Y-78507334D02*
X227928485Y-78545429D01*
X227928485Y-78545429D02*
X227890390Y-78583524D01*
X227890390Y-78583524D02*
X227852295Y-78659715D01*
X228195152Y-79383524D02*
X228157057Y-79307334D01*
X228157057Y-79307334D02*
X228118961Y-79269239D01*
X228118961Y-79269239D02*
X228042771Y-79231143D01*
X228042771Y-79231143D02*
X228004676Y-79231143D01*
X228004676Y-79231143D02*
X227928485Y-79269239D01*
X227928485Y-79269239D02*
X227890390Y-79307334D01*
X227890390Y-79307334D02*
X227852295Y-79383524D01*
X227852295Y-79383524D02*
X227852295Y-79535905D01*
X227852295Y-79535905D02*
X227890390Y-79612096D01*
X227890390Y-79612096D02*
X227928485Y-79650191D01*
X227928485Y-79650191D02*
X228004676Y-79688286D01*
X228004676Y-79688286D02*
X228042771Y-79688286D01*
X228042771Y-79688286D02*
X228118961Y-79650191D01*
X228118961Y-79650191D02*
X228157057Y-79612096D01*
X228157057Y-79612096D02*
X228195152Y-79535905D01*
X228195152Y-79535905D02*
X228195152Y-79383524D01*
X228195152Y-79383524D02*
X228233247Y-79307334D01*
X228233247Y-79307334D02*
X228271342Y-79269239D01*
X228271342Y-79269239D02*
X228347533Y-79231143D01*
X228347533Y-79231143D02*
X228499914Y-79231143D01*
X228499914Y-79231143D02*
X228576104Y-79269239D01*
X228576104Y-79269239D02*
X228614200Y-79307334D01*
X228614200Y-79307334D02*
X228652295Y-79383524D01*
X228652295Y-79383524D02*
X228652295Y-79535905D01*
X228652295Y-79535905D02*
X228614200Y-79612096D01*
X228614200Y-79612096D02*
X228576104Y-79650191D01*
X228576104Y-79650191D02*
X228499914Y-79688286D01*
X228499914Y-79688286D02*
X228347533Y-79688286D01*
X228347533Y-79688286D02*
X228271342Y-79650191D01*
X228271342Y-79650191D02*
X228233247Y-79612096D01*
X228233247Y-79612096D02*
X228195152Y-79535905D01*
X208262295Y-89238857D02*
X208262295Y-88781714D01*
X208262295Y-89010286D02*
X207462295Y-89010286D01*
X207462295Y-89010286D02*
X207576580Y-88934095D01*
X207576580Y-88934095D02*
X207652771Y-88857905D01*
X207652771Y-88857905D02*
X207690866Y-88781714D01*
X208262295Y-90000762D02*
X208262295Y-89543619D01*
X208262295Y-89772191D02*
X207462295Y-89772191D01*
X207462295Y-89772191D02*
X207576580Y-89696000D01*
X207576580Y-89696000D02*
X207652771Y-89619810D01*
X207652771Y-89619810D02*
X207690866Y-89543619D01*
X208262295Y-90762667D02*
X208262295Y-90305524D01*
X208262295Y-90534096D02*
X207462295Y-90534096D01*
X207462295Y-90534096D02*
X207576580Y-90457905D01*
X207576580Y-90457905D02*
X207652771Y-90381715D01*
X207652771Y-90381715D02*
X207690866Y-90305524D01*
X205722295Y-78164476D02*
X205722295Y-77707333D01*
X205722295Y-77935905D02*
X204922295Y-77935905D01*
X204922295Y-77935905D02*
X205036580Y-77859714D01*
X205036580Y-77859714D02*
X205112771Y-77783524D01*
X205112771Y-77783524D02*
X205150866Y-77707333D01*
X204922295Y-78659715D02*
X204922295Y-78735905D01*
X204922295Y-78735905D02*
X204960390Y-78812096D01*
X204960390Y-78812096D02*
X204998485Y-78850191D01*
X204998485Y-78850191D02*
X205074676Y-78888286D01*
X205074676Y-78888286D02*
X205227057Y-78926381D01*
X205227057Y-78926381D02*
X205417533Y-78926381D01*
X205417533Y-78926381D02*
X205569914Y-78888286D01*
X205569914Y-78888286D02*
X205646104Y-78850191D01*
X205646104Y-78850191D02*
X205684200Y-78812096D01*
X205684200Y-78812096D02*
X205722295Y-78735905D01*
X205722295Y-78735905D02*
X205722295Y-78659715D01*
X205722295Y-78659715D02*
X205684200Y-78583524D01*
X205684200Y-78583524D02*
X205646104Y-78545429D01*
X205646104Y-78545429D02*
X205569914Y-78507334D01*
X205569914Y-78507334D02*
X205417533Y-78469238D01*
X205417533Y-78469238D02*
X205227057Y-78469238D01*
X205227057Y-78469238D02*
X205074676Y-78507334D01*
X205074676Y-78507334D02*
X204998485Y-78545429D01*
X204998485Y-78545429D02*
X204960390Y-78583524D01*
X204960390Y-78583524D02*
X204922295Y-78659715D01*
X205188961Y-79612096D02*
X205722295Y-79612096D01*
X204884200Y-79421620D02*
X205455628Y-79231143D01*
X205455628Y-79231143D02*
X205455628Y-79726382D01*
X225280390Y-78164476D02*
X225242295Y-78088286D01*
X225242295Y-78088286D02*
X225242295Y-77974000D01*
X225242295Y-77974000D02*
X225280390Y-77859714D01*
X225280390Y-77859714D02*
X225356580Y-77783524D01*
X225356580Y-77783524D02*
X225432771Y-77745429D01*
X225432771Y-77745429D02*
X225585152Y-77707333D01*
X225585152Y-77707333D02*
X225699438Y-77707333D01*
X225699438Y-77707333D02*
X225851819Y-77745429D01*
X225851819Y-77745429D02*
X225928009Y-77783524D01*
X225928009Y-77783524D02*
X226004200Y-77859714D01*
X226004200Y-77859714D02*
X226042295Y-77974000D01*
X226042295Y-77974000D02*
X226042295Y-78050191D01*
X226042295Y-78050191D02*
X226004200Y-78164476D01*
X226004200Y-78164476D02*
X225966104Y-78202572D01*
X225966104Y-78202572D02*
X225699438Y-78202572D01*
X225699438Y-78202572D02*
X225699438Y-78050191D01*
X226042295Y-78545429D02*
X225242295Y-78545429D01*
X225242295Y-78545429D02*
X226042295Y-79002572D01*
X226042295Y-79002572D02*
X225242295Y-79002572D01*
X226042295Y-79383524D02*
X225242295Y-79383524D01*
X225242295Y-79383524D02*
X225242295Y-79574000D01*
X225242295Y-79574000D02*
X225280390Y-79688286D01*
X225280390Y-79688286D02*
X225356580Y-79764476D01*
X225356580Y-79764476D02*
X225432771Y-79802571D01*
X225432771Y-79802571D02*
X225585152Y-79840667D01*
X225585152Y-79840667D02*
X225699438Y-79840667D01*
X225699438Y-79840667D02*
X225851819Y-79802571D01*
X225851819Y-79802571D02*
X225928009Y-79764476D01*
X225928009Y-79764476D02*
X226004200Y-79688286D01*
X226004200Y-79688286D02*
X226042295Y-79574000D01*
X226042295Y-79574000D02*
X226042295Y-79383524D01*
X226042295Y-89384905D02*
X225661342Y-89118238D01*
X226042295Y-88927762D02*
X225242295Y-88927762D01*
X225242295Y-88927762D02*
X225242295Y-89232524D01*
X225242295Y-89232524D02*
X225280390Y-89308714D01*
X225280390Y-89308714D02*
X225318485Y-89346809D01*
X225318485Y-89346809D02*
X225394676Y-89384905D01*
X225394676Y-89384905D02*
X225508961Y-89384905D01*
X225508961Y-89384905D02*
X225585152Y-89346809D01*
X225585152Y-89346809D02*
X225623247Y-89308714D01*
X225623247Y-89308714D02*
X225661342Y-89232524D01*
X225661342Y-89232524D02*
X225661342Y-88927762D01*
X226004200Y-89689666D02*
X226042295Y-89803952D01*
X226042295Y-89803952D02*
X226042295Y-89994428D01*
X226042295Y-89994428D02*
X226004200Y-90070619D01*
X226004200Y-90070619D02*
X225966104Y-90108714D01*
X225966104Y-90108714D02*
X225889914Y-90146809D01*
X225889914Y-90146809D02*
X225813723Y-90146809D01*
X225813723Y-90146809D02*
X225737533Y-90108714D01*
X225737533Y-90108714D02*
X225699438Y-90070619D01*
X225699438Y-90070619D02*
X225661342Y-89994428D01*
X225661342Y-89994428D02*
X225623247Y-89842047D01*
X225623247Y-89842047D02*
X225585152Y-89765857D01*
X225585152Y-89765857D02*
X225547057Y-89727762D01*
X225547057Y-89727762D02*
X225470866Y-89689666D01*
X225470866Y-89689666D02*
X225394676Y-89689666D01*
X225394676Y-89689666D02*
X225318485Y-89727762D01*
X225318485Y-89727762D02*
X225280390Y-89765857D01*
X225280390Y-89765857D02*
X225242295Y-89842047D01*
X225242295Y-89842047D02*
X225242295Y-90032524D01*
X225242295Y-90032524D02*
X225280390Y-90146809D01*
X225242295Y-90375381D02*
X225242295Y-90832524D01*
X226042295Y-90603952D02*
X225242295Y-90603952D01*
X215082295Y-88972191D02*
X215082295Y-89048381D01*
X215082295Y-89048381D02*
X215120390Y-89124572D01*
X215120390Y-89124572D02*
X215158485Y-89162667D01*
X215158485Y-89162667D02*
X215234676Y-89200762D01*
X215234676Y-89200762D02*
X215387057Y-89238857D01*
X215387057Y-89238857D02*
X215577533Y-89238857D01*
X215577533Y-89238857D02*
X215729914Y-89200762D01*
X215729914Y-89200762D02*
X215806104Y-89162667D01*
X215806104Y-89162667D02*
X215844200Y-89124572D01*
X215844200Y-89124572D02*
X215882295Y-89048381D01*
X215882295Y-89048381D02*
X215882295Y-88972191D01*
X215882295Y-88972191D02*
X215844200Y-88896000D01*
X215844200Y-88896000D02*
X215806104Y-88857905D01*
X215806104Y-88857905D02*
X215729914Y-88819810D01*
X215729914Y-88819810D02*
X215577533Y-88781714D01*
X215577533Y-88781714D02*
X215387057Y-88781714D01*
X215387057Y-88781714D02*
X215234676Y-88819810D01*
X215234676Y-88819810D02*
X215158485Y-88857905D01*
X215158485Y-88857905D02*
X215120390Y-88896000D01*
X215120390Y-88896000D02*
X215082295Y-88972191D01*
X215082295Y-89734096D02*
X215082295Y-89810286D01*
X215082295Y-89810286D02*
X215120390Y-89886477D01*
X215120390Y-89886477D02*
X215158485Y-89924572D01*
X215158485Y-89924572D02*
X215234676Y-89962667D01*
X215234676Y-89962667D02*
X215387057Y-90000762D01*
X215387057Y-90000762D02*
X215577533Y-90000762D01*
X215577533Y-90000762D02*
X215729914Y-89962667D01*
X215729914Y-89962667D02*
X215806104Y-89924572D01*
X215806104Y-89924572D02*
X215844200Y-89886477D01*
X215844200Y-89886477D02*
X215882295Y-89810286D01*
X215882295Y-89810286D02*
X215882295Y-89734096D01*
X215882295Y-89734096D02*
X215844200Y-89657905D01*
X215844200Y-89657905D02*
X215806104Y-89619810D01*
X215806104Y-89619810D02*
X215729914Y-89581715D01*
X215729914Y-89581715D02*
X215577533Y-89543619D01*
X215577533Y-89543619D02*
X215387057Y-89543619D01*
X215387057Y-89543619D02*
X215234676Y-89581715D01*
X215234676Y-89581715D02*
X215158485Y-89619810D01*
X215158485Y-89619810D02*
X215120390Y-89657905D01*
X215120390Y-89657905D02*
X215082295Y-89734096D01*
X215158485Y-90305524D02*
X215120390Y-90343620D01*
X215120390Y-90343620D02*
X215082295Y-90419810D01*
X215082295Y-90419810D02*
X215082295Y-90610286D01*
X215082295Y-90610286D02*
X215120390Y-90686477D01*
X215120390Y-90686477D02*
X215158485Y-90724572D01*
X215158485Y-90724572D02*
X215234676Y-90762667D01*
X215234676Y-90762667D02*
X215310866Y-90762667D01*
X215310866Y-90762667D02*
X215425152Y-90724572D01*
X215425152Y-90724572D02*
X215882295Y-90267429D01*
X215882295Y-90267429D02*
X215882295Y-90762667D01*
X230322295Y-77897810D02*
X230322295Y-77974000D01*
X230322295Y-77974000D02*
X230360390Y-78050191D01*
X230360390Y-78050191D02*
X230398485Y-78088286D01*
X230398485Y-78088286D02*
X230474676Y-78126381D01*
X230474676Y-78126381D02*
X230627057Y-78164476D01*
X230627057Y-78164476D02*
X230817533Y-78164476D01*
X230817533Y-78164476D02*
X230969914Y-78126381D01*
X230969914Y-78126381D02*
X231046104Y-78088286D01*
X231046104Y-78088286D02*
X231084200Y-78050191D01*
X231084200Y-78050191D02*
X231122295Y-77974000D01*
X231122295Y-77974000D02*
X231122295Y-77897810D01*
X231122295Y-77897810D02*
X231084200Y-77821619D01*
X231084200Y-77821619D02*
X231046104Y-77783524D01*
X231046104Y-77783524D02*
X230969914Y-77745429D01*
X230969914Y-77745429D02*
X230817533Y-77707333D01*
X230817533Y-77707333D02*
X230627057Y-77707333D01*
X230627057Y-77707333D02*
X230474676Y-77745429D01*
X230474676Y-77745429D02*
X230398485Y-77783524D01*
X230398485Y-77783524D02*
X230360390Y-77821619D01*
X230360390Y-77821619D02*
X230322295Y-77897810D01*
X230322295Y-78659715D02*
X230322295Y-78735905D01*
X230322295Y-78735905D02*
X230360390Y-78812096D01*
X230360390Y-78812096D02*
X230398485Y-78850191D01*
X230398485Y-78850191D02*
X230474676Y-78888286D01*
X230474676Y-78888286D02*
X230627057Y-78926381D01*
X230627057Y-78926381D02*
X230817533Y-78926381D01*
X230817533Y-78926381D02*
X230969914Y-78888286D01*
X230969914Y-78888286D02*
X231046104Y-78850191D01*
X231046104Y-78850191D02*
X231084200Y-78812096D01*
X231084200Y-78812096D02*
X231122295Y-78735905D01*
X231122295Y-78735905D02*
X231122295Y-78659715D01*
X231122295Y-78659715D02*
X231084200Y-78583524D01*
X231084200Y-78583524D02*
X231046104Y-78545429D01*
X231046104Y-78545429D02*
X230969914Y-78507334D01*
X230969914Y-78507334D02*
X230817533Y-78469238D01*
X230817533Y-78469238D02*
X230627057Y-78469238D01*
X230627057Y-78469238D02*
X230474676Y-78507334D01*
X230474676Y-78507334D02*
X230398485Y-78545429D01*
X230398485Y-78545429D02*
X230360390Y-78583524D01*
X230360390Y-78583524D02*
X230322295Y-78659715D01*
X230322295Y-79612096D02*
X230322295Y-79459715D01*
X230322295Y-79459715D02*
X230360390Y-79383524D01*
X230360390Y-79383524D02*
X230398485Y-79345429D01*
X230398485Y-79345429D02*
X230512771Y-79269239D01*
X230512771Y-79269239D02*
X230665152Y-79231143D01*
X230665152Y-79231143D02*
X230969914Y-79231143D01*
X230969914Y-79231143D02*
X231046104Y-79269239D01*
X231046104Y-79269239D02*
X231084200Y-79307334D01*
X231084200Y-79307334D02*
X231122295Y-79383524D01*
X231122295Y-79383524D02*
X231122295Y-79535905D01*
X231122295Y-79535905D02*
X231084200Y-79612096D01*
X231084200Y-79612096D02*
X231046104Y-79650191D01*
X231046104Y-79650191D02*
X230969914Y-79688286D01*
X230969914Y-79688286D02*
X230779438Y-79688286D01*
X230779438Y-79688286D02*
X230703247Y-79650191D01*
X230703247Y-79650191D02*
X230665152Y-79612096D01*
X230665152Y-79612096D02*
X230627057Y-79535905D01*
X230627057Y-79535905D02*
X230627057Y-79383524D01*
X230627057Y-79383524D02*
X230665152Y-79307334D01*
X230665152Y-79307334D02*
X230703247Y-79269239D01*
X230703247Y-79269239D02*
X230779438Y-79231143D01*
X204922295Y-88972191D02*
X204922295Y-89048381D01*
X204922295Y-89048381D02*
X204960390Y-89124572D01*
X204960390Y-89124572D02*
X204998485Y-89162667D01*
X204998485Y-89162667D02*
X205074676Y-89200762D01*
X205074676Y-89200762D02*
X205227057Y-89238857D01*
X205227057Y-89238857D02*
X205417533Y-89238857D01*
X205417533Y-89238857D02*
X205569914Y-89200762D01*
X205569914Y-89200762D02*
X205646104Y-89162667D01*
X205646104Y-89162667D02*
X205684200Y-89124572D01*
X205684200Y-89124572D02*
X205722295Y-89048381D01*
X205722295Y-89048381D02*
X205722295Y-88972191D01*
X205722295Y-88972191D02*
X205684200Y-88896000D01*
X205684200Y-88896000D02*
X205646104Y-88857905D01*
X205646104Y-88857905D02*
X205569914Y-88819810D01*
X205569914Y-88819810D02*
X205417533Y-88781714D01*
X205417533Y-88781714D02*
X205227057Y-88781714D01*
X205227057Y-88781714D02*
X205074676Y-88819810D01*
X205074676Y-88819810D02*
X204998485Y-88857905D01*
X204998485Y-88857905D02*
X204960390Y-88896000D01*
X204960390Y-88896000D02*
X204922295Y-88972191D01*
X205722295Y-90000762D02*
X205722295Y-89543619D01*
X205722295Y-89772191D02*
X204922295Y-89772191D01*
X204922295Y-89772191D02*
X205036580Y-89696000D01*
X205036580Y-89696000D02*
X205112771Y-89619810D01*
X205112771Y-89619810D02*
X205150866Y-89543619D01*
X204922295Y-90496001D02*
X204922295Y-90572191D01*
X204922295Y-90572191D02*
X204960390Y-90648382D01*
X204960390Y-90648382D02*
X204998485Y-90686477D01*
X204998485Y-90686477D02*
X205074676Y-90724572D01*
X205074676Y-90724572D02*
X205227057Y-90762667D01*
X205227057Y-90762667D02*
X205417533Y-90762667D01*
X205417533Y-90762667D02*
X205569914Y-90724572D01*
X205569914Y-90724572D02*
X205646104Y-90686477D01*
X205646104Y-90686477D02*
X205684200Y-90648382D01*
X205684200Y-90648382D02*
X205722295Y-90572191D01*
X205722295Y-90572191D02*
X205722295Y-90496001D01*
X205722295Y-90496001D02*
X205684200Y-90419810D01*
X205684200Y-90419810D02*
X205646104Y-90381715D01*
X205646104Y-90381715D02*
X205569914Y-90343620D01*
X205569914Y-90343620D02*
X205417533Y-90305524D01*
X205417533Y-90305524D02*
X205227057Y-90305524D01*
X205227057Y-90305524D02*
X205074676Y-90343620D01*
X205074676Y-90343620D02*
X204998485Y-90381715D01*
X204998485Y-90381715D02*
X204960390Y-90419810D01*
X204960390Y-90419810D02*
X204922295Y-90496001D01*
X231122295Y-89156334D02*
X230741342Y-88889667D01*
X231122295Y-88699191D02*
X230322295Y-88699191D01*
X230322295Y-88699191D02*
X230322295Y-89003953D01*
X230322295Y-89003953D02*
X230360390Y-89080143D01*
X230360390Y-89080143D02*
X230398485Y-89118238D01*
X230398485Y-89118238D02*
X230474676Y-89156334D01*
X230474676Y-89156334D02*
X230588961Y-89156334D01*
X230588961Y-89156334D02*
X230665152Y-89118238D01*
X230665152Y-89118238D02*
X230703247Y-89080143D01*
X230703247Y-89080143D02*
X230741342Y-89003953D01*
X230741342Y-89003953D02*
X230741342Y-88699191D01*
X230893723Y-89461095D02*
X230893723Y-89842048D01*
X231122295Y-89384905D02*
X230322295Y-89651572D01*
X230322295Y-89651572D02*
X231122295Y-89918238D01*
X230322295Y-90108714D02*
X231122295Y-90299190D01*
X231122295Y-90299190D02*
X230550866Y-90451571D01*
X230550866Y-90451571D02*
X231122295Y-90603952D01*
X231122295Y-90603952D02*
X230322295Y-90794429D01*
X215052295Y-77897810D02*
X215052295Y-77974000D01*
X215052295Y-77974000D02*
X215090390Y-78050191D01*
X215090390Y-78050191D02*
X215128485Y-78088286D01*
X215128485Y-78088286D02*
X215204676Y-78126381D01*
X215204676Y-78126381D02*
X215357057Y-78164476D01*
X215357057Y-78164476D02*
X215547533Y-78164476D01*
X215547533Y-78164476D02*
X215699914Y-78126381D01*
X215699914Y-78126381D02*
X215776104Y-78088286D01*
X215776104Y-78088286D02*
X215814200Y-78050191D01*
X215814200Y-78050191D02*
X215852295Y-77974000D01*
X215852295Y-77974000D02*
X215852295Y-77897810D01*
X215852295Y-77897810D02*
X215814200Y-77821619D01*
X215814200Y-77821619D02*
X215776104Y-77783524D01*
X215776104Y-77783524D02*
X215699914Y-77745429D01*
X215699914Y-77745429D02*
X215547533Y-77707333D01*
X215547533Y-77707333D02*
X215357057Y-77707333D01*
X215357057Y-77707333D02*
X215204676Y-77745429D01*
X215204676Y-77745429D02*
X215128485Y-77783524D01*
X215128485Y-77783524D02*
X215090390Y-77821619D01*
X215090390Y-77821619D02*
X215052295Y-77897810D01*
X215128485Y-78469238D02*
X215090390Y-78507334D01*
X215090390Y-78507334D02*
X215052295Y-78583524D01*
X215052295Y-78583524D02*
X215052295Y-78774000D01*
X215052295Y-78774000D02*
X215090390Y-78850191D01*
X215090390Y-78850191D02*
X215128485Y-78888286D01*
X215128485Y-78888286D02*
X215204676Y-78926381D01*
X215204676Y-78926381D02*
X215280866Y-78926381D01*
X215280866Y-78926381D02*
X215395152Y-78888286D01*
X215395152Y-78888286D02*
X215852295Y-78431143D01*
X215852295Y-78431143D02*
X215852295Y-78926381D01*
X215128485Y-79231143D02*
X215090390Y-79269239D01*
X215090390Y-79269239D02*
X215052295Y-79345429D01*
X215052295Y-79345429D02*
X215052295Y-79535905D01*
X215052295Y-79535905D02*
X215090390Y-79612096D01*
X215090390Y-79612096D02*
X215128485Y-79650191D01*
X215128485Y-79650191D02*
X215204676Y-79688286D01*
X215204676Y-79688286D02*
X215280866Y-79688286D01*
X215280866Y-79688286D02*
X215395152Y-79650191D01*
X215395152Y-79650191D02*
X215852295Y-79193048D01*
X215852295Y-79193048D02*
X215852295Y-79688286D01*
X217622295Y-88972191D02*
X217622295Y-89048381D01*
X217622295Y-89048381D02*
X217660390Y-89124572D01*
X217660390Y-89124572D02*
X217698485Y-89162667D01*
X217698485Y-89162667D02*
X217774676Y-89200762D01*
X217774676Y-89200762D02*
X217927057Y-89238857D01*
X217927057Y-89238857D02*
X218117533Y-89238857D01*
X218117533Y-89238857D02*
X218269914Y-89200762D01*
X218269914Y-89200762D02*
X218346104Y-89162667D01*
X218346104Y-89162667D02*
X218384200Y-89124572D01*
X218384200Y-89124572D02*
X218422295Y-89048381D01*
X218422295Y-89048381D02*
X218422295Y-88972191D01*
X218422295Y-88972191D02*
X218384200Y-88896000D01*
X218384200Y-88896000D02*
X218346104Y-88857905D01*
X218346104Y-88857905D02*
X218269914Y-88819810D01*
X218269914Y-88819810D02*
X218117533Y-88781714D01*
X218117533Y-88781714D02*
X217927057Y-88781714D01*
X217927057Y-88781714D02*
X217774676Y-88819810D01*
X217774676Y-88819810D02*
X217698485Y-88857905D01*
X217698485Y-88857905D02*
X217660390Y-88896000D01*
X217660390Y-88896000D02*
X217622295Y-88972191D01*
X217698485Y-89543619D02*
X217660390Y-89581715D01*
X217660390Y-89581715D02*
X217622295Y-89657905D01*
X217622295Y-89657905D02*
X217622295Y-89848381D01*
X217622295Y-89848381D02*
X217660390Y-89924572D01*
X217660390Y-89924572D02*
X217698485Y-89962667D01*
X217698485Y-89962667D02*
X217774676Y-90000762D01*
X217774676Y-90000762D02*
X217850866Y-90000762D01*
X217850866Y-90000762D02*
X217965152Y-89962667D01*
X217965152Y-89962667D02*
X218422295Y-89505524D01*
X218422295Y-89505524D02*
X218422295Y-90000762D01*
X218422295Y-90381715D02*
X218422295Y-90534096D01*
X218422295Y-90534096D02*
X218384200Y-90610286D01*
X218384200Y-90610286D02*
X218346104Y-90648382D01*
X218346104Y-90648382D02*
X218231819Y-90724572D01*
X218231819Y-90724572D02*
X218079438Y-90762667D01*
X218079438Y-90762667D02*
X217774676Y-90762667D01*
X217774676Y-90762667D02*
X217698485Y-90724572D01*
X217698485Y-90724572D02*
X217660390Y-90686477D01*
X217660390Y-90686477D02*
X217622295Y-90610286D01*
X217622295Y-90610286D02*
X217622295Y-90457905D01*
X217622295Y-90457905D02*
X217660390Y-90381715D01*
X217660390Y-90381715D02*
X217698485Y-90343620D01*
X217698485Y-90343620D02*
X217774676Y-90305524D01*
X217774676Y-90305524D02*
X217965152Y-90305524D01*
X217965152Y-90305524D02*
X218041342Y-90343620D01*
X218041342Y-90343620D02*
X218079438Y-90381715D01*
X218079438Y-90381715D02*
X218117533Y-90457905D01*
X218117533Y-90457905D02*
X218117533Y-90610286D01*
X218117533Y-90610286D02*
X218079438Y-90686477D01*
X218079438Y-90686477D02*
X218041342Y-90724572D01*
X218041342Y-90724572D02*
X217965152Y-90762667D01*
X210802295Y-78164476D02*
X210802295Y-77707333D01*
X210802295Y-77935905D02*
X210002295Y-77935905D01*
X210002295Y-77935905D02*
X210116580Y-77859714D01*
X210116580Y-77859714D02*
X210192771Y-77783524D01*
X210192771Y-77783524D02*
X210230866Y-77707333D01*
X210002295Y-78659715D02*
X210002295Y-78735905D01*
X210002295Y-78735905D02*
X210040390Y-78812096D01*
X210040390Y-78812096D02*
X210078485Y-78850191D01*
X210078485Y-78850191D02*
X210154676Y-78888286D01*
X210154676Y-78888286D02*
X210307057Y-78926381D01*
X210307057Y-78926381D02*
X210497533Y-78926381D01*
X210497533Y-78926381D02*
X210649914Y-78888286D01*
X210649914Y-78888286D02*
X210726104Y-78850191D01*
X210726104Y-78850191D02*
X210764200Y-78812096D01*
X210764200Y-78812096D02*
X210802295Y-78735905D01*
X210802295Y-78735905D02*
X210802295Y-78659715D01*
X210802295Y-78659715D02*
X210764200Y-78583524D01*
X210764200Y-78583524D02*
X210726104Y-78545429D01*
X210726104Y-78545429D02*
X210649914Y-78507334D01*
X210649914Y-78507334D02*
X210497533Y-78469238D01*
X210497533Y-78469238D02*
X210307057Y-78469238D01*
X210307057Y-78469238D02*
X210154676Y-78507334D01*
X210154676Y-78507334D02*
X210078485Y-78545429D01*
X210078485Y-78545429D02*
X210040390Y-78583524D01*
X210040390Y-78583524D02*
X210002295Y-78659715D01*
X210002295Y-79421620D02*
X210002295Y-79497810D01*
X210002295Y-79497810D02*
X210040390Y-79574001D01*
X210040390Y-79574001D02*
X210078485Y-79612096D01*
X210078485Y-79612096D02*
X210154676Y-79650191D01*
X210154676Y-79650191D02*
X210307057Y-79688286D01*
X210307057Y-79688286D02*
X210497533Y-79688286D01*
X210497533Y-79688286D02*
X210649914Y-79650191D01*
X210649914Y-79650191D02*
X210726104Y-79612096D01*
X210726104Y-79612096D02*
X210764200Y-79574001D01*
X210764200Y-79574001D02*
X210802295Y-79497810D01*
X210802295Y-79497810D02*
X210802295Y-79421620D01*
X210802295Y-79421620D02*
X210764200Y-79345429D01*
X210764200Y-79345429D02*
X210726104Y-79307334D01*
X210726104Y-79307334D02*
X210649914Y-79269239D01*
X210649914Y-79269239D02*
X210497533Y-79231143D01*
X210497533Y-79231143D02*
X210307057Y-79231143D01*
X210307057Y-79231143D02*
X210154676Y-79269239D01*
X210154676Y-79269239D02*
X210078485Y-79307334D01*
X210078485Y-79307334D02*
X210040390Y-79345429D01*
X210040390Y-79345429D02*
X210002295Y-79421620D01*
X213342295Y-89238857D02*
X213342295Y-88781714D01*
X213342295Y-89010286D02*
X212542295Y-89010286D01*
X212542295Y-89010286D02*
X212656580Y-88934095D01*
X212656580Y-88934095D02*
X212732771Y-88857905D01*
X212732771Y-88857905D02*
X212770866Y-88781714D01*
X213342295Y-90000762D02*
X213342295Y-89543619D01*
X213342295Y-89772191D02*
X212542295Y-89772191D01*
X212542295Y-89772191D02*
X212656580Y-89696000D01*
X212656580Y-89696000D02*
X212732771Y-89619810D01*
X212732771Y-89619810D02*
X212770866Y-89543619D01*
X212542295Y-90724572D02*
X212542295Y-90343620D01*
X212542295Y-90343620D02*
X212923247Y-90305524D01*
X212923247Y-90305524D02*
X212885152Y-90343620D01*
X212885152Y-90343620D02*
X212847057Y-90419810D01*
X212847057Y-90419810D02*
X212847057Y-90610286D01*
X212847057Y-90610286D02*
X212885152Y-90686477D01*
X212885152Y-90686477D02*
X212923247Y-90724572D01*
X212923247Y-90724572D02*
X212999438Y-90762667D01*
X212999438Y-90762667D02*
X213189914Y-90762667D01*
X213189914Y-90762667D02*
X213266104Y-90724572D01*
X213266104Y-90724572D02*
X213304200Y-90686477D01*
X213304200Y-90686477D02*
X213342295Y-90610286D01*
X213342295Y-90610286D02*
X213342295Y-90419810D01*
X213342295Y-90419810D02*
X213304200Y-90343620D01*
X213304200Y-90343620D02*
X213266104Y-90305524D01*
X227820390Y-89080143D02*
X227782295Y-89003953D01*
X227782295Y-89003953D02*
X227782295Y-88889667D01*
X227782295Y-88889667D02*
X227820390Y-88775381D01*
X227820390Y-88775381D02*
X227896580Y-88699191D01*
X227896580Y-88699191D02*
X227972771Y-88661096D01*
X227972771Y-88661096D02*
X228125152Y-88623000D01*
X228125152Y-88623000D02*
X228239438Y-88623000D01*
X228239438Y-88623000D02*
X228391819Y-88661096D01*
X228391819Y-88661096D02*
X228468009Y-88699191D01*
X228468009Y-88699191D02*
X228544200Y-88775381D01*
X228544200Y-88775381D02*
X228582295Y-88889667D01*
X228582295Y-88889667D02*
X228582295Y-88965858D01*
X228582295Y-88965858D02*
X228544200Y-89080143D01*
X228544200Y-89080143D02*
X228506104Y-89118239D01*
X228506104Y-89118239D02*
X228239438Y-89118239D01*
X228239438Y-89118239D02*
X228239438Y-88965858D01*
X228582295Y-89461096D02*
X227782295Y-89461096D01*
X227782295Y-89461096D02*
X228582295Y-89918239D01*
X228582295Y-89918239D02*
X227782295Y-89918239D01*
X228582295Y-90299191D02*
X227782295Y-90299191D01*
X227782295Y-90299191D02*
X227782295Y-90489667D01*
X227782295Y-90489667D02*
X227820390Y-90603953D01*
X227820390Y-90603953D02*
X227896580Y-90680143D01*
X227896580Y-90680143D02*
X227972771Y-90718238D01*
X227972771Y-90718238D02*
X228125152Y-90756334D01*
X228125152Y-90756334D02*
X228239438Y-90756334D01*
X228239438Y-90756334D02*
X228391819Y-90718238D01*
X228391819Y-90718238D02*
X228468009Y-90680143D01*
X228468009Y-90680143D02*
X228544200Y-90603953D01*
X228544200Y-90603953D02*
X228582295Y-90489667D01*
X228582295Y-90489667D02*
X228582295Y-90299191D01*
X220162295Y-77897810D02*
X220162295Y-77974000D01*
X220162295Y-77974000D02*
X220200390Y-78050191D01*
X220200390Y-78050191D02*
X220238485Y-78088286D01*
X220238485Y-78088286D02*
X220314676Y-78126381D01*
X220314676Y-78126381D02*
X220467057Y-78164476D01*
X220467057Y-78164476D02*
X220657533Y-78164476D01*
X220657533Y-78164476D02*
X220809914Y-78126381D01*
X220809914Y-78126381D02*
X220886104Y-78088286D01*
X220886104Y-78088286D02*
X220924200Y-78050191D01*
X220924200Y-78050191D02*
X220962295Y-77974000D01*
X220962295Y-77974000D02*
X220962295Y-77897810D01*
X220962295Y-77897810D02*
X220924200Y-77821619D01*
X220924200Y-77821619D02*
X220886104Y-77783524D01*
X220886104Y-77783524D02*
X220809914Y-77745429D01*
X220809914Y-77745429D02*
X220657533Y-77707333D01*
X220657533Y-77707333D02*
X220467057Y-77707333D01*
X220467057Y-77707333D02*
X220314676Y-77745429D01*
X220314676Y-77745429D02*
X220238485Y-77783524D01*
X220238485Y-77783524D02*
X220200390Y-77821619D01*
X220200390Y-77821619D02*
X220162295Y-77897810D01*
X220962295Y-78926381D02*
X220962295Y-78469238D01*
X220962295Y-78697810D02*
X220162295Y-78697810D01*
X220162295Y-78697810D02*
X220276580Y-78621619D01*
X220276580Y-78621619D02*
X220352771Y-78545429D01*
X220352771Y-78545429D02*
X220390866Y-78469238D01*
X220162295Y-79193048D02*
X220162295Y-79726382D01*
X220162295Y-79726382D02*
X220962295Y-79383524D01*
X210802295Y-89238857D02*
X210802295Y-88781714D01*
X210802295Y-89010286D02*
X210002295Y-89010286D01*
X210002295Y-89010286D02*
X210116580Y-88934095D01*
X210116580Y-88934095D02*
X210192771Y-88857905D01*
X210192771Y-88857905D02*
X210230866Y-88781714D01*
X210802295Y-90000762D02*
X210802295Y-89543619D01*
X210802295Y-89772191D02*
X210002295Y-89772191D01*
X210002295Y-89772191D02*
X210116580Y-89696000D01*
X210116580Y-89696000D02*
X210192771Y-89619810D01*
X210192771Y-89619810D02*
X210230866Y-89543619D01*
X210002295Y-90267429D02*
X210002295Y-90762667D01*
X210002295Y-90762667D02*
X210307057Y-90496001D01*
X210307057Y-90496001D02*
X210307057Y-90610286D01*
X210307057Y-90610286D02*
X210345152Y-90686477D01*
X210345152Y-90686477D02*
X210383247Y-90724572D01*
X210383247Y-90724572D02*
X210459438Y-90762667D01*
X210459438Y-90762667D02*
X210649914Y-90762667D01*
X210649914Y-90762667D02*
X210726104Y-90724572D01*
X210726104Y-90724572D02*
X210764200Y-90686477D01*
X210764200Y-90686477D02*
X210802295Y-90610286D01*
X210802295Y-90610286D02*
X210802295Y-90381715D01*
X210802295Y-90381715D02*
X210764200Y-90305524D01*
X210764200Y-90305524D02*
X210726104Y-90267429D01*
X220162295Y-88972191D02*
X220162295Y-89048381D01*
X220162295Y-89048381D02*
X220200390Y-89124572D01*
X220200390Y-89124572D02*
X220238485Y-89162667D01*
X220238485Y-89162667D02*
X220314676Y-89200762D01*
X220314676Y-89200762D02*
X220467057Y-89238857D01*
X220467057Y-89238857D02*
X220657533Y-89238857D01*
X220657533Y-89238857D02*
X220809914Y-89200762D01*
X220809914Y-89200762D02*
X220886104Y-89162667D01*
X220886104Y-89162667D02*
X220924200Y-89124572D01*
X220924200Y-89124572D02*
X220962295Y-89048381D01*
X220962295Y-89048381D02*
X220962295Y-88972191D01*
X220962295Y-88972191D02*
X220924200Y-88896000D01*
X220924200Y-88896000D02*
X220886104Y-88857905D01*
X220886104Y-88857905D02*
X220809914Y-88819810D01*
X220809914Y-88819810D02*
X220657533Y-88781714D01*
X220657533Y-88781714D02*
X220467057Y-88781714D01*
X220467057Y-88781714D02*
X220314676Y-88819810D01*
X220314676Y-88819810D02*
X220238485Y-88857905D01*
X220238485Y-88857905D02*
X220200390Y-88896000D01*
X220200390Y-88896000D02*
X220162295Y-88972191D01*
X220162295Y-89505524D02*
X220162295Y-90000762D01*
X220162295Y-90000762D02*
X220467057Y-89734096D01*
X220467057Y-89734096D02*
X220467057Y-89848381D01*
X220467057Y-89848381D02*
X220505152Y-89924572D01*
X220505152Y-89924572D02*
X220543247Y-89962667D01*
X220543247Y-89962667D02*
X220619438Y-90000762D01*
X220619438Y-90000762D02*
X220809914Y-90000762D01*
X220809914Y-90000762D02*
X220886104Y-89962667D01*
X220886104Y-89962667D02*
X220924200Y-89924572D01*
X220924200Y-89924572D02*
X220962295Y-89848381D01*
X220962295Y-89848381D02*
X220962295Y-89619810D01*
X220962295Y-89619810D02*
X220924200Y-89543619D01*
X220924200Y-89543619D02*
X220886104Y-89505524D01*
X220962295Y-90762667D02*
X220962295Y-90305524D01*
X220962295Y-90534096D02*
X220162295Y-90534096D01*
X220162295Y-90534096D02*
X220276580Y-90457905D01*
X220276580Y-90457905D02*
X220352771Y-90381715D01*
X220352771Y-90381715D02*
X220390866Y-90305524D01*
X217552295Y-77897810D02*
X217552295Y-77974000D01*
X217552295Y-77974000D02*
X217590390Y-78050191D01*
X217590390Y-78050191D02*
X217628485Y-78088286D01*
X217628485Y-78088286D02*
X217704676Y-78126381D01*
X217704676Y-78126381D02*
X217857057Y-78164476D01*
X217857057Y-78164476D02*
X218047533Y-78164476D01*
X218047533Y-78164476D02*
X218199914Y-78126381D01*
X218199914Y-78126381D02*
X218276104Y-78088286D01*
X218276104Y-78088286D02*
X218314200Y-78050191D01*
X218314200Y-78050191D02*
X218352295Y-77974000D01*
X218352295Y-77974000D02*
X218352295Y-77897810D01*
X218352295Y-77897810D02*
X218314200Y-77821619D01*
X218314200Y-77821619D02*
X218276104Y-77783524D01*
X218276104Y-77783524D02*
X218199914Y-77745429D01*
X218199914Y-77745429D02*
X218047533Y-77707333D01*
X218047533Y-77707333D02*
X217857057Y-77707333D01*
X217857057Y-77707333D02*
X217704676Y-77745429D01*
X217704676Y-77745429D02*
X217628485Y-77783524D01*
X217628485Y-77783524D02*
X217590390Y-77821619D01*
X217590390Y-77821619D02*
X217552295Y-77897810D01*
X217628485Y-78469238D02*
X217590390Y-78507334D01*
X217590390Y-78507334D02*
X217552295Y-78583524D01*
X217552295Y-78583524D02*
X217552295Y-78774000D01*
X217552295Y-78774000D02*
X217590390Y-78850191D01*
X217590390Y-78850191D02*
X217628485Y-78888286D01*
X217628485Y-78888286D02*
X217704676Y-78926381D01*
X217704676Y-78926381D02*
X217780866Y-78926381D01*
X217780866Y-78926381D02*
X217895152Y-78888286D01*
X217895152Y-78888286D02*
X218352295Y-78431143D01*
X218352295Y-78431143D02*
X218352295Y-78926381D01*
X217552295Y-79421620D02*
X217552295Y-79497810D01*
X217552295Y-79497810D02*
X217590390Y-79574001D01*
X217590390Y-79574001D02*
X217628485Y-79612096D01*
X217628485Y-79612096D02*
X217704676Y-79650191D01*
X217704676Y-79650191D02*
X217857057Y-79688286D01*
X217857057Y-79688286D02*
X218047533Y-79688286D01*
X218047533Y-79688286D02*
X218199914Y-79650191D01*
X218199914Y-79650191D02*
X218276104Y-79612096D01*
X218276104Y-79612096D02*
X218314200Y-79574001D01*
X218314200Y-79574001D02*
X218352295Y-79497810D01*
X218352295Y-79497810D02*
X218352295Y-79421620D01*
X218352295Y-79421620D02*
X218314200Y-79345429D01*
X218314200Y-79345429D02*
X218276104Y-79307334D01*
X218276104Y-79307334D02*
X218199914Y-79269239D01*
X218199914Y-79269239D02*
X218047533Y-79231143D01*
X218047533Y-79231143D02*
X217857057Y-79231143D01*
X217857057Y-79231143D02*
X217704676Y-79269239D01*
X217704676Y-79269239D02*
X217628485Y-79307334D01*
X217628485Y-79307334D02*
X217590390Y-79345429D01*
X217590390Y-79345429D02*
X217552295Y-79421620D01*
X222740390Y-78164476D02*
X222702295Y-78088286D01*
X222702295Y-78088286D02*
X222702295Y-77974000D01*
X222702295Y-77974000D02*
X222740390Y-77859714D01*
X222740390Y-77859714D02*
X222816580Y-77783524D01*
X222816580Y-77783524D02*
X222892771Y-77745429D01*
X222892771Y-77745429D02*
X223045152Y-77707333D01*
X223045152Y-77707333D02*
X223159438Y-77707333D01*
X223159438Y-77707333D02*
X223311819Y-77745429D01*
X223311819Y-77745429D02*
X223388009Y-77783524D01*
X223388009Y-77783524D02*
X223464200Y-77859714D01*
X223464200Y-77859714D02*
X223502295Y-77974000D01*
X223502295Y-77974000D02*
X223502295Y-78050191D01*
X223502295Y-78050191D02*
X223464200Y-78164476D01*
X223464200Y-78164476D02*
X223426104Y-78202572D01*
X223426104Y-78202572D02*
X223159438Y-78202572D01*
X223159438Y-78202572D02*
X223159438Y-78050191D01*
X223502295Y-78545429D02*
X222702295Y-78545429D01*
X222702295Y-78545429D02*
X223502295Y-79002572D01*
X223502295Y-79002572D02*
X222702295Y-79002572D01*
X223502295Y-79383524D02*
X222702295Y-79383524D01*
X222702295Y-79383524D02*
X222702295Y-79574000D01*
X222702295Y-79574000D02*
X222740390Y-79688286D01*
X222740390Y-79688286D02*
X222816580Y-79764476D01*
X222816580Y-79764476D02*
X222892771Y-79802571D01*
X222892771Y-79802571D02*
X223045152Y-79840667D01*
X223045152Y-79840667D02*
X223159438Y-79840667D01*
X223159438Y-79840667D02*
X223311819Y-79802571D01*
X223311819Y-79802571D02*
X223388009Y-79764476D01*
X223388009Y-79764476D02*
X223464200Y-79688286D01*
X223464200Y-79688286D02*
X223502295Y-79574000D01*
X223502295Y-79574000D02*
X223502295Y-79383524D01*
D11*
%TO.C,U2*%
X202910000Y-75345000D02*
X202910000Y-93125000D01*
X202910000Y-93125000D02*
X235930000Y-93125000D01*
X235930000Y-75345000D02*
X202910000Y-75345000D01*
X235930000Y-93125000D02*
X235930000Y-75345000D01*
%TD*%
M02*
