%TF.GenerationSoftware,KiCad,Pcbnew,9.0.0*%
%TF.CreationDate,2025-08-18T19:39:39-07:00*%
%TF.ProjectId,flatchord,666c6174-6368-46f7-9264-2e6b69636164,rev?*%
%TF.SameCoordinates,Original*%
%TF.FileFunction,Legend,Top*%
%TF.FilePolarity,Positive*%
%FSLAX46Y46*%
G04 Gerber Fmt 4.6, Leading zero omitted, Abs format (unit mm)*
G04 Created by KiCad (PCBNEW 9.0.0) date 2025-08-18 19:39:39*
%MOMM*%
%LPD*%
G01*
G04 APERTURE LIST*
%ADD10C,0.300000*%
%ADD11C,0.120000*%
%ADD12C,0.150000*%
%ADD13C,0.100000*%
G04 APERTURE END LIST*
D10*
G36*
X193151605Y-84475966D02*
G01*
X193138833Y-84646116D01*
X193106261Y-84760465D01*
X193059769Y-84834515D01*
X192991043Y-84886376D01*
X192885807Y-84921848D01*
X192729797Y-84935631D01*
X192553944Y-84921947D01*
X192437389Y-84887202D01*
X192363189Y-84837690D01*
X192312610Y-84764711D01*
X192277082Y-84648784D01*
X192263049Y-84472302D01*
X192263049Y-81654228D01*
X192285764Y-81421221D01*
X192318522Y-81336971D01*
X192368806Y-81271988D01*
X192436907Y-81223912D01*
X192528541Y-81191388D01*
X192780111Y-81168429D01*
X194229448Y-81168429D01*
X194388670Y-81187822D01*
X194486277Y-81237013D01*
X194541975Y-81311426D01*
X194561863Y-81419023D01*
X194541443Y-81530206D01*
X194486392Y-81598785D01*
X194397039Y-81637163D01*
X194240683Y-81653007D01*
X193138171Y-81653007D01*
X192933984Y-81672302D01*
X192865422Y-81701146D01*
X192816992Y-81746308D01*
X192784665Y-81808563D01*
X192762526Y-81904089D01*
X192748604Y-82176420D01*
X192762281Y-82426036D01*
X192785542Y-82509442D01*
X192821877Y-82563789D01*
X192875597Y-82600658D01*
X192955722Y-82623872D01*
X193199720Y-82637794D01*
X194212595Y-82637794D01*
X194389582Y-82654137D01*
X194486392Y-82692749D01*
X194545487Y-82763077D01*
X194567480Y-82880083D01*
X194546100Y-82997416D01*
X194489078Y-83067662D01*
X194396091Y-83106235D01*
X194229448Y-83122372D01*
X193569016Y-83122372D01*
X193342114Y-83136294D01*
X193268146Y-83161173D01*
X193216817Y-83204682D01*
X193183241Y-83267001D01*
X193162595Y-83362219D01*
X193151605Y-83639923D01*
X193151605Y-84475966D01*
G37*
G36*
X195721528Y-84435422D02*
G01*
X195707362Y-84675757D01*
X195684742Y-84762768D01*
X195649720Y-84824745D01*
X195599370Y-84870543D01*
X195531751Y-84899972D01*
X195338799Y-84920000D01*
X195176305Y-84910461D01*
X195086252Y-84888248D01*
X195018120Y-84843001D01*
X194962421Y-84764173D01*
X194933600Y-84652554D01*
X194927983Y-84435422D01*
X194927983Y-81502798D01*
X194942200Y-81320619D01*
X194974389Y-81228513D01*
X195036217Y-81173409D01*
X195142916Y-81152798D01*
X195244706Y-81173157D01*
X195305582Y-81228513D01*
X195337949Y-81320611D01*
X195352233Y-81502554D01*
X195352233Y-81996168D01*
X195362187Y-82116596D01*
X195384228Y-82173733D01*
X195429662Y-82210889D01*
X195531018Y-82246517D01*
X195636538Y-82291017D01*
X195686601Y-82339574D01*
X195710547Y-82412329D01*
X195721528Y-82568185D01*
X195721528Y-84435422D01*
G37*
G36*
X198013747Y-82277048D02*
G01*
X198091519Y-82301075D01*
X198145638Y-82340795D01*
X198183074Y-82397461D01*
X198206454Y-82478548D01*
X198220621Y-82713510D01*
X198220621Y-84480362D01*
X198203524Y-84707020D01*
X198178213Y-84785648D01*
X198140020Y-84842086D01*
X198085927Y-84881671D01*
X198008129Y-84905833D01*
X197781960Y-84920000D01*
X196590055Y-84920000D01*
X196366573Y-84902903D01*
X196286107Y-84877133D01*
X196231751Y-84839155D01*
X196193975Y-84784791D01*
X196168248Y-84704089D01*
X196151151Y-84479874D01*
X196151151Y-84024361D01*
X196939078Y-84024361D01*
X196939078Y-84205589D01*
X196947138Y-84364836D01*
X196962025Y-84417136D01*
X196986950Y-84452030D01*
X197075854Y-84489644D01*
X197233635Y-84497948D01*
X197507676Y-84497948D01*
X197659351Y-84486957D01*
X197745568Y-84446413D01*
X197785624Y-84361905D01*
X197796615Y-84211207D01*
X197796615Y-84041458D01*
X197788311Y-83873419D01*
X197774141Y-83817704D01*
X197751186Y-83780607D01*
X197716712Y-83755301D01*
X197664968Y-83740307D01*
X197507676Y-83732002D01*
X197228018Y-83732002D01*
X197060218Y-83748405D01*
X196989881Y-83783538D01*
X196955295Y-83854444D01*
X196939078Y-84024361D01*
X196151151Y-84024361D01*
X196151151Y-83761311D01*
X196165317Y-83526106D01*
X196189479Y-83445218D01*
X196229064Y-83388108D01*
X196285772Y-83348236D01*
X196363886Y-83324361D01*
X196590055Y-83309951D01*
X197507676Y-83309951D01*
X197659351Y-83298960D01*
X197745568Y-83258904D01*
X197785624Y-83172198D01*
X197796615Y-83019790D01*
X197796615Y-82969232D01*
X197788311Y-82816824D01*
X197774145Y-82764372D01*
X197751186Y-82730118D01*
X197717197Y-82707148D01*
X197665212Y-82692993D01*
X197507676Y-82684689D01*
X196836252Y-82684689D01*
X196709540Y-82693119D01*
X196647697Y-82711800D01*
X196609389Y-82751349D01*
X196586636Y-82831723D01*
X196575401Y-82911835D01*
X196537089Y-83023532D01*
X196469744Y-83084939D01*
X196366085Y-83106741D01*
X196259021Y-83087345D01*
X196197801Y-83036399D01*
X196165345Y-82950726D01*
X196151151Y-82783363D01*
X196151151Y-82715708D01*
X196165317Y-82479769D01*
X196189492Y-82398417D01*
X196229064Y-82341039D01*
X196285793Y-82300976D01*
X196363886Y-82277048D01*
X196590055Y-82262637D01*
X197787578Y-82262637D01*
X198013747Y-82277048D01*
G37*
G36*
X198842463Y-81664731D02*
G01*
X198856593Y-81482180D01*
X198888869Y-81387759D01*
X198951007Y-81330369D01*
X199057397Y-81309113D01*
X199163996Y-81329841D01*
X199225680Y-81385317D01*
X199258042Y-81477977D01*
X199272330Y-81661067D01*
X199272330Y-82061625D01*
X199280118Y-82181559D01*
X199295533Y-82226001D01*
X199330779Y-82248257D01*
X199421563Y-82262637D01*
X199547557Y-82280962D01*
X199625488Y-82322647D01*
X199670295Y-82384681D01*
X199686322Y-82473663D01*
X199671016Y-82564257D01*
X199628925Y-82626232D01*
X199557382Y-82666987D01*
X199443789Y-82684689D01*
X199336945Y-82699285D01*
X199295289Y-82721570D01*
X199276176Y-82766251D01*
X199266713Y-82884724D01*
X199266713Y-83002693D01*
X199276662Y-83123372D01*
X199298709Y-83180746D01*
X199344145Y-83217855D01*
X199445498Y-83253286D01*
X199551018Y-83297786D01*
X199601081Y-83346343D01*
X199625032Y-83419338D01*
X199636008Y-83575443D01*
X199636008Y-84434689D01*
X199621842Y-84675268D01*
X199599211Y-84762493D01*
X199564200Y-84824501D01*
X199513830Y-84870494D01*
X199446231Y-84899972D01*
X199253279Y-84920000D01*
X199090408Y-84910532D01*
X198997801Y-84888248D01*
X198928481Y-84842521D01*
X198876901Y-84763928D01*
X198848080Y-84652309D01*
X198842463Y-84434689D01*
X198842463Y-82918674D01*
X198837090Y-82823175D01*
X198829895Y-82755136D01*
X198813886Y-82724256D01*
X198720830Y-82690307D01*
X198648534Y-82684689D01*
X198521039Y-82651165D01*
X198452639Y-82583978D01*
X198428471Y-82476350D01*
X198444118Y-82381613D01*
X198486652Y-82318325D01*
X198558185Y-82278107D01*
X198671249Y-82262637D01*
X198766015Y-82254822D01*
X198816085Y-82218185D01*
X198837090Y-82131723D01*
X198842463Y-81973210D01*
X198842463Y-81664731D01*
G37*
G36*
X202897871Y-84482561D02*
G01*
X202879787Y-84655907D01*
X202832382Y-84775170D01*
X202760607Y-84855275D01*
X202692806Y-84893763D01*
X202612107Y-84918534D01*
X202324877Y-84935631D01*
X200685275Y-84935631D01*
X200394870Y-84915847D01*
X200293287Y-84884341D01*
X200220725Y-84835003D01*
X200169408Y-84765139D01*
X200137683Y-84668674D01*
X200117899Y-84387794D01*
X200117899Y-81682561D01*
X200140614Y-81429769D01*
X200173171Y-81338092D01*
X200220725Y-81271988D01*
X200286969Y-81224177D01*
X200380460Y-81191388D01*
X200634961Y-81168429D01*
X202364200Y-81168429D01*
X202640683Y-81191388D01*
X202739200Y-81225579D01*
X202808967Y-81277606D01*
X202857246Y-81350612D01*
X202886392Y-81454926D01*
X202903489Y-81754612D01*
X202897871Y-82013021D01*
X202881141Y-82170094D01*
X202839986Y-82262393D01*
X202768859Y-82320019D01*
X202660711Y-82340795D01*
X202543309Y-82320541D01*
X202475819Y-82267766D01*
X202437951Y-82179864D01*
X202417934Y-82017418D01*
X202395708Y-81822756D01*
X202370048Y-81758613D01*
X202328297Y-81713335D01*
X202269576Y-81683508D01*
X202177599Y-81664242D01*
X201910886Y-81653007D01*
X201048953Y-81653007D01*
X200808129Y-81669616D01*
X200726391Y-81696681D01*
X200671353Y-81740446D01*
X200634980Y-81803165D01*
X200611758Y-81897739D01*
X200598080Y-82174221D01*
X200603454Y-82364731D01*
X200625191Y-82480746D01*
X200673796Y-82554263D01*
X200761235Y-82606043D01*
X200902896Y-82680048D01*
X200947702Y-82714432D01*
X200977634Y-82758450D01*
X201003524Y-82890586D01*
X201006454Y-83125303D01*
X201006454Y-83828722D01*
X201009141Y-84011416D01*
X201017690Y-84171395D01*
X201034036Y-84275288D01*
X201070879Y-84346420D01*
X201126622Y-84393656D01*
X201254817Y-84433068D01*
X201524738Y-84451053D01*
X201910886Y-84451053D01*
X202191277Y-84437376D01*
X202282876Y-84411205D01*
X202341486Y-84366545D01*
X202378993Y-84299902D01*
X202401081Y-84195331D01*
X202412316Y-83878792D01*
X202428398Y-83716209D01*
X202467271Y-83623314D01*
X202537600Y-83565925D01*
X202655094Y-83544424D01*
X202772588Y-83565925D01*
X202842916Y-83623314D01*
X202881652Y-83716911D01*
X202897871Y-83884898D01*
X202897871Y-84482561D01*
G37*
G36*
X205368143Y-84564382D02*
G01*
X205354021Y-84746967D01*
X205321737Y-84841598D01*
X205259788Y-84898777D01*
X205153210Y-84920000D01*
X205046900Y-84899316D01*
X204987613Y-84844528D01*
X204957496Y-84752685D01*
X204944138Y-84570488D01*
X204944138Y-82973872D01*
X204927860Y-82805836D01*
X204893091Y-82735736D01*
X204823019Y-82700962D01*
X204655198Y-82684689D01*
X204017236Y-82684689D01*
X203849416Y-82700962D01*
X203779344Y-82735736D01*
X203744749Y-82805806D01*
X203728541Y-82973872D01*
X203728541Y-83130676D01*
X203738491Y-83250888D01*
X203760537Y-83307997D01*
X203805970Y-83345153D01*
X203907327Y-83380781D01*
X204012877Y-83425229D01*
X204062909Y-83473593D01*
X204086856Y-83546349D01*
X204097836Y-83702205D01*
X204097836Y-84435910D01*
X204083670Y-84676001D01*
X204061039Y-84762974D01*
X204026029Y-84824745D01*
X203975679Y-84870543D01*
X203908060Y-84899972D01*
X203715108Y-84920000D01*
X203547669Y-84910395D01*
X203456943Y-84888248D01*
X203388811Y-84843001D01*
X203333112Y-84764173D01*
X203304291Y-84652554D01*
X203298674Y-84435422D01*
X203298674Y-81502798D01*
X203312891Y-81320619D01*
X203345080Y-81228513D01*
X203406908Y-81173409D01*
X203513607Y-81152798D01*
X203619728Y-81173516D01*
X203679204Y-81228513D01*
X203709493Y-81320375D01*
X203722923Y-81502554D01*
X203722923Y-82012533D01*
X203738240Y-82146036D01*
X203773726Y-82211835D01*
X203839941Y-82247174D01*
X203978157Y-82262637D01*
X204929483Y-82262637D01*
X205155408Y-82277048D01*
X205233691Y-82300945D01*
X205290230Y-82340795D01*
X205329938Y-82397728D01*
X205353977Y-82478548D01*
X205368143Y-82713510D01*
X205368143Y-84564382D01*
G37*
G36*
X207659385Y-82277048D02*
G01*
X207739696Y-82301219D01*
X207794207Y-82340795D01*
X207831644Y-82397461D01*
X207855024Y-82478548D01*
X207869190Y-82713510D01*
X207869190Y-84480362D01*
X207852093Y-84707020D01*
X207826783Y-84785648D01*
X207788590Y-84842086D01*
X207734497Y-84881671D01*
X207656699Y-84905833D01*
X207430530Y-84920000D01*
X206238625Y-84920000D01*
X206015143Y-84905833D01*
X205934975Y-84881551D01*
X205880321Y-84842086D01*
X205842262Y-84785675D01*
X205816817Y-84707020D01*
X205799720Y-84480362D01*
X205799720Y-82974117D01*
X206223970Y-82974117D01*
X206223970Y-83131409D01*
X206233924Y-83251837D01*
X206255966Y-83308974D01*
X206301400Y-83346130D01*
X206402756Y-83381758D01*
X206508275Y-83426258D01*
X206558339Y-83474815D01*
X206582285Y-83547570D01*
X206593265Y-83703426D01*
X206593265Y-84208520D01*
X206601325Y-84366057D01*
X206616200Y-84417891D01*
X206641137Y-84452519D01*
X206730041Y-84489888D01*
X206887578Y-84497948D01*
X207156245Y-84497948D01*
X207307920Y-84486957D01*
X207394138Y-84446901D01*
X207434193Y-84360439D01*
X207445184Y-84208520D01*
X207445184Y-82974117D01*
X207429678Y-82805539D01*
X207396824Y-82735736D01*
X207329025Y-82701068D01*
X207161863Y-82684689D01*
X206512665Y-82684689D01*
X206344845Y-82700962D01*
X206274773Y-82735736D01*
X206240183Y-82805834D01*
X206223970Y-82974117D01*
X205799720Y-82974117D01*
X205799720Y-82713510D01*
X205813886Y-82478548D01*
X205838060Y-82397703D01*
X205877634Y-82340795D01*
X205934342Y-82300922D01*
X206012456Y-82277048D01*
X206238625Y-82262637D01*
X207430530Y-82262637D01*
X207659385Y-82277048D01*
G37*
G36*
X209094312Y-84434689D02*
G01*
X209080146Y-84675268D01*
X209057516Y-84762493D01*
X209022505Y-84824501D01*
X208972134Y-84870494D01*
X208904535Y-84899972D01*
X208711584Y-84920000D01*
X208549089Y-84910461D01*
X208459036Y-84888248D01*
X208390904Y-84843001D01*
X208335205Y-84764173D01*
X208306385Y-84652554D01*
X208300767Y-84435422D01*
X208300767Y-82713510D01*
X208314933Y-82478548D01*
X208339107Y-82397703D01*
X208378681Y-82340795D01*
X208435388Y-82300922D01*
X208513503Y-82277048D01*
X208739672Y-82262637D01*
X209450418Y-82262637D01*
X209632322Y-82276755D01*
X209726657Y-82309043D01*
X209784132Y-82369932D01*
X209805059Y-82470976D01*
X209783450Y-82581173D01*
X209726413Y-82641458D01*
X209632352Y-82671497D01*
X209450418Y-82684689D01*
X209013712Y-82684689D01*
X208845892Y-82700962D01*
X208775819Y-82735736D01*
X208741224Y-82806066D01*
X208725017Y-82974605D01*
X208725017Y-83002693D01*
X208734967Y-83123372D01*
X208757013Y-83180746D01*
X208802450Y-83217855D01*
X208903803Y-83253286D01*
X209009322Y-83297786D01*
X209059385Y-83346343D01*
X209083336Y-83419338D01*
X209094312Y-83575443D01*
X209094312Y-84434689D01*
G37*
G36*
X212052577Y-81173800D02*
G01*
X212112665Y-81228513D01*
X212142778Y-81320385D01*
X212156140Y-81502798D01*
X212156140Y-84480362D01*
X212139043Y-84695785D01*
X212112926Y-84774348D01*
X212072609Y-84830851D01*
X212016826Y-84871791D01*
X211940963Y-84899972D01*
X211728715Y-84920000D01*
X210525575Y-84920000D01*
X210302093Y-84905833D01*
X210221925Y-84881551D01*
X210167271Y-84842086D01*
X210129213Y-84785675D01*
X210103768Y-84707020D01*
X210086671Y-84480362D01*
X210086671Y-82974117D01*
X210510921Y-82974117D01*
X210510921Y-83131409D01*
X210520875Y-83251837D01*
X210542916Y-83308974D01*
X210588350Y-83346130D01*
X210689706Y-83381758D01*
X210795226Y-83426258D01*
X210845289Y-83474815D01*
X210869235Y-83547570D01*
X210880216Y-83703426D01*
X210880216Y-84208520D01*
X210888276Y-84366057D01*
X210903150Y-84417891D01*
X210928087Y-84452519D01*
X211016992Y-84489888D01*
X211174528Y-84497948D01*
X211443196Y-84497948D01*
X211594870Y-84486957D01*
X211684019Y-84446901D01*
X211709885Y-84412260D01*
X211726762Y-84360439D01*
X211737752Y-84208520D01*
X211737752Y-82974117D01*
X211721470Y-82805864D01*
X211686706Y-82735736D01*
X211616633Y-82700962D01*
X211448813Y-82684689D01*
X210799616Y-82684689D01*
X210631796Y-82700962D01*
X210561723Y-82735736D01*
X210527133Y-82805834D01*
X210510921Y-82974117D01*
X210086671Y-82974117D01*
X210086671Y-82707892D01*
X210100837Y-82478548D01*
X210125010Y-82397703D01*
X210164584Y-82340795D01*
X210221292Y-82300922D01*
X210299406Y-82277048D01*
X210525575Y-82262637D01*
X211482519Y-82262637D01*
X211619856Y-82247077D01*
X211683775Y-82211835D01*
X211717474Y-82146323D01*
X211732135Y-82012533D01*
X211732135Y-81502554D01*
X211746348Y-81320591D01*
X211778541Y-81228513D01*
X211839417Y-81173157D01*
X211941207Y-81152798D01*
X212052577Y-81173800D01*
G37*
G36*
X193115177Y-90652868D02*
G01*
X193106867Y-90816087D01*
X193086601Y-90917383D01*
X193047712Y-91000360D01*
X192989148Y-91065394D01*
X192920779Y-91107712D01*
X192837962Y-91133782D01*
X192553419Y-91150635D01*
X191685868Y-91150635D01*
X191425261Y-91164556D01*
X191341580Y-91190570D01*
X191286043Y-91236120D01*
X191250589Y-91303054D01*
X191229134Y-91409043D01*
X191218143Y-91728269D01*
X191237194Y-91955659D01*
X191266638Y-92023242D01*
X191316085Y-92074849D01*
X191364445Y-92107822D01*
X191438206Y-92124187D01*
X191560327Y-92132735D01*
X191753035Y-92135422D01*
X192659665Y-92135422D01*
X192881437Y-92138353D01*
X192986706Y-92158136D01*
X193044541Y-92185735D01*
X193093928Y-92236294D01*
X193126140Y-92302140D01*
X193137404Y-92383328D01*
X193115311Y-92499819D01*
X193056315Y-92567976D01*
X192958510Y-92604262D01*
X192771528Y-92620000D01*
X190846406Y-92620000D01*
X190581158Y-92599972D01*
X190487748Y-92568664D01*
X190421179Y-92519371D01*
X190374312Y-92449652D01*
X190343510Y-92350355D01*
X190323726Y-92067278D01*
X190323726Y-91213161D01*
X190337892Y-90950111D01*
X190360393Y-90871533D01*
X190397976Y-90804054D01*
X190468933Y-90735799D01*
X190552581Y-90694633D01*
X190656486Y-90674539D01*
X190835415Y-90666057D01*
X192122330Y-90666057D01*
X192284752Y-90666057D01*
X192469399Y-90647250D01*
X192530664Y-90619761D01*
X192575157Y-90577397D01*
X192604549Y-90518491D01*
X192623761Y-90424745D01*
X192634996Y-90156810D01*
X192634996Y-89851018D01*
X192621318Y-89580886D01*
X192597419Y-89490830D01*
X192558792Y-89431409D01*
X192501644Y-89390951D01*
X192416643Y-89366685D01*
X192161653Y-89353007D01*
X191260642Y-89353007D01*
X191035938Y-89366685D01*
X190956706Y-89387312D01*
X190901849Y-89417732D01*
X190860874Y-89460914D01*
X190834193Y-89517138D01*
X190815143Y-89683224D01*
X190809525Y-89804856D01*
X190789988Y-89984453D01*
X190754570Y-90075722D01*
X190689265Y-90129502D01*
X190572365Y-90150216D01*
X190441282Y-90127335D01*
X190373063Y-90069371D01*
X190339220Y-89968177D01*
X190323726Y-89751856D01*
X190323726Y-89411625D01*
X190343754Y-89130502D01*
X190375921Y-89032950D01*
X190427041Y-88965638D01*
X190499812Y-88919075D01*
X190606315Y-88888213D01*
X190913572Y-88868429D01*
X192508478Y-88868429D01*
X192809874Y-88885526D01*
X192907586Y-88910793D01*
X192977669Y-88947808D01*
X193046057Y-89007892D01*
X193089532Y-89090690D01*
X193109560Y-89217941D01*
X193115177Y-89410893D01*
X193115177Y-90652868D01*
G37*
G36*
X196206071Y-88888457D02*
G01*
X196304801Y-88919735D01*
X196374354Y-88968813D01*
X196423289Y-89038756D01*
X196454710Y-89140027D01*
X196474494Y-89425059D01*
X196474494Y-92108066D01*
X196454466Y-92365254D01*
X196423484Y-92456343D01*
X196374110Y-92522547D01*
X196305217Y-92569544D01*
X196208757Y-92600216D01*
X195935205Y-92620000D01*
X194138799Y-92620000D01*
X193845464Y-92600216D01*
X193742340Y-92567242D01*
X193671318Y-92513998D01*
X193622419Y-92438885D01*
X193591207Y-92334480D01*
X193571423Y-92035282D01*
X193571423Y-89872267D01*
X194056978Y-89872267D01*
X194056978Y-91588073D01*
X194067969Y-91889469D01*
X194086850Y-91992091D01*
X194114131Y-92054333D01*
X194158043Y-92097198D01*
X194225505Y-92121744D01*
X194435310Y-92135422D01*
X195022958Y-92135422D01*
X195337299Y-92124431D01*
X195440836Y-92103285D01*
X195501674Y-92070209D01*
X195542221Y-92017844D01*
X195566643Y-91936364D01*
X195580321Y-91683328D01*
X195580321Y-90920802D01*
X195585938Y-90730293D01*
X195591556Y-90557857D01*
X195620621Y-90448925D01*
X195686810Y-90376385D01*
X195803558Y-90319232D01*
X195909049Y-90263104D01*
X195956454Y-90213230D01*
X195978866Y-90143510D01*
X195988939Y-90001228D01*
X195994556Y-89771395D01*
X195977948Y-89560614D01*
X195953152Y-89485093D01*
X195915666Y-89432142D01*
X195862363Y-89394734D01*
X195784508Y-89369616D01*
X195565910Y-89353007D01*
X194536182Y-89353007D01*
X194267027Y-89366929D01*
X194180185Y-89391498D01*
X194124877Y-89431898D01*
X194089353Y-89491896D01*
X194067969Y-89585526D01*
X194056978Y-89872267D01*
X193571423Y-89872267D01*
X193571423Y-89425059D01*
X193591207Y-89128792D01*
X193621396Y-89042264D01*
X193668632Y-88977117D01*
X193739178Y-88924545D01*
X193828367Y-88891144D01*
X193938996Y-88875213D01*
X194133182Y-88868429D01*
X195923970Y-88868429D01*
X196206071Y-88888457D01*
G37*
G36*
X199739043Y-90652868D02*
G01*
X199730733Y-90816087D01*
X199710467Y-90917383D01*
X199671578Y-91000360D01*
X199613014Y-91065394D01*
X199544645Y-91107712D01*
X199461828Y-91133782D01*
X199177285Y-91150635D01*
X198309734Y-91150635D01*
X198049127Y-91164556D01*
X197965446Y-91190570D01*
X197909909Y-91236120D01*
X197874455Y-91303054D01*
X197853000Y-91409043D01*
X197842009Y-91728269D01*
X197861060Y-91955659D01*
X197890504Y-92023242D01*
X197939951Y-92074849D01*
X197988311Y-92107822D01*
X198062072Y-92124187D01*
X198184193Y-92132735D01*
X198376901Y-92135422D01*
X199283531Y-92135422D01*
X199505303Y-92138353D01*
X199610572Y-92158136D01*
X199668407Y-92185735D01*
X199717794Y-92236294D01*
X199750006Y-92302140D01*
X199761270Y-92383328D01*
X199739177Y-92499819D01*
X199680181Y-92567976D01*
X199582376Y-92604262D01*
X199395394Y-92620000D01*
X197470272Y-92620000D01*
X197205024Y-92599972D01*
X197111614Y-92568664D01*
X197045045Y-92519371D01*
X196998178Y-92449652D01*
X196967376Y-92350355D01*
X196947592Y-92067278D01*
X196947592Y-91213161D01*
X196961758Y-90950111D01*
X196984259Y-90871533D01*
X197021842Y-90804054D01*
X197092799Y-90735799D01*
X197176448Y-90694633D01*
X197280352Y-90674539D01*
X197459281Y-90666057D01*
X198746196Y-90666057D01*
X198908618Y-90666057D01*
X199093265Y-90647250D01*
X199154530Y-90619761D01*
X199199023Y-90577397D01*
X199228415Y-90518491D01*
X199247627Y-90424745D01*
X199258862Y-90156810D01*
X199258862Y-89851018D01*
X199245184Y-89580886D01*
X199221285Y-89490830D01*
X199182658Y-89431409D01*
X199125510Y-89390951D01*
X199040509Y-89366685D01*
X198785519Y-89353007D01*
X197884508Y-89353007D01*
X197659804Y-89366685D01*
X197580572Y-89387312D01*
X197525715Y-89417732D01*
X197484740Y-89460914D01*
X197458060Y-89517138D01*
X197439009Y-89683224D01*
X197433391Y-89804856D01*
X197413854Y-89984453D01*
X197378436Y-90075722D01*
X197313132Y-90129502D01*
X197196231Y-90150216D01*
X197065148Y-90127335D01*
X196996929Y-90069371D01*
X196963086Y-89968177D01*
X196947592Y-89751856D01*
X196947592Y-89411625D01*
X196967620Y-89130502D01*
X196999787Y-89032950D01*
X197050907Y-88965638D01*
X197123678Y-88919075D01*
X197230181Y-88888213D01*
X197537438Y-88868429D01*
X199132344Y-88868429D01*
X199433740Y-88885526D01*
X199531452Y-88910793D01*
X199601535Y-88947808D01*
X199669923Y-89007892D01*
X199713398Y-89090690D01*
X199733426Y-89217941D01*
X199739043Y-89410893D01*
X199739043Y-90652868D01*
G37*
G36*
X202947418Y-92014766D02*
G01*
X202927390Y-92329595D01*
X202895873Y-92438650D01*
X202847034Y-92514487D01*
X202776998Y-92567759D01*
X202678750Y-92600216D01*
X202391032Y-92620000D01*
X200740195Y-92620000D01*
X200438555Y-92600216D01*
X200332241Y-92568809D01*
X200259036Y-92520348D01*
X200207784Y-92450623D01*
X200175750Y-92352554D01*
X200155966Y-92065568D01*
X200155966Y-91747564D01*
X200164515Y-91528234D01*
X200208234Y-91424919D01*
X200289646Y-91360384D01*
X200398988Y-91338213D01*
X200516654Y-91358870D01*
X200586566Y-91413440D01*
X200625392Y-91503710D01*
X200641765Y-91669406D01*
X200655443Y-91915603D01*
X200677298Y-91998832D01*
X200709665Y-92054333D01*
X200757421Y-92093776D01*
X200826657Y-92119057D01*
X201031332Y-92135422D01*
X201585275Y-92135422D01*
X201835136Y-92121744D01*
X201920615Y-92098690D01*
X201977041Y-92062393D01*
X202015760Y-92008468D01*
X202039323Y-91928792D01*
X202053244Y-91696517D01*
X202053244Y-91294738D01*
X202039323Y-91034619D01*
X202014405Y-90950151D01*
X201971667Y-90892958D01*
X201908105Y-90855462D01*
X201807048Y-90833363D01*
X201506873Y-90822372D01*
X200717969Y-90822372D01*
X200430251Y-90802588D01*
X200330989Y-90771868D01*
X200259281Y-90724675D01*
X200208039Y-90657228D01*
X200175994Y-90561277D01*
X200155966Y-90286503D01*
X200155966Y-89331270D01*
X200178681Y-89106810D01*
X200211585Y-89025542D01*
X200261967Y-88963196D01*
X200330440Y-88918186D01*
X200424633Y-88888457D01*
X200678646Y-88868429D01*
X202368806Y-88868429D01*
X202581006Y-88885092D01*
X202687055Y-88922651D01*
X202750497Y-88993553D01*
X202774005Y-89113405D01*
X202753345Y-89229468D01*
X202698534Y-89298785D01*
X202607243Y-89336786D01*
X202435973Y-89353007D01*
X201087264Y-89353007D01*
X200837648Y-89369860D01*
X200758118Y-89393899D01*
X200712595Y-89424570D01*
X200682052Y-89477928D01*
X200655443Y-89577466D01*
X200636147Y-89879595D01*
X200652512Y-90121639D01*
X200678989Y-90202714D01*
X200720411Y-90257683D01*
X200779507Y-90295398D01*
X200865491Y-90320942D01*
X201120725Y-90337794D01*
X202363189Y-90337794D01*
X202661898Y-90357578D01*
X202766262Y-90388802D01*
X202841172Y-90437690D01*
X202894844Y-90507335D01*
X202927390Y-90603042D01*
X202947418Y-90881479D01*
X202947418Y-92014766D01*
G37*
G36*
X206018771Y-88888457D02*
G01*
X206117502Y-88919735D01*
X206187055Y-88968813D01*
X206235990Y-89038756D01*
X206267411Y-89140027D01*
X206287194Y-89425059D01*
X206287194Y-92108066D01*
X206267166Y-92365254D01*
X206236185Y-92456343D01*
X206186810Y-92522547D01*
X206117918Y-92569544D01*
X206021458Y-92600216D01*
X205747906Y-92620000D01*
X203951500Y-92620000D01*
X203658164Y-92600216D01*
X203555041Y-92567242D01*
X203484019Y-92513998D01*
X203435120Y-92438885D01*
X203403907Y-92334480D01*
X203384124Y-92035282D01*
X203384124Y-89872267D01*
X203869678Y-89872267D01*
X203869678Y-91588073D01*
X203880669Y-91889469D01*
X203899550Y-91992091D01*
X203926831Y-92054333D01*
X203970743Y-92097198D01*
X204038206Y-92121744D01*
X204248011Y-92135422D01*
X204835659Y-92135422D01*
X205150000Y-92124431D01*
X205253537Y-92103285D01*
X205314375Y-92070209D01*
X205354921Y-92017844D01*
X205379344Y-91936364D01*
X205393021Y-91683328D01*
X205393021Y-90920802D01*
X205398639Y-90730293D01*
X205404256Y-90557857D01*
X205433321Y-90448925D01*
X205499511Y-90376385D01*
X205616259Y-90319232D01*
X205721749Y-90263104D01*
X205769155Y-90213230D01*
X205791567Y-90143510D01*
X205801639Y-90001228D01*
X205807257Y-89771395D01*
X205790648Y-89560614D01*
X205765852Y-89485093D01*
X205728367Y-89432142D01*
X205675063Y-89394734D01*
X205597208Y-89369616D01*
X205378611Y-89353007D01*
X204348883Y-89353007D01*
X204079727Y-89366929D01*
X203992885Y-89391498D01*
X203937578Y-89431898D01*
X203902054Y-89491896D01*
X203880669Y-89585526D01*
X203869678Y-89872267D01*
X203384124Y-89872267D01*
X203384124Y-89425059D01*
X203403907Y-89128792D01*
X203434097Y-89042264D01*
X203481332Y-88977117D01*
X203551878Y-88924545D01*
X203641067Y-88891144D01*
X203751696Y-88875213D01*
X203945882Y-88868429D01*
X205736671Y-88868429D01*
X206018771Y-88888457D01*
G37*
G36*
X208961653Y-88891144D02*
G01*
X209052545Y-88924388D01*
X209118457Y-88974431D01*
X209165925Y-89043864D01*
X209198813Y-89142958D01*
X209221528Y-89414068D01*
X209221528Y-89867627D01*
X209227145Y-90048855D01*
X209248883Y-90161695D01*
X209292358Y-90234968D01*
X209363189Y-90292121D01*
X209435729Y-90331200D01*
X209535380Y-90402763D01*
X209595708Y-90500460D01*
X209624528Y-90656531D01*
X209630146Y-90903949D01*
X209630146Y-92163998D01*
X209615663Y-92339616D01*
X209579053Y-92454088D01*
X209526831Y-92525478D01*
X209450932Y-92572577D01*
X209327144Y-92606452D01*
X209135310Y-92620000D01*
X207266364Y-92620000D01*
X206995498Y-92597285D01*
X206896593Y-92564464D01*
X206827215Y-92517173D01*
X206777174Y-92451026D01*
X206743928Y-92359881D01*
X206721214Y-92102449D01*
X206721214Y-91224640D01*
X207212630Y-91224640D01*
X207212630Y-91745610D01*
X207234624Y-91964510D01*
X207282972Y-92062149D01*
X207376761Y-92112898D01*
X207579727Y-92135422D01*
X208206454Y-92135422D01*
X208492707Y-92124431D01*
X208586707Y-92103097D01*
X208648778Y-92067278D01*
X208691690Y-92012851D01*
X208716434Y-91933677D01*
X208730355Y-91683817D01*
X208730355Y-91224640D01*
X208716434Y-91003112D01*
X208693584Y-90928144D01*
X208656838Y-90877571D01*
X208603945Y-90842909D01*
X208525924Y-90820662D01*
X208301465Y-90806741D01*
X207596336Y-90806741D01*
X207400209Y-90823349D01*
X207333228Y-90847940D01*
X207285903Y-90885631D01*
X207252731Y-90937849D01*
X207228995Y-91013859D01*
X207212630Y-91224640D01*
X206721214Y-91224640D01*
X206721214Y-90752519D01*
X206734704Y-90579485D01*
X206766887Y-90480188D01*
X206828812Y-90400790D01*
X206943475Y-90314836D01*
X207048255Y-90248401D01*
X207102233Y-90178060D01*
X207124214Y-90062777D01*
X207129832Y-89873244D01*
X207129832Y-89837585D01*
X207615387Y-89837585D01*
X207626378Y-90095994D01*
X207646366Y-90184584D01*
X207677913Y-90241074D01*
X207725034Y-90280853D01*
X207789288Y-90305799D01*
X207988101Y-90322163D01*
X208363014Y-90322163D01*
X208559141Y-90305799D01*
X208625360Y-90280557D01*
X208670516Y-90241074D01*
X208699979Y-90184848D01*
X208719120Y-90095994D01*
X208730355Y-89837585D01*
X208719120Y-89579420D01*
X208699959Y-89490389D01*
X208670516Y-89434340D01*
X208625337Y-89394664D01*
X208559141Y-89369371D01*
X208363014Y-89353007D01*
X207988101Y-89353007D01*
X207789288Y-89369371D01*
X207725054Y-89394368D01*
X207677913Y-89434340D01*
X207646387Y-89490654D01*
X207626378Y-89579420D01*
X207615387Y-89837585D01*
X207129832Y-89837585D01*
X207129832Y-89419441D01*
X207149616Y-89142958D01*
X207178885Y-89043588D01*
X207221179Y-88974675D01*
X207281752Y-88924407D01*
X207366992Y-88891144D01*
X207607571Y-88868429D01*
X208710083Y-88868429D01*
X208961653Y-88891144D01*
G37*
G36*
X210426378Y-89171779D02*
G01*
X210444213Y-89026825D01*
X210489548Y-88937726D01*
X210558360Y-88886698D01*
X210658164Y-88868429D01*
X210770488Y-88887148D01*
X210845728Y-88938147D01*
X210893690Y-89024194D01*
X210912177Y-89160544D01*
X210912177Y-92221884D01*
X210898812Y-92357858D01*
X210863203Y-92456019D01*
X210808862Y-92525966D01*
X210734010Y-92574561D01*
X210626020Y-92607443D01*
X210473517Y-92620000D01*
X210316935Y-92607409D01*
X210206109Y-92574480D01*
X210129378Y-92525966D01*
X210073493Y-92455785D01*
X210037031Y-92357601D01*
X210023377Y-92221884D01*
X210023377Y-90827745D01*
X210023377Y-90660439D01*
X210034394Y-90529595D01*
X210060990Y-90453077D01*
X210112226Y-90395238D01*
X210207536Y-90340969D01*
X210269330Y-90318743D01*
X210353349Y-90270383D01*
X210399023Y-90200286D01*
X210420760Y-90079874D01*
X210426378Y-89880083D01*
X210426378Y-89171779D01*
G37*
G36*
X213584682Y-88891144D02*
G01*
X213675573Y-88924388D01*
X213741486Y-88974431D01*
X213788954Y-89043864D01*
X213821842Y-89142958D01*
X213844556Y-89414068D01*
X213844556Y-89867627D01*
X213850174Y-90048855D01*
X213871912Y-90161695D01*
X213915387Y-90234968D01*
X213986217Y-90292121D01*
X214058757Y-90331200D01*
X214158408Y-90402763D01*
X214218736Y-90500460D01*
X214247557Y-90656531D01*
X214253175Y-90903949D01*
X214253175Y-92163998D01*
X214238691Y-92339616D01*
X214202081Y-92454088D01*
X214149860Y-92525478D01*
X214073960Y-92572577D01*
X213950173Y-92606452D01*
X213758339Y-92620000D01*
X211889392Y-92620000D01*
X211618527Y-92597285D01*
X211519622Y-92564464D01*
X211450244Y-92517173D01*
X211400203Y-92451026D01*
X211366957Y-92359881D01*
X211344242Y-92102449D01*
X211344242Y-91224640D01*
X211835659Y-91224640D01*
X211835659Y-91745610D01*
X211857652Y-91964510D01*
X211906001Y-92062149D01*
X211999790Y-92112898D01*
X212202756Y-92135422D01*
X212829483Y-92135422D01*
X213115736Y-92124431D01*
X213209735Y-92103097D01*
X213271807Y-92067278D01*
X213314718Y-92012851D01*
X213339462Y-91933677D01*
X213353384Y-91683817D01*
X213353384Y-91224640D01*
X213339462Y-91003112D01*
X213316613Y-90928144D01*
X213279867Y-90877571D01*
X213226973Y-90842909D01*
X213148953Y-90820662D01*
X212924494Y-90806741D01*
X212219364Y-90806741D01*
X212023237Y-90823349D01*
X211956257Y-90847940D01*
X211908932Y-90885631D01*
X211875760Y-90937849D01*
X211852023Y-91013859D01*
X211835659Y-91224640D01*
X211344242Y-91224640D01*
X211344242Y-90752519D01*
X211357733Y-90579485D01*
X211389916Y-90480188D01*
X211451841Y-90400790D01*
X211566503Y-90314836D01*
X211671284Y-90248401D01*
X211725261Y-90178060D01*
X211747243Y-90062777D01*
X211752861Y-89873244D01*
X211752861Y-89837585D01*
X212238415Y-89837585D01*
X212249406Y-90095994D01*
X212269395Y-90184584D01*
X212300942Y-90241074D01*
X212348062Y-90280853D01*
X212412316Y-90305799D01*
X212611130Y-90322163D01*
X212986043Y-90322163D01*
X213182170Y-90305799D01*
X213248388Y-90280557D01*
X213293545Y-90241074D01*
X213323007Y-90184848D01*
X213342149Y-90095994D01*
X213353384Y-89837585D01*
X213342149Y-89579420D01*
X213322987Y-89490389D01*
X213293545Y-89434340D01*
X213248366Y-89394664D01*
X213182170Y-89369371D01*
X212986043Y-89353007D01*
X212611130Y-89353007D01*
X212412316Y-89369371D01*
X212348083Y-89394368D01*
X212300942Y-89434340D01*
X212269415Y-89490654D01*
X212249406Y-89579420D01*
X212238415Y-89837585D01*
X211752861Y-89837585D01*
X211752861Y-89419441D01*
X211772644Y-89142958D01*
X211801913Y-89043588D01*
X211844207Y-88974675D01*
X211904780Y-88924407D01*
X211990020Y-88891144D01*
X212230600Y-88868429D01*
X213333112Y-88868429D01*
X213584682Y-88891144D01*
G37*
D11*
X219083855Y-98080951D02*
X218283855Y-98080951D01*
X218283855Y-97547618D02*
X218283855Y-97395237D01*
X218283855Y-97395237D02*
X218321950Y-97319047D01*
X218321950Y-97319047D02*
X218398140Y-97242856D01*
X218398140Y-97242856D02*
X218550521Y-97204761D01*
X218550521Y-97204761D02*
X218817188Y-97204761D01*
X218817188Y-97204761D02*
X218969569Y-97242856D01*
X218969569Y-97242856D02*
X219045760Y-97319047D01*
X219045760Y-97319047D02*
X219083855Y-97395237D01*
X219083855Y-97395237D02*
X219083855Y-97547618D01*
X219083855Y-97547618D02*
X219045760Y-97623809D01*
X219045760Y-97623809D02*
X218969569Y-97699999D01*
X218969569Y-97699999D02*
X218817188Y-97738095D01*
X218817188Y-97738095D02*
X218550521Y-97738095D01*
X218550521Y-97738095D02*
X218398140Y-97699999D01*
X218398140Y-97699999D02*
X218321950Y-97623809D01*
X218321950Y-97623809D02*
X218283855Y-97547618D01*
X219083855Y-96442857D02*
X219083855Y-96900000D01*
X219083855Y-96671428D02*
X218283855Y-96671428D01*
X218283855Y-96671428D02*
X218398140Y-96747619D01*
X218398140Y-96747619D02*
X218474331Y-96823809D01*
X218474331Y-96823809D02*
X218512426Y-96900000D01*
X218360045Y-96138095D02*
X218321950Y-96099999D01*
X218321950Y-96099999D02*
X218283855Y-96023809D01*
X218283855Y-96023809D02*
X218283855Y-95833333D01*
X218283855Y-95833333D02*
X218321950Y-95757142D01*
X218321950Y-95757142D02*
X218360045Y-95719047D01*
X218360045Y-95719047D02*
X218436236Y-95680952D01*
X218436236Y-95680952D02*
X218512426Y-95680952D01*
X218512426Y-95680952D02*
X218626712Y-95719047D01*
X218626712Y-95719047D02*
X219083855Y-96176190D01*
X219083855Y-96176190D02*
X219083855Y-95680952D01*
X221623855Y-98080951D02*
X220823855Y-98080951D01*
X220823855Y-97547618D02*
X220823855Y-97395237D01*
X220823855Y-97395237D02*
X220861950Y-97319047D01*
X220861950Y-97319047D02*
X220938140Y-97242856D01*
X220938140Y-97242856D02*
X221090521Y-97204761D01*
X221090521Y-97204761D02*
X221357188Y-97204761D01*
X221357188Y-97204761D02*
X221509569Y-97242856D01*
X221509569Y-97242856D02*
X221585760Y-97319047D01*
X221585760Y-97319047D02*
X221623855Y-97395237D01*
X221623855Y-97395237D02*
X221623855Y-97547618D01*
X221623855Y-97547618D02*
X221585760Y-97623809D01*
X221585760Y-97623809D02*
X221509569Y-97699999D01*
X221509569Y-97699999D02*
X221357188Y-97738095D01*
X221357188Y-97738095D02*
X221090521Y-97738095D01*
X221090521Y-97738095D02*
X220938140Y-97699999D01*
X220938140Y-97699999D02*
X220861950Y-97623809D01*
X220861950Y-97623809D02*
X220823855Y-97547618D01*
X221623855Y-96442857D02*
X221623855Y-96900000D01*
X221623855Y-96671428D02*
X220823855Y-96671428D01*
X220823855Y-96671428D02*
X220938140Y-96747619D01*
X220938140Y-96747619D02*
X221014331Y-96823809D01*
X221014331Y-96823809D02*
X221052426Y-96900000D01*
X220823855Y-96176190D02*
X220823855Y-95680952D01*
X220823855Y-95680952D02*
X221128617Y-95947618D01*
X221128617Y-95947618D02*
X221128617Y-95833333D01*
X221128617Y-95833333D02*
X221166712Y-95757142D01*
X221166712Y-95757142D02*
X221204807Y-95719047D01*
X221204807Y-95719047D02*
X221280998Y-95680952D01*
X221280998Y-95680952D02*
X221471474Y-95680952D01*
X221471474Y-95680952D02*
X221547664Y-95719047D01*
X221547664Y-95719047D02*
X221585760Y-95757142D01*
X221585760Y-95757142D02*
X221623855Y-95833333D01*
X221623855Y-95833333D02*
X221623855Y-96061904D01*
X221623855Y-96061904D02*
X221585760Y-96138095D01*
X221585760Y-96138095D02*
X221547664Y-96176190D01*
X208923855Y-76699999D02*
X208123855Y-76699999D01*
X208123855Y-76166666D02*
X208123855Y-76014285D01*
X208123855Y-76014285D02*
X208161950Y-75938095D01*
X208161950Y-75938095D02*
X208238140Y-75861904D01*
X208238140Y-75861904D02*
X208390521Y-75823809D01*
X208390521Y-75823809D02*
X208657188Y-75823809D01*
X208657188Y-75823809D02*
X208809569Y-75861904D01*
X208809569Y-75861904D02*
X208885760Y-75938095D01*
X208885760Y-75938095D02*
X208923855Y-76014285D01*
X208923855Y-76014285D02*
X208923855Y-76166666D01*
X208923855Y-76166666D02*
X208885760Y-76242857D01*
X208885760Y-76242857D02*
X208809569Y-76319047D01*
X208809569Y-76319047D02*
X208657188Y-76357143D01*
X208657188Y-76357143D02*
X208390521Y-76357143D01*
X208390521Y-76357143D02*
X208238140Y-76319047D01*
X208238140Y-76319047D02*
X208161950Y-76242857D01*
X208161950Y-76242857D02*
X208123855Y-76166666D01*
X208123855Y-75557143D02*
X208123855Y-75023809D01*
X208123855Y-75023809D02*
X208923855Y-75366667D01*
X221623855Y-76699999D02*
X220823855Y-76699999D01*
X220823855Y-76166666D02*
X220823855Y-76014285D01*
X220823855Y-76014285D02*
X220861950Y-75938095D01*
X220861950Y-75938095D02*
X220938140Y-75861904D01*
X220938140Y-75861904D02*
X221090521Y-75823809D01*
X221090521Y-75823809D02*
X221357188Y-75823809D01*
X221357188Y-75823809D02*
X221509569Y-75861904D01*
X221509569Y-75861904D02*
X221585760Y-75938095D01*
X221585760Y-75938095D02*
X221623855Y-76014285D01*
X221623855Y-76014285D02*
X221623855Y-76166666D01*
X221623855Y-76166666D02*
X221585760Y-76242857D01*
X221585760Y-76242857D02*
X221509569Y-76319047D01*
X221509569Y-76319047D02*
X221357188Y-76357143D01*
X221357188Y-76357143D02*
X221090521Y-76357143D01*
X221090521Y-76357143D02*
X220938140Y-76319047D01*
X220938140Y-76319047D02*
X220861950Y-76242857D01*
X220861950Y-76242857D02*
X220823855Y-76166666D01*
X220900045Y-75519048D02*
X220861950Y-75480952D01*
X220861950Y-75480952D02*
X220823855Y-75404762D01*
X220823855Y-75404762D02*
X220823855Y-75214286D01*
X220823855Y-75214286D02*
X220861950Y-75138095D01*
X220861950Y-75138095D02*
X220900045Y-75100000D01*
X220900045Y-75100000D02*
X220976236Y-75061905D01*
X220976236Y-75061905D02*
X221052426Y-75061905D01*
X221052426Y-75061905D02*
X221166712Y-75100000D01*
X221166712Y-75100000D02*
X221623855Y-75557143D01*
X221623855Y-75557143D02*
X221623855Y-75061905D01*
X211463855Y-76699999D02*
X210663855Y-76699999D01*
X210663855Y-76166666D02*
X210663855Y-76014285D01*
X210663855Y-76014285D02*
X210701950Y-75938095D01*
X210701950Y-75938095D02*
X210778140Y-75861904D01*
X210778140Y-75861904D02*
X210930521Y-75823809D01*
X210930521Y-75823809D02*
X211197188Y-75823809D01*
X211197188Y-75823809D02*
X211349569Y-75861904D01*
X211349569Y-75861904D02*
X211425760Y-75938095D01*
X211425760Y-75938095D02*
X211463855Y-76014285D01*
X211463855Y-76014285D02*
X211463855Y-76166666D01*
X211463855Y-76166666D02*
X211425760Y-76242857D01*
X211425760Y-76242857D02*
X211349569Y-76319047D01*
X211349569Y-76319047D02*
X211197188Y-76357143D01*
X211197188Y-76357143D02*
X210930521Y-76357143D01*
X210930521Y-76357143D02*
X210778140Y-76319047D01*
X210778140Y-76319047D02*
X210701950Y-76242857D01*
X210701950Y-76242857D02*
X210663855Y-76166666D01*
X210663855Y-75138095D02*
X210663855Y-75290476D01*
X210663855Y-75290476D02*
X210701950Y-75366667D01*
X210701950Y-75366667D02*
X210740045Y-75404762D01*
X210740045Y-75404762D02*
X210854331Y-75480952D01*
X210854331Y-75480952D02*
X211006712Y-75519048D01*
X211006712Y-75519048D02*
X211311474Y-75519048D01*
X211311474Y-75519048D02*
X211387664Y-75480952D01*
X211387664Y-75480952D02*
X211425760Y-75442857D01*
X211425760Y-75442857D02*
X211463855Y-75366667D01*
X211463855Y-75366667D02*
X211463855Y-75214286D01*
X211463855Y-75214286D02*
X211425760Y-75138095D01*
X211425760Y-75138095D02*
X211387664Y-75100000D01*
X211387664Y-75100000D02*
X211311474Y-75061905D01*
X211311474Y-75061905D02*
X211120998Y-75061905D01*
X211120998Y-75061905D02*
X211044807Y-75100000D01*
X211044807Y-75100000D02*
X211006712Y-75138095D01*
X211006712Y-75138095D02*
X210968617Y-75214286D01*
X210968617Y-75214286D02*
X210968617Y-75366667D01*
X210968617Y-75366667D02*
X211006712Y-75442857D01*
X211006712Y-75442857D02*
X211044807Y-75480952D01*
X211044807Y-75480952D02*
X211120998Y-75519048D01*
X225941950Y-97509523D02*
X225903855Y-97585713D01*
X225903855Y-97585713D02*
X225903855Y-97699999D01*
X225903855Y-97699999D02*
X225941950Y-97814285D01*
X225941950Y-97814285D02*
X226018140Y-97890475D01*
X226018140Y-97890475D02*
X226094331Y-97928570D01*
X226094331Y-97928570D02*
X226246712Y-97966666D01*
X226246712Y-97966666D02*
X226360998Y-97966666D01*
X226360998Y-97966666D02*
X226513379Y-97928570D01*
X226513379Y-97928570D02*
X226589569Y-97890475D01*
X226589569Y-97890475D02*
X226665760Y-97814285D01*
X226665760Y-97814285D02*
X226703855Y-97699999D01*
X226703855Y-97699999D02*
X226703855Y-97623808D01*
X226703855Y-97623808D02*
X226665760Y-97509523D01*
X226665760Y-97509523D02*
X226627664Y-97471427D01*
X226627664Y-97471427D02*
X226360998Y-97471427D01*
X226360998Y-97471427D02*
X226360998Y-97623808D01*
X226703855Y-97128570D02*
X225903855Y-97128570D01*
X225903855Y-97128570D02*
X226703855Y-96671427D01*
X226703855Y-96671427D02*
X225903855Y-96671427D01*
X226703855Y-96290475D02*
X225903855Y-96290475D01*
X225903855Y-96290475D02*
X225903855Y-96099999D01*
X225903855Y-96099999D02*
X225941950Y-95985713D01*
X225941950Y-95985713D02*
X226018140Y-95909523D01*
X226018140Y-95909523D02*
X226094331Y-95871428D01*
X226094331Y-95871428D02*
X226246712Y-95833332D01*
X226246712Y-95833332D02*
X226360998Y-95833332D01*
X226360998Y-95833332D02*
X226513379Y-95871428D01*
X226513379Y-95871428D02*
X226589569Y-95909523D01*
X226589569Y-95909523D02*
X226665760Y-95985713D01*
X226665760Y-95985713D02*
X226703855Y-96099999D01*
X226703855Y-96099999D02*
X226703855Y-96290475D01*
X214003855Y-76699999D02*
X213203855Y-76699999D01*
X213203855Y-76166666D02*
X213203855Y-76014285D01*
X213203855Y-76014285D02*
X213241950Y-75938095D01*
X213241950Y-75938095D02*
X213318140Y-75861904D01*
X213318140Y-75861904D02*
X213470521Y-75823809D01*
X213470521Y-75823809D02*
X213737188Y-75823809D01*
X213737188Y-75823809D02*
X213889569Y-75861904D01*
X213889569Y-75861904D02*
X213965760Y-75938095D01*
X213965760Y-75938095D02*
X214003855Y-76014285D01*
X214003855Y-76014285D02*
X214003855Y-76166666D01*
X214003855Y-76166666D02*
X213965760Y-76242857D01*
X213965760Y-76242857D02*
X213889569Y-76319047D01*
X213889569Y-76319047D02*
X213737188Y-76357143D01*
X213737188Y-76357143D02*
X213470521Y-76357143D01*
X213470521Y-76357143D02*
X213318140Y-76319047D01*
X213318140Y-76319047D02*
X213241950Y-76242857D01*
X213241950Y-76242857D02*
X213203855Y-76166666D01*
X213203855Y-75100000D02*
X213203855Y-75480952D01*
X213203855Y-75480952D02*
X213584807Y-75519048D01*
X213584807Y-75519048D02*
X213546712Y-75480952D01*
X213546712Y-75480952D02*
X213508617Y-75404762D01*
X213508617Y-75404762D02*
X213508617Y-75214286D01*
X213508617Y-75214286D02*
X213546712Y-75138095D01*
X213546712Y-75138095D02*
X213584807Y-75100000D01*
X213584807Y-75100000D02*
X213660998Y-75061905D01*
X213660998Y-75061905D02*
X213851474Y-75061905D01*
X213851474Y-75061905D02*
X213927664Y-75100000D01*
X213927664Y-75100000D02*
X213965760Y-75138095D01*
X213965760Y-75138095D02*
X214003855Y-75214286D01*
X214003855Y-75214286D02*
X214003855Y-75404762D01*
X214003855Y-75404762D02*
X213965760Y-75480952D01*
X213965760Y-75480952D02*
X213927664Y-75519048D01*
X224163855Y-76699999D02*
X223363855Y-76699999D01*
X223363855Y-76166666D02*
X223363855Y-76014285D01*
X223363855Y-76014285D02*
X223401950Y-75938095D01*
X223401950Y-75938095D02*
X223478140Y-75861904D01*
X223478140Y-75861904D02*
X223630521Y-75823809D01*
X223630521Y-75823809D02*
X223897188Y-75823809D01*
X223897188Y-75823809D02*
X224049569Y-75861904D01*
X224049569Y-75861904D02*
X224125760Y-75938095D01*
X224125760Y-75938095D02*
X224163855Y-76014285D01*
X224163855Y-76014285D02*
X224163855Y-76166666D01*
X224163855Y-76166666D02*
X224125760Y-76242857D01*
X224125760Y-76242857D02*
X224049569Y-76319047D01*
X224049569Y-76319047D02*
X223897188Y-76357143D01*
X223897188Y-76357143D02*
X223630521Y-76357143D01*
X223630521Y-76357143D02*
X223478140Y-76319047D01*
X223478140Y-76319047D02*
X223401950Y-76242857D01*
X223401950Y-76242857D02*
X223363855Y-76166666D01*
X224163855Y-75061905D02*
X224163855Y-75519048D01*
X224163855Y-75290476D02*
X223363855Y-75290476D01*
X223363855Y-75290476D02*
X223478140Y-75366667D01*
X223478140Y-75366667D02*
X223554331Y-75442857D01*
X223554331Y-75442857D02*
X223592426Y-75519048D01*
X226703855Y-76033332D02*
X226322902Y-76299999D01*
X226703855Y-76490475D02*
X225903855Y-76490475D01*
X225903855Y-76490475D02*
X225903855Y-76185713D01*
X225903855Y-76185713D02*
X225941950Y-76109523D01*
X225941950Y-76109523D02*
X225980045Y-76071428D01*
X225980045Y-76071428D02*
X226056236Y-76033332D01*
X226056236Y-76033332D02*
X226170521Y-76033332D01*
X226170521Y-76033332D02*
X226246712Y-76071428D01*
X226246712Y-76071428D02*
X226284807Y-76109523D01*
X226284807Y-76109523D02*
X226322902Y-76185713D01*
X226322902Y-76185713D02*
X226322902Y-76490475D01*
X225903855Y-75766666D02*
X226703855Y-75233332D01*
X225903855Y-75233332D02*
X226703855Y-75766666D01*
X211463855Y-97699999D02*
X210663855Y-97699999D01*
X210663855Y-97166666D02*
X210663855Y-97014285D01*
X210663855Y-97014285D02*
X210701950Y-96938095D01*
X210701950Y-96938095D02*
X210778140Y-96861904D01*
X210778140Y-96861904D02*
X210930521Y-96823809D01*
X210930521Y-96823809D02*
X211197188Y-96823809D01*
X211197188Y-96823809D02*
X211349569Y-96861904D01*
X211349569Y-96861904D02*
X211425760Y-96938095D01*
X211425760Y-96938095D02*
X211463855Y-97014285D01*
X211463855Y-97014285D02*
X211463855Y-97166666D01*
X211463855Y-97166666D02*
X211425760Y-97242857D01*
X211425760Y-97242857D02*
X211349569Y-97319047D01*
X211349569Y-97319047D02*
X211197188Y-97357143D01*
X211197188Y-97357143D02*
X210930521Y-97357143D01*
X210930521Y-97357143D02*
X210778140Y-97319047D01*
X210778140Y-97319047D02*
X210701950Y-97242857D01*
X210701950Y-97242857D02*
X210663855Y-97166666D01*
X211463855Y-96442857D02*
X211463855Y-96290476D01*
X211463855Y-96290476D02*
X211425760Y-96214286D01*
X211425760Y-96214286D02*
X211387664Y-96176190D01*
X211387664Y-96176190D02*
X211273379Y-96100000D01*
X211273379Y-96100000D02*
X211120998Y-96061905D01*
X211120998Y-96061905D02*
X210816236Y-96061905D01*
X210816236Y-96061905D02*
X210740045Y-96100000D01*
X210740045Y-96100000D02*
X210701950Y-96138095D01*
X210701950Y-96138095D02*
X210663855Y-96214286D01*
X210663855Y-96214286D02*
X210663855Y-96366667D01*
X210663855Y-96366667D02*
X210701950Y-96442857D01*
X210701950Y-96442857D02*
X210740045Y-96480952D01*
X210740045Y-96480952D02*
X210816236Y-96519048D01*
X210816236Y-96519048D02*
X211006712Y-96519048D01*
X211006712Y-96519048D02*
X211082902Y-96480952D01*
X211082902Y-96480952D02*
X211120998Y-96442857D01*
X211120998Y-96442857D02*
X211159093Y-96366667D01*
X211159093Y-96366667D02*
X211159093Y-96214286D01*
X211159093Y-96214286D02*
X211120998Y-96138095D01*
X211120998Y-96138095D02*
X211082902Y-96100000D01*
X211082902Y-96100000D02*
X211006712Y-96061905D01*
X216543855Y-76699999D02*
X215743855Y-76699999D01*
X215743855Y-76166666D02*
X215743855Y-76014285D01*
X215743855Y-76014285D02*
X215781950Y-75938095D01*
X215781950Y-75938095D02*
X215858140Y-75861904D01*
X215858140Y-75861904D02*
X216010521Y-75823809D01*
X216010521Y-75823809D02*
X216277188Y-75823809D01*
X216277188Y-75823809D02*
X216429569Y-75861904D01*
X216429569Y-75861904D02*
X216505760Y-75938095D01*
X216505760Y-75938095D02*
X216543855Y-76014285D01*
X216543855Y-76014285D02*
X216543855Y-76166666D01*
X216543855Y-76166666D02*
X216505760Y-76242857D01*
X216505760Y-76242857D02*
X216429569Y-76319047D01*
X216429569Y-76319047D02*
X216277188Y-76357143D01*
X216277188Y-76357143D02*
X216010521Y-76357143D01*
X216010521Y-76357143D02*
X215858140Y-76319047D01*
X215858140Y-76319047D02*
X215781950Y-76242857D01*
X215781950Y-76242857D02*
X215743855Y-76166666D01*
X216010521Y-75138095D02*
X216543855Y-75138095D01*
X215705760Y-75328571D02*
X216277188Y-75519048D01*
X216277188Y-75519048D02*
X216277188Y-75023809D01*
X216543855Y-98080951D02*
X215743855Y-98080951D01*
X215743855Y-97547618D02*
X215743855Y-97395237D01*
X215743855Y-97395237D02*
X215781950Y-97319047D01*
X215781950Y-97319047D02*
X215858140Y-97242856D01*
X215858140Y-97242856D02*
X216010521Y-97204761D01*
X216010521Y-97204761D02*
X216277188Y-97204761D01*
X216277188Y-97204761D02*
X216429569Y-97242856D01*
X216429569Y-97242856D02*
X216505760Y-97319047D01*
X216505760Y-97319047D02*
X216543855Y-97395237D01*
X216543855Y-97395237D02*
X216543855Y-97547618D01*
X216543855Y-97547618D02*
X216505760Y-97623809D01*
X216505760Y-97623809D02*
X216429569Y-97699999D01*
X216429569Y-97699999D02*
X216277188Y-97738095D01*
X216277188Y-97738095D02*
X216010521Y-97738095D01*
X216010521Y-97738095D02*
X215858140Y-97699999D01*
X215858140Y-97699999D02*
X215781950Y-97623809D01*
X215781950Y-97623809D02*
X215743855Y-97547618D01*
X216543855Y-96442857D02*
X216543855Y-96900000D01*
X216543855Y-96671428D02*
X215743855Y-96671428D01*
X215743855Y-96671428D02*
X215858140Y-96747619D01*
X215858140Y-96747619D02*
X215934331Y-96823809D01*
X215934331Y-96823809D02*
X215972426Y-96900000D01*
X216543855Y-95680952D02*
X216543855Y-96138095D01*
X216543855Y-95909523D02*
X215743855Y-95909523D01*
X215743855Y-95909523D02*
X215858140Y-95985714D01*
X215858140Y-95985714D02*
X215934331Y-96061904D01*
X215934331Y-96061904D02*
X215972426Y-96138095D01*
X208923855Y-97699999D02*
X208123855Y-97699999D01*
X208123855Y-97166666D02*
X208123855Y-97014285D01*
X208123855Y-97014285D02*
X208161950Y-96938095D01*
X208161950Y-96938095D02*
X208238140Y-96861904D01*
X208238140Y-96861904D02*
X208390521Y-96823809D01*
X208390521Y-96823809D02*
X208657188Y-96823809D01*
X208657188Y-96823809D02*
X208809569Y-96861904D01*
X208809569Y-96861904D02*
X208885760Y-96938095D01*
X208885760Y-96938095D02*
X208923855Y-97014285D01*
X208923855Y-97014285D02*
X208923855Y-97166666D01*
X208923855Y-97166666D02*
X208885760Y-97242857D01*
X208885760Y-97242857D02*
X208809569Y-97319047D01*
X208809569Y-97319047D02*
X208657188Y-97357143D01*
X208657188Y-97357143D02*
X208390521Y-97357143D01*
X208390521Y-97357143D02*
X208238140Y-97319047D01*
X208238140Y-97319047D02*
X208161950Y-97242857D01*
X208161950Y-97242857D02*
X208123855Y-97166666D01*
X208466712Y-96366667D02*
X208428617Y-96442857D01*
X208428617Y-96442857D02*
X208390521Y-96480952D01*
X208390521Y-96480952D02*
X208314331Y-96519048D01*
X208314331Y-96519048D02*
X208276236Y-96519048D01*
X208276236Y-96519048D02*
X208200045Y-96480952D01*
X208200045Y-96480952D02*
X208161950Y-96442857D01*
X208161950Y-96442857D02*
X208123855Y-96366667D01*
X208123855Y-96366667D02*
X208123855Y-96214286D01*
X208123855Y-96214286D02*
X208161950Y-96138095D01*
X208161950Y-96138095D02*
X208200045Y-96100000D01*
X208200045Y-96100000D02*
X208276236Y-96061905D01*
X208276236Y-96061905D02*
X208314331Y-96061905D01*
X208314331Y-96061905D02*
X208390521Y-96100000D01*
X208390521Y-96100000D02*
X208428617Y-96138095D01*
X208428617Y-96138095D02*
X208466712Y-96214286D01*
X208466712Y-96214286D02*
X208466712Y-96366667D01*
X208466712Y-96366667D02*
X208504807Y-96442857D01*
X208504807Y-96442857D02*
X208542902Y-96480952D01*
X208542902Y-96480952D02*
X208619093Y-96519048D01*
X208619093Y-96519048D02*
X208771474Y-96519048D01*
X208771474Y-96519048D02*
X208847664Y-96480952D01*
X208847664Y-96480952D02*
X208885760Y-96442857D01*
X208885760Y-96442857D02*
X208923855Y-96366667D01*
X208923855Y-96366667D02*
X208923855Y-96214286D01*
X208923855Y-96214286D02*
X208885760Y-96138095D01*
X208885760Y-96138095D02*
X208847664Y-96100000D01*
X208847664Y-96100000D02*
X208771474Y-96061905D01*
X208771474Y-96061905D02*
X208619093Y-96061905D01*
X208619093Y-96061905D02*
X208542902Y-96100000D01*
X208542902Y-96100000D02*
X208504807Y-96138095D01*
X208504807Y-96138095D02*
X208466712Y-96214286D01*
X223363855Y-97890476D02*
X223363855Y-97395238D01*
X223363855Y-97395238D02*
X223668617Y-97661904D01*
X223668617Y-97661904D02*
X223668617Y-97547619D01*
X223668617Y-97547619D02*
X223706712Y-97471428D01*
X223706712Y-97471428D02*
X223744807Y-97433333D01*
X223744807Y-97433333D02*
X223820998Y-97395238D01*
X223820998Y-97395238D02*
X224011474Y-97395238D01*
X224011474Y-97395238D02*
X224087664Y-97433333D01*
X224087664Y-97433333D02*
X224125760Y-97471428D01*
X224125760Y-97471428D02*
X224163855Y-97547619D01*
X224163855Y-97547619D02*
X224163855Y-97776190D01*
X224163855Y-97776190D02*
X224125760Y-97852381D01*
X224125760Y-97852381D02*
X224087664Y-97890476D01*
X223363855Y-97166666D02*
X224163855Y-96899999D01*
X224163855Y-96899999D02*
X223363855Y-96633333D01*
X223363855Y-96442857D02*
X223363855Y-95947619D01*
X223363855Y-95947619D02*
X223668617Y-96214285D01*
X223668617Y-96214285D02*
X223668617Y-96100000D01*
X223668617Y-96100000D02*
X223706712Y-96023809D01*
X223706712Y-96023809D02*
X223744807Y-95985714D01*
X223744807Y-95985714D02*
X223820998Y-95947619D01*
X223820998Y-95947619D02*
X224011474Y-95947619D01*
X224011474Y-95947619D02*
X224087664Y-95985714D01*
X224087664Y-95985714D02*
X224125760Y-96023809D01*
X224125760Y-96023809D02*
X224163855Y-96100000D01*
X224163855Y-96100000D02*
X224163855Y-96328571D01*
X224163855Y-96328571D02*
X224125760Y-96404762D01*
X224125760Y-96404762D02*
X224087664Y-96442857D01*
X214003855Y-98080951D02*
X213203855Y-98080951D01*
X213203855Y-97547618D02*
X213203855Y-97395237D01*
X213203855Y-97395237D02*
X213241950Y-97319047D01*
X213241950Y-97319047D02*
X213318140Y-97242856D01*
X213318140Y-97242856D02*
X213470521Y-97204761D01*
X213470521Y-97204761D02*
X213737188Y-97204761D01*
X213737188Y-97204761D02*
X213889569Y-97242856D01*
X213889569Y-97242856D02*
X213965760Y-97319047D01*
X213965760Y-97319047D02*
X214003855Y-97395237D01*
X214003855Y-97395237D02*
X214003855Y-97547618D01*
X214003855Y-97547618D02*
X213965760Y-97623809D01*
X213965760Y-97623809D02*
X213889569Y-97699999D01*
X213889569Y-97699999D02*
X213737188Y-97738095D01*
X213737188Y-97738095D02*
X213470521Y-97738095D01*
X213470521Y-97738095D02*
X213318140Y-97699999D01*
X213318140Y-97699999D02*
X213241950Y-97623809D01*
X213241950Y-97623809D02*
X213203855Y-97547618D01*
X214003855Y-96442857D02*
X214003855Y-96900000D01*
X214003855Y-96671428D02*
X213203855Y-96671428D01*
X213203855Y-96671428D02*
X213318140Y-96747619D01*
X213318140Y-96747619D02*
X213394331Y-96823809D01*
X213394331Y-96823809D02*
X213432426Y-96900000D01*
X213203855Y-95947618D02*
X213203855Y-95871428D01*
X213203855Y-95871428D02*
X213241950Y-95795237D01*
X213241950Y-95795237D02*
X213280045Y-95757142D01*
X213280045Y-95757142D02*
X213356236Y-95719047D01*
X213356236Y-95719047D02*
X213508617Y-95680952D01*
X213508617Y-95680952D02*
X213699093Y-95680952D01*
X213699093Y-95680952D02*
X213851474Y-95719047D01*
X213851474Y-95719047D02*
X213927664Y-95757142D01*
X213927664Y-95757142D02*
X213965760Y-95795237D01*
X213965760Y-95795237D02*
X214003855Y-95871428D01*
X214003855Y-95871428D02*
X214003855Y-95947618D01*
X214003855Y-95947618D02*
X213965760Y-96023809D01*
X213965760Y-96023809D02*
X213927664Y-96061904D01*
X213927664Y-96061904D02*
X213851474Y-96099999D01*
X213851474Y-96099999D02*
X213699093Y-96138095D01*
X213699093Y-96138095D02*
X213508617Y-96138095D01*
X213508617Y-96138095D02*
X213356236Y-96099999D01*
X213356236Y-96099999D02*
X213280045Y-96061904D01*
X213280045Y-96061904D02*
X213241950Y-96023809D01*
X213241950Y-96023809D02*
X213203855Y-95947618D01*
X219083855Y-76699999D02*
X218283855Y-76699999D01*
X218283855Y-76166666D02*
X218283855Y-76014285D01*
X218283855Y-76014285D02*
X218321950Y-75938095D01*
X218321950Y-75938095D02*
X218398140Y-75861904D01*
X218398140Y-75861904D02*
X218550521Y-75823809D01*
X218550521Y-75823809D02*
X218817188Y-75823809D01*
X218817188Y-75823809D02*
X218969569Y-75861904D01*
X218969569Y-75861904D02*
X219045760Y-75938095D01*
X219045760Y-75938095D02*
X219083855Y-76014285D01*
X219083855Y-76014285D02*
X219083855Y-76166666D01*
X219083855Y-76166666D02*
X219045760Y-76242857D01*
X219045760Y-76242857D02*
X218969569Y-76319047D01*
X218969569Y-76319047D02*
X218817188Y-76357143D01*
X218817188Y-76357143D02*
X218550521Y-76357143D01*
X218550521Y-76357143D02*
X218398140Y-76319047D01*
X218398140Y-76319047D02*
X218321950Y-76242857D01*
X218321950Y-76242857D02*
X218283855Y-76166666D01*
X218283855Y-75557143D02*
X218283855Y-75061905D01*
X218283855Y-75061905D02*
X218588617Y-75328571D01*
X218588617Y-75328571D02*
X218588617Y-75214286D01*
X218588617Y-75214286D02*
X218626712Y-75138095D01*
X218626712Y-75138095D02*
X218664807Y-75100000D01*
X218664807Y-75100000D02*
X218740998Y-75061905D01*
X218740998Y-75061905D02*
X218931474Y-75061905D01*
X218931474Y-75061905D02*
X219007664Y-75100000D01*
X219007664Y-75100000D02*
X219045760Y-75138095D01*
X219045760Y-75138095D02*
X219083855Y-75214286D01*
X219083855Y-75214286D02*
X219083855Y-75442857D01*
X219083855Y-75442857D02*
X219045760Y-75519048D01*
X219045760Y-75519048D02*
X219007664Y-75557143D01*
X228443855Y-76509523D02*
X228443855Y-76052380D01*
X229243855Y-76280952D02*
X228443855Y-76280952D01*
X228443855Y-75861904D02*
X229243855Y-75328570D01*
X228443855Y-75328570D02*
X229243855Y-75861904D01*
X228443855Y-97052380D02*
X228443855Y-97433332D01*
X228443855Y-97433332D02*
X228824807Y-97471428D01*
X228824807Y-97471428D02*
X228786712Y-97433332D01*
X228786712Y-97433332D02*
X228748617Y-97357142D01*
X228748617Y-97357142D02*
X228748617Y-97166666D01*
X228748617Y-97166666D02*
X228786712Y-97090475D01*
X228786712Y-97090475D02*
X228824807Y-97052380D01*
X228824807Y-97052380D02*
X228900998Y-97014285D01*
X228900998Y-97014285D02*
X229091474Y-97014285D01*
X229091474Y-97014285D02*
X229167664Y-97052380D01*
X229167664Y-97052380D02*
X229205760Y-97090475D01*
X229205760Y-97090475D02*
X229243855Y-97166666D01*
X229243855Y-97166666D02*
X229243855Y-97357142D01*
X229243855Y-97357142D02*
X229205760Y-97433332D01*
X229205760Y-97433332D02*
X229167664Y-97471428D01*
X228443855Y-96785713D02*
X229243855Y-96519046D01*
X229243855Y-96519046D02*
X228443855Y-96252380D01*
D12*
X181631009Y-88614285D02*
X181678628Y-88471428D01*
X181678628Y-88471428D02*
X181726247Y-88423809D01*
X181726247Y-88423809D02*
X181821485Y-88376190D01*
X181821485Y-88376190D02*
X181964342Y-88376190D01*
X181964342Y-88376190D02*
X182059580Y-88423809D01*
X182059580Y-88423809D02*
X182107200Y-88471428D01*
X182107200Y-88471428D02*
X182154819Y-88566666D01*
X182154819Y-88566666D02*
X182154819Y-88947618D01*
X182154819Y-88947618D02*
X181154819Y-88947618D01*
X181154819Y-88947618D02*
X181154819Y-88614285D01*
X181154819Y-88614285D02*
X181202438Y-88519047D01*
X181202438Y-88519047D02*
X181250057Y-88471428D01*
X181250057Y-88471428D02*
X181345295Y-88423809D01*
X181345295Y-88423809D02*
X181440533Y-88423809D01*
X181440533Y-88423809D02*
X181535771Y-88471428D01*
X181535771Y-88471428D02*
X181583390Y-88519047D01*
X181583390Y-88519047D02*
X181631009Y-88614285D01*
X181631009Y-88614285D02*
X181631009Y-88947618D01*
X181869104Y-87995237D02*
X181869104Y-87519047D01*
X182154819Y-88090475D02*
X181154819Y-87757142D01*
X181154819Y-87757142D02*
X182154819Y-87423809D01*
X181154819Y-87233332D02*
X181154819Y-86661904D01*
X182154819Y-86947618D02*
X181154819Y-86947618D01*
X182154819Y-85804761D02*
X182154819Y-86376189D01*
X182154819Y-86090475D02*
X181154819Y-86090475D01*
X181154819Y-86090475D02*
X181297676Y-86185713D01*
X181297676Y-86185713D02*
X181392914Y-86280951D01*
X181392914Y-86280951D02*
X181440533Y-86376189D01*
X201166666Y-72559819D02*
X201166666Y-73274104D01*
X201166666Y-73274104D02*
X201119047Y-73416961D01*
X201119047Y-73416961D02*
X201023809Y-73512200D01*
X201023809Y-73512200D02*
X200880952Y-73559819D01*
X200880952Y-73559819D02*
X200785714Y-73559819D01*
X202166666Y-73559819D02*
X201595238Y-73559819D01*
X201880952Y-73559819D02*
X201880952Y-72559819D01*
X201880952Y-72559819D02*
X201785714Y-72702676D01*
X201785714Y-72702676D02*
X201690476Y-72797914D01*
X201690476Y-72797914D02*
X201595238Y-72845533D01*
X223916667Y-74282200D02*
X224059524Y-74329819D01*
X224059524Y-74329819D02*
X224297619Y-74329819D01*
X224297619Y-74329819D02*
X224392857Y-74282200D01*
X224392857Y-74282200D02*
X224440476Y-74234580D01*
X224440476Y-74234580D02*
X224488095Y-74139342D01*
X224488095Y-74139342D02*
X224488095Y-74044104D01*
X224488095Y-74044104D02*
X224440476Y-73948866D01*
X224440476Y-73948866D02*
X224392857Y-73901247D01*
X224392857Y-73901247D02*
X224297619Y-73853628D01*
X224297619Y-73853628D02*
X224107143Y-73806009D01*
X224107143Y-73806009D02*
X224011905Y-73758390D01*
X224011905Y-73758390D02*
X223964286Y-73710771D01*
X223964286Y-73710771D02*
X223916667Y-73615533D01*
X223916667Y-73615533D02*
X223916667Y-73520295D01*
X223916667Y-73520295D02*
X223964286Y-73425057D01*
X223964286Y-73425057D02*
X224011905Y-73377438D01*
X224011905Y-73377438D02*
X224107143Y-73329819D01*
X224107143Y-73329819D02*
X224345238Y-73329819D01*
X224345238Y-73329819D02*
X224488095Y-73377438D01*
X224821429Y-73329819D02*
X225059524Y-74329819D01*
X225059524Y-74329819D02*
X225250000Y-73615533D01*
X225250000Y-73615533D02*
X225440476Y-74329819D01*
X225440476Y-74329819D02*
X225678572Y-73329819D01*
X225964286Y-73329819D02*
X226583333Y-73329819D01*
X226583333Y-73329819D02*
X226250000Y-73710771D01*
X226250000Y-73710771D02*
X226392857Y-73710771D01*
X226392857Y-73710771D02*
X226488095Y-73758390D01*
X226488095Y-73758390D02*
X226535714Y-73806009D01*
X226535714Y-73806009D02*
X226583333Y-73901247D01*
X226583333Y-73901247D02*
X226583333Y-74139342D01*
X226583333Y-74139342D02*
X226535714Y-74234580D01*
X226535714Y-74234580D02*
X226488095Y-74282200D01*
X226488095Y-74282200D02*
X226392857Y-74329819D01*
X226392857Y-74329819D02*
X226107143Y-74329819D01*
X226107143Y-74329819D02*
X226011905Y-74282200D01*
X226011905Y-74282200D02*
X225964286Y-74234580D01*
X177366667Y-74157200D02*
X177509524Y-74204819D01*
X177509524Y-74204819D02*
X177747619Y-74204819D01*
X177747619Y-74204819D02*
X177842857Y-74157200D01*
X177842857Y-74157200D02*
X177890476Y-74109580D01*
X177890476Y-74109580D02*
X177938095Y-74014342D01*
X177938095Y-74014342D02*
X177938095Y-73919104D01*
X177938095Y-73919104D02*
X177890476Y-73823866D01*
X177890476Y-73823866D02*
X177842857Y-73776247D01*
X177842857Y-73776247D02*
X177747619Y-73728628D01*
X177747619Y-73728628D02*
X177557143Y-73681009D01*
X177557143Y-73681009D02*
X177461905Y-73633390D01*
X177461905Y-73633390D02*
X177414286Y-73585771D01*
X177414286Y-73585771D02*
X177366667Y-73490533D01*
X177366667Y-73490533D02*
X177366667Y-73395295D01*
X177366667Y-73395295D02*
X177414286Y-73300057D01*
X177414286Y-73300057D02*
X177461905Y-73252438D01*
X177461905Y-73252438D02*
X177557143Y-73204819D01*
X177557143Y-73204819D02*
X177795238Y-73204819D01*
X177795238Y-73204819D02*
X177938095Y-73252438D01*
X178271429Y-73204819D02*
X178509524Y-74204819D01*
X178509524Y-74204819D02*
X178700000Y-73490533D01*
X178700000Y-73490533D02*
X178890476Y-74204819D01*
X178890476Y-74204819D02*
X179128572Y-73204819D01*
X179700000Y-73204819D02*
X179795238Y-73204819D01*
X179795238Y-73204819D02*
X179890476Y-73252438D01*
X179890476Y-73252438D02*
X179938095Y-73300057D01*
X179938095Y-73300057D02*
X179985714Y-73395295D01*
X179985714Y-73395295D02*
X180033333Y-73585771D01*
X180033333Y-73585771D02*
X180033333Y-73823866D01*
X180033333Y-73823866D02*
X179985714Y-74014342D01*
X179985714Y-74014342D02*
X179938095Y-74109580D01*
X179938095Y-74109580D02*
X179890476Y-74157200D01*
X179890476Y-74157200D02*
X179795238Y-74204819D01*
X179795238Y-74204819D02*
X179700000Y-74204819D01*
X179700000Y-74204819D02*
X179604762Y-74157200D01*
X179604762Y-74157200D02*
X179557143Y-74109580D01*
X179557143Y-74109580D02*
X179509524Y-74014342D01*
X179509524Y-74014342D02*
X179461905Y-73823866D01*
X179461905Y-73823866D02*
X179461905Y-73585771D01*
X179461905Y-73585771D02*
X179509524Y-73395295D01*
X179509524Y-73395295D02*
X179557143Y-73300057D01*
X179557143Y-73300057D02*
X179604762Y-73252438D01*
X179604762Y-73252438D02*
X179700000Y-73204819D01*
X209091667Y-74207200D02*
X209234524Y-74254819D01*
X209234524Y-74254819D02*
X209472619Y-74254819D01*
X209472619Y-74254819D02*
X209567857Y-74207200D01*
X209567857Y-74207200D02*
X209615476Y-74159580D01*
X209615476Y-74159580D02*
X209663095Y-74064342D01*
X209663095Y-74064342D02*
X209663095Y-73969104D01*
X209663095Y-73969104D02*
X209615476Y-73873866D01*
X209615476Y-73873866D02*
X209567857Y-73826247D01*
X209567857Y-73826247D02*
X209472619Y-73778628D01*
X209472619Y-73778628D02*
X209282143Y-73731009D01*
X209282143Y-73731009D02*
X209186905Y-73683390D01*
X209186905Y-73683390D02*
X209139286Y-73635771D01*
X209139286Y-73635771D02*
X209091667Y-73540533D01*
X209091667Y-73540533D02*
X209091667Y-73445295D01*
X209091667Y-73445295D02*
X209139286Y-73350057D01*
X209139286Y-73350057D02*
X209186905Y-73302438D01*
X209186905Y-73302438D02*
X209282143Y-73254819D01*
X209282143Y-73254819D02*
X209520238Y-73254819D01*
X209520238Y-73254819D02*
X209663095Y-73302438D01*
X209996429Y-73254819D02*
X210234524Y-74254819D01*
X210234524Y-74254819D02*
X210425000Y-73540533D01*
X210425000Y-73540533D02*
X210615476Y-74254819D01*
X210615476Y-74254819D02*
X210853572Y-73254819D01*
X211186905Y-73350057D02*
X211234524Y-73302438D01*
X211234524Y-73302438D02*
X211329762Y-73254819D01*
X211329762Y-73254819D02*
X211567857Y-73254819D01*
X211567857Y-73254819D02*
X211663095Y-73302438D01*
X211663095Y-73302438D02*
X211710714Y-73350057D01*
X211710714Y-73350057D02*
X211758333Y-73445295D01*
X211758333Y-73445295D02*
X211758333Y-73540533D01*
X211758333Y-73540533D02*
X211710714Y-73683390D01*
X211710714Y-73683390D02*
X211139286Y-74254819D01*
X211139286Y-74254819D02*
X211758333Y-74254819D01*
X192391667Y-74182200D02*
X192534524Y-74229819D01*
X192534524Y-74229819D02*
X192772619Y-74229819D01*
X192772619Y-74229819D02*
X192867857Y-74182200D01*
X192867857Y-74182200D02*
X192915476Y-74134580D01*
X192915476Y-74134580D02*
X192963095Y-74039342D01*
X192963095Y-74039342D02*
X192963095Y-73944104D01*
X192963095Y-73944104D02*
X192915476Y-73848866D01*
X192915476Y-73848866D02*
X192867857Y-73801247D01*
X192867857Y-73801247D02*
X192772619Y-73753628D01*
X192772619Y-73753628D02*
X192582143Y-73706009D01*
X192582143Y-73706009D02*
X192486905Y-73658390D01*
X192486905Y-73658390D02*
X192439286Y-73610771D01*
X192439286Y-73610771D02*
X192391667Y-73515533D01*
X192391667Y-73515533D02*
X192391667Y-73420295D01*
X192391667Y-73420295D02*
X192439286Y-73325057D01*
X192439286Y-73325057D02*
X192486905Y-73277438D01*
X192486905Y-73277438D02*
X192582143Y-73229819D01*
X192582143Y-73229819D02*
X192820238Y-73229819D01*
X192820238Y-73229819D02*
X192963095Y-73277438D01*
X193296429Y-73229819D02*
X193534524Y-74229819D01*
X193534524Y-74229819D02*
X193725000Y-73515533D01*
X193725000Y-73515533D02*
X193915476Y-74229819D01*
X193915476Y-74229819D02*
X194153572Y-73229819D01*
X195058333Y-74229819D02*
X194486905Y-74229819D01*
X194772619Y-74229819D02*
X194772619Y-73229819D01*
X194772619Y-73229819D02*
X194677381Y-73372676D01*
X194677381Y-73372676D02*
X194582143Y-73467914D01*
X194582143Y-73467914D02*
X194486905Y-73515533D01*
X178882200Y-80358332D02*
X178929819Y-80215475D01*
X178929819Y-80215475D02*
X178929819Y-79977380D01*
X178929819Y-79977380D02*
X178882200Y-79882142D01*
X178882200Y-79882142D02*
X178834580Y-79834523D01*
X178834580Y-79834523D02*
X178739342Y-79786904D01*
X178739342Y-79786904D02*
X178644104Y-79786904D01*
X178644104Y-79786904D02*
X178548866Y-79834523D01*
X178548866Y-79834523D02*
X178501247Y-79882142D01*
X178501247Y-79882142D02*
X178453628Y-79977380D01*
X178453628Y-79977380D02*
X178406009Y-80167856D01*
X178406009Y-80167856D02*
X178358390Y-80263094D01*
X178358390Y-80263094D02*
X178310771Y-80310713D01*
X178310771Y-80310713D02*
X178215533Y-80358332D01*
X178215533Y-80358332D02*
X178120295Y-80358332D01*
X178120295Y-80358332D02*
X178025057Y-80310713D01*
X178025057Y-80310713D02*
X177977438Y-80263094D01*
X177977438Y-80263094D02*
X177929819Y-80167856D01*
X177929819Y-80167856D02*
X177929819Y-79929761D01*
X177929819Y-79929761D02*
X177977438Y-79786904D01*
X177929819Y-79453570D02*
X178929819Y-79215475D01*
X178929819Y-79215475D02*
X178215533Y-79024999D01*
X178215533Y-79024999D02*
X178929819Y-78834523D01*
X178929819Y-78834523D02*
X177929819Y-78596428D01*
X178263152Y-77786904D02*
X178929819Y-77786904D01*
X177882200Y-78024999D02*
X178596485Y-78263094D01*
X178596485Y-78263094D02*
X178596485Y-77644047D01*
D11*
%TO.C,U1*%
X206720000Y-95400000D02*
X206720000Y-77400000D01*
X230720000Y-95400000D02*
X206720000Y-95400000D01*
X206720000Y-77400000D02*
X230720000Y-77400000D01*
X230720000Y-77400000D02*
X230720000Y-95400000D01*
%TO.C,SW5*%
X172150000Y-92700000D02*
X176250000Y-92700000D01*
X172150000Y-92700000D02*
X172150000Y-100500000D01*
D13*
X176250000Y-93500000D02*
X176250000Y-92700000D01*
D11*
X176200000Y-95700000D02*
X176200000Y-95000000D01*
X176200000Y-98200000D02*
X176200000Y-97500000D01*
D13*
X176250000Y-99600000D02*
X176250000Y-100500000D01*
D11*
X176200000Y-100500000D02*
X172150000Y-100500000D01*
%TO.C,BAT1*%
X176040000Y-84290000D02*
X176040000Y-86090000D01*
X176040000Y-88460000D02*
X175050000Y-88460000D01*
X176040000Y-90260000D02*
X176040000Y-88460000D01*
X177490000Y-84290000D02*
X176040000Y-84290000D01*
X177490000Y-90260000D02*
X176040000Y-90260000D01*
X180310000Y-88990000D02*
X180310000Y-85560000D01*
%TO.C,J1*%
X196850000Y-98230000D02*
X196850000Y-100890000D01*
X197420000Y-100890000D02*
X196850000Y-100890000D01*
X199960000Y-98230000D02*
X196850000Y-98230000D01*
X202500000Y-100890000D02*
X198940000Y-100890000D01*
X205040000Y-98230000D02*
X201480000Y-98230000D01*
X206560000Y-98230000D02*
X206560000Y-96710000D01*
X207130000Y-98230000D02*
X206560000Y-98230000D01*
X207130000Y-98230000D02*
X207130000Y-100890000D01*
X207130000Y-100890000D02*
X204020000Y-100890000D01*
X219741576Y-103260997D02*
X184161576Y-103260997D01*
X184161576Y-69660997D01*
X219741576Y-69660997D01*
X219741576Y-103260997D01*
%TO.C,SW3*%
X222850000Y-71075000D02*
X222850000Y-70525000D01*
X223875000Y-68950000D02*
X222950000Y-68950000D01*
X227650000Y-68950000D02*
X226725000Y-68950000D01*
X227650000Y-72650000D02*
X222950000Y-72650000D01*
X227750000Y-71075000D02*
X227750000Y-70525000D01*
%TO.C,SW0*%
X176250000Y-71075000D02*
X176250000Y-70525000D01*
X177275000Y-68950000D02*
X176350000Y-68950000D01*
X181050000Y-68950000D02*
X180125000Y-68950000D01*
X181050000Y-72650000D02*
X176350000Y-72650000D01*
X181150000Y-71075000D02*
X181150000Y-70525000D01*
%TO.C,SW2*%
X207800000Y-71075000D02*
X207800000Y-70525000D01*
X208825000Y-68950000D02*
X207900000Y-68950000D01*
X212600000Y-68950000D02*
X211675000Y-68950000D01*
X212600000Y-72650000D02*
X207900000Y-72650000D01*
X212700000Y-71075000D02*
X212700000Y-70525000D01*
%TO.C,SW1*%
X191250000Y-71075000D02*
X191250000Y-70525000D01*
X192275000Y-68950000D02*
X191350000Y-68950000D01*
X196050000Y-68950000D02*
X195125000Y-68950000D01*
X196050000Y-72650000D02*
X191350000Y-72650000D01*
X196150000Y-71075000D02*
X196150000Y-70525000D01*
%TO.C,SW4*%
X173625000Y-76675000D02*
X173625000Y-77600000D01*
X173625000Y-80450000D02*
X173625000Y-81375000D01*
X175750000Y-76575000D02*
X175200000Y-76575000D01*
X175750000Y-81475000D02*
X175200000Y-81475000D01*
X177325000Y-76675000D02*
X177325000Y-81375000D01*
%TD*%
M02*
